<?xml version="1.0" encoding="utf-8" standalone="no"?>
<!DOCTYPE svg PUBLIC "-//W3C//DTD SVG 1.1//EN"
  "http://www.w3.org/Graphics/SVG/1.1/DTD/svg11.dtd">
<!-- Created with matplotlib (https://matplotlib.org/) -->
<svg height="226.8pt" version="1.1" viewBox="0 0 1620 226.8" width="1620pt" xmlns="http://www.w3.org/2000/svg" xmlns:xlink="http://www.w3.org/1999/xlink">
 <defs>
  <style type="text/css">
*{stroke-linecap:butt;stroke-linejoin:round;}
  </style>
 </defs>
 <g id="figure_1">
  <g id="patch_1">
   <path d="M 0 226.8 
L 1620 226.8 
L 1620 0 
L 0 0 
z
" style="fill:#ffffff;"/>
  </g>
  <g id="axes_1">
   <g id="line2d_1">
    <path clip-path="url(#p0b0f862db0)" d="M 115.893974 189.682212 
L 110.258339 188.960756 
L 103.10268 187.799183 
L 91.31245 185.620801 
L 78.000154 183.193978 
L 70.935292 182.096126 
L 64.711303 181.348879 
L 60.354355 181.007211 
L 56.014246 180.872373 
L 52.053269 180.988039 
L 49.000832 181.281833 
L 45.72987 181.856772 
L 43.397261 182.478457 
L 41.371548 183.200293 
L 39.302216 184.155703 
L 37.093048 185.48672 
L 35.273946 186.914672 
L 33.954347 188.286704 
L 33.416981 189.122327 
L 33.307038 189.684695 
L 33.522452 190.008784 
L 34.012305 190.190773 
L 34.979297 190.26802 
L 37.555573 190.147332 
L 47.28092 189.500168 
L 53.836766 189.35183 
L 63.177512 189.435232 
L 111.2368 190.166524 
L 115.758063 190.143887 
L 115.758063 190.143887 
" style="fill:none;stroke:#000000;stroke-linecap:square;stroke-width:1.2;"/>
   </g>
   <g id="line2d_2">
    <path clip-path="url(#p0b0f862db0)" d="M 116.402596 157.523198 
L 113.542347 156.970229 
L 92.304737 152.5899 
L 85.954255 151.563069 
L 79.027867 150.679411 
L 73.90258 150.217626 
L 68.184049 149.9357 
L 62.952182 149.933287 
L 58.421504 150.159997 
L 53.917576 150.622136 
L 49.781594 151.276984 
L 45.747548 152.15597 
L 41.684872 153.329973 
L 38.735378 154.422479 
L 36.646573 155.375987 
L 34.819576 156.41732 
L 33.646786 157.315863 
L 33.129257 158.005892 
L 33.179333 158.328677 
L 33.391717 158.454444 
L 34.198428 158.5415 
L 36.358987 158.37612 
L 44.749658 157.536108 
L 50.393624 157.212357 
L 56.624066 157.090281 
L 62.876821 157.173771 
L 72.881601 157.570091 
L 94.652449 158.530604 
L 104.780468 158.729434 
L 111.801377 158.662327 
L 116.340365 158.414936 
L 116.340365 158.414936 
" style="fill:none;stroke:#000000;stroke-linecap:square;stroke-width:1.2;"/>
   </g>
   <g id="line2d_3">
    <path clip-path="url(#p0b0f862db0)" d="M 117.558028 126.195901 
L 111.052158 124.095038 
L 104.47924 122.221466 
L 97.847688 120.585244 
L 91.165845 119.196329 
L 85.404785 118.210147 
L 79.617988 117.419065 
L 73.810527 116.829196 
L 68.00548 116.452079 
L 63.242034 116.36351 
L 59.474831 116.496562 
L 55.711691 116.82342 
L 51.966257 117.337896 
L 48.293814 118.047848 
L 44.723063 118.982125 
L 41.273491 120.169157 
L 38.79907 121.23479 
L 36.522576 122.450933 
L 35.238326 123.302263 
L 34.278978 124.152696 
L 33.578808 125.059204 
L 33.303965 125.698696 
L 33.310683 126.319565 
L 33.54388 126.759843 
L 34.072149 127.263884 
L 34.802107 127.628899 
L 35.969464 127.888676 
L 38.480048 128.096272 
L 42.159175 128.057435 
L 46.936748 127.729394 
L 60.698752 126.586141 
L 69.569098 126.118852 
L 80.447023 125.784781 
L 91.333573 125.66878 
L 101.213601 125.777975 
L 110.086827 126.080558 
L 117.768766 126.393411 
L 117.768766 126.393411 
" style="fill:none;stroke:#000000;stroke-linecap:square;stroke-width:1.2;"/>
   </g>
   <g id="line2d_4">
    <path clip-path="url(#p0b0f862db0)" d="M 115.183767 94.542826 
L 110.952778 93.483184 
L 105.219798 92.269377 
L 97.45246 90.860652 
L 89.635685 89.653476 
L 81.552754 88.61518 
L 74.269541 87.881145 
L 67.219999 87.394609 
L 61.164969 87.208282 
L 56.234503 87.269841 
L 52.14739 87.51272 
L 48.185061 87.962417 
L 44.524674 88.618912 
L 41.766514 89.314475 
L 39.515489 90.057424 
L 37.239515 91.049683 
L 36.010043 91.753151 
L 34.891707 92.598806 
L 34.262326 93.286255 
L 33.877765 94.089856 
L 33.902154 94.611803 
L 34.161684 94.954673 
L 34.599826 95.117801 
L 35.419379 95.062037 
L 36.61328 94.679968 
L 44.272023 91.563763 
L 46.890965 90.837441 
L 50.221387 90.211883 
L 53.128248 89.903674 
L 55.974298 89.774304 
L 59.339196 89.785894 
L 64.945893 90.056071 
L 73.851054 90.774453 
L 99.722792 93.209757 
L 115.558521 94.846891 
L 115.558521 94.846891 
" style="fill:none;stroke:#000000;stroke-linecap:square;stroke-width:1.2;"/>
   </g>
   <g id="line2d_5">
    <path clip-path="url(#p0b0f862db0)" d="M 113.987017 63.022442 
L 112.226465 62.775951 
L 82.445441 58.828246 
L 74.113777 57.977411 
L 66.693573 57.446511 
L 60.834536 57.244697 
L 55.611892 57.282118 
L 51.022823 57.532242 
L 46.552766 58.02643 
L 43.396052 58.567617 
L 40.210244 59.331936 
L 37.518634 60.226804 
L 35.567041 61.118737 
L 34.53115 61.76048 
L 33.695562 62.563088 
L 33.560555 62.934912 
L 33.665796 63.224282 
L 33.973217 63.445053 
L 34.709976 63.682789 
L 36.529866 63.958977 
L 40.860967 64.290246 
L 51.102491 64.777059 
L 63.773496 65.182027 
L 74.684562 65.305369 
L 84.364567 65.218789 
L 94.44567 64.908161 
L 101.815193 64.493215 
L 108.733514 63.871796 
L 113.927977 63.161091 
L 113.927977 63.161091 
" style="fill:none;stroke:#000000;stroke-linecap:square;stroke-width:1.2;"/>
   </g>
   <g id="line2d_6">
    <path clip-path="url(#p0b0f862db0)" d="M 210.709175 189.361825 
L 202.264364 187.567954 
L 172.218165 181.269931 
L 164.781061 179.968055 
L 159.989964 179.313598 
L 155.297513 178.897366 
L 152.012395 178.786413 
L 148.120944 178.902875 
L 145.393244 179.179562 
L 142.297132 179.729859 
L 139.765233 180.403439 
L 137.2644 181.310278 
L 135.644584 182.053498 
L 133.427935 183.321557 
L 131.568606 184.681934 
L 129.903337 186.252022 
L 129.090284 187.230295 
L 128.376363 188.375647 
L 128.069409 189.368933 
L 128.170213 189.966148 
L 128.416631 190.298678 
L 128.919093 190.639371 
L 129.827455 190.979366 
L 131.309585 191.305177 
L 133.93619 191.64431 
L 137.648319 191.91333 
L 143.837376 192.106134 
L 151.487879 192.096425 
L 160.407917 191.874191 
L 177.647349 191.165526 
L 206.002071 189.796905 
L 210.600889 189.583923 
L 210.600889 189.583923 
" style="fill:none;stroke:#000000;stroke-linecap:square;stroke-width:1.2;"/>
   </g>
   <g id="line2d_7">
    <path clip-path="url(#p0b0f862db0)" d="M 210.562715 157.680283 
L 209.144596 156.947979 
L 205.888872 155.488336 
L 201.101595 153.636798 
L 196.929551 152.233038 
L 191.51307 150.671775 
L 186.54594 149.49729 
L 181.643365 148.585695 
L 177.646252 148.028691 
L 173.005535 147.593102 
L 168.411184 147.382277 
L 163.225984 147.400169 
L 158.482892 147.647799 
L 153.480915 148.148854 
L 148.625527 148.885541 
L 144.381776 149.760644 
L 140.239759 150.872028 
L 136.691922 152.091119 
L 133.918702 153.285329 
L 131.581728 154.541447 
L 129.663494 155.88486 
L 128.848294 156.66335 
L 128.277477 157.566527 
L 128.222214 158.101974 
L 128.338159 158.430599 
L 128.783897 158.912136 
L 129.656486 159.38493 
L 130.895713 159.782854 
L 133.308224 160.227004 
L 135.984211 160.482135 
L 139.857673 160.616948 
L 144.383279 160.558198 
L 150.752883 160.221161 
L 158.796178 159.531981 
L 178.497121 157.692645 
L 186.535723 157.245354 
L 193.634888 157.074935 
L 200.445698 157.13889 
L 205.346606 157.372987 
L 209.049179 157.768031 
L 210.446376 158.075509 
L 210.446376 158.075509 
" style="fill:none;stroke:#000000;stroke-linecap:square;stroke-width:1.2;"/>
   </g>
   <g id="line2d_8">
    <path clip-path="url(#p0b0f862db0)" d="M 211.66673 125.862306 
L 204.61977 123.453101 
L 198.888451 121.863261 
L 193.571661 120.600627 
L 187.489685 119.389654 
L 181.448152 118.439087 
L 176.245134 117.835861 
L 170.523241 117.419705 
L 165.994178 117.282559 
L 160.521629 117.347759 
L 155.252582 117.651639 
L 150.373622 118.15355 
L 145.766595 118.846359 
L 141.983535 119.607625 
L 138.281946 120.570399 
L 135.149475 121.616843 
L 132.559624 122.719253 
L 130.583124 123.792288 
L 128.978365 124.955159 
L 128.167192 125.896916 
L 128.040982 126.327974 
L 128.119945 126.644745 
L 128.421292 126.969965 
L 129.021394 127.302883 
L 130.823116 127.884054 
L 134.101836 128.579654 
L 139.798679 129.454739 
L 146.773745 130.248222 
L 153.541701 130.811509 
L 161.031441 131.211215 
L 167.565395 131.340816 
L 172.580891 131.270835 
L 178.629066 130.956733 
L 183.531117 130.510628 
L 189.801608 129.715634 
L 197.430025 128.489367 
L 211.086385 126.159256 
L 211.556924 126.166373 
L 211.556924 126.166373 
" style="fill:none;stroke:#000000;stroke-linecap:square;stroke-width:1.2;"/>
   </g>
   <g id="line2d_9">
    <path clip-path="url(#p0b0f862db0)" d="M 211.674878 94.245635 
L 209.113725 93.336438 
L 188.503517 85.779417 
L 183.207733 84.190924 
L 178.475636 82.996302 
L 173.61351 82.033933 
L 169.77175 81.488225 
L 165.921287 81.147111 
L 161.999075 81.021294 
L 158.370243 81.109154 
L 154.434401 81.430082 
L 150.579225 81.977615 
L 146.899253 82.727514 
L 143.30794 83.697831 
L 140.491994 84.6538 
L 138.141548 85.615402 
L 135.599183 86.875285 
L 133.117415 88.41706 
L 131.593161 89.592632 
L 129.934694 91.200494 
L 128.954297 92.457203 
L 128.238239 93.845184 
L 128.105813 94.457515 
L 128.192368 95.054435 
L 128.496511 95.442954 
L 129.105517 95.748246 
L 130.171228 95.95266 
L 132.707385 96.031377 
L 138.508513 95.803936 
L 147.818842 95.460376 
L 156.17604 95.393363 
L 182.44138 95.370355 
L 198.506314 95.047673 
L 210.554426 94.770613 
L 211.581474 94.842713 
L 211.581474 94.842713 
" style="fill:none;stroke:#000000;stroke-linecap:square;stroke-width:1.2;"/>
   </g>
   <g id="line2d_10">
    <path clip-path="url(#p0b0f862db0)" d="M 211.924989 62.48294 
L 207.892726 61.298764 
L 203.686816 60.290978 
L 199.491379 59.464964 
L 193.614168 58.565914 
L 187.694782 57.931867 
L 181.411201 57.52883 
L 175.513799 57.382472 
L 169.348343 57.449024 
L 162.117019 57.784849 
L 155.012194 58.354682 
L 147.09725 59.236986 
L 139.767234 60.281736 
L 133.740556 61.369173 
L 130.750049 62.088927 
L 129.118484 62.706365 
L 128.932057 62.930972 
L 129.017174 63.046672 
L 129.467133 63.21015 
L 131.336781 63.476496 
L 136.477532 63.845923 
L 147.976041 64.387688 
L 158.931835 64.7187 
L 166.568078 64.737807 
L 173.345095 64.53795 
L 180.751071 64.104705 
L 192.754587 63.137298 
L 202.525653 62.413896 
L 206.482781 62.289147 
L 209.476813 62.40646 
L 210.818055 62.606985 
L 211.965393 62.971136 
L 211.965393 62.971136 
" style="fill:none;stroke:#000000;stroke-linecap:square;stroke-width:1.2;"/>
   </g>
   <g id="line2d_11">
    <path clip-path="url(#p0b0f862db0)" d="M 306.42581 189.466558 
L 284.797538 186.718224 
L 273.341397 185.556119 
L 263.355902 184.766355 
L 255.29396 184.339372 
L 248.309838 184.192779 
L 243.210609 184.277488 
L 238.650299 184.550867 
L 234.909841 184.970951 
L 232.156282 185.438029 
L 228.941626 186.234558 
L 226.679846 187.058514 
L 224.997539 187.946062 
L 223.887603 188.853219 
L 223.456311 189.507186 
L 223.40563 189.955591 
L 223.607129 190.278094 
L 223.862642 190.432752 
L 224.749342 190.63858 
L 225.737289 190.701589 
L 231.454897 190.629255 
L 239.076442 190.591157 
L 249.39728 190.791627 
L 276.622455 191.480766 
L 286.982241 191.479086 
L 296.324264 191.254751 
L 301.555381 190.969773 
L 305.507788 190.557425 
L 306.445091 190.383873 
L 306.445091 190.383873 
" style="fill:none;stroke:#000000;stroke-linecap:square;stroke-width:1.2;"/>
   </g>
   <g id="line2d_12">
    <path clip-path="url(#p0b0f862db0)" d="M 303.738514 157.795451 
L 301.77295 157.57491 
L 292.462941 156.484261 
L 278.871388 154.61155 
L 260.540299 152.050623 
L 254.46623 151.402593 
L 249.422809 151.066964 
L 244.544206 151.008008 
L 241.068575 151.175292 
L 238.171969 151.476138 
L 234.716218 152.062585 
L 231.833203 152.780328 
L 229.632772 153.504008 
L 227.450306 154.423797 
L 226.067194 155.158027 
L 224.670776 156.109728 
L 223.832023 156.918274 
L 223.386349 157.678792 
L 223.328673 158.158405 
L 223.526745 158.667085 
L 224.121398 159.179947 
L 225.212801 159.618142 
L 226.695156 159.895661 
L 229.210688 160.02879 
L 232.833991 159.9118 
L 241.923142 159.248027 
L 250.154275 158.756498 
L 258.951233 158.468691 
L 269.352235 158.34531 
L 303.530004 158.214382 
L 303.530004 158.214382 
" style="fill:none;stroke:#000000;stroke-linecap:square;stroke-width:1.2;"/>
   </g>
   <g id="line2d_13">
    <path clip-path="url(#p0b0f862db0)" d="M 305.020852 126.459623 
L 303.324297 125.951505 
L 295.779028 123.891966 
L 288.619278 122.179195 
L 281.808045 120.770766 
L 275.078692 119.613433 
L 268.757144 118.76832 
L 263.270936 118.252494 
L 257.837927 117.967391 
L 252.678123 117.928516 
L 247.642511 118.131351 
L 243.583974 118.485671 
L 239.625481 119.015803 
L 236.228483 119.640649 
L 232.776306 120.479418 
L 230.047454 121.345145 
L 227.628394 122.351576 
L 225.914852 123.312291 
L 224.902588 124.082459 
L 224.098445 124.984286 
L 223.731397 125.791429 
L 223.715301 126.546249 
L 223.804836 126.845774 
L 224.063945 127.315156 
L 224.925709 128.156255 
L 225.900788 128.759541 
L 227.170302 129.338235 
L 229.432482 130.088326 
L 232.778407 130.855696 
L 236.788632 131.477495 
L 241.460804 131.949461 
L 247.385467 132.279888 
L 253.391155 132.377547 
L 259.678846 132.260623 
L 266.220147 131.928312 
L 274.124851 131.279018 
L 281.552856 130.457069 
L 290.324655 129.251967 
L 299.642404 127.701678 
L 305.074326 126.731581 
L 305.074326 126.731581 
" style="fill:none;stroke:#000000;stroke-linecap:square;stroke-width:1.2;"/>
   </g>
   <g id="line2d_14">
    <path clip-path="url(#p0b0f862db0)" d="M 305.868667 94.883393 
L 303.097584 94.390598 
L 288.967957 91.872711 
L 277.559653 90.072412 
L 267.920985 88.779327 
L 259.918685 87.94452 
L 254.622982 87.587641 
L 249.921743 87.464062 
L 246.221667 87.521983 
L 242.097751 87.769521 
L 238.638569 88.146156 
L 235.020319 88.738291 
L 231.683884 89.518358 
L 228.753448 90.476954 
L 226.582469 91.465404 
L 225.188742 92.338803 
L 224.027776 93.409509 
L 223.497678 94.291785 
L 223.396336 94.811073 
L 223.493412 95.245281 
L 223.735059 95.5433 
L 224.235944 95.809663 
L 225.632984 96.039273 
L 228.691541 96.044887 
L 240.266001 95.798815 
L 249.443784 95.910539 
L 280.61668 96.571325 
L 290.073537 96.460823 
L 298.010984 96.124243 
L 303.110724 95.677318 
L 306.00789 95.175725 
L 306.00789 95.175725 
" style="fill:none;stroke:#000000;stroke-linecap:square;stroke-width:1.2;"/>
   </g>
   <g id="line2d_15">
    <path clip-path="url(#p0b0f862db0)" d="M 304.637386 63.023336 
L 303.931508 62.889701 
L 295.295358 61.506711 
L 286.276367 60.303251 
L 276.514275 59.247841 
L 267.720407 58.514457 
L 259.294348 58.022138 
L 251.678382 57.791468 
L 245.275174 57.808683 
L 240.075483 58.027262 
L 236.057307 58.38117 
L 232.065033 58.973443 
L 229.507059 59.543448 
L 227.027707 60.328662 
L 225.443881 61.046133 
L 224.43213 61.700471 
L 223.855467 62.268066 
L 223.548804 62.881007 
L 223.54516 63.295309 
L 223.628554 63.529299 
L 224.124316 64.050914 
L 225.026572 64.447783 
L 226.293997 64.710746 
L 228.540775 64.902128 
L 233.923212 65.000711 
L 246.723573 65.196378 
L 266.130035 65.53178 
L 275.937443 65.502542 
L 284.559873 65.301236 
L 292.688441 64.89345 
L 298.743738 64.358325 
L 302.551804 63.81839 
L 305.001773 63.27926 
L 305.001773 63.27926 
" style="fill:none;stroke:#000000;stroke-linecap:square;stroke-width:1.2;"/>
   </g>
   <g id="text_1">
    <!-- (a) Data -->
    <defs>
     <path d="M 31 75.875 
Q 24.46875 64.65625 21.28125 53.65625 
Q 18.109375 42.671875 18.109375 31.390625 
Q 18.109375 20.125 21.3125 9.0625 
Q 24.515625 -2 31 -13.1875 
L 23.1875 -13.1875 
Q 15.875 -1.703125 12.234375 9.375 
Q 8.59375 20.453125 8.59375 31.390625 
Q 8.59375 42.28125 12.203125 53.3125 
Q 15.828125 64.359375 23.1875 75.875 
z
" id="DejaVuSans-40"/>
     <path d="M 34.28125 27.484375 
Q 23.390625 27.484375 19.1875 25 
Q 14.984375 22.515625 14.984375 16.5 
Q 14.984375 11.71875 18.140625 8.90625 
Q 21.296875 6.109375 26.703125 6.109375 
Q 34.1875 6.109375 38.703125 11.40625 
Q 43.21875 16.703125 43.21875 25.484375 
L 43.21875 27.484375 
z
M 52.203125 31.203125 
L 52.203125 0 
L 43.21875 0 
L 43.21875 8.296875 
Q 40.140625 3.328125 35.546875 0.953125 
Q 30.953125 -1.421875 24.3125 -1.421875 
Q 15.921875 -1.421875 10.953125 3.296875 
Q 6 8.015625 6 15.921875 
Q 6 25.140625 12.171875 29.828125 
Q 18.359375 34.515625 30.609375 34.515625 
L 43.21875 34.515625 
L 43.21875 35.40625 
Q 43.21875 41.609375 39.140625 45 
Q 35.0625 48.390625 27.6875 48.390625 
Q 23 48.390625 18.546875 47.265625 
Q 14.109375 46.140625 10.015625 43.890625 
L 10.015625 52.203125 
Q 14.9375 54.109375 19.578125 55.046875 
Q 24.21875 56 28.609375 56 
Q 40.484375 56 46.34375 49.84375 
Q 52.203125 43.703125 52.203125 31.203125 
z
" id="DejaVuSans-97"/>
     <path d="M 8.015625 75.875 
L 15.828125 75.875 
Q 23.140625 64.359375 26.78125 53.3125 
Q 30.421875 42.28125 30.421875 31.390625 
Q 30.421875 20.453125 26.78125 9.375 
Q 23.140625 -1.703125 15.828125 -13.1875 
L 8.015625 -13.1875 
Q 14.5 -2 17.703125 9.0625 
Q 20.90625 20.125 20.90625 31.390625 
Q 20.90625 42.671875 17.703125 53.65625 
Q 14.5 64.65625 8.015625 75.875 
z
" id="DejaVuSans-41"/>
     <path id="DejaVuSans-32"/>
     <path d="M 19.671875 64.796875 
L 19.671875 8.109375 
L 31.59375 8.109375 
Q 46.6875 8.109375 53.6875 14.9375 
Q 60.6875 21.78125 60.6875 36.53125 
Q 60.6875 51.171875 53.6875 57.984375 
Q 46.6875 64.796875 31.59375 64.796875 
z
M 9.8125 72.90625 
L 30.078125 72.90625 
Q 51.265625 72.90625 61.171875 64.09375 
Q 71.09375 55.28125 71.09375 36.53125 
Q 71.09375 17.671875 61.125 8.828125 
Q 51.171875 0 30.078125 0 
L 9.8125 0 
z
" id="DejaVuSans-68"/>
     <path d="M 18.3125 70.21875 
L 18.3125 54.6875 
L 36.8125 54.6875 
L 36.8125 47.703125 
L 18.3125 47.703125 
L 18.3125 18.015625 
Q 18.3125 11.328125 20.140625 9.421875 
Q 21.96875 7.515625 27.59375 7.515625 
L 36.8125 7.515625 
L 36.8125 0 
L 27.59375 0 
Q 17.1875 0 13.234375 3.875 
Q 9.28125 7.765625 9.28125 18.015625 
L 9.28125 47.703125 
L 2.6875 47.703125 
L 2.6875 54.6875 
L 9.28125 54.6875 
L 9.28125 70.21875 
z
" id="DejaVuSans-116"/>
    </defs>
    <g transform="translate(125.511187 36)scale(0.216 -0.216)">
     <use xlink:href="#DejaVuSans-40"/>
     <use x="39.013672" xlink:href="#DejaVuSans-97"/>
     <use x="100.292969" xlink:href="#DejaVuSans-41"/>
     <use x="139.306641" xlink:href="#DejaVuSans-32"/>
     <use x="171.09375" xlink:href="#DejaVuSans-68"/>
     <use x="248.095703" xlink:href="#DejaVuSans-97"/>
     <use x="309.375" xlink:href="#DejaVuSans-116"/>
     <use x="348.583984" xlink:href="#DejaVuSans-97"/>
    </g>
   </g>
  </g>
  <g id="axes_2">
   <g id="line2d_16">
    <path clip-path="url(#p77d977792d)" d="M 432.639027 195.28978 
L 429.262623 193.89388 
L 426.075487 192.775074 
L 421.845886 191.552025 
L 416.905587 190.4056 
L 411.456312 189.387311 
L 404.821375 188.401573 
L 398.322389 187.672195 
L 392.782656 187.253633 
L 387.54405 187.067853 
L 383.061677 187.101444 
L 378.516721 187.341427 
L 373.630237 187.855107 
L 369.865182 188.449393 
L 365.29318 189.433706 
L 361.847351 190.401413 
L 358.984582 191.397444 
L 356.373002 192.53441 
L 354.553264 193.589843 
L 353.750913 194.312212 
L 353.572891 194.729935 
L 353.69167 195.031088 
L 354.109148 195.289407 
L 355.033289 195.526292 
L 357.01699 195.728898 
L 360.476786 195.815376 
L 366.037301 195.717633 
L 374.903876 195.320301 
L 404.094425 193.822922 
L 414.015565 193.648258 
L 420.973097 193.74063 
L 425.334134 193.988873 
L 428.62651 194.375703 
L 430.655454 194.782346 
L 431.936073 195.172135 
L 432.636609 195.47336 
L 432.636609 195.47336 
" style="fill:none;stroke:#000000;stroke-linecap:square;stroke-width:1.2;"/>
   </g>
   <g id="line2d_17">
    <path clip-path="url(#p77d977792d)" d="M 432.482428 163.625137 
L 429.506335 162.898376 
L 423.982061 161.771351 
L 417.948099 160.769508 
L 407.497172 159.309471 
L 395.626823 157.861878 
L 389.140211 157.26743 
L 383.623883 156.982627 
L 378.310707 156.966443 
L 373.889319 157.177867 
L 369.050738 157.670036 
L 365.20921 158.278048 
L 361.754433 159.018379 
L 358.463536 159.944555 
L 355.745853 160.966678 
L 354.173705 161.795603 
L 353.358182 162.521184 
L 353.23387 162.819355 
L 353.322439 163.187965 
L 353.759492 163.546989 
L 354.837099 163.949532 
L 356.257878 164.256258 
L 358.952044 164.612831 
L 362.82031 164.904842 
L 368.682796 165.10412 
L 376.23392 165.107076 
L 384.976683 164.871422 
L 397.813672 164.255407 
L 413.8271 163.523146 
L 424.314018 163.21683 
L 428.49953 163.257568 
L 431.277072 163.507008 
L 432.464818 163.812759 
L 432.464818 163.812759 
" style="fill:none;stroke:#000000;stroke-linecap:square;stroke-width:1.2;"/>
   </g>
   <g id="line2d_18">
    <path clip-path="url(#p77d977792d)" d="M 435.205581 131.438816 
L 434.708946 131.097825 
L 431.752272 129.345907 
L 428.588766 127.802415 
L 424.45941 126.082914 
L 419.470353 124.288883 
L 415.220327 122.952674 
L 410.294381 121.614107 
L 405.334461 120.509514 
L 401.194466 119.794957 
L 397.561359 119.33852 
L 393.458465 119.028047 
L 389.093978 118.946853 
L 385.298324 119.089656 
L 381.8652 119.391479 
L 377.6146 119.99458 
L 374.989723 120.49601 
L 370.981009 121.459219 
L 366.796257 122.738187 
L 363.07722 124.143522 
L 359.47359 125.810746 
L 357.157292 127.109095 
L 355.123653 128.510562 
L 354.168691 129.361921 
L 353.478324 130.317883 
L 353.383904 130.776024 
L 353.544586 131.220252 
L 353.880641 131.530927 
L 354.559486 131.871615 
L 355.5402 132.174711 
L 357.84023 132.610869 
L 360.907354 132.970289 
L 366.047864 133.339355 
L 373.187458 133.605727 
L 381.533715 133.690921 
L 390.310937 133.575525 
L 400.081486 133.214412 
L 408.985345 132.659444 
L 421.363136 131.617055 
L 429.012185 131.057015 
L 431.952611 131.017087 
L 433.767483 131.174169 
L 434.719996 131.411564 
L 435.224857 131.657462 
L 435.224857 131.657462 
" style="fill:none;stroke:#000000;stroke-linecap:square;stroke-width:1.2;"/>
   </g>
   <g id="line2d_19">
    <path clip-path="url(#p77d977792d)" d="M 430.476499 99.686729 
L 427.108244 98.842801 
L 421.26602 97.57657 
L 414.378128 96.326499 
L 397.928753 93.668013 
L 390.623931 92.624342 
L 385.461726 92.083191 
L 381.328214 91.822656 
L 377.296868 91.746969 
L 373.264028 91.874302 
L 369.480604 92.207384 
L 365.688305 92.789294 
L 362.30883 93.571056 
L 359.204949 94.58758 
L 357.029068 95.55411 
L 355.11328 96.706165 
L 354.179294 97.473256 
L 353.423789 98.39733 
L 353.237449 98.866232 
L 353.304218 99.389829 
L 353.564082 99.647054 
L 354.032577 99.833685 
L 354.964707 99.945475 
L 356.967959 99.851086 
L 360.185136 99.422284 
L 369.626283 97.806671 
L 377.642553 96.520767 
L 383.727654 95.739008 
L 389.06137 95.2651 
L 394.373524 95.046933 
L 399.47324 95.105544 
L 404.11333 95.377914 
L 409.580859 95.919127 
L 416.319264 96.83033 
L 422.497601 97.869948 
L 427.412334 98.914515 
L 429.83467 99.625432 
L 430.475107 99.883182 
L 430.475107 99.883182 
" style="fill:none;stroke:#000000;stroke-linecap:square;stroke-width:1.2;"/>
   </g>
   <g id="line2d_20">
    <path clip-path="url(#p77d977792d)" d="M 435.530095 67.408668 
L 433.847325 66.293424 
L 432.148006 65.354509 
L 429.381235 64.123184 
L 426.31233 63.038116 
L 421.780178 61.764674 
L 416.587048 60.617372 
L 411.468953 59.72143 
L 405.44535 58.914605 
L 399.66864 58.379386 
L 393.975123 58.092751 
L 389.492816 58.054316 
L 384.167724 58.251299 
L 380.381589 58.568736 
L 376.039098 59.129853 
L 372.282083 59.795317 
L 367.404254 60.924142 
L 363.58687 62.034205 
L 359.847788 63.346857 
L 356.792939 64.641719 
L 354.863175 65.643763 
L 353.845458 66.340168 
L 353.442214 66.871851 
L 353.460896 67.055413 
L 353.723582 67.3018 
L 354.276632 67.515915 
L 355.978256 67.859355 
L 360.05961 68.338997 
L 366.70612 68.850216 
L 374.966837 69.261768 
L 383.49187 69.481746 
L 391.400821 69.485979 
L 398.941558 69.266859 
L 405.948148 68.835095 
L 413.779601 68.126479 
L 427.764833 66.768121 
L 430.699304 66.660611 
L 432.741295 66.751884 
L 434.229331 67.022714 
L 435.037479 67.332316 
L 435.517734 67.638057 
L 435.517734 67.638057 
" style="fill:none;stroke:#000000;stroke-linecap:square;stroke-width:1.2;"/>
   </g>
   <g id="line2d_21">
    <path clip-path="url(#p77d977792d)" d="M 528.899063 195.23697 
L 526.154017 193.757769 
L 522.414613 191.999263 
L 518.363691 190.331812 
L 512.920168 188.350833 
L 507.522274 186.613734 
L 502.182354 185.113813 
L 496.957937 183.893508 
L 492.809407 183.135631 
L 488.31619 182.560355 
L 484.201969 182.279652 
L 480.486433 182.240075 
L 476.536024 182.429754 
L 473.549603 182.738086 
L 469.702491 183.356805 
L 466.075439 184.187973 
L 462.680558 185.211977 
L 459.323594 186.500471 
L 456.469621 187.863492 
L 453.91477 189.36039 
L 452.139917 190.617762 
L 450.515509 192.018668 
L 449.272506 193.429098 
L 448.80898 194.21407 
L 448.652721 194.958095 
L 448.748345 195.254784 
L 449.029947 195.539717 
L 449.486326 195.746753 
L 450.623111 195.952685 
L 452.373921 196.024299 
L 456.414295 195.893917 
L 465.8629 195.267321 
L 479.459837 194.42434 
L 490.28146 193.987675 
L 503.128293 193.692664 
L 513.620221 193.649867 
L 520.041117 193.853301 
L 524.000888 194.201275 
L 525.87629 194.491863 
L 528.230571 195.11321 
L 528.923526 195.420283 
L 528.923526 195.420283 
" style="fill:none;stroke:#000000;stroke-linecap:square;stroke-width:1.2;"/>
   </g>
   <g id="line2d_22">
    <path clip-path="url(#p77d977792d)" d="M 524.328852 163.50868 
L 519.574519 162.707153 
L 504.026663 160.362017 
L 491.721495 158.372872 
L 481.087257 156.674702 
L 476.074709 156.093046 
L 471.38331 155.794949 
L 467.908183 155.773283 
L 464.764313 155.92985 
L 461.762986 156.263258 
L 458.983452 156.763012 
L 456.412215 157.426037 
L 454.20802 158.190569 
L 451.790173 159.320821 
L 450.026046 160.455302 
L 448.90125 161.455933 
L 448.182948 162.452709 
L 448.000293 163.095446 
L 448.099635 163.574737 
L 448.490889 163.997021 
L 449.157653 164.316557 
L 450.23431 164.579476 
L 452.224727 164.801259 
L 454.940939 164.900219 
L 460.054812 164.853897 
L 469.623302 164.507346 
L 494.680923 163.54144 
L 514.021813 163.026701 
L 519.579107 163.096231 
L 522.803433 163.361008 
L 524.407881 163.689084 
L 524.407881 163.689084 
" style="fill:none;stroke:#000000;stroke-linecap:square;stroke-width:1.2;"/>
   </g>
   <g id="line2d_23">
    <path clip-path="url(#p77d977792d)" d="M 528.457685 131.905935 
L 525.965282 131.352907 
L 518.567937 129.925826 
L 497.517603 125.973397 
L 489.268978 124.48732 
L 484.294108 123.788674 
L 479.958916 123.374805 
L 475.990572 123.191047 
L 472.142943 123.215742 
L 467.940977 123.498076 
L 464.994346 123.873816 
L 461.784956 124.473103 
L 459.519732 125.03333 
L 457.093549 125.783554 
L 454.185454 126.944089 
L 451.990591 128.092315 
L 450.128859 129.403945 
L 449.234453 130.331444 
L 448.975503 130.782313 
L 448.947128 131.285682 
L 449.15228 131.526151 
L 449.575046 131.705126 
L 450.498967 131.830875 
L 452.557867 131.813286 
L 456.926391 131.502341 
L 469.653582 130.525305 
L 477.354176 130.157823 
L 484.632972 130.031529 
L 491.941435 130.12503 
L 502.272875 130.525591 
L 526.024603 131.742257 
L 528.000084 131.977464 
L 528.474049 132.096352 
L 528.474049 132.096352 
" style="fill:none;stroke:#000000;stroke-linecap:square;stroke-width:1.2;"/>
   </g>
   <g id="line2d_24">
    <path clip-path="url(#p77d977792d)" d="M 528.902919 99.223596 
L 526.167521 97.713935 
L 522.371184 95.926811 
L 518.299091 94.311625 
L 514.186237 92.902036 
L 509.140632 91.402659 
L 504.404686 90.196796 
L 499.395266 89.136046 
L 494.376838 88.319997 
L 490.189496 87.853262 
L 486.570503 87.622136 
L 482.577381 87.563091 
L 478.277999 87.737123 
L 473.821601 88.184512 
L 469.908399 88.809561 
L 466.459144 89.551152 
L 462.75793 90.56438 
L 459.335815 91.730819 
L 456.407111 92.943016 
L 454.062062 94.099748 
L 451.630511 95.560491 
L 450.135365 96.700073 
L 449.393141 97.428849 
L 448.811959 98.298391 
L 448.710214 98.727602 
L 448.797534 99.137531 
L 449.022271 99.428347 
L 449.493205 99.742292 
L 450.167997 100.008101 
L 452.25493 100.444392 
L 455.61996 100.763292 
L 459.881046 100.917746 
L 466.350459 100.90049 
L 474.672548 100.62313 
L 484.85905 100.038089 
L 498.690727 98.987477 
L 511.584251 98.024716 
L 517.447199 97.813281 
L 521.094781 97.86899 
L 523.560119 98.049619 
L 525.550252 98.330523 
L 527.536483 98.814243 
L 528.947237 99.412768 
L 528.947237 99.412768 
" style="fill:none;stroke:#000000;stroke-linecap:square;stroke-width:1.2;"/>
   </g>
   <g id="line2d_25">
    <path clip-path="url(#p77d977792d)" d="M 529.629986 67.496578 
L 528.747031 67.067871 
L 523.628763 64.885759 
L 518.204206 62.850778 
L 511.093768 60.412501 
L 503.63605 58.091376 
L 497.714151 56.457443 
L 492.495303 55.224976 
L 487.761005 54.326766 
L 483.949068 53.790825 
L 480.453699 53.471141 
L 476.791764 53.335701 
L 472.913767 53.441817 
L 469.833396 53.730551 
L 467.133586 54.150052 
L 464.027171 54.849968 
L 460.987494 55.795521 
L 458.514355 56.791626 
L 455.901392 58.116581 
L 453.614348 59.570282 
L 451.955857 60.853547 
L 450.560723 62.13995 
L 449.127735 63.76356 
L 448.116125 65.272402 
L 447.688881 66.182401 
L 447.489591 67.171203 
L 447.5733 67.632 
L 447.788164 67.999798 
L 448.457499 68.50844 
L 449.51467 68.90845 
L 451.616602 69.332393 
L 454.281938 69.628342 
L 459.380671 69.916692 
L 466.777265 70.06165 
L 476.237101 70.014677 
L 487.032234 69.726805 
L 496.441168 69.257457 
L 506.138964 68.549702 
L 524.288786 67.099144 
L 526.844376 67.121996 
L 528.539482 67.320174 
L 529.692076 67.693212 
L 529.692076 67.693212 
" style="fill:none;stroke:#000000;stroke-linecap:square;stroke-width:1.2;"/>
   </g>
   <g id="line2d_26">
    <path clip-path="url(#p77d977792d)" d="M 626.557091 195.293573 
L 624.82298 194.094676 
L 622.568249 192.739994 
L 619.528914 191.170356 
L 616.478848 189.791357 
L 612.201935 188.084072 
L 607.655811 186.495064 
L 603.204079 185.141491 
L 598.214504 183.866397 
L 593.455822 182.909181 
L 589.508768 182.326235 
L 585.692111 181.959206 
L 581.417119 181.79099 
L 577.643899 181.864343 
L 574.261629 182.11221 
L 571.122165 182.500571 
L 567.065253 183.236591 
L 563.289712 184.172476 
L 559.746017 185.2911 
L 556.116084 186.710929 
L 553.03172 188.17786 
L 550.196583 189.798679 
L 547.787556 191.473328 
L 546.184327 192.858104 
L 545.212048 193.99101 
L 544.918224 194.616534 
L 544.996958 195.100404 
L 545.258153 195.316806 
L 546.040049 195.551029 
L 548.051401 195.695556 
L 552.512018 195.624393 
L 582.561327 194.63697 
L 617.08058 194.267582 
L 621.149909 194.410091 
L 624.176025 194.742037 
L 626.039031 195.244522 
L 626.553982 195.503305 
L 626.553982 195.503305 
" style="fill:none;stroke:#000000;stroke-linecap:square;stroke-width:1.2;"/>
   </g>
   <g id="line2d_27">
    <path clip-path="url(#p77d977792d)" d="M 622.551117 163.900189 
L 620.790659 163.75645 
L 597.824287 162.173266 
L 589.162972 161.28586 
L 567.700708 158.890374 
L 562.449458 158.652231 
L 558.259626 158.690745 
L 554.48606 158.954564 
L 551.670755 159.337765 
L 548.856161 159.94762 
L 546.962327 160.558989 
L 545.320692 161.345896 
L 544.513481 161.945692 
L 543.958209 162.705234 
L 543.864107 163.149466 
L 543.945665 163.601319 
L 544.16717 163.991902 
L 544.694347 164.50932 
L 545.382222 164.952168 
L 546.75252 165.560716 
L 548.63691 166.137754 
L 551.726982 166.777736 
L 555.585098 167.289167 
L 559.990857 167.636048 
L 565.452062 167.825763 
L 571.487357 167.801835 
L 578.056684 167.548899 
L 585.749459 166.997853 
L 594.223879 166.142568 
L 612.363621 164.201129 
L 617.297492 163.86967 
L 620.440417 163.833408 
L 621.79818 163.942971 
L 622.5418 164.109067 
L 622.5418 164.109067 
" style="fill:none;stroke:#000000;stroke-linecap:square;stroke-width:1.2;"/>
   </g>
   <g id="line2d_28">
    <path clip-path="url(#p77d977792d)" d="M 625.717575 130.983993 
L 623.593776 129.505181 
L 621.589956 128.302506 
L 618.897271 126.945698 
L 616.178197 125.807449 
L 612.814876 124.635808 
L 609.136338 123.579828 
L 604.719861 122.556796 
L 599.848084 121.689906 
L 595.768371 121.155883 
L 591.24013 120.758273 
L 586.750566 120.560585 
L 581.952116 120.559063 
L 577.186918 120.765845 
L 572.207867 121.199877 
L 567.136841 121.87379 
L 562.366065 122.73493 
L 557.937567 123.758466 
L 553.969323 124.903035 
L 550.806592 126.027393 
L 548.214746 127.171342 
L 546.335869 128.241507 
L 545.2831 129.057612 
L 544.593437 129.918834 
L 544.432059 130.44983 
L 544.514548 130.969456 
L 544.885925 131.492382 
L 545.437008 131.916128 
L 546.458209 132.430535 
L 547.791165 132.901772 
L 550.502163 133.568825 
L 553.996584 134.146832 
L 557.963672 134.582163 
L 562.93151 134.897772 
L 568.528907 135.007599 
L 574.477192 134.863834 
L 579.605664 134.519326 
L 584.102768 134.030777 
L 589.021553 133.263591 
L 593.433356 132.331199 
L 597.804879 131.159205 
L 607.090765 128.450604 
L 609.486255 127.995096 
L 612.16379 127.717329 
L 614.227276 127.686137 
L 616.183674 127.810886 
L 618.351593 128.133005 
L 620.458961 128.646495 
L 622.272324 129.270163 
L 624.332808 130.248193 
L 625.743435 131.200724 
L 625.743435 131.200724 
" style="fill:none;stroke:#000000;stroke-linecap:square;stroke-width:1.2;"/>
   </g>
   <g id="line2d_29">
    <path clip-path="url(#p77d977792d)" d="M 624.754895 99.239741 
L 620.507333 97.349791 
L 617.694258 96.365633 
L 614.692458 95.55158 
L 611.111655 94.846705 
L 607.037774 94.313099 
L 602.291687 93.946526 
L 596.197053 93.739575 
L 588.531471 93.732666 
L 579.590242 93.956428 
L 571.827108 94.358913 
L 565.026659 94.920815 
L 559.220716 95.598333 
L 554.7045 96.287046 
L 550.482607 97.115239 
L 547.320191 97.963191 
L 545.942404 98.557218 
L 545.659712 98.842042 
L 545.673507 99.02238 
L 545.877223 99.194297 
L 546.539835 99.420301 
L 548.278997 99.68533 
L 551.045104 99.864175 
L 555.675497 99.90952 
L 561.711321 99.707424 
L 568.01467 99.270667 
L 574.985058 98.54842 
L 581.86151 97.579594 
L 588.480523 96.394541 
L 597.464158 94.733186 
L 601.042852 94.347658 
L 603.940093 94.235571 
L 606.788275 94.307387 
L 610.07425 94.612211 
L 613.311196 95.145952 
L 616.354058 95.870756 
L 619.492877 96.877477 
L 621.298471 97.603561 
L 623.911406 98.933773 
L 624.702041 99.442944 
L 624.702041 99.442944 
" style="fill:none;stroke:#000000;stroke-linecap:square;stroke-width:1.2;"/>
   </g>
   <g id="line2d_30">
    <path clip-path="url(#p77d977792d)" d="M 626.094318 67.556468 
L 624.28408 66.741855 
L 621.23284 65.568337 
L 617.669114 64.446116 
L 613.176407 63.289582 
L 607.752053 62.135306 
L 601.750449 61.074956 
L 595.437455 60.185471 
L 589.962483 59.625157 
L 585.079234 59.314522 
L 580.461585 59.198129 
L 574.711665 59.304018 
L 569.491704 59.64788 
L 564.92288 60.151189 
L 560.437603 60.845529 
L 557.615295 61.398063 
L 552.664074 62.641635 
L 549.482388 63.712286 
L 547.705897 64.47855 
L 546.208415 65.329847 
L 545.216235 66.237046 
L 544.978349 66.749034 
L 545.02566 67.282878 
L 545.420657 67.814163 
L 546.057049 68.259449 
L 547.293024 68.81516 
L 548.915226 69.324473 
L 552.248926 70.05492 
L 556.455115 70.679801 
L 561.182899 71.151407 
L 566.727979 71.48225 
L 572.687896 71.615314 
L 578.665407 71.530132 
L 584.956138 71.189647 
L 590.592382 70.629103 
L 594.630547 70.047134 
L 599.718351 69.068228 
L 610.74391 66.708013 
L 614.323259 66.288278 
L 617.025522 66.156784 
L 619.739475 66.212776 
L 622.049112 66.449575 
L 624.191872 66.904898 
L 625.482119 67.38742 
L 626.121946 67.772422 
L 626.121946 67.772422 
" style="fill:none;stroke:#000000;stroke-linecap:square;stroke-width:1.2;"/>
   </g>
   <g id="text_2">
    <!-- (b) MO-PaDGAN -->
    <defs>
     <path d="M 48.6875 27.296875 
Q 48.6875 37.203125 44.609375 42.84375 
Q 40.53125 48.484375 33.40625 48.484375 
Q 26.265625 48.484375 22.1875 42.84375 
Q 18.109375 37.203125 18.109375 27.296875 
Q 18.109375 17.390625 22.1875 11.75 
Q 26.265625 6.109375 33.40625 6.109375 
Q 40.53125 6.109375 44.609375 11.75 
Q 48.6875 17.390625 48.6875 27.296875 
z
M 18.109375 46.390625 
Q 20.953125 51.265625 25.265625 53.625 
Q 29.59375 56 35.59375 56 
Q 45.5625 56 51.78125 48.09375 
Q 58.015625 40.1875 58.015625 27.296875 
Q 58.015625 14.40625 51.78125 6.484375 
Q 45.5625 -1.421875 35.59375 -1.421875 
Q 29.59375 -1.421875 25.265625 0.953125 
Q 20.953125 3.328125 18.109375 8.203125 
L 18.109375 0 
L 9.078125 0 
L 9.078125 75.984375 
L 18.109375 75.984375 
z
" id="DejaVuSans-98"/>
     <path d="M 9.8125 72.90625 
L 24.515625 72.90625 
L 43.109375 23.296875 
L 61.8125 72.90625 
L 76.515625 72.90625 
L 76.515625 0 
L 66.890625 0 
L 66.890625 64.015625 
L 48.09375 14.015625 
L 38.1875 14.015625 
L 19.390625 64.015625 
L 19.390625 0 
L 9.8125 0 
z
" id="DejaVuSans-77"/>
     <path d="M 39.40625 66.21875 
Q 28.65625 66.21875 22.328125 58.203125 
Q 16.015625 50.203125 16.015625 36.375 
Q 16.015625 22.609375 22.328125 14.59375 
Q 28.65625 6.59375 39.40625 6.59375 
Q 50.140625 6.59375 56.421875 14.59375 
Q 62.703125 22.609375 62.703125 36.375 
Q 62.703125 50.203125 56.421875 58.203125 
Q 50.140625 66.21875 39.40625 66.21875 
z
M 39.40625 74.21875 
Q 54.734375 74.21875 63.90625 63.9375 
Q 73.09375 53.65625 73.09375 36.375 
Q 73.09375 19.140625 63.90625 8.859375 
Q 54.734375 -1.421875 39.40625 -1.421875 
Q 24.03125 -1.421875 14.8125 8.828125 
Q 5.609375 19.09375 5.609375 36.375 
Q 5.609375 53.65625 14.8125 63.9375 
Q 24.03125 74.21875 39.40625 74.21875 
z
" id="DejaVuSans-79"/>
     <path d="M 4.890625 31.390625 
L 31.203125 31.390625 
L 31.203125 23.390625 
L 4.890625 23.390625 
z
" id="DejaVuSans-45"/>
     <path d="M 19.671875 64.796875 
L 19.671875 37.40625 
L 32.078125 37.40625 
Q 38.96875 37.40625 42.71875 40.96875 
Q 46.484375 44.53125 46.484375 51.125 
Q 46.484375 57.671875 42.71875 61.234375 
Q 38.96875 64.796875 32.078125 64.796875 
z
M 9.8125 72.90625 
L 32.078125 72.90625 
Q 44.34375 72.90625 50.609375 67.359375 
Q 56.890625 61.8125 56.890625 51.125 
Q 56.890625 40.328125 50.609375 34.8125 
Q 44.34375 29.296875 32.078125 29.296875 
L 19.671875 29.296875 
L 19.671875 0 
L 9.8125 0 
z
" id="DejaVuSans-80"/>
     <path d="M 59.515625 10.40625 
L 59.515625 29.984375 
L 43.40625 29.984375 
L 43.40625 38.09375 
L 69.28125 38.09375 
L 69.28125 6.78125 
Q 63.578125 2.734375 56.6875 0.65625 
Q 49.8125 -1.421875 42 -1.421875 
Q 24.90625 -1.421875 15.25 8.5625 
Q 5.609375 18.5625 5.609375 36.375 
Q 5.609375 54.25 15.25 64.234375 
Q 24.90625 74.21875 42 74.21875 
Q 49.125 74.21875 55.546875 72.453125 
Q 61.96875 70.703125 67.390625 67.28125 
L 67.390625 56.78125 
Q 61.921875 61.421875 55.765625 63.765625 
Q 49.609375 66.109375 42.828125 66.109375 
Q 29.4375 66.109375 22.71875 58.640625 
Q 16.015625 51.171875 16.015625 36.375 
Q 16.015625 21.625 22.71875 14.15625 
Q 29.4375 6.6875 42.828125 6.6875 
Q 48.046875 6.6875 52.140625 7.59375 
Q 56.25 8.5 59.515625 10.40625 
z
" id="DejaVuSans-71"/>
     <path d="M 34.1875 63.1875 
L 20.796875 26.90625 
L 47.609375 26.90625 
z
M 28.609375 72.90625 
L 39.796875 72.90625 
L 67.578125 0 
L 57.328125 0 
L 50.6875 18.703125 
L 17.828125 18.703125 
L 11.1875 0 
L 0.78125 0 
z
" id="DejaVuSans-65"/>
     <path d="M 9.8125 72.90625 
L 23.09375 72.90625 
L 55.421875 11.921875 
L 55.421875 72.90625 
L 64.984375 72.90625 
L 64.984375 0 
L 51.703125 0 
L 19.390625 60.984375 
L 19.390625 0 
L 9.8125 0 
z
" id="DejaVuSans-78"/>
    </defs>
    <g transform="translate(404.1765 36)scale(0.216 -0.216)">
     <use xlink:href="#DejaVuSans-40"/>
     <use x="39.013672" xlink:href="#DejaVuSans-98"/>
     <use x="102.490234" xlink:href="#DejaVuSans-41"/>
     <use x="141.503906" xlink:href="#DejaVuSans-32"/>
     <use x="173.291016" xlink:href="#DejaVuSans-77"/>
     <use x="259.570312" xlink:href="#DejaVuSans-79"/>
     <use x="338.3125" xlink:href="#DejaVuSans-45"/>
     <use x="374.396484" xlink:href="#DejaVuSans-80"/>
     <use x="434.636719" xlink:href="#DejaVuSans-97"/>
     <use x="495.916016" xlink:href="#DejaVuSans-68"/>
     <use x="572.917969" xlink:href="#DejaVuSans-71"/>
     <use x="650.408203" xlink:href="#DejaVuSans-65"/>
     <use x="718.816406" xlink:href="#DejaVuSans-78"/>
    </g>
   </g>
  </g>
  <g id="axes_3">
   <g id="line2d_31">
    <path clip-path="url(#pa6cbece8d3)" d="M 753.601903 189.607602 
L 745.373905 188.642043 
L 737.643735 187.920317 
L 729.493909 187.405038 
L 705.002876 186.215278 
L 697.858809 186.129749 
L 692.249797 186.299068 
L 687.610644 186.654114 
L 683.55412 187.17072 
L 679.943982 187.840988 
L 676.788959 188.654195 
L 674.663149 189.421964 
L 673.865325 189.929001 
L 673.83171 190.111488 
L 673.971679 190.247048 
L 674.424301 190.412677 
L 675.613091 190.627296 
L 679.805992 191.044859 
L 688.426698 191.625658 
L 698.514341 192.097166 
L 706.204533 192.274745 
L 712.881296 192.236801 
L 719.541386 191.969467 
L 726.971726 191.426323 
L 745.122072 189.96888 
L 750.674162 189.792003 
L 753.73861 189.865307 
L 753.73861 189.865307 
" style="fill:none;stroke:#000000;stroke-linecap:square;stroke-width:1.2;"/>
   </g>
   <g id="line2d_32">
    <path clip-path="url(#pa6cbece8d3)" d="M 751.920222 157.640252 
L 744.732494 156.736004 
L 723.015981 154.006517 
L 707.371768 151.942274 
L 701.925256 151.434304 
L 696.450452 151.15496 
L 692.127596 151.161102 
L 688.248247 151.396794 
L 684.942323 151.826833 
L 681.948098 152.462316 
L 679.416679 153.250781 
L 677.180994 154.222697 
L 675.320834 155.343483 
L 674.208037 156.275681 
L 673.524092 157.154159 
L 673.343186 157.660983 
L 673.354457 158.025955 
L 673.59573 158.464475 
L 674.041666 158.81351 
L 674.91934 159.203021 
L 676.504487 159.62811 
L 679.425972 160.120837 
L 684.299467 160.657004 
L 691.113246 161.151975 
L 697.636594 161.433729 
L 704.142974 161.505319 
L 709.998371 161.327707 
L 714.532665 160.990365 
L 719.828956 160.370939 
L 729.554187 158.906271 
L 735.572462 158.103746 
L 740.390135 157.661324 
L 744.604759 157.477333 
L 748.536496 157.519826 
L 751.530436 157.751137 
L 752.0784 157.829433 
L 752.0784 157.829433 
" style="fill:none;stroke:#000000;stroke-linecap:square;stroke-width:1.2;"/>
   </g>
   <g id="line2d_33">
    <path clip-path="url(#pa6cbece8d3)" d="M 754.661232 126.156541 
L 741.366509 124.044926 
L 713.957516 120.090565 
L 708.293853 119.572718 
L 703.036331 119.325705 
L 698.412236 119.339989 
L 694.261072 119.573285 
L 690.478593 119.999695 
L 686.94938 120.614852 
L 684.02788 121.31347 
L 680.690694 122.372397 
L 678.356465 123.329768 
L 676.134778 124.495689 
L 674.889092 125.371604 
L 674.328852 125.944716 
L 674.103054 126.461879 
L 674.212774 126.822408 
L 674.531792 127.090423 
L 675.220302 127.372238 
L 676.909321 127.711563 
L 679.85592 127.979871 
L 683.808985 128.104825 
L 690.10397 128.042662 
L 699.812553 127.657593 
L 709.58651 127.297039 
L 716.417005 127.277671 
L 724.922703 127.521863 
L 735.130803 127.827424 
L 742.039315 127.793771 
L 746.722293 127.559452 
L 749.600491 127.29268 
L 753.456198 126.723176 
L 754.717376 126.445442 
L 754.717376 126.445442 
" style="fill:none;stroke:#000000;stroke-linecap:square;stroke-width:1.2;"/>
   </g>
   <g id="line2d_34">
    <path clip-path="url(#pa6cbece8d3)" d="M 756.308983 93.975205 
L 750.193209 91.941275 
L 743.485568 90.050883 
L 735.448688 88.040774 
L 728.869466 86.622765 
L 722.901651 85.587106 
L 717.37237 84.892494 
L 712.518642 84.521931 
L 708.337792 84.398433 
L 703.611321 84.494623 
L 699.421344 84.807285 
L 695.523486 85.310128 
L 691.786712 86.007999 
L 688.378731 86.856802 
L 684.998873 87.937713 
L 682.145599 89.08115 
L 679.388399 90.455484 
L 677.436597 91.664378 
L 675.784999 92.969085 
L 675.019204 93.791931 
L 674.567717 94.581546 
L 674.511887 95.170992 
L 674.647724 95.51309 
L 675.045221 95.9241 
L 675.918853 96.388054 
L 677.0955 96.767914 
L 679.776324 97.297718 
L 683.192357 97.685658 
L 687.115007 97.914615 
L 691.831886 97.979848 
L 698.034042 97.809394 
L 705.746801 97.33632 
L 716.929991 96.631867 
L 722.623039 96.478124 
L 732.720978 96.482043 
L 740.825112 96.402828 
L 745.764076 96.156855 
L 749.770523 95.755694 
L 753.624589 95.092219 
L 755.968436 94.455724 
L 756.293896 94.335113 
L 756.293896 94.335113 
" style="fill:none;stroke:#000000;stroke-linecap:square;stroke-width:1.2;"/>
   </g>
   <g id="line2d_35">
    <path clip-path="url(#pa6cbece8d3)" d="M 752.591022 62.214102 
L 743.215512 61.038031 
L 704.846165 56.612838 
L 699.975372 56.297409 
L 696.133708 56.216067 
L 692.203365 56.330851 
L 688.338847 56.689254 
L 685.325693 57.179329 
L 682.167573 57.941662 
L 679.570167 58.809455 
L 677.004651 59.949793 
L 675.222482 60.98288 
L 673.97963 61.958971 
L 673.682178 62.396973 
L 673.700158 62.564704 
L 673.932953 62.710539 
L 674.712978 62.782708 
L 677.365071 62.626999 
L 684.707058 62.1521 
L 691.3009 61.975494 
L 699.24188 62.011912 
L 721.818263 62.314009 
L 745.114417 62.213895 
L 752.73659 62.474992 
L 752.73659 62.474992 
" style="fill:none;stroke:#000000;stroke-linecap:square;stroke-width:1.2;"/>
   </g>
   <g id="line2d_36">
    <path clip-path="url(#pa6cbece8d3)" d="M 850.938016 189.356907 
L 845.359825 188.048444 
L 841.127433 187.26056 
L 835.590765 186.474711 
L 827.134412 185.555487 
L 815.138302 184.477446 
L 808.101887 184.040573 
L 802.21149 183.865967 
L 796.645372 183.907091 
L 792.043973 184.121979 
L 786.615628 184.626803 
L 782.118072 185.295622 
L 777.951216 186.175042 
L 774.74364 187.08282 
L 772.114887 188.056442 
L 770.286566 188.978609 
L 769.421697 189.664858 
L 769.195796 190.101646 
L 769.284672 190.466581 
L 769.713737 190.844327 
L 770.421514 191.180904 
L 772.15136 191.701056 
L 774.915038 192.248194 
L 778.419798 192.708628 
L 782.397761 193.018099 
L 786.666645 193.142518 
L 791.141611 193.065367 
L 795.455509 192.805981 
L 801.042441 192.238282 
L 815.160903 190.603832 
L 819.598396 190.411587 
L 825.822937 190.388541 
L 838.419496 190.405424 
L 843.755136 190.208325 
L 850.926141 189.682506 
L 850.926141 189.682506 
" style="fill:none;stroke:#000000;stroke-linecap:square;stroke-width:1.2;"/>
   </g>
   <g id="line2d_37">
    <path clip-path="url(#pa6cbece8d3)" d="M 850.691508 158.179278 
L 835.067722 155.099862 
L 813.197768 150.65661 
L 808.022596 149.897269 
L 803.066368 149.391848 
L 798.328924 149.158602 
L 794.320082 149.18792 
L 790.58175 149.434685 
L 786.814191 149.934587 
L 784.051026 150.489167 
L 781.095495 151.29098 
L 778.447373 152.22822 
L 776.097477 153.2727 
L 773.644063 154.639755 
L 771.958297 155.810854 
L 770.574811 157.028098 
L 769.828184 157.998196 
L 769.688225 158.444382 
L 769.744895 158.729458 
L 770.078454 159.02622 
L 770.670265 159.211641 
L 771.786436 159.336021 
L 774.505505 159.354364 
L 798.358602 158.887058 
L 808.061464 159.087029 
L 833.946742 159.791102 
L 840.136265 159.677326 
L 844.113405 159.455337 
L 847.862493 159.06159 
L 850.342713 158.604424 
L 850.757896 158.489189 
L 850.757896 158.489189 
" style="fill:none;stroke:#000000;stroke-linecap:square;stroke-width:1.2;"/>
   </g>
   <g id="line2d_38">
    <path clip-path="url(#pa6cbece8d3)" d="M 849.185621 125.548057 
L 841.948589 124.084249 
L 832.6508 122.432232 
L 815.326118 119.62445 
L 808.753354 118.754242 
L 803.58069 118.257904 
L 798.548368 117.988959 
L 793.895061 117.970499 
L 790.09173 118.151846 
L 786.529622 118.512336 
L 783.168463 119.055001 
L 779.893476 119.816305 
L 776.72204 120.834653 
L 774.113416 121.955158 
L 771.84086 123.249598 
L 770.541664 124.231999 
L 769.871965 124.900496 
L 769.330612 125.786541 
L 769.278888 126.280186 
L 769.408432 126.6375 
L 769.817163 127.062254 
L 770.457675 127.422991 
L 771.6164 127.828275 
L 773.545603 128.253681 
L 776.199503 128.621994 
L 780.304115 128.938599 
L 784.924218 129.064807 
L 790.494819 128.985287 
L 797.185143 128.635573 
L 805.540615 127.945659 
L 818.33665 126.878523 
L 829.142155 126.25895 
L 840.514723 125.832295 
L 847.584134 125.767998 
L 849.242561 125.827698 
L 849.242561 125.827698 
" style="fill:none;stroke:#000000;stroke-linecap:square;stroke-width:1.2;"/>
   </g>
   <g id="line2d_39">
    <path clip-path="url(#pa6cbece8d3)" d="M 850.98307 93.738712 
L 845.613187 92.285182 
L 840.062151 90.992501 
L 833.478156 89.682625 
L 824.555173 88.150258 
L 817.523333 87.146726 
L 811.847819 86.534179 
L 806.673612 86.179641 
L 801.843162 86.057767 
L 797.060263 86.164095 
L 793.204386 86.434119 
L 788.410494 87.029883 
L 784.418348 87.779656 
L 780.402012 88.813725 
L 777.056207 89.942858 
L 774.068878 91.228115 
L 771.676434 92.553607 
L 770.398091 93.502998 
L 769.775644 94.281842 
L 769.736118 94.638435 
L 769.886133 94.902497 
L 770.387011 95.221288 
L 771.747737 95.614985 
L 774.075465 95.983314 
L 778.662023 96.419225 
L 785.027246 96.770155 
L 792.479094 96.959081 
L 801.569639 96.951502 
L 812.168856 96.709443 
L 824.97488 96.199726 
L 834.809821 95.615508 
L 843.162909 94.91768 
L 850.991044 94.054626 
L 850.991044 94.054626 
" style="fill:none;stroke:#000000;stroke-linecap:square;stroke-width:1.2;"/>
   </g>
   <g id="line2d_40">
    <path clip-path="url(#pa6cbece8d3)" d="M 848.162121 62.241384 
L 839.626607 61.324531 
L 823.020079 59.726791 
L 796.310588 57.321753 
L 790.933486 57.200683 
L 786.620895 57.333174 
L 783.10272 57.641451 
L 780.199892 58.067134 
L 777.270934 58.694136 
L 774.764531 59.431802 
L 772.445593 60.338289 
L 770.632635 61.284821 
L 769.609854 62.077991 
L 769.43245 62.453576 
L 769.546239 62.657567 
L 769.950967 62.841181 
L 771.094832 63.025401 
L 774.506185 63.229944 
L 790.489214 64.036674 
L 801.228425 64.534935 
L 808.0753 64.619674 
L 813.218397 64.4848 
L 819.675245 64.070048 
L 839.942766 62.447668 
L 845.14332 62.377219 
L 848.334889 62.492406 
L 848.334889 62.492406 
" style="fill:none;stroke:#000000;stroke-linecap:square;stroke-width:1.2;"/>
   </g>
   <g id="line2d_41">
    <path clip-path="url(#pa6cbece8d3)" d="M 946.669091 189.24763 
L 941.536794 187.515594 
L 935.559607 185.730878 
L 926.635615 183.311476 
L 920.00687 181.679789 
L 914.324908 180.476471 
L 909.487623 179.653905 
L 905.008045 179.09226 
L 900.296957 178.73564 
L 896.152827 178.639987 
L 891.61657 178.793088 
L 887.722063 179.163667 
L 884.185042 179.717179 
L 880.761404 180.479941 
L 877.725812 181.376805 
L 874.81039 182.476153 
L 872.327362 183.64422 
L 869.936855 185.038366 
L 868.216536 186.277055 
L 866.702419 187.645244 
L 865.929061 188.558124 
L 865.420021 189.428286 
L 865.254932 190.096668 
L 865.301433 190.48988 
L 865.554206 190.93291 
L 866.167303 191.385446 
L 867.034521 191.723659 
L 868.432672 192.033287 
L 870.642619 192.28185 
L 873.58131 192.39598 
L 877.199956 192.349278 
L 882.88479 192.028283 
L 890.316418 191.355151 
L 902.903483 190.168266 
L 909.248127 189.833902 
L 915.528908 189.739258 
L 926.234588 189.861062 
L 936.250753 189.919895 
L 943.487983 189.745429 
L 946.666213 189.582739 
L 946.666213 189.582739 
" style="fill:none;stroke:#000000;stroke-linecap:square;stroke-width:1.2;"/>
   </g>
   <g id="line2d_42">
    <path clip-path="url(#pa6cbece8d3)" d="M 945.552853 158.214053 
L 926.847303 155.056558 
L 915.369838 152.822765 
L 906.346804 151.131842 
L 901.060183 150.329484 
L 895.870159 149.769962 
L 891.357526 149.527391 
L 888.316487 149.52242 
L 884.694058 149.717309 
L 881.031695 150.181029 
L 878.419092 150.710003 
L 875.653989 151.488165 
L 873.218504 152.399003 
L 871.044026 153.432691 
L 868.833663 154.755769 
L 867.2947 155.895396 
L 866.004416 157.070375 
L 865.19048 158.093437 
L 865.08701 158.547267 
L 865.297183 158.699591 
L 866.080669 158.673315 
L 868.889507 158.08679 
L 873.200163 157.265257 
L 877.44553 156.694647 
L 881.715285 156.33538 
L 886.985547 156.143804 
L 892.442749 156.18752 
L 899.430376 156.510687 
L 910.414662 157.315604 
L 923.798875 158.24031 
L 933.25856 158.670074 
L 940.338499 158.778777 
L 944.356432 158.643966 
L 945.635458 158.500085 
L 945.635458 158.500085 
" style="fill:none;stroke:#000000;stroke-linecap:square;stroke-width:1.2;"/>
   </g>
   <g id="line2d_43">
    <path clip-path="url(#pa6cbece8d3)" d="M 946.306688 125.535597 
L 941.530593 124.068324 
L 936.150989 122.614886 
L 929.834653 121.146788 
L 921.864658 119.524522 
L 913.23624 118.001853 
L 907.10912 117.151997 
L 902.110879 116.669617 
L 897.287205 116.429661 
L 893.286099 116.428229 
L 889.038805 116.653728 
L 885.366731 117.066109 
L 882.135764 117.622974 
L 878.847923 118.409097 
L 876.14485 119.252919 
L 873.711064 120.1972 
L 871.523816 121.228149 
L 869.17745 122.577808 
L 867.561552 123.70191 
L 866.164141 124.868083 
L 865.178248 125.992331 
L 865.105103 126.301283 
L 865.32051 126.457575 
L 866.170618 126.447259 
L 876.557843 125.229587 
L 881.701374 124.96846 
L 887.968343 124.879138 
L 895.712364 124.989712 
L 913.419911 125.313737 
L 925.345884 125.210579 
L 935.685898 125.185418 
L 941.095804 125.379927 
L 945.221937 125.726629 
L 946.349016 125.857603 
L 946.349016 125.857603 
" style="fill:none;stroke:#000000;stroke-linecap:square;stroke-width:1.2;"/>
   </g>
   <g id="line2d_44">
    <path clip-path="url(#pa6cbece8d3)" d="M 946.620784 93.833368 
L 941.033337 92.708868 
L 935.85471 91.902535 
L 930.234368 91.263037 
L 921.914955 90.547964 
L 909.308496 89.676237 
L 901.253799 89.337175 
L 895.295088 89.278328 
L 889.128713 89.444164 
L 883.816756 89.813945 
L 879.076446 90.361829 
L 874.886476 91.06142 
L 871.476844 91.828469 
L 868.499169 92.71472 
L 866.462622 93.54373 
L 865.466009 94.153616 
L 865.097559 94.5916 
L 865.069655 94.932395 
L 865.299338 95.271923 
L 866.039103 95.741536 
L 867.654556 96.36273 
L 870.571279 97.164797 
L 874.347108 97.961296 
L 878.259414 98.600307 
L 882.778751 99.137354 
L 887.999285 99.499457 
L 892.284989 99.58633 
L 896.846057 99.463845 
L 901.693981 99.092473 
L 906.824732 98.473322 
L 918.268625 97.00013 
L 927.207512 96.200819 
L 936.82995 95.310134 
L 946.63805 94.14474 
L 946.63805 94.14474 
" style="fill:none;stroke:#000000;stroke-linecap:square;stroke-width:1.2;"/>
   </g>
   <g id="line2d_45">
    <path clip-path="url(#pa6cbece8d3)" d="M 945.105733 61.748481 
L 938.00025 60.852281 
L 932.028894 60.311383 
L 926.591483 60.054195 
L 919.141294 59.962695 
L 905.077105 59.806153 
L 890.149245 59.585438 
L 883.103455 59.698863 
L 877.083928 60.01744 
L 872.037097 60.51928 
L 868.115417 61.13992 
L 865.60015 61.745012 
L 864.513806 62.188126 
L 864.267073 62.513799 
L 864.402381 62.712624 
L 864.97884 62.998899 
L 866.245697 63.359467 
L 869.515133 63.976397 
L 873.742996 64.528445 
L 878.79529 64.958548 
L 884.314317 65.185166 
L 889.951948 65.167062 
L 895.644686 64.894971 
L 901.663381 64.342677 
L 909.690885 63.328357 
L 916.811243 62.496437 
L 922.941962 61.994258 
L 929.55219 61.66306 
L 936.087048 61.549685 
L 940.130297 61.629196 
L 943.824984 61.896706 
L 945.230154 62.11604 
L 945.230154 62.11604 
" style="fill:none;stroke:#000000;stroke-linecap:square;stroke-width:1.2;"/>
   </g>
   <g id="text_3">
    <!-- (c) GAN -->
    <defs>
     <path d="M 48.78125 52.59375 
L 48.78125 44.1875 
Q 44.96875 46.296875 41.140625 47.34375 
Q 37.3125 48.390625 33.40625 48.390625 
Q 24.65625 48.390625 19.8125 42.84375 
Q 14.984375 37.3125 14.984375 27.296875 
Q 14.984375 17.28125 19.8125 11.734375 
Q 24.65625 6.203125 33.40625 6.203125 
Q 37.3125 6.203125 41.140625 7.25 
Q 44.96875 8.296875 48.78125 10.40625 
L 48.78125 2.09375 
Q 45.015625 0.34375 40.984375 -0.53125 
Q 36.96875 -1.421875 32.421875 -1.421875 
Q 20.0625 -1.421875 12.78125 6.34375 
Q 5.515625 14.109375 5.515625 27.296875 
Q 5.515625 40.671875 12.859375 48.328125 
Q 20.21875 56 33.015625 56 
Q 37.15625 56 41.109375 55.140625 
Q 45.0625 54.296875 48.78125 52.59375 
z
" id="DejaVuSans-99"/>
    </defs>
    <g transform="translate(768.366 36)scale(0.216 -0.216)">
     <use xlink:href="#DejaVuSans-40"/>
     <use x="39.013672" xlink:href="#DejaVuSans-99"/>
     <use x="93.994141" xlink:href="#DejaVuSans-41"/>
     <use x="133.007812" xlink:href="#DejaVuSans-32"/>
     <use x="164.794922" xlink:href="#DejaVuSans-71"/>
     <use x="242.285156" xlink:href="#DejaVuSans-65"/>
     <use x="310.693359" xlink:href="#DejaVuSans-78"/>
    </g>
   </g>
  </g>
  <g id="axes_4">
   <g id="line2d_46">
    <path clip-path="url(#pc7c7a85152)" d="M 1076.962583 193.540442 
L 1076.851123 193.520283 
L 1076.750395 193.330051 
L 1077.134458 193.11431 
L 1075.836398 192.240212 
L 1075.908332 191.851372 
L 1075.589472 191.649893 
L 1075.587208 190.98809 
L 1075.23508 190.348154 
L 1075.675843 190.038768 
L 1075.500701 189.78714 
L 1074.358784 189.056797 
L 1073.909803 188.715697 
L 1073.482375 188.047048 
L 1072.722783 187.797476 
L 1072.235548 187.16436 
L 1071.585073 186.747451 
L 1070.107828 186.157313 
L 1070.042951 185.898849 
L 1069.796528 185.583936 
L 1069.259665 185.336961 
L 1068.923434 185.045574 
L 1064.912072 183.595413 
L 1064.509166 183.372715 
L 1062.78977 182.86448 
L 1061.388966 182.617901 
L 1060.500973 182.332735 
L 1058.667159 181.896643 
L 1055.376398 181.271318 
L 1052.083776 180.712247 
L 1050.404559 180.466464 
L 1043.513599 179.937715 
L 1039.349636 179.79286 
L 1033.613267 179.837868 
L 1027.393252 180.145771 
L 1021.047118 180.7215 
L 1018.07846 181.18218 
L 1015.244871 181.648975 
L 1012.305279 182.231268 
L 1008.387613 183.264958 
L 1003.883082 184.875674 
L 1001.645015 185.870325 
L 998.835646 187.463854 
L 997.144205 188.568853 
L 995.823823 189.748375 
L 994.593183 191.052071 
L 993.927941 192.200282 
L 993.69702 192.980943 
L 993.676609 193.469074 
L 993.881205 193.715334 
L 994.558566 193.865386 
L 995.758288 193.942765 
L 998.250442 193.878728 
L 1001.344816 193.631319 
L 1012.958808 192.364777 
L 1020.9299 191.595324 
L 1023.836974 191.321603 
L 1033.323093 190.763268 
L 1045.127193 190.693438 
L 1063.678736 191.610357 
L 1066.399248 191.975227 
L 1068.541303 192.203182 
L 1072.150533 192.889168 
L 1076.725548 194.034566 
L 1076.904829 193.976175 
L 1076.904829 193.976175 
" style="fill:none;stroke:#000000;stroke-linecap:square;stroke-width:1.2;"/>
   </g>
   <g id="line2d_47">
    <path clip-path="url(#pc7c7a85152)" d="M 1074.310436 162.320801 
L 1074.040759 162.311933 
L 1066.581426 160.606405 
L 1042.805414 155.414233 
L 1034.096009 154.141241 
L 1030.091214 153.683187 
L 1022.741515 153.414112 
L 1019.368293 153.573445 
L 1013.197375 154.406336 
L 1003.937723 156.604725 
L 1000.792273 157.582143 
L 996.933144 159.127879 
L 995.571218 159.957996 
L 994.387445 160.852608 
L 993.692899 161.562815 
L 993.442909 162.078744 
L 993.825296 162.116648 
L 994.637159 162.089737 
L 995.991976 161.886423 
L 999.026215 161.05501 
L 1002.210358 159.804135 
L 1003.011482 159.306073 
L 1005.429475 158.292013 
L 1008.741397 156.841841 
L 1015.672333 154.019596 
L 1017.515765 153.410233 
L 1018.699637 153.06748 
L 1019.130096 152.812513 
L 1022.398251 151.89126 
L 1029.026834 150.937734 
L 1033.134726 150.818472 
L 1036.368498 151.030067 
L 1037.759017 151.213486 
L 1043.737122 152.383919 
L 1044.219155 152.600903 
L 1045.3566 152.786299 
L 1045.977512 153.066793 
L 1047.176524 153.326845 
L 1047.425696 153.557873 
L 1048.805797 153.901967 
L 1049.365762 154.185956 
L 1051.785681 155.075058 
L 1053.850041 156.045492 
L 1054.549975 156.363587 
L 1056.775581 157.094684 
L 1057.31608 157.406364 
L 1058.445504 157.727026 
L 1060.616058 158.718604 
L 1062.697401 159.429878 
L 1064.160308 160.021739 
L 1066.254685 160.667556 
L 1068.186655 161.25279 
L 1074.185323 162.756533 
L 1074.185323 162.756533 
" style="fill:none;stroke:#000000;stroke-linecap:square;stroke-width:1.2;"/>
   </g>
   <g id="line2d_48">
    <path clip-path="url(#pc7c7a85152)" d="M 1076.195431 130.88141 
L 1075.937977 130.853881 
L 1073.79784 130.000309 
L 1072.698759 129.079335 
L 1070.568004 127.71686 
L 1068.642969 126.471804 
L 1067.784108 125.780724 
L 1065.169481 124.276902 
L 1063.707332 123.139784 
L 1057.65242 119.544982 
L 1053.800559 117.177579 
L 1051.8058 116.117808 
L 1050.011331 115.102733 
L 1044.008377 112.094342 
L 1037.254641 109.204789 
L 1032.917828 107.751519 
L 1029.941186 107.100182 
L 1026.528288 106.654329 
L 1024.045961 106.592148 
L 1021.442625 106.749949 
L 1019.340883 107.048484 
L 1016.134123 107.924101 
L 1013.648069 108.858514 
L 1011.042199 110.133284 
L 1008.574927 111.689735 
L 1005.989707 113.601231 
L 1003.64174 115.654018 
L 1002.015893 117.286452 
L 999.88084 119.935477 
L 998.197143 122.469291 
L 995.489719 125.862993 
L 994.165709 128.118622 
L 993.697368 129.691799 
L 993.64585 130.574539 
L 993.84941 130.825832 
L 994.515417 130.877153 
L 996.752699 130.941553 
L 1000.825198 130.723188 
L 1003.286691 130.42564 
L 1020.636427 127.7128 
L 1027.50071 127.148351 
L 1033.991005 126.927595 
L 1038.174703 126.949621 
L 1044.50224 127.188067 
L 1052.861551 127.815832 
L 1058.486069 128.359224 
L 1070.418043 130.109162 
L 1074.395875 130.910799 
L 1074.747966 131.06234 
L 1076.027715 131.317142 
L 1076.027715 131.317142 
" style="fill:none;stroke:#000000;stroke-linecap:square;stroke-width:1.2;"/>
   </g>
   <g id="line2d_49">
    <path clip-path="url(#pc7c7a85152)" d="M 1077.369813 99.480694 
L 1077.073883 99.443944 
L 1076.247491 98.973603 
L 1075.688821 98.516688 
L 1074.977762 97.693658 
L 1074.442462 97.355003 
L 1070.302276 93.562428 
L 1069.434169 93.075456 
L 1068.784669 92.342676 
L 1068.102781 91.946342 
L 1065.618828 90.141221 
L 1059.655181 86.719428 
L 1059.046206 86.238386 
L 1057.060601 85.218407 
L 1055.172986 84.24139 
L 1051.591241 82.685465 
L 1050.940289 82.165347 
L 1049.540125 81.733354 
L 1048.780339 81.341641 
L 1047.400693 80.87074 
L 1046.561941 80.466199 
L 1040.944984 78.545467 
L 1034.686106 76.958615 
L 1031.486517 76.418645 
L 1026.712125 76.052406 
L 1023.281013 76.073421 
L 1020.139652 76.329871 
L 1017.218923 76.831051 
L 1013.269797 77.886966 
L 1009.671772 79.524639 
L 1005.711789 82.277891 
L 1004.324507 83.559443 
L 1001.998557 85.707815 
L 999.387393 89.056319 
L 998.520965 90.680542 
L 997.200512 92.476047 
L 994.707865 95.917866 
L 994.23298 96.837022 
L 993.783986 98.266123 
L 993.752811 99.064798 
L 994.162204 99.042751 
L 999.182398 98.091277 
L 1000.55353 97.575015 
L 1001.341481 97.257044 
L 1001.680781 96.953188 
L 1003.750442 96.050457 
L 1007.197064 94.592569 
L 1008.257438 94.328996 
L 1008.785391 94.079628 
L 1015.949127 92.315347 
L 1019.338539 91.82783 
L 1023.404582 91.517366 
L 1029.185871 91.377958 
L 1033.809321 91.505348 
L 1038.504825 91.800264 
L 1044.433756 92.409618 
L 1048.352923 92.902007 
L 1062.031362 95.219509 
L 1070.840766 97.370637 
L 1073.2441 98.225513 
L 1075.060545 98.997043 
L 1076.912997 99.844801 
L 1077.255193 99.916426 
L 1077.255193 99.916426 
" style="fill:none;stroke:#000000;stroke-linecap:square;stroke-width:1.2;"/>
   </g>
   <g id="line2d_50">
    <path clip-path="url(#pc7c7a85152)" d="M 1074.992933 68.133911 
L 1074.711508 68.113124 
L 1072.496054 67.480658 
L 1067.289729 65.372329 
L 1066.378234 65.047819 
L 1064.824063 64.315209 
L 1062.689584 63.56537 
L 1061.139877 62.775226 
L 1059.745139 62.323262 
L 1059.103843 61.962183 
L 1052.253895 59.274992 
L 1051.615485 58.95245 
L 1048.958108 57.940179 
L 1046.367902 56.991131 
L 1044.337722 56.339479 
L 1039.396529 54.8284 
L 1034.554947 53.629058 
L 1031.390194 53.071912 
L 1027.500456 52.726087 
L 1024.322871 52.741038 
L 1020.660526 53.032593 
L 1015.767017 53.94046 
L 1011.939043 55.017847 
L 1010.113127 55.658745 
L 1005.199183 57.728722 
L 1001.479411 59.692569 
L 998.210105 62.022087 
L 996.816823 63.227869 
L 994.705096 65.396792 
L 993.819021 66.693394 
L 993.517487 67.497363 
L 993.508753 67.917591 
L 993.755901 68.02001 
L 994.486603 68.018049 
L 996.559511 67.774957 
L 999.411238 67.09001 
L 1001.969299 66.160423 
L 1005.45849 64.775206 
L 1011.315381 62.545053 
L 1017.388252 60.69829 
L 1019.028397 60.337892 
L 1021.070367 59.980266 
L 1026.118539 59.524412 
L 1030.112533 59.495869 
L 1033.970746 59.777219 
L 1037.40396 60.2072 
L 1040.664391 60.630681 
L 1043.259844 61.159844 
L 1046.507483 61.785361 
L 1049.720706 62.495971 
L 1051.178664 62.758567 
L 1051.537844 62.973599 
L 1055.16883 63.768196 
L 1055.966617 64.008469 
L 1057.463481 64.265747 
L 1058.359561 64.548928 
L 1060.260108 65.049727 
L 1063.863427 65.910828 
L 1064.520016 66.119965 
L 1066.825997 66.672123 
L 1070.462927 67.553087 
L 1073.200343 68.149079 
L 1073.43494 68.315352 
L 1074.835083 68.569643 
L 1074.835083 68.569643 
" style="fill:none;stroke:#000000;stroke-linecap:square;stroke-width:1.2;"/>
   </g>
   <g id="line2d_51">
    <path clip-path="url(#pc7c7a85152)" d="M 1170.184572 193.781429 
L 1169.775799 193.590223 
L 1169.48696 193.354695 
L 1166.693309 192.162334 
L 1164.663241 191.15943 
L 1164.203284 190.9993 
L 1163.783118 190.688962 
L 1163.226735 190.450296 
L 1161.420551 189.888253 
L 1160.812474 189.559772 
L 1159.880036 189.306723 
L 1158.492661 188.812476 
L 1156.900761 188.224666 
L 1148.884673 185.898481 
L 1146.894349 185.446209 
L 1145.145353 184.994846 
L 1135.729981 183.314745 
L 1131.524904 182.739558 
L 1126.011343 182.247671 
L 1120.210248 182.021288 
L 1115.920015 182.05811 
L 1111.55925 182.312017 
L 1107.505954 182.798398 
L 1103.455236 183.539567 
L 1100.5703 184.280285 
L 1097.720693 185.239879 
L 1096.087437 185.930065 
L 1093.584215 187.22942 
L 1091.340591 188.693696 
L 1090.110031 189.6461 
L 1088.914046 190.818647 
L 1088.031827 191.998084 
L 1087.574893 193.034545 
L 1087.511759 193.927891 
L 1087.668297 194.288624 
L 1088.162455 194.627376 
L 1089.144636 194.982339 
L 1091.569498 195.463921 
L 1096.84937 195.991232 
L 1104.322246 196.403709 
L 1112.426502 196.630466 
L 1121.479387 196.609797 
L 1128.146919 196.410863 
L 1137.739375 195.887655 
L 1149.404243 195.011124 
L 1152.042616 194.788434 
L 1164.303362 194.046028 
L 1167.573032 194.052949 
L 1170.157111 194.217161 
L 1170.157111 194.217161 
" style="fill:none;stroke:#000000;stroke-linecap:square;stroke-width:1.2;"/>
   </g>
   <g id="line2d_52">
    <path clip-path="url(#pc7c7a85152)" d="M 1170.304179 162.249777 
L 1170.06098 162.22872 
L 1168.281364 161.50209 
L 1157.95081 155.912402 
L 1154.342198 154.104699 
L 1150.448142 152.256613 
L 1144.935942 149.804037 
L 1138.133249 147.251337 
L 1133.532128 145.83269 
L 1128.102646 144.52156 
L 1124.499096 143.98285 
L 1121.693767 143.746406 
L 1119.302072 143.700351 
L 1116.780929 143.812365 
L 1113.948546 144.135865 
L 1111.45977 144.657004 
L 1108.864379 145.341951 
L 1105.241632 146.63832 
L 1101.608833 148.402468 
L 1098.081991 150.485542 
L 1096.190523 151.752603 
L 1093.074704 154.48535 
L 1090.955308 156.65487 
L 1089.340027 158.463504 
L 1088.252619 160.158812 
L 1087.869833 161.307846 
L 1087.851448 161.924669 
L 1088.097964 162.075939 
L 1088.835352 162.079472 
L 1091.071373 161.948511 
L 1094.311245 161.455745 
L 1099.985574 159.947055 
L 1106.721732 158.159779 
L 1115.382275 156.364719 
L 1121.871196 155.674928 
L 1127.924819 155.473182 
L 1132.587597 155.610964 
L 1138.409808 156.085361 
L 1147.945063 157.49981 
L 1159.800155 159.892264 
L 1170.180322 162.685509 
L 1170.180322 162.685509 
" style="fill:none;stroke:#000000;stroke-linecap:square;stroke-width:1.2;"/>
   </g>
   <g id="line2d_53">
    <path clip-path="url(#pc7c7a85152)" d="M 1171.007314 130.712199 
L 1170.866444 130.702059 
L 1170.777935 130.539265 
L 1170.846364 130.301726 
L 1168.880216 129.534911 
L 1168.64151 129.175283 
L 1168.191279 129.000461 
L 1167.584892 128.389701 
L 1166.74085 127.848484 
L 1166.795482 127.56451 
L 1166.487533 127.364954 
L 1164.913286 126.808169 
L 1163.563975 126.043501 
L 1162.817383 125.853882 
L 1162.014603 125.408049 
L 1160.543834 124.96119 
L 1159.458388 124.550409 
L 1159.103445 124.329015 
L 1156.170192 123.629316 
L 1153.773561 123.124816 
L 1153.369177 122.993725 
L 1150.443641 122.570672 
L 1142.963254 121.679766 
L 1135.457242 121.19097 
L 1128.07041 121.051453 
L 1121.524186 121.185568 
L 1114.36464 121.688168 
L 1107.645369 122.493501 
L 1102.651877 123.445916 
L 1100.120491 124.003677 
L 1094.633736 125.775726 
L 1091.419035 127.033746 
L 1090.011928 127.9321 
L 1088.8219 128.874488 
L 1088.19296 129.677516 
L 1087.95252 130.377383 
L 1088.126998 130.517456 
L 1088.611315 130.581617 
L 1090.51973 130.437361 
L 1093.511159 129.854843 
L 1094.817661 129.565204 
L 1095.831202 129.215147 
L 1097.135638 128.929853 
L 1097.976691 128.560919 
L 1102.256431 127.514067 
L 1105.597511 126.536589 
L 1116.941842 123.91766 
L 1121.431795 123.318354 
L 1121.737028 123.241509 
L 1125.133485 122.942799 
L 1127.798091 122.773442 
L 1131.792051 122.703768 
L 1134.784504 122.832476 
L 1137.64324 123.086889 
L 1140.916119 123.514831 
L 1142.448997 123.745627 
L 1149.790423 125.116529 
L 1150.582381 125.309389 
L 1153.947521 125.936973 
L 1155.457519 126.390903 
L 1158.559941 127.071148 
L 1160.171835 127.508296 
L 1165.169125 129.066147 
L 1167.627485 130.048742 
L 1170.977159 131.147931 
L 1170.977159 131.147931 
" style="fill:none;stroke:#000000;stroke-linecap:square;stroke-width:1.2;"/>
   </g>
   <g id="line2d_54">
    <path clip-path="url(#pc7c7a85152)" d="M 1171.149545 99.631482 
L 1171.049999 99.605745 
L 1170.756646 99.076376 
L 1168.393027 97.945773 
L 1167.49243 97.30353 
L 1165.290229 96.220579 
L 1159.74023 94.255503 
L 1155.161492 92.941571 
L 1152.162463 92.202158 
L 1142.711047 90.246444 
L 1129.091814 88.537495 
L 1124.090454 88.169936 
L 1117.626334 87.95843 
L 1113.16057 88.005062 
L 1108.790235 88.262993 
L 1105.967413 88.582769 
L 1102.271063 89.270964 
L 1099.034024 90.215262 
L 1096.72096 91.155297 
L 1095.20333 91.852825 
L 1093.077605 93.143217 
L 1091.620021 94.140451 
L 1089.510318 96.058604 
L 1088.493401 97.199092 
L 1087.839003 98.30388 
L 1087.539133 99.380563 
L 1087.590395 99.703714 
L 1087.893043 99.895447 
L 1089.171951 100.166278 
L 1091.283478 100.283679 
L 1093.694638 100.166375 
L 1101.063658 99.491299 
L 1108.965469 98.959047 
L 1124.35798 98.491549 
L 1131.368023 98.422901 
L 1143.146123 98.493961 
L 1150.91952 98.650599 
L 1164.164789 99.105666 
L 1167.956509 99.426417 
L 1169.213332 99.656504 
L 1169.237014 99.719436 
L 1171.168227 100.067214 
L 1171.168227 100.067214 
" style="fill:none;stroke:#000000;stroke-linecap:square;stroke-width:1.2;"/>
   </g>
   <g id="line2d_55">
    <path clip-path="url(#pc7c7a85152)" d="M 1170.517399 68.065588 
L 1170.431952 68.056615 
L 1170.304498 67.73848 
L 1168.243603 67.173445 
L 1167.793144 66.892887 
L 1167.32472 66.771807 
L 1166.431639 66.301026 
L 1165.249141 65.905109 
L 1165.098602 65.689865 
L 1164.684027 65.547787 
L 1161.627124 64.814337 
L 1161.106461 64.631973 
L 1159.262304 64.208369 
L 1154.261413 63.295111 
L 1146.374036 62.434539 
L 1132.642807 61.646574 
L 1124.920229 61.448188 
L 1116.9853 61.474103 
L 1111.372397 61.696654 
L 1105.493812 62.159117 
L 1100.977839 62.770076 
L 1098.695365 63.148464 
L 1093.606926 64.470954 
L 1090.633787 65.432423 
L 1089.353347 66.127345 
L 1088.394057 66.801046 
L 1087.910312 67.368729 
L 1087.719559 67.911387 
L 1087.878668 68.091397 
L 1088.290778 68.254602 
L 1089.298015 68.365002 
L 1090.663463 68.326225 
L 1092.670175 68.117628 
L 1096.162611 67.558988 
L 1097.093301 67.314015 
L 1102.412252 66.404065 
L 1106.179827 65.786053 
L 1111.742233 64.947634 
L 1123.062424 63.803579 
L 1130.203899 63.534277 
L 1135.791172 63.55817 
L 1144.510192 64.106515 
L 1151.557197 64.889659 
L 1159.522839 66.011071 
L 1163.943097 66.847722 
L 1170.521208 68.50132 
L 1170.521208 68.50132 
" style="fill:none;stroke:#000000;stroke-linecap:square;stroke-width:1.2;"/>
   </g>
   <g id="line2d_56">
    <path clip-path="url(#pc7c7a85152)" d="M 1266.365933 193.642408 
L 1266.369241 193.63097 
L 1266.781091 193.153851 
L 1265.006675 192.436409 
L 1264.598742 191.993925 
L 1264.223031 191.832275 
L 1263.764221 191.068976 
L 1262.367517 190.511821 
L 1262.467994 190.151287 
L 1262.028342 189.896689 
L 1259.855729 189.370979 
L 1259.962066 189.012339 
L 1258.568179 188.807579 
L 1258.174998 188.487668 
L 1257.453502 188.320442 
L 1256.884447 187.974875 
L 1252.455554 186.762836 
L 1251.649234 186.450671 
L 1245.355547 185.279056 
L 1243.45912 184.871238 
L 1241.242231 184.547516 
L 1240.564361 184.401403 
L 1237.634869 184.111518 
L 1235.023747 183.800529 
L 1228.46505 183.116828 
L 1221.344322 182.581658 
L 1211.746966 182.265047 
L 1207.244599 182.351845 
L 1203.719601 182.621009 
L 1200.407059 182.999776 
L 1195.054105 184.167277 
L 1191.484506 185.392747 
L 1187.132343 187.638218 
L 1184.968882 188.952143 
L 1183.146989 190.664992 
L 1182.355498 191.894048 
L 1182.048339 192.888467 
L 1182.05723 193.50372 
L 1182.272834 193.797931 
L 1182.890548 194.040693 
L 1184.073629 194.314157 
L 1186.067336 194.537167 
L 1188.537683 194.657465 
L 1191.982239 194.682567 
L 1214.864338 194.78244 
L 1229.088671 194.840037 
L 1247.467193 194.561821 
L 1250.773284 194.36978 
L 1254.456465 194.210195 
L 1258.682271 193.901719 
L 1260.144734 193.820539 
L 1264.662979 193.568811 
L 1265.142155 193.697696 
L 1264.774847 193.723873 
L 1265.966613 193.961629 
L 1266.525066 194.049037 
L 1266.443199 194.07814 
" style="fill:none;stroke:#000000;stroke-linecap:square;stroke-width:1.2;"/>
   </g>
   <g id="line2d_57">
    <path clip-path="url(#pc7c7a85152)" d="M 1264.621449 162.455151 
L 1264.318644 162.268905 
L 1263.755536 161.994109 
L 1260.515498 161.169607 
L 1260.014214 161.050036 
L 1258.305471 160.449191 
L 1255.437571 159.744936 
L 1253.174554 159.287045 
L 1252.18802 159.181777 
L 1251.772921 158.905965 
L 1250.178374 158.771657 
L 1247.530609 158.15097 
L 1244.033825 157.646995 
L 1243.236989 157.432741 
L 1225.104668 155.442538 
L 1206.884649 154.459916 
L 1201.520843 154.44109 
L 1198.21987 154.660058 
L 1194.284347 155.265492 
L 1190.629406 156.167896 
L 1187.547557 157.387218 
L 1183.541359 159.572853 
L 1182.570141 160.436397 
L 1181.933682 161.315108 
L 1181.682783 162.023007 
L 1181.699118 162.477557 
L 1182.087243 162.880362 
L 1182.875939 163.17683 
L 1184.140521 163.434454 
L 1186.092806 163.593036 
L 1189.33337 163.612057 
L 1194.123814 163.416136 
L 1211.531639 162.979827 
L 1235.768249 162.868047 
L 1251.599934 162.896146 
L 1264.53006 162.812717 
L 1264.665977 162.890883 
L 1264.665977 162.890883 
" style="fill:none;stroke:#000000;stroke-linecap:square;stroke-width:1.2;"/>
   </g>
   <g id="line2d_58">
    <path clip-path="url(#pc7c7a85152)" d="M 1263.935576 131.051019 
L 1263.748765 131.02397 
L 1261.397193 130.249069 
L 1259.667921 129.187766 
L 1257.820912 128.275883 
L 1251.254797 125.182312 
L 1249.489077 124.196391 
L 1248.241308 123.543963 
L 1247.083099 123.082071 
L 1245.214248 122.124407 
L 1242.556344 120.951952 
L 1232.419574 116.347726 
L 1229.243887 114.967051 
L 1225.886261 113.736534 
L 1225.231885 113.353657 
L 1218.175184 110.989589 
L 1215.415165 110.203757 
L 1210.888648 109.35977 
L 1207.755563 109.099403 
L 1205.391722 109.14179 
L 1203.832286 109.305212 
L 1201.712228 109.739365 
L 1198.246332 111.024182 
L 1196.268822 112.139583 
L 1192.233779 115.211614 
L 1188.988593 118.557112 
L 1187.756108 120.124738 
L 1187.159852 120.994664 
L 1186.353461 122.53386 
L 1185.046489 124.258008 
L 1183.393597 126.424139 
L 1182.188538 128.531939 
L 1181.751484 130.068958 
L 1181.700433 130.999937 
L 1181.845145 131.372419 
L 1182.338074 131.613508 
L 1183.436216 131.921651 
L 1186.16204 132.382339 
L 1191.255664 133.028361 
L 1195.669217 133.227668 
L 1205.175168 133.115275 
L 1211.707167 132.893865 
L 1230.808036 131.955117 
L 1255.974313 131.132478 
L 1260.471422 131.182412 
L 1263.798233 131.486751 
L 1263.798233 131.486751 
" style="fill:none;stroke:#000000;stroke-linecap:square;stroke-width:1.2;"/>
   </g>
   <g id="line2d_59">
    <path clip-path="url(#pc7c7a85152)" d="M 1265.380308 99.388298 
L 1265.120727 99.360598 
L 1264.446871 98.990643 
L 1264.073682 98.602919 
L 1261.059221 95.955305 
L 1260.615744 95.55614 
L 1260.159765 94.94339 
L 1259.699801 94.633784 
L 1259.312037 94.120127 
L 1258.684294 93.705412 
L 1257.41889 92.694091 
L 1256.003856 91.660636 
L 1255.373318 91.12877 
L 1253.68564 90.195933 
L 1252.153689 89.121881 
L 1250.353678 88.193721 
L 1249.952711 87.783746 
L 1246.88534 86.079151 
L 1243.726102 84.75449 
L 1243.109726 84.317489 
L 1238.208055 82.49531 
L 1235.474003 81.579811 
L 1231.389797 80.531546 
L 1228.582164 79.908332 
L 1224.034283 79.334462 
L 1219.694652 79.114651 
L 1216.100987 79.188521 
L 1212.208449 79.502416 
L 1207.677947 80.238101 
L 1205.751425 80.683189 
L 1199.231903 82.932527 
L 1195.142344 85.028178 
L 1193.282287 86.157498 
L 1190.49631 88.149979 
L 1187.363719 91.122642 
L 1184.418806 94.44981 
L 1183.649091 95.37883 
L 1182.564122 97.173959 
L 1182.181412 98.3587 
L 1182.133123 98.965791 
L 1182.367414 99.075183 
L 1183.686037 98.949216 
L 1186.339732 98.530548 
L 1188.274287 98.0664 
L 1193.319733 96.264986 
L 1198.320964 94.466145 
L 1205.498346 92.499706 
L 1210.361609 91.662308 
L 1215.754775 91.236342 
L 1220.292385 91.179444 
L 1223.815266 91.325019 
L 1230.765101 91.991449 
L 1236.460048 92.77804 
L 1241.839038 93.720267 
L 1245.681936 94.363563 
L 1251.385315 95.564338 
L 1253.362707 96.033653 
L 1256.740375 96.883174 
L 1260.788563 98.218587 
L 1264.922057 99.785935 
L 1265.263077 99.82403 
L 1265.263077 99.82403 
" style="fill:none;stroke:#000000;stroke-linecap:square;stroke-width:1.2;"/>
   </g>
   <g id="line2d_60">
    <path clip-path="url(#pc7c7a85152)" d="M 1265.473793 67.986322 
L 1265.300126 67.97728 
L 1264.627581 67.399283 
L 1262.287031 66.625865 
L 1260.191516 65.493218 
L 1258.549106 64.786654 
L 1257.982541 64.593524 
L 1257.434483 64.215164 
L 1255.507151 63.575794 
L 1254.686394 63.398498 
L 1254.246464 63.037642 
L 1253.066383 62.825485 
L 1252.380603 62.504804 
L 1243.58858 60.179401 
L 1233.363309 58.638592 
L 1227.008894 57.955417 
L 1214.82893 57.410049 
L 1210.106281 57.483679 
L 1207.311824 57.708698 
L 1204.563969 57.995781 
L 1198.205376 59.18302 
L 1193.97618 60.284881 
L 1187.952115 62.683241 
L 1186.100347 63.492645 
L 1184.663621 64.442388 
L 1183.927711 64.960796 
L 1182.836542 66.031467 
L 1182.258477 67.008124 
L 1182.16699 67.448578 
L 1182.373253 67.542512 
L 1183.428505 67.470892 
L 1184.899748 67.274227 
L 1187.128451 66.83132 
L 1189.570537 66.142121 
L 1190.679461 65.698542 
L 1191.962831 65.338783 
L 1192.833818 64.846587 
L 1195.751046 63.913546 
L 1203.504203 61.498218 
L 1205.143623 61.118815 
L 1205.899587 60.827112 
L 1207.503289 60.498051 
L 1208.224215 60.215223 
L 1210.563882 59.715462 
L 1214.858936 58.857217 
L 1221.736278 58.038013 
L 1228.549533 57.770884 
L 1233.63264 57.951572 
L 1236.622022 58.209911 
L 1241.82483 58.927136 
L 1243.482846 59.263362 
L 1246.556071 60.066539 
L 1249.161894 60.794225 
L 1250.824736 61.304401 
L 1250.848085 61.531506 
L 1253.341733 62.33461 
L 1254.741564 62.923835 
L 1256.291545 63.451793 
L 1259.753251 65.147758 
L 1260.018592 65.442933 
L 1260.657614 65.666684 
L 1261.595614 66.259705 
L 1263.063522 67.240396 
L 1263.095631 67.435171 
L 1265.47131 68.422054 
L 1265.47131 68.422054 
" style="fill:none;stroke:#000000;stroke-linecap:square;stroke-width:1.2;"/>
   </g>
   <g id="text_4">
    <!-- (d) SVD -->
    <defs>
     <path d="M 45.40625 46.390625 
L 45.40625 75.984375 
L 54.390625 75.984375 
L 54.390625 0 
L 45.40625 0 
L 45.40625 8.203125 
Q 42.578125 3.328125 38.25 0.953125 
Q 33.9375 -1.421875 27.875 -1.421875 
Q 17.96875 -1.421875 11.734375 6.484375 
Q 5.515625 14.40625 5.515625 27.296875 
Q 5.515625 40.1875 11.734375 48.09375 
Q 17.96875 56 27.875 56 
Q 33.9375 56 38.25 53.625 
Q 42.578125 51.265625 45.40625 46.390625 
z
M 14.796875 27.296875 
Q 14.796875 17.390625 18.875 11.75 
Q 22.953125 6.109375 30.078125 6.109375 
Q 37.203125 6.109375 41.296875 11.75 
Q 45.40625 17.390625 45.40625 27.296875 
Q 45.40625 37.203125 41.296875 42.84375 
Q 37.203125 48.484375 30.078125 48.484375 
Q 22.953125 48.484375 18.875 42.84375 
Q 14.796875 37.203125 14.796875 27.296875 
z
" id="DejaVuSans-100"/>
     <path d="M 53.515625 70.515625 
L 53.515625 60.890625 
Q 47.90625 63.578125 42.921875 64.890625 
Q 37.9375 66.21875 33.296875 66.21875 
Q 25.25 66.21875 20.875 63.09375 
Q 16.5 59.96875 16.5 54.203125 
Q 16.5 49.359375 19.40625 46.890625 
Q 22.3125 44.4375 30.421875 42.921875 
L 36.375 41.703125 
Q 47.40625 39.59375 52.65625 34.296875 
Q 57.90625 29 57.90625 20.125 
Q 57.90625 9.515625 50.796875 4.046875 
Q 43.703125 -1.421875 29.984375 -1.421875 
Q 24.8125 -1.421875 18.96875 -0.25 
Q 13.140625 0.921875 6.890625 3.21875 
L 6.890625 13.375 
Q 12.890625 10.015625 18.65625 8.296875 
Q 24.421875 6.59375 29.984375 6.59375 
Q 38.421875 6.59375 43.015625 9.90625 
Q 47.609375 13.234375 47.609375 19.390625 
Q 47.609375 24.75 44.3125 27.78125 
Q 41.015625 30.8125 33.5 32.328125 
L 27.484375 33.5 
Q 16.453125 35.6875 11.515625 40.375 
Q 6.59375 45.0625 6.59375 53.421875 
Q 6.59375 63.09375 13.40625 68.65625 
Q 20.21875 74.21875 32.171875 74.21875 
Q 37.3125 74.21875 42.625 73.28125 
Q 47.953125 72.359375 53.515625 70.515625 
z
" id="DejaVuSans-83"/>
     <path d="M 28.609375 0 
L 0.78125 72.90625 
L 11.078125 72.90625 
L 34.1875 11.53125 
L 57.328125 72.90625 
L 67.578125 72.90625 
L 39.796875 0 
z
" id="DejaVuSans-86"/>
    </defs>
    <g transform="translate(1088.83575 36)scale(0.216 -0.216)">
     <use xlink:href="#DejaVuSans-40"/>
     <use x="39.013672" xlink:href="#DejaVuSans-100"/>
     <use x="102.490234" xlink:href="#DejaVuSans-41"/>
     <use x="141.503906" xlink:href="#DejaVuSans-32"/>
     <use x="173.291016" xlink:href="#DejaVuSans-83"/>
     <use x="236.767578" xlink:href="#DejaVuSans-86"/>
     <use x="305.175781" xlink:href="#DejaVuSans-68"/>
    </g>
   </g>
  </g>
  <g id="axes_5">
   <g id="line2d_61">
    <path clip-path="url(#p7dfce77ff8)" d="M 1397.658965 184.631376 
L 1391.854524 184.601418 
L 1382.723851 184.810736 
L 1366.654341 185.2297 
L 1358.652934 185.18842 
L 1352.56094 184.964716 
L 1346.532782 184.564448 
L 1336.969815 183.664064 
L 1330.074544 183.088931 
L 1326.968833 182.988002 
L 1324.130574 183.06941 
L 1321.586174 183.356852 
L 1319.359351 183.853195 
L 1317.471046 184.538983 
L 1315.938754 185.37587 
L 1314.776857 186.313608 
L 1313.996203 187.297529 
L 1313.604026 188.277234 
L 1313.604026 189.203656 
L 1313.996203 190.006085 
L 1314.776857 190.685496 
L 1315.938754 191.260703 
L 1317.471046 191.753161 
L 1320.431677 192.376102 
L 1324.130574 192.882012 
L 1328.490023 193.246645 
L 1333.418605 193.40764 
L 1338.812871 193.303499 
L 1344.559533 192.912302 
L 1350.538154 192.268931 
L 1358.652934 191.160089 
L 1387.083301 186.867813 
L 1393.742828 185.671071 
L 1397.658965 184.828338 
L 1397.658965 184.828338 
" style="fill:none;stroke:#000000;stroke-linecap:square;stroke-width:1.2;"/>
   </g>
   <g id="line2d_62">
    <path clip-path="url(#p7dfce77ff8)" d="M 1397.658965 158.264381 
L 1381.13933 155.980519 
L 1372.401003 154.970624 
L 1364.681092 154.254177 
L 1356.623082 153.712767 
L 1348.527226 153.395957 
L 1340.69512 153.295519 
L 1330.074544 153.400043 
L 1320.431677 153.685217 
L 1317.471046 153.929956 
L 1315.310749 154.352133 
L 1314.338338 154.771304 
L 1313.751208 155.321135 
L 1313.554909 156.010662 
L 1313.751208 156.806099 
L 1314.338338 157.652225 
L 1315.310749 158.51458 
L 1316.659442 159.355498 
L 1318.371717 160.138783 
L 1320.431677 160.834381 
L 1322.820064 161.421699 
L 1325.51459 161.891525 
L 1330.074544 162.382861 
L 1335.170324 162.654913 
L 1342.612188 162.764971 
L 1350.538154 162.65892 
L 1358.652934 162.35111 
L 1366.654341 161.833242 
L 1374.244059 161.137594 
L 1384.245041 159.979636 
L 1397.217671 158.478522 
L 1397.658965 158.438395 
L 1397.658965 158.438395 
" style="fill:none;stroke:#000000;stroke-linecap:square;stroke-width:1.2;"/>
   </g>
   <g id="line2d_63">
    <path clip-path="url(#p7dfce77ff8)" d="M 1397.658965 124.261974 
L 1392.842158 123.270013 
L 1387.083301 122.320654 
L 1381.13933 121.566081 
L 1374.244059 120.926085 
L 1366.654341 120.467545 
L 1358.652934 120.243671 
L 1352.56094 120.264425 
L 1346.532782 120.473506 
L 1340.69512 120.880895 
L 1335.170324 121.469342 
L 1328.490023 122.442971 
L 1321.586174 123.715496 
L 1316.659442 124.83997 
L 1314.776857 125.4582 
L 1313.996203 125.873578 
L 1313.604026 126.305628 
L 1313.604026 126.755196 
L 1313.996203 127.190473 
L 1314.776857 127.593248 
L 1315.938754 127.945271 
L 1317.471046 128.228802 
L 1320.431677 128.502537 
L 1324.130574 128.601483 
L 1348.527226 128.729368 
L 1360.67572 128.938714 
L 1366.654341 128.857257 
L 1372.401003 128.587289 
L 1377.795269 128.131611 
L 1382.723851 127.529996 
L 1388.39381 126.614542 
L 1394.554432 125.355376 
L 1397.658965 124.621826 
L 1397.658965 124.621826 
" style="fill:none;stroke:#000000;stroke-linecap:square;stroke-width:1.2;"/>
   </g>
   <g id="line2d_64">
    <path clip-path="url(#p7dfce77ff8)" d="M 1397.658965 94.425721 
L 1390.782197 93.16859 
L 1382.723851 91.907806 
L 1374.244059 90.814648 
L 1366.654341 90.042115 
L 1358.652934 89.437977 
L 1350.538154 89.025186 
L 1338.812871 88.671162 
L 1324.130574 88.414716 
L 1320.431677 88.499812 
L 1317.471046 88.791844 
L 1315.938754 89.138283 
L 1314.776857 89.623484 
L 1313.996203 90.253035 
L 1313.604026 91.024169 
L 1313.604026 91.916818 
L 1313.996203 92.851056 
L 1314.776857 93.780234 
L 1315.938754 94.663788 
L 1317.471046 95.46126 
L 1319.359351 96.1366 
L 1321.586174 96.661485 
L 1324.130574 97.019183 
L 1326.968833 97.207063 
L 1330.074544 97.236606 
L 1335.170324 97.041829 
L 1358.652934 95.682688 
L 1366.654341 95.573596 
L 1387.083301 95.44696 
L 1392.842158 95.135426 
L 1397.658965 94.667811 
L 1397.658965 94.667811 
" style="fill:none;stroke:#000000;stroke-linecap:square;stroke-width:1.2;"/>
   </g>
   <g id="line2d_65">
    <path clip-path="url(#p7dfce77ff8)" d="M 1397.658965 59.907452 
L 1385.699368 58.722385 
L 1368.601771 56.767349 
L 1356.623082 55.476924 
L 1350.538154 54.985702 
L 1344.559533 54.697417 
L 1338.812871 54.664968 
L 1333.418605 54.901805 
L 1328.490023 55.379271 
L 1324.130574 56.043167 
L 1320.431677 56.842264 
L 1317.471046 57.754335 
L 1315.938754 58.430447 
L 1314.776857 59.172361 
L 1313.996203 59.990949 
L 1313.604026 60.894502 
L 1313.604026 61.875176 
L 1313.996203 62.859578 
L 1314.776857 63.808627 
L 1315.938754 64.687564 
L 1317.471046 65.461275 
L 1319.359351 66.100831 
L 1321.586174 66.588072 
L 1324.130574 66.919321 
L 1326.968833 67.105908 
L 1331.718694 67.167114 
L 1340.69512 66.938788 
L 1358.652934 66.221361 
L 1366.654341 65.695449 
L 1374.244059 64.931261 
L 1379.49518 64.205795 
L 1385.699368 63.109504 
L 1391.854524 61.745339 
L 1397.658965 60.194435 
L 1397.658965 60.194435 
" style="fill:none;stroke:#000000;stroke-linecap:square;stroke-width:1.2;"/>
   </g>
   <g id="line2d_66">
    <path clip-path="url(#p7dfce77ff8)" d="M 1492.276028 189.666232 
L 1481.700363 187.941066 
L 1474.112243 186.962246 
L 1467.018066 186.270693 
L 1459.298155 185.721888 
L 1449.207855 185.229024 
L 1437.229251 184.883743 
L 1428.035668 184.848095 
L 1421.585896 185.031722 
L 1416.203237 185.414659 
L 1412.98878 185.836041 
L 1410.555817 186.388055 
L 1409.39392 186.841704 
L 1408.613266 187.374139 
L 1408.221089 187.992804 
L 1408.221089 188.694616 
L 1408.613266 189.431796 
L 1409.39392 190.182535 
L 1410.555817 190.927416 
L 1412.088109 191.644872 
L 1413.976413 192.314564 
L 1416.203237 192.919323 
L 1420.131653 193.678599 
L 1424.691607 194.239808 
L 1429.787387 194.589294 
L 1435.312183 194.714433 
L 1441.149845 194.603977 
L 1447.178003 194.259474 
L 1453.269997 193.708781 
L 1461.271404 192.762361 
L 1478.862104 190.572435 
L 1485.39926 190.040226 
L 1491.05408 189.816559 
L 1492.276028 189.800484 
L 1492.276028 189.800484 
" style="fill:none;stroke:#000000;stroke-linecap:square;stroke-width:1.2;"/>
   </g>
   <g id="line2d_67">
    <path clip-path="url(#p7dfce77ff8)" d="M 1492.276028 156.359632 
L 1484.244848 156.173624 
L 1470.660613 155.851174 
L 1463.218834 155.48 
L 1455.292783 154.893578 
L 1443.144289 153.718301 
L 1429.787387 152.444559 
L 1423.107086 152.026201 
L 1418.747637 151.923657 
L 1415.04874 152.034343 
L 1412.98878 152.245577 
L 1411.276505 152.582392 
L 1409.927812 153.057816 
L 1408.955401 153.681286 
L 1408.368271 154.455747 
L 1408.171972 155.375468 
L 1408.368271 156.382842 
L 1408.955401 157.403964 
L 1409.927812 158.396247 
L 1411.276505 159.314919 
L 1412.98878 160.119222 
L 1415.04874 160.778463 
L 1417.437127 161.276253 
L 1420.131653 161.612619 
L 1423.107086 161.803166 
L 1428.035668 161.875494 
L 1437.229251 161.685802 
L 1453.269997 161.137776 
L 1461.271404 160.696698 
L 1468.861122 160.059955 
L 1475.756393 159.251626 
L 1483.010873 158.163867 
L 1492.276028 156.525084 
L 1492.276028 156.525084 
" style="fill:none;stroke:#000000;stroke-linecap:square;stroke-width:1.2;"/>
   </g>
   <g id="line2d_68">
    <path clip-path="url(#p7dfce77ff8)" d="M 1492.276028 124.109341 
L 1487.45922 124.072514 
L 1481.700363 123.827317 
L 1475.756393 123.371113 
L 1468.861122 122.636048 
L 1457.303795 121.134759 
L 1447.178003 119.90252 
L 1441.149845 119.392375 
L 1435.312183 119.168836 
L 1431.586878 119.203407 
L 1428.035668 119.384859 
L 1423.107086 119.903308 
L 1418.747637 120.65217 
L 1415.04874 121.554477 
L 1412.088109 122.560169 
L 1410.555817 123.282331 
L 1409.39392 124.053345 
L 1408.613266 124.8847 
L 1408.221089 125.788984 
L 1408.221089 126.766055 
L 1408.613266 127.755932 
L 1409.39392 128.735419 
L 1410.555817 129.682458 
L 1412.088109 130.56944 
L 1413.976413 131.368125 
L 1416.203237 132.053389 
L 1418.747637 132.606976 
L 1421.585896 133.01941 
L 1424.691607 133.289079 
L 1429.787387 133.43873 
L 1435.312183 133.310392 
L 1441.149845 132.935485 
L 1447.178003 132.339149 
L 1453.269997 131.545087 
L 1461.271404 130.240243 
L 1470.660613 128.407512 
L 1488.359891 124.813993 
L 1492.276028 124.201194 
L 1492.276028 124.201194 
" style="fill:none;stroke:#000000;stroke-linecap:square;stroke-width:1.2;"/>
   </g>
   <g id="line2d_69">
    <path clip-path="url(#p7dfce77ff8)" d="M 1492.276028 91.514458 
L 1487.45922 90.732459 
L 1481.700363 90.018009 
L 1474.112243 89.337175 
L 1465.135901 88.772585 
L 1453.269997 88.252196 
L 1441.149845 87.940444 
L 1431.586878 87.941371 
L 1424.691607 88.163273 
L 1418.747637 88.593074 
L 1415.04874 89.063428 
L 1412.088109 89.690083 
L 1410.555817 90.216572 
L 1409.39392 90.848328 
L 1408.613266 91.600218 
L 1408.221089 92.484401 
L 1408.221089 93.497618 
L 1408.613266 94.569244 
L 1409.39392 95.66302 
L 1410.555817 96.745018 
L 1412.088109 97.776401 
L 1413.976413 98.718232 
L 1416.203237 99.535229 
L 1418.747637 100.20005 
L 1421.585896 100.696068 
L 1424.691607 101.017209 
L 1428.035668 101.168203 
L 1431.586878 101.161433 
L 1437.229251 100.894476 
L 1443.144289 100.378479 
L 1451.240145 99.411941 
L 1461.271404 97.928483 
L 1470.660613 96.320479 
L 1480.316431 94.463919 
L 1489.892183 92.394055 
L 1492.276028 91.835092 
L 1492.276028 91.835092 
" style="fill:none;stroke:#000000;stroke-linecap:square;stroke-width:1.2;"/>
   </g>
   <g id="line2d_70">
    <path clip-path="url(#p7dfce77ff8)" d="M 1492.276028 63.426003 
L 1486.471587 62.417109 
L 1478.862104 61.319373 
L 1463.218834 59.390216 
L 1447.178003 57.290253 
L 1437.229251 56.024768 
L 1431.586878 55.463427 
L 1426.335757 55.137496 
L 1421.585896 55.082515 
L 1417.437127 55.305864 
L 1415.04874 55.608629 
L 1412.98878 56.036524 
L 1411.276505 56.595174 
L 1409.927812 57.292984 
L 1408.955401 58.138416 
L 1408.368271 59.136668 
L 1408.171972 60.286479 
L 1408.368271 61.524513 
L 1408.955401 62.763974 
L 1409.927812 63.955556 
L 1411.276505 65.046147 
L 1412.98878 65.986033 
L 1415.04874 66.736343 
L 1417.437127 67.274727 
L 1420.131653 67.598743 
L 1423.107086 67.72591 
L 1428.035668 67.622097 
L 1435.312183 67.162355 
L 1449.207855 66.275292 
L 1461.271404 65.800155 
L 1477.340914 65.22746 
L 1484.244848 64.751528 
L 1489.171495 64.198031 
L 1492.276028 63.708916 
L 1492.276028 63.708916 
" style="fill:none;stroke:#000000;stroke-linecap:square;stroke-width:1.2;"/>
   </g>
   <g id="line2d_71">
    <path clip-path="url(#p7dfce77ff8)" d="M 1586.893091 187.318205 
L 1570.373456 186.347671 
L 1559.752964 185.956353 
L 1549.909846 185.858632 
L 1539.77228 186.021782 
L 1517.724149 186.547117 
L 1504.010983 186.638709 
L 1502.985334 186.858 
L 1502.789035 187.073864 
L 1502.985334 187.339481 
L 1503.572464 187.642211 
L 1505.17288 188.154545 
L 1507.605842 188.713055 
L 1512.05419 189.457536 
L 1516.202959 189.946866 
L 1520.95282 190.323892 
L 1528.046997 190.617439 
L 1537.761352 190.707347 
L 1553.915218 190.572606 
L 1563.478185 190.343263 
L 1570.373456 189.983566 
L 1576.317426 189.434711 
L 1581.088649 188.760297 
L 1585.671143 187.8523 
L 1586.893091 187.558996 
L 1586.893091 187.558996 
" style="fill:none;stroke:#000000;stroke-linecap:square;stroke-width:1.2;"/>
   </g>
   <g id="line2d_72">
    <path clip-path="url(#p7dfce77ff8)" d="M 1586.893091 155.436122 
L 1582.076283 155.605893 
L 1576.317426 155.564503 
L 1570.373456 155.286905 
L 1563.478185 154.718412 
L 1555.888467 153.851415 
L 1545.857208 152.45409 
L 1533.793659 150.748588 
L 1528.046997 150.127378 
L 1522.652731 149.809998 
L 1519.30867 149.808885 
L 1516.202959 149.989859 
L 1513.364699 150.349372 
L 1510.820299 150.868798 
L 1508.593476 151.517178 
L 1506.705172 152.254297 
L 1505.17288 153.036247 
L 1504.010983 153.821648 
L 1503.230329 154.576441 
L 1502.838152 155.2783 
L 1502.838152 155.912377 
L 1503.230329 156.454929 
L 1504.010983 156.932714 
L 1505.17288 157.38154 
L 1507.605842 158.071368 
L 1513.364699 159.419398 
L 1519.30867 160.624424 
L 1524.40445 161.445061 
L 1529.929246 162.044692 
L 1533.793659 162.266842 
L 1537.761352 162.325086 
L 1541.795066 162.216472 
L 1547.88706 161.766189 
L 1553.915218 161.043545 
L 1561.635129 159.839566 
L 1586.893091 155.49969 
L 1586.893091 155.49969 
" style="fill:none;stroke:#000000;stroke-linecap:square;stroke-width:1.2;"/>
   </g>
   <g id="line2d_73">
    <path clip-path="url(#p7dfce77ff8)" d="M 1586.893091 125.540175 
L 1580.016323 124.960678 
L 1568.729306 123.764394 
L 1545.857208 121.223652 
L 1537.761352 120.548088 
L 1531.846313 120.221244 
L 1526.203941 120.090212 
L 1520.95282 120.170998 
L 1516.202959 120.457186 
L 1512.05419 120.922394 
L 1508.593476 121.528585 
L 1505.893568 122.237171 
L 1504.544875 122.751463 
L 1503.572464 123.292951 
L 1502.985334 123.859465 
L 1502.789035 124.451118 
L 1502.985334 125.04596 
L 1503.572464 125.626548 
L 1504.544875 126.196965 
L 1505.893568 126.756315 
L 1508.593476 127.561465 
L 1512.05419 128.294628 
L 1516.202959 128.911579 
L 1520.95282 129.369324 
L 1526.203941 129.63758 
L 1531.846313 129.706933 
L 1537.761352 129.590988 
L 1545.857208 129.206957 
L 1557.835897 128.353508 
L 1576.317426 126.75751 
L 1586.893091 125.679964 
L 1586.893091 125.679964 
" style="fill:none;stroke:#000000;stroke-linecap:square;stroke-width:1.2;"/>
   </g>
   <g id="line2d_74">
    <path clip-path="url(#p7dfce77ff8)" d="M 1586.893091 91.691532 
L 1581.088649 90.6514 
L 1574.933494 89.755706 
L 1567.029395 88.856036 
L 1557.835897 88.059217 
L 1547.88706 87.43303 
L 1539.77228 87.169605 
L 1533.793659 87.217937 
L 1528.046997 87.560293 
L 1524.40445 87.974407 
L 1520.95282 88.537308 
L 1517.724149 89.234343 
L 1514.748716 90.040226 
L 1510.820299 91.381905 
L 1507.605842 92.787196 
L 1505.893568 93.718465 
L 1504.544875 94.629842 
L 1503.572464 95.517541 
L 1502.985334 96.383255 
L 1502.789035 97.230414 
L 1502.985334 98.026829 
L 1503.572464 98.736575 
L 1504.544875 99.351558 
L 1505.893568 99.86004 
L 1507.605842 100.251112 
L 1509.665803 100.518823 
L 1513.364699 100.694789 
L 1517.724149 100.636981 
L 1524.40445 100.301296 
L 1535.766908 99.455055 
L 1545.857208 98.462136 
L 1553.915218 97.459864 
L 1563.478185 96.034687 
L 1577.627936 93.632337 
L 1586.893091 91.978773 
L 1586.893091 91.978773 
" style="fill:none;stroke:#000000;stroke-linecap:square;stroke-width:1.2;"/>
   </g>
   <g id="line2d_75">
    <path clip-path="url(#p7dfce77ff8)" d="M 1586.893091 62.335892 
L 1581.088649 61.437189 
L 1573.479167 60.464193 
L 1561.635129 59.214862 
L 1539.77228 57.180666 
L 1531.846313 56.623069 
L 1526.203941 56.39431 
L 1520.95282 56.37825 
L 1516.202959 56.593949 
L 1512.05419 57.038845 
L 1508.593476 57.702606 
L 1506.705172 58.264298 
L 1505.17288 58.922978 
L 1504.010983 59.682131 
L 1503.230329 60.544779 
L 1502.838152 61.511817 
L 1502.838152 62.568575 
L 1503.230329 63.634007 
L 1504.010983 64.667516 
L 1505.17288 65.632718 
L 1506.705172 66.49049 
L 1508.593476 67.204619 
L 1510.820299 67.746232 
L 1513.364699 68.098384 
L 1516.202959 68.258503 
L 1519.30867 68.237695 
L 1524.40445 67.921354 
L 1531.846313 67.143773 
L 1547.88706 65.340287 
L 1557.835897 64.487008 
L 1568.729306 63.806631 
L 1582.976954 62.930234 
L 1586.893091 62.5513 
L 1586.893091 62.5513 
" style="fill:none;stroke:#000000;stroke-linecap:square;stroke-width:1.2;"/>
   </g>
   <g id="text_5">
    <!-- (e) FFD -->
    <defs>
     <path d="M 56.203125 29.59375 
L 56.203125 25.203125 
L 14.890625 25.203125 
Q 15.484375 15.921875 20.484375 11.0625 
Q 25.484375 6.203125 34.421875 6.203125 
Q 39.59375 6.203125 44.453125 7.46875 
Q 49.3125 8.734375 54.109375 11.28125 
L 54.109375 2.78125 
Q 49.265625 0.734375 44.1875 -0.34375 
Q 39.109375 -1.421875 33.890625 -1.421875 
Q 20.796875 -1.421875 13.15625 6.1875 
Q 5.515625 13.8125 5.515625 26.8125 
Q 5.515625 40.234375 12.765625 48.109375 
Q 20.015625 56 32.328125 56 
Q 43.359375 56 49.78125 48.890625 
Q 56.203125 41.796875 56.203125 29.59375 
z
M 47.21875 32.234375 
Q 47.125 39.59375 43.09375 43.984375 
Q 39.0625 48.390625 32.421875 48.390625 
Q 24.90625 48.390625 20.390625 44.140625 
Q 15.875 39.890625 15.1875 32.171875 
z
" id="DejaVuSans-101"/>
     <path d="M 9.8125 72.90625 
L 51.703125 72.90625 
L 51.703125 64.59375 
L 19.671875 64.59375 
L 19.671875 43.109375 
L 48.578125 43.109375 
L 48.578125 34.8125 
L 19.671875 34.8125 
L 19.671875 0 
L 9.8125 0 
z
" id="DejaVuSans-70"/>
    </defs>
    <g transform="translate(1410.9795 36)scale(0.216 -0.216)">
     <use xlink:href="#DejaVuSans-40"/>
     <use x="39.013672" xlink:href="#DejaVuSans-101"/>
     <use x="100.537109" xlink:href="#DejaVuSans-41"/>
     <use x="139.550781" xlink:href="#DejaVuSans-32"/>
     <use x="171.337891" xlink:href="#DejaVuSans-70"/>
     <use x="228.857422" xlink:href="#DejaVuSans-70"/>
     <use x="286.376953" xlink:href="#DejaVuSans-68"/>
    </g>
   </g>
  </g>
 </g>
 <defs>
  <clipPath id="p0b0f862db0">
   <rect height="165.36" width="300.672" x="19.44" y="42"/>
  </clipPath>
  <clipPath id="p77d977792d">
   <rect height="165.36" width="300.672" x="339.552" y="42"/>
  </clipPath>
  <clipPath id="pa6cbece8d3">
   <rect height="165.36" width="300.672" x="659.664" y="42"/>
  </clipPath>
  <clipPath id="pc7c7a85152">
   <rect height="165.36" width="300.672" x="979.776" y="42"/>
  </clipPath>
  <clipPath id="p7dfce77ff8">
   <rect height="165.36" width="300.672" x="1299.888" y="42"/>
  </clipPath>
 </defs>
</svg>
