<?xml version="1.0" encoding="utf-8" standalone="no"?>
<!DOCTYPE svg PUBLIC "-//W3C//DTD SVG 1.1//EN"
  "http://www.w3.org/Graphics/SVG/1.1/DTD/svg11.dtd">
<!-- Created with matplotlib (https://matplotlib.org/) -->
<svg height="345.6pt" version="1.1" viewBox="0 0 460.8 345.6" width="460.8pt" xmlns="http://www.w3.org/2000/svg" xmlns:xlink="http://www.w3.org/1999/xlink">
 <defs>
  <style type="text/css">
*{stroke-linecap:butt;stroke-linejoin:round;}
  </style>
 </defs>
 <g id="figure_1">
  <g id="patch_1">
   <path d="M 0 345.6 
L 460.8 345.6 
L 460.8 0 
L 0 0 
z
" style="fill:#ffffff;"/>
  </g>
  <g id="axes_1">
   <g id="patch_2">
    <path d="M 82.01 280.6 
L 441.36 280.6 
L 441.36 19.44 
L 82.01 19.44 
z
" style="fill:#ffffff;"/>
   </g>
   <g id="PolyCollection_1">
    <defs>
     <path d="M 98.344091 -97.885345 
L 98.344091 -97.885345 
L 100.336053 -224.186504 
L 102.328016 -224.186504 
L 104.319978 -224.186504 
L 106.31194 -224.186504 
L 108.303902 -224.186504 
L 110.295865 -227.531947 
L 112.287827 -227.531947 
L 114.279789 -227.531947 
L 116.271752 -227.531947 
L 118.263714 -227.531947 
L 120.255676 -246.885551 
L 122.247639 -246.885551 
L 124.239601 -246.885551 
L 126.231563 -246.885551 
L 128.223525 -246.434304 
L 130.215488 -245.942616 
L 132.20745 -239.398794 
L 134.199412 -240.840899 
L 136.191375 -243.305452 
L 138.183337 -244.082398 
L 140.175299 -247.42952 
L 142.167262 -252.992929 
L 144.159224 -252.992929 
L 146.151186 -253.024051 
L 148.143149 -253.024051 
L 150.135111 -253.024051 
L 152.127073 -255.051081 
L 154.119035 -255.051081 
L 156.110998 -255.797628 
L 158.10296 -256.928424 
L 160.094922 -258.525984 
L 162.086885 -258.525984 
L 164.078847 -259.146317 
L 166.070809 -259.166822 
L 168.062772 -262.424561 
L 170.054734 -262.424561 
L 172.046696 -262.424561 
L 174.038659 -262.424561 
L 176.030621 -262.424561 
L 178.022583 -262.424561 
L 180.014545 -262.424561 
L 182.006508 -262.424561 
L 183.99847 -262.424561 
L 185.990432 -262.424561 
L 187.982395 -262.424561 
L 189.974357 -262.559908 
L 191.966319 -262.559908 
L 193.958282 -262.559908 
L 195.950244 -262.559908 
L 197.942206 -262.559908 
L 199.934169 -262.559908 
L 201.926131 -262.749271 
L 203.918093 -262.749271 
L 205.910055 -262.734194 
L 207.902018 -262.946442 
L 209.89398 -263.117075 
L 211.885942 -262.896716 
L 213.877905 -262.968075 
L 215.869867 -262.968075 
L 217.861829 -262.968075 
L 219.853792 -262.968075 
L 221.845754 -262.968075 
L 223.837716 -264.009992 
L 225.829678 -264.009992 
L 227.821641 -264.693586 
L 229.813603 -264.693586 
L 231.805565 -264.693586 
L 233.797528 -265.551139 
L 235.78949 -265.725424 
L 237.781452 -265.725424 
L 239.773415 -265.725424 
L 241.765377 -265.725424 
L 243.757339 -265.725424 
L 245.749302 -266.795004 
L 247.741264 -266.795004 
L 249.733226 -266.795004 
L 251.725188 -266.795004 
L 253.717151 -266.794123 
L 255.709113 -267.266209 
L 257.701075 -268.192894 
L 259.693038 -268.592147 
L 261.685 -268.592147 
L 263.676962 -268.592147 
L 265.668925 -268.592147 
L 267.660887 -268.134107 
L 269.652849 -268.778941 
L 271.644812 -270.776333 
L 273.636774 -270.805918 
L 275.628736 -270.828685 
L 277.620698 -270.828685 
L 279.612661 -270.828685 
L 281.604623 -274.054441 
L 283.596585 -274.060385 
L 285.588548 -274.060385 
L 287.58051 -274.061935 
L 289.572472 -274.061935 
L 291.564435 -274.220421 
L 293.556397 -274.220421 
L 295.548359 -274.241942 
L 297.540322 -274.241942 
L 299.532284 -274.982062 
L 301.524246 -274.982062 
L 303.516208 -274.893163 
L 305.508171 -274.893163 
L 307.500133 -274.893163 
L 309.492095 -274.893163 
L 311.484058 -274.893163 
L 313.47602 -274.893163 
L 315.467982 -274.938777 
L 317.459945 -274.938777 
L 319.451907 -274.938777 
L 321.443869 -276.671383 
L 323.435831 -276.671383 
L 325.427794 -276.710919 
L 327.419756 -276.710919 
L 329.411718 -276.710919 
L 331.403681 -276.710919 
L 333.395643 -276.710919 
L 335.387605 -276.776571 
L 337.379568 -276.776571 
L 339.37153 -276.776571 
L 341.363492 -276.776571 
L 343.355455 -276.776571 
L 345.347417 -276.776571 
L 347.339379 -276.759593 
L 349.331341 -276.759593 
L 351.323304 -276.759593 
L 353.315266 -276.759593 
L 355.307228 -276.955751 
L 357.299191 -277.798798 
L 359.291153 -277.798798 
L 361.283115 -278.051791 
L 363.275078 -278.051791 
L 365.26704 -278.906203 
L 367.259002 -278.906203 
L 369.250965 -278.906203 
L 371.242927 -278.906203 
L 373.234889 -279.063955 
L 375.226851 -279.063955 
L 377.218814 -279.063955 
L 379.210776 -280.090443 
L 381.202738 -280.090443 
L 383.194701 -280.166947 
L 385.186663 -280.166947 
L 387.178625 -280.166947 
L 389.170588 -280.166947 
L 391.16255 -280.166947 
L 393.154512 -280.166947 
L 395.146475 -280.166947 
L 397.138437 -280.166947 
L 399.130399 -280.166947 
L 401.122361 -280.166947 
L 403.114324 -280.166947 
L 405.106286 -280.166947 
L 407.098248 -280.166947 
L 409.090211 -280.325698 
L 411.082173 -281.723708 
L 413.074135 -281.723708 
L 415.066098 -282.100274 
L 417.05806 -282.100274 
L 419.050022 -282.175929 
L 421.041984 -282.175929 
L 423.033947 -282.175929 
L 425.025909 -282.175929 
L 425.025909 -314.289091 
L 425.025909 -314.289091 
L 423.033947 -314.289091 
L 421.041984 -314.289091 
L 419.050022 -314.289091 
L 417.05806 -314.255316 
L 415.066098 -314.255316 
L 413.074135 -314.10839 
L 411.082173 -314.10839 
L 409.090211 -312.691336 
L 407.098248 -312.756903 
L 405.106286 -312.756903 
L 403.114324 -312.756903 
L 401.122361 -312.756903 
L 399.130399 -312.756903 
L 397.138437 -312.756903 
L 395.146475 -312.756903 
L 393.154512 -312.756903 
L 391.16255 -312.756903 
L 389.170588 -312.756903 
L 387.178625 -312.756903 
L 385.186663 -312.756903 
L 383.194701 -312.756903 
L 381.202738 -312.723646 
L 379.210776 -312.723646 
L 377.218814 -312.354613 
L 375.226851 -312.354613 
L 373.234889 -312.354613 
L 371.242927 -312.417363 
L 369.250965 -312.417363 
L 367.259002 -312.417363 
L 365.26704 -312.417363 
L 363.275078 -312.305867 
L 361.283115 -312.305867 
L 359.291153 -312.189525 
L 357.299191 -312.189525 
L 355.307228 -311.948021 
L 353.315266 -311.797341 
L 351.323304 -311.797341 
L 349.331341 -311.797341 
L 347.339379 -311.797341 
L 345.347417 -311.724297 
L 343.355455 -311.724297 
L 341.363492 -311.724297 
L 339.37153 -311.724297 
L 337.379568 -311.724297 
L 335.387605 -311.724297 
L 333.395643 -311.486842 
L 331.403681 -311.486842 
L 329.411718 -311.486842 
L 327.419756 -311.486842 
L 325.427794 -311.486842 
L 323.435831 -311.184595 
L 321.443869 -311.184595 
L 319.451907 -310.651197 
L 317.459945 -310.651197 
L 315.467982 -310.651197 
L 313.47602 -310.363275 
L 311.484058 -310.363275 
L 309.492095 -310.363275 
L 307.500133 -310.363275 
L 305.508171 -310.363275 
L 303.516208 -310.363275 
L 301.524246 -309.653507 
L 299.532284 -309.653507 
L 297.540322 -309.914194 
L 295.548359 -309.914194 
L 293.556397 -309.91139 
L 291.564435 -309.91139 
L 289.572472 -309.228208 
L 287.58051 -309.228208 
L 285.588548 -309.217505 
L 283.596585 -309.217505 
L 281.604623 -309.212246 
L 279.612661 -306.226795 
L 277.620698 -306.226795 
L 275.628736 -306.226795 
L 273.636774 -306.220785 
L 271.644812 -306.202864 
L 269.652849 -306.062752 
L 267.660887 -305.773544 
L 265.668925 -303.82557 
L 263.676962 -303.82557 
L 261.685 -303.82557 
L 259.693038 -303.82557 
L 257.701075 -303.943107 
L 255.709113 -304.231707 
L 253.717151 -302.551911 
L 251.725188 -302.536487 
L 249.733226 -302.536487 
L 247.741264 -302.536487 
L 245.749302 -302.536487 
L 243.757339 -302.591778 
L 241.765377 -302.591778 
L 239.773415 -302.591778 
L 237.781452 -302.591778 
L 235.78949 -302.591778 
L 233.797528 -302.489518 
L 231.805565 -302.130192 
L 229.813603 -302.130192 
L 227.821641 -302.130192 
L 225.829678 -301.586544 
L 223.837716 -301.586544 
L 221.845754 -300.296789 
L 219.853792 -300.296789 
L 217.861829 -300.296789 
L 215.869867 -300.296789 
L 213.877905 -300.296789 
L 211.885942 -300.249354 
L 209.89398 -299.265758 
L 207.902018 -299.149915 
L 205.910055 -299.018694 
L 203.918093 -298.903614 
L 201.926131 -298.903614 
L 199.934169 -298.804318 
L 197.942206 -298.804318 
L 195.950244 -298.804318 
L 193.958282 -298.804318 
L 191.966319 -298.804318 
L 189.974357 -298.804318 
L 187.982395 -295.588777 
L 185.990432 -295.588777 
L 183.99847 -295.588777 
L 182.006508 -295.588777 
L 180.014545 -295.588777 
L 178.022583 -295.588777 
L 176.030621 -295.588777 
L 174.038659 -295.588777 
L 172.046696 -295.588777 
L 170.054734 -295.588777 
L 168.062772 -295.588777 
L 166.070809 -295.127016 
L 164.078847 -295.107169 
L 162.086885 -294.597864 
L 160.094922 -294.597864 
L 158.10296 -294.692757 
L 156.110998 -292.866164 
L 154.119035 -292.18198 
L 152.127073 -292.18198 
L 150.135111 -290.886289 
L 148.143149 -290.886289 
L 146.151186 -290.886289 
L 144.159224 -290.885954 
L 142.167262 -290.885954 
L 140.175299 -285.861945 
L 138.183337 -283.957753 
L 136.191375 -283.705642 
L 134.199412 -279.894826 
L 132.20745 -277.81058 
L 130.215488 -251.569337 
L 128.223525 -248.171136 
L 126.231563 -246.885551 
L 124.239601 -246.885551 
L 122.247639 -246.885551 
L 120.255676 -246.885551 
L 118.263714 -227.531947 
L 116.271752 -227.531947 
L 114.279789 -227.531947 
L 112.287827 -227.531947 
L 110.295865 -227.531947 
L 108.303902 -224.186504 
L 106.31194 -224.186504 
L 104.319978 -224.186504 
L 102.328016 -224.186504 
L 100.336053 -224.186504 
L 98.344091 -97.885345 
z
" id="mc66c9841c1" style="stroke:#003f5c;stroke-opacity:0.2;"/>
    </defs>
    <g clip-path="url(#p91099c7635)">
     <use style="fill:#003f5c;fill-opacity:0.2;stroke:#003f5c;stroke-opacity:0.2;" x="0" xlink:href="#mc66c9841c1" y="345.6"/>
    </g>
   </g>
   <g id="PolyCollection_2">
    <defs>
     <path d="M 98.344091 -102.106726 
L 98.344091 -102.106726 
L 100.336053 -102.106726 
L 102.328016 -102.106726 
L 104.319978 -102.106726 
L 106.31194 -102.106726 
L 108.303902 -102.106726 
L 110.295865 -117.725755 
L 112.287827 -117.725755 
L 114.279789 -117.725755 
L 116.271752 -117.725755 
L 118.263714 -117.725755 
L 120.255676 -123.028778 
L 122.247639 -123.028778 
L 124.239601 -123.028778 
L 126.231563 -142.159858 
L 128.223525 -140.995199 
L 130.215488 -140.995199 
L 132.20745 -140.995199 
L 134.199412 -140.444152 
L 136.191375 -140.91066 
L 138.183337 -140.91066 
L 140.175299 -140.91066 
L 142.167262 -140.909552 
L 144.159224 -140.909552 
L 146.151186 -140.909552 
L 148.143149 -141.375562 
L 150.135111 -141.375562 
L 152.127073 -141.375562 
L 154.119035 -141.944858 
L 156.110998 -141.944858 
L 158.10296 -141.944858 
L 160.094922 -141.944858 
L 162.086885 -141.944858 
L 164.078847 -141.944858 
L 166.070809 -141.944858 
L 168.062772 -141.989939 
L 170.054734 -141.989939 
L 172.046696 -141.989939 
L 174.038659 -141.989939 
L 176.030621 -142.193269 
L 178.022583 -142.193269 
L 180.014545 -142.983045 
L 182.006508 -142.983045 
L 183.99847 -142.983045 
L 185.990432 -142.994971 
L 187.982395 -142.994971 
L 189.974357 -142.994971 
L 191.966319 -142.994971 
L 193.958282 -143.002406 
L 195.950244 -143.002406 
L 197.942206 -143.002406 
L 199.934169 -143.002406 
L 201.926131 -143.002406 
L 203.918093 -143.251531 
L 205.910055 -143.251531 
L 207.902018 -143.251531 
L 209.89398 -143.251531 
L 211.885942 -143.251531 
L 213.877905 -143.251531 
L 215.869867 -143.251531 
L 217.861829 -143.251531 
L 219.853792 -143.251531 
L 221.845754 -143.290358 
L 223.837716 -143.290358 
L 225.829678 -143.318517 
L 227.821641 -143.33601 
L 229.813603 -143.33601 
L 231.805565 -143.33601 
L 233.797528 -143.33601 
L 235.78949 -143.33601 
L 237.781452 -143.33601 
L 239.773415 -143.33601 
L 241.765377 -143.371499 
L 243.757339 -143.371499 
L 245.749302 -143.371499 
L 247.741264 -143.376869 
L 249.733226 -143.376869 
L 251.725188 -143.376869 
L 253.717151 -143.376869 
L 255.709113 -143.376869 
L 257.701075 -143.376869 
L 259.693038 -143.376869 
L 261.685 -143.376869 
L 263.676962 -143.376869 
L 265.668925 -143.376869 
L 267.660887 -143.377632 
L 269.652849 -143.377632 
L 271.644812 -143.377632 
L 273.636774 -143.377632 
L 275.628736 -143.377632 
L 277.620698 -143.377632 
L 279.612661 -143.377632 
L 281.604623 -143.377632 
L 283.596585 -143.377632 
L 285.588548 -143.377632 
L 287.58051 -143.377632 
L 289.572472 -142.746935 
L 291.564435 -142.746935 
L 293.556397 -142.748632 
L 295.548359 -142.748632 
L 297.540322 -142.748632 
L 299.532284 -142.748632 
L 301.524246 -142.748632 
L 303.516208 -142.748632 
L 305.508171 -142.748632 
L 307.500133 -142.748632 
L 309.492095 -142.748632 
L 311.484058 -142.748632 
L 313.47602 -142.748632 
L 315.467982 -142.822476 
L 317.459945 -142.822476 
L 319.451907 -142.822476 
L 321.443869 -142.822476 
L 323.435831 -142.822476 
L 325.427794 -142.822476 
L 327.419756 -142.822476 
L 329.411718 -142.822476 
L 331.403681 -142.822476 
L 333.395643 -142.822476 
L 335.387605 -142.822476 
L 337.379568 -142.822476 
L 339.37153 -142.822476 
L 341.363492 -142.822476 
L 343.355455 -142.822476 
L 345.347417 -142.822476 
L 347.339379 -142.822476 
L 349.331341 -142.822476 
L 351.323304 -142.822476 
L 353.315266 -142.822476 
L 355.307228 -142.822476 
L 357.299191 -142.822476 
L 359.291153 -142.869715 
L 361.283115 -142.869715 
L 363.275078 -142.869715 
L 365.26704 -142.869715 
L 367.259002 -142.869715 
L 369.250965 -142.869715 
L 371.242927 -142.869715 
L 373.234889 -142.869715 
L 375.226851 -142.869715 
L 377.218814 -142.869715 
L 379.210776 -142.869715 
L 381.202738 -142.869715 
L 383.194701 -143.068544 
L 385.186663 -143.068544 
L 387.178625 -143.068544 
L 389.170588 -143.098481 
L 391.16255 -143.098481 
L 393.154512 -143.098481 
L 395.146475 -143.098481 
L 397.138437 -143.098481 
L 399.130399 -143.098481 
L 401.122361 -143.098481 
L 403.114324 -143.098481 
L 405.106286 -143.098481 
L 407.098248 -143.098481 
L 409.090211 -143.134292 
L 411.082173 -143.134292 
L 413.074135 -143.134292 
L 415.066098 -143.134292 
L 417.05806 -143.134292 
L 419.050022 -143.134292 
L 421.041984 -143.134292 
L 423.033947 -143.134292 
L 425.025909 -143.134292 
L 425.025909 -154.000048 
L 425.025909 -154.000048 
L 423.033947 -154.000048 
L 421.041984 -154.000048 
L 419.050022 -154.000048 
L 417.05806 -154.000048 
L 415.066098 -154.000048 
L 413.074135 -154.000048 
L 411.082173 -154.000048 
L 409.090211 -154.000048 
L 407.098248 -154.002709 
L 405.106286 -154.002709 
L 403.114324 -154.002709 
L 401.122361 -154.002709 
L 399.130399 -154.002709 
L 397.138437 -154.002709 
L 395.146475 -154.002709 
L 393.154512 -154.002709 
L 391.16255 -154.002709 
L 389.170588 -154.002709 
L 387.178625 -153.969227 
L 385.186663 -153.969227 
L 383.194701 -153.969227 
L 381.202738 -153.366367 
L 379.210776 -153.366367 
L 377.218814 -153.366367 
L 375.226851 -153.366367 
L 373.234889 -153.366367 
L 371.242927 -153.366367 
L 369.250965 -153.366367 
L 367.259002 -153.366367 
L 365.26704 -153.366367 
L 363.275078 -153.366367 
L 361.283115 -153.366367 
L 359.291153 -153.366367 
L 357.299191 -153.312669 
L 355.307228 -153.312669 
L 353.315266 -153.312669 
L 351.323304 -153.312669 
L 349.331341 -153.312669 
L 347.339379 -153.312669 
L 345.347417 -153.312669 
L 343.355455 -153.312669 
L 341.363492 -153.312669 
L 339.37153 -153.312669 
L 337.379568 -153.312669 
L 335.387605 -153.312669 
L 333.395643 -153.312669 
L 331.403681 -153.312669 
L 329.411718 -153.312669 
L 327.419756 -153.312669 
L 325.427794 -153.312669 
L 323.435831 -153.312669 
L 321.443869 -153.312669 
L 319.451907 -153.312669 
L 317.459945 -153.312669 
L 315.467982 -153.312669 
L 313.47602 -153.244532 
L 311.484058 -153.244532 
L 309.492095 -153.244532 
L 307.500133 -153.244532 
L 305.508171 -153.244532 
L 303.516208 -153.244532 
L 301.524246 -153.244532 
L 299.532284 -153.244532 
L 297.540322 -153.244532 
L 295.548359 -153.244532 
L 293.556397 -153.244532 
L 291.564435 -153.23901 
L 289.572472 -153.23901 
L 287.58051 -150.761345 
L 285.588548 -150.761345 
L 283.596585 -150.761345 
L 281.604623 -150.761345 
L 279.612661 -150.761345 
L 277.620698 -150.761345 
L 275.628736 -150.761345 
L 273.636774 -150.761345 
L 271.644812 -150.761345 
L 269.652849 -150.761345 
L 267.660887 -150.761345 
L 265.668925 -150.758903 
L 263.676962 -150.758903 
L 261.685 -150.758903 
L 259.693038 -150.758903 
L 257.701075 -150.758903 
L 255.709113 -150.758903 
L 253.717151 -150.758903 
L 251.725188 -150.758903 
L 249.733226 -150.758903 
L 247.741264 -150.758903 
L 245.749302 -150.742404 
L 243.757339 -150.742404 
L 241.765377 -150.742404 
L 239.773415 -150.655003 
L 237.781452 -150.655003 
L 235.78949 -150.655003 
L 233.797528 -150.655003 
L 231.805565 -150.655003 
L 229.813603 -150.655003 
L 227.821641 -150.655003 
L 225.829678 -150.654154 
L 223.837716 -150.4163 
L 221.845754 -150.4163 
L 219.853792 -149.999274 
L 217.861829 -149.999274 
L 215.869867 -149.999274 
L 213.877905 -149.999274 
L 211.885942 -149.999274 
L 209.89398 -149.999274 
L 207.902018 -149.999274 
L 205.910055 -149.999274 
L 203.918093 -149.999274 
L 201.926131 -150.003493 
L 199.934169 -150.003493 
L 197.942206 -150.003493 
L 195.950244 -150.003493 
L 193.958282 -150.003493 
L 191.966319 -149.978336 
L 189.974357 -149.978336 
L 187.982395 -149.978336 
L 185.990432 -149.978336 
L 183.99847 -149.944222 
L 182.006508 -149.944222 
L 180.014545 -149.944222 
L 178.022583 -149.345012 
L 176.030621 -149.345012 
L 174.038659 -148.647958 
L 172.046696 -148.647958 
L 170.054734 -148.647958 
L 168.062772 -148.647958 
L 166.070809 -148.645759 
L 164.078847 -148.645759 
L 162.086885 -148.645759 
L 160.094922 -148.645759 
L 158.10296 -148.645759 
L 156.110998 -148.645759 
L 154.119035 -148.645759 
L 152.127073 -147.984158 
L 150.135111 -147.984158 
L 148.143149 -147.984158 
L 146.151186 -147.388886 
L 144.159224 -147.388886 
L 142.167262 -147.388886 
L 140.175299 -147.376379 
L 138.183337 -147.376379 
L 136.191375 -147.376379 
L 134.199412 -147.038214 
L 132.20745 -144.489174 
L 130.215488 -144.489174 
L 128.223525 -144.489174 
L 126.231563 -142.159858 
L 124.239601 -123.028778 
L 122.247639 -123.028778 
L 120.255676 -123.028778 
L 118.263714 -117.725755 
L 116.271752 -117.725755 
L 114.279789 -117.725755 
L 112.287827 -117.725755 
L 110.295865 -117.725755 
L 108.303902 -102.106726 
L 106.31194 -102.106726 
L 104.319978 -102.106726 
L 102.328016 -102.106726 
L 100.336053 -102.106726 
L 98.344091 -102.106726 
z
" id="m3b545dbfae" style="stroke:#7a5195;stroke-opacity:0.2;"/>
    </defs>
    <g clip-path="url(#p91099c7635)">
     <use style="fill:#7a5195;fill-opacity:0.2;stroke:#7a5195;stroke-opacity:0.2;" x="0" xlink:href="#m3b545dbfae" y="345.6"/>
    </g>
   </g>
   <g id="PolyCollection_3">
    <defs>
     <path d="M 98.344091 -76.870909 
L 98.344091 -76.870909 
L 100.336053 -77.308633 
L 102.328016 -82.93808 
L 104.319978 -84.292974 
L 106.31194 -84.292974 
L 108.303902 -87.377601 
L 110.295865 -89.446651 
L 112.287827 -89.446651 
L 114.279789 -89.446651 
L 116.271752 -89.446651 
L 118.263714 -89.446651 
L 120.255676 -108.339471 
L 122.247639 -104.597591 
L 124.239601 -104.597591 
L 126.231563 -104.597591 
L 128.223525 -107.258603 
L 130.215488 -107.770724 
L 132.20745 -110.178442 
L 134.199412 -110.70123 
L 136.191375 -112.892275 
L 138.183337 -114.452866 
L 140.175299 -116.516418 
L 142.167262 -116.524994 
L 144.159224 -119.351295 
L 146.151186 -119.117771 
L 148.143149 -119.735481 
L 150.135111 -121.811776 
L 152.127073 -121.811776 
L 154.119035 -122.867387 
L 156.110998 -122.867387 
L 158.10296 -123.009017 
L 160.094922 -123.009017 
L 162.086885 -123.009017 
L 164.078847 -123.788149 
L 166.070809 -123.788149 
L 168.062772 -123.788149 
L 170.054734 -123.788149 
L 172.046696 -123.782115 
L 174.038659 -123.782115 
L 176.030621 -124.419857 
L 178.022583 -124.419857 
L 180.014545 -124.422477 
L 182.006508 -124.566361 
L 183.99847 -124.566361 
L 185.990432 -124.661037 
L 187.982395 -124.661037 
L 189.974357 -124.661037 
L 191.966319 -126.450634 
L 193.958282 -126.450634 
L 195.950244 -126.466396 
L 197.942206 -130.298968 
L 199.934169 -130.298968 
L 201.926131 -130.298968 
L 203.918093 -130.298968 
L 205.910055 -130.298968 
L 207.902018 -130.552556 
L 209.89398 -132.393788 
L 211.885942 -132.393788 
L 213.877905 -132.393788 
L 215.869867 -132.393788 
L 217.861829 -132.488233 
L 219.853792 -132.488233 
L 221.845754 -132.488233 
L 223.837716 -132.488233 
L 225.829678 -133.627687 
L 227.821641 -134.365858 
L 229.813603 -134.37588 
L 231.805565 -134.37588 
L 233.797528 -134.634713 
L 235.78949 -134.634713 
L 237.781452 -136.88561 
L 239.773415 -136.88561 
L 241.765377 -136.88561 
L 243.757339 -136.88561 
L 245.749302 -136.88561 
L 247.741264 -137.942805 
L 249.733226 -137.942805 
L 251.725188 -137.942805 
L 253.717151 -137.942805 
L 255.709113 -138.03389 
L 257.701075 -138.227392 
L 259.693038 -138.227392 
L 261.685 -138.55074 
L 263.676962 -138.55074 
L 265.668925 -138.957668 
L 267.660887 -138.957668 
L 269.652849 -138.957668 
L 271.644812 -138.957668 
L 273.636774 -138.957668 
L 275.628736 -138.957668 
L 277.620698 -139.028099 
L 279.612661 -139.294731 
L 281.604623 -139.294731 
L 283.596585 -139.294731 
L 285.588548 -139.294731 
L 287.58051 -139.294731 
L 289.572472 -139.294731 
L 291.564435 -139.294731 
L 293.556397 -139.294731 
L 295.548359 -139.294731 
L 297.540322 -139.294731 
L 299.532284 -139.294731 
L 301.524246 -139.294731 
L 303.516208 -139.269873 
L 305.508171 -139.269873 
L 307.500133 -139.853696 
L 309.492095 -139.853696 
L 311.484058 -139.853696 
L 313.47602 -140.002708 
L 315.467982 -140.002708 
L 317.459945 -140.157 
L 319.451907 -140.157 
L 321.443869 -140.157 
L 323.435831 -140.249779 
L 325.427794 -140.249779 
L 327.419756 -140.249779 
L 329.411718 -140.607215 
L 331.403681 -141.757625 
L 333.395643 -141.757625 
L 335.387605 -141.757625 
L 337.379568 -141.757625 
L 339.37153 -141.757625 
L 341.363492 -141.757625 
L 343.355455 -141.757625 
L 345.347417 -141.735744 
L 347.339379 -141.741955 
L 349.331341 -141.741955 
L 351.323304 -141.741955 
L 353.315266 -141.741955 
L 355.307228 -142.851048 
L 357.299191 -144.656428 
L 359.291153 -144.686523 
L 361.283115 -144.686523 
L 363.275078 -144.686523 
L 365.26704 -144.686523 
L 367.259002 -144.686523 
L 369.250965 -144.686523 
L 371.242927 -144.686523 
L 373.234889 -144.686523 
L 375.226851 -144.686523 
L 377.218814 -145.251859 
L 379.210776 -145.251859 
L 381.202738 -145.251859 
L 383.194701 -145.251859 
L 385.186663 -145.251859 
L 387.178625 -145.251859 
L 389.170588 -145.251859 
L 391.16255 -145.251859 
L 393.154512 -145.251859 
L 395.146475 -145.251859 
L 397.138437 -145.251859 
L 399.130399 -145.251859 
L 401.122361 -145.280476 
L 403.114324 -145.280476 
L 405.106286 -145.280476 
L 407.098248 -145.50135 
L 409.090211 -145.50135 
L 411.082173 -145.50135 
L 413.074135 -145.50135 
L 415.066098 -145.50135 
L 417.05806 -145.50135 
L 419.050022 -145.50135 
L 421.041984 -145.50135 
L 423.033947 -145.50135 
L 425.025909 -145.50135 
L 425.025909 -163.044342 
L 425.025909 -163.044342 
L 423.033947 -163.044342 
L 421.041984 -163.044342 
L 419.050022 -163.044342 
L 417.05806 -163.044342 
L 415.066098 -163.044342 
L 413.074135 -163.044342 
L 411.082173 -163.044342 
L 409.090211 -163.044342 
L 407.098248 -163.044342 
L 405.106286 -162.86899 
L 403.114324 -162.86899 
L 401.122361 -162.86899 
L 399.130399 -162.869639 
L 397.138437 -162.869639 
L 395.146475 -162.869639 
L 393.154512 -162.869639 
L 391.16255 -162.869639 
L 389.170588 -162.869639 
L 387.178625 -162.869639 
L 385.186663 -162.869639 
L 383.194701 -162.869639 
L 381.202738 -162.869639 
L 379.210776 -162.869639 
L 377.218814 -162.869639 
L 375.226851 -162.735806 
L 373.234889 -162.735806 
L 371.242927 -162.735806 
L 369.250965 -162.735806 
L 367.259002 -162.735806 
L 365.26704 -162.735806 
L 363.275078 -162.735806 
L 361.283115 -162.735806 
L 359.291153 -162.735806 
L 357.299191 -162.113459 
L 355.307228 -162.635548 
L 353.315266 -161.15518 
L 351.323304 -161.15518 
L 349.331341 -161.15518 
L 347.339379 -161.15518 
L 345.347417 -161.148011 
L 343.355455 -161.071552 
L 341.363492 -161.071552 
L 339.37153 -161.071552 
L 337.379568 -161.071552 
L 335.387605 -161.071552 
L 333.395643 -161.071552 
L 331.403681 -161.071552 
L 329.411718 -160.90193 
L 327.419756 -160.894288 
L 325.427794 -160.894288 
L 323.435831 -160.894288 
L 321.443869 -160.856633 
L 319.451907 -160.856633 
L 317.459945 -160.856633 
L 315.467982 -160.674907 
L 313.47602 -160.674907 
L 311.484058 -160.087509 
L 309.492095 -160.087509 
L 307.500133 -160.087509 
L 305.508171 -160.24567 
L 303.516208 -160.24567 
L 301.524246 -159.263667 
L 299.532284 -159.263667 
L 297.540322 -159.263667 
L 295.548359 -159.263667 
L 293.556397 -159.263667 
L 291.564435 -159.263667 
L 289.572472 -159.263667 
L 287.58051 -159.263667 
L 285.588548 -159.263667 
L 283.596585 -159.263667 
L 281.604623 -159.263667 
L 279.612661 -159.263667 
L 277.620698 -158.999498 
L 275.628736 -159.020099 
L 273.636774 -159.020099 
L 271.644812 -159.020099 
L 269.652849 -159.020099 
L 267.660887 -159.020099 
L 265.668925 -159.020099 
L 263.676962 -158.860932 
L 261.685 -158.860932 
L 259.693038 -158.701923 
L 257.701075 -158.701923 
L 255.709113 -158.637502 
L 253.717151 -158.661908 
L 251.725188 -158.661908 
L 249.733226 -158.661908 
L 247.741264 -158.661908 
L 245.749302 -158.536574 
L 243.757339 -158.536574 
L 241.765377 -158.536574 
L 239.773415 -158.536574 
L 237.781452 -158.536574 
L 235.78949 -157.918458 
L 233.797528 -157.918458 
L 231.805565 -157.870636 
L 229.813603 -157.870636 
L 227.821641 -157.815401 
L 225.829678 -157.437495 
L 223.837716 -157.282306 
L 221.845754 -157.282306 
L 219.853792 -157.282306 
L 217.861829 -157.282306 
L 215.869867 -157.28209 
L 213.877905 -157.28209 
L 211.885942 -157.28209 
L 209.89398 -157.28209 
L 207.902018 -155.162013 
L 205.910055 -154.943169 
L 203.918093 -154.943169 
L 201.926131 -154.943169 
L 199.934169 -154.943169 
L 197.942206 -154.943169 
L 195.950244 -155.190262 
L 193.958282 -155.181606 
L 191.966319 -155.181606 
L 189.974357 -155.431443 
L 187.982395 -155.431443 
L 185.990432 -155.431443 
L 183.99847 -155.4508 
L 182.006508 -155.4508 
L 180.014545 -155.396811 
L 178.022583 -155.393932 
L 176.030621 -155.393932 
L 174.038659 -155.231455 
L 172.046696 -155.231455 
L 170.054734 -155.150057 
L 168.062772 -155.150057 
L 166.070809 -155.150057 
L 164.078847 -155.150057 
L 162.086885 -152.962123 
L 160.094922 -152.962123 
L 158.10296 -152.962123 
L 156.110998 -152.876346 
L 154.119035 -152.876346 
L 152.127073 -151.209872 
L 150.135111 -151.209872 
L 148.143149 -149.95219 
L 146.151186 -149.767502 
L 144.159224 -146.881601 
L 142.167262 -145.462746 
L 140.175299 -145.463842 
L 138.183337 -145.190543 
L 136.191375 -144.757836 
L 134.199412 -143.684023 
L 132.20745 -142.317944 
L 130.215488 -139.956863 
L 128.223525 -139.428271 
L 126.231563 -138.899384 
L 124.239601 -138.899384 
L 122.247639 -138.899384 
L 120.255676 -119.750612 
L 118.263714 -115.013928 
L 116.271752 -115.013928 
L 114.279789 -115.013928 
L 112.287827 -115.013928 
L 110.295865 -115.013928 
L 108.303902 -113.999102 
L 106.31194 -110.198076 
L 104.319978 -110.198076 
L 102.328016 -110.366198 
L 100.336053 -100.763247 
L 98.344091 -76.870909 
z
" id="md88142a259" style="stroke:#ef5675;stroke-opacity:0.2;"/>
    </defs>
    <g clip-path="url(#p91099c7635)">
     <use style="fill:#ef5675;fill-opacity:0.2;stroke:#ef5675;stroke-opacity:0.2;" x="0" xlink:href="#md88142a259" y="345.6"/>
    </g>
   </g>
   <g id="PolyCollection_4">
    <defs>
     <path d="M 98.344091 -77.021218 
L 98.344091 -77.021218 
L 100.336053 -77.089642 
L 102.328016 -77.732145 
L 104.319978 -77.732145 
L 106.31194 -77.732145 
L 108.303902 -89.941663 
L 110.295865 -89.941663 
L 112.287827 -89.941663 
L 114.279789 -89.941663 
L 116.271752 -89.941663 
L 118.263714 -89.941663 
L 120.255676 -89.941663 
L 122.247639 -89.941663 
L 124.239601 -89.941663 
L 126.231563 -89.941663 
L 128.223525 -89.068877 
L 130.215488 -89.073802 
L 132.20745 -89.533689 
L 134.199412 -89.533689 
L 136.191375 -89.533689 
L 138.183337 -89.811209 
L 140.175299 -90.23855 
L 142.167262 -90.508601 
L 144.159224 -90.508601 
L 146.151186 -90.508601 
L 148.143149 -90.508601 
L 150.135111 -89.767237 
L 152.127073 -89.767237 
L 154.119035 -89.767237 
L 156.110998 -90.064473 
L 158.10296 -90.064473 
L 160.094922 -90.175134 
L 162.086885 -90.803584 
L 164.078847 -91.431446 
L 166.070809 -91.43696 
L 168.062772 -91.43696 
L 170.054734 -91.43696 
L 172.046696 -91.43696 
L 174.038659 -91.409479 
L 176.030621 -91.444416 
L 178.022583 -91.444416 
L 180.014545 -91.444416 
L 182.006508 -91.444416 
L 183.99847 -91.444416 
L 185.990432 -91.444416 
L 187.982395 -91.444416 
L 189.974357 -91.45438 
L 191.966319 -91.45438 
L 193.958282 -91.45438 
L 195.950244 -91.45438 
L 197.942206 -91.45438 
L 199.934169 -91.45438 
L 201.926131 -91.45438 
L 203.918093 -91.45438 
L 205.910055 -91.45438 
L 207.902018 -91.548661 
L 209.89398 -91.548661 
L 211.885942 -91.548661 
L 213.877905 -91.705862 
L 215.869867 -92.174785 
L 217.861829 -92.174785 
L 219.853792 -92.323394 
L 221.845754 -92.859272 
L 223.837716 -92.859272 
L 225.829678 -92.859272 
L 227.821641 -92.859272 
L 229.813603 -92.859272 
L 231.805565 -92.859272 
L 233.797528 -93.814397 
L 235.78949 -93.814397 
L 237.781452 -93.814397 
L 239.773415 -93.343941 
L 241.765377 -94.212446 
L 243.757339 -94.212446 
L 245.749302 -94.212446 
L 247.741264 -94.212446 
L 249.733226 -94.212446 
L 251.725188 -94.212446 
L 253.717151 -94.347182 
L 255.709113 -94.777647 
L 257.701075 -94.777647 
L 259.693038 -94.777647 
L 261.685 -94.777647 
L 263.676962 -94.777647 
L 265.668925 -94.777647 
L 267.660887 -94.777647 
L 269.652849 -95.603173 
L 271.644812 -96.062896 
L 273.636774 -96.062896 
L 275.628736 -96.062896 
L 277.620698 -96.062896 
L 279.612661 -96.062896 
L 281.604623 -96.062896 
L 283.596585 -96.062896 
L 285.588548 -96.062896 
L 287.58051 -96.062896 
L 289.572472 -96.062896 
L 291.564435 -96.062896 
L 293.556397 -96.062896 
L 295.548359 -96.062896 
L 297.540322 -96.805023 
L 299.532284 -97.415388 
L 301.524246 -97.415388 
L 303.516208 -97.415388 
L 305.508171 -97.415388 
L 307.500133 -97.415388 
L 309.492095 -97.415388 
L 311.484058 -97.450021 
L 313.47602 -97.556786 
L 315.467982 -97.556786 
L 317.459945 -97.556786 
L 319.451907 -97.556786 
L 321.443869 -97.556786 
L 323.435831 -97.556786 
L 325.427794 -97.556786 
L 327.419756 -99.123235 
L 329.411718 -99.123235 
L 331.403681 -99.123235 
L 333.395643 -99.123235 
L 335.387605 -99.123235 
L 337.379568 -99.123235 
L 339.37153 -99.123235 
L 341.363492 -99.123235 
L 343.355455 -99.175394 
L 345.347417 -99.175394 
L 347.339379 -99.175394 
L 349.331341 -99.186723 
L 351.323304 -99.186723 
L 353.315266 -98.938089 
L 355.307228 -98.938089 
L 357.299191 -98.938089 
L 359.291153 -98.938089 
L 361.283115 -98.938089 
L 363.275078 -98.938089 
L 365.26704 -98.938089 
L 367.259002 -98.938089 
L 369.250965 -98.938089 
L 371.242927 -98.938089 
L 373.234889 -98.943749 
L 375.226851 -98.943749 
L 377.218814 -98.943749 
L 379.210776 -98.943749 
L 381.202738 -98.943749 
L 383.194701 -98.943749 
L 385.186663 -98.943749 
L 387.178625 -98.943749 
L 389.170588 -98.943749 
L 391.16255 -98.943749 
L 393.154512 -98.943749 
L 395.146475 -99.142851 
L 397.138437 -99.142851 
L 399.130399 -99.142851 
L 401.122361 -99.142851 
L 403.114324 -99.142851 
L 405.106286 -99.673312 
L 407.098248 -99.673312 
L 409.090211 -99.673312 
L 411.082173 -99.673312 
L 413.074135 -99.673312 
L 415.066098 -99.673312 
L 417.05806 -99.673312 
L 419.050022 -99.673312 
L 421.041984 -99.673312 
L 423.033947 -99.673312 
L 425.025909 -100.186388 
L 425.025909 -112.156007 
L 425.025909 -112.156007 
L 423.033947 -112.135172 
L 421.041984 -112.135172 
L 419.050022 -112.135172 
L 417.05806 -112.135172 
L 415.066098 -112.135172 
L 413.074135 -112.135172 
L 411.082173 -112.135172 
L 409.090211 -112.135172 
L 407.098248 -112.135172 
L 405.106286 -112.135172 
L 403.114324 -112.096875 
L 401.122361 -112.096875 
L 399.130399 -112.096875 
L 397.138437 -112.096875 
L 395.146475 -112.096875 
L 393.154512 -112.026357 
L 391.16255 -112.026357 
L 389.170588 -112.026357 
L 387.178625 -112.026357 
L 385.186663 -112.026357 
L 383.194701 -112.026357 
L 381.202738 -112.026357 
L 379.210776 -112.026357 
L 377.218814 -112.026357 
L 375.226851 -112.026357 
L 373.234889 -112.026357 
L 371.242927 -112.024806 
L 369.250965 -112.024806 
L 367.259002 -112.024806 
L 365.26704 -112.024806 
L 363.275078 -112.024806 
L 361.283115 -112.024806 
L 359.291153 -112.024806 
L 357.299191 -112.024806 
L 355.307228 -112.024806 
L 353.315266 -112.024806 
L 351.323304 -109.474943 
L 349.331341 -109.474943 
L 347.339379 -109.472758 
L 345.347417 -109.472758 
L 343.355455 -109.472758 
L 341.363492 -109.414731 
L 339.37153 -109.414731 
L 337.379568 -109.414731 
L 335.387605 -109.414731 
L 333.395643 -109.414731 
L 331.403681 -109.414731 
L 329.411718 -109.414731 
L 327.419756 -109.414731 
L 325.427794 -108.866805 
L 323.435831 -108.866805 
L 321.443869 -108.866805 
L 319.451907 -108.866805 
L 317.459945 -108.866805 
L 315.467982 -108.866805 
L 313.47602 -108.866805 
L 311.484058 -108.838627 
L 309.492095 -108.834941 
L 307.500133 -108.834941 
L 305.508171 -108.834941 
L 303.516208 -108.834941 
L 301.524246 -108.834941 
L 299.532284 -108.834941 
L 297.540322 -106.093144 
L 295.548359 -105.928963 
L 293.556397 -105.928963 
L 291.564435 -105.928963 
L 289.572472 -105.928963 
L 287.58051 -105.928963 
L 285.588548 -105.928963 
L 283.596585 -105.928963 
L 281.604623 -105.928963 
L 279.612661 -105.928963 
L 277.620698 -105.928963 
L 275.628736 -105.928963 
L 273.636774 -105.928963 
L 271.644812 -105.928963 
L 269.652849 -105.843375 
L 267.660887 -105.76018 
L 265.668925 -105.76018 
L 263.676962 -105.76018 
L 261.685 -105.76018 
L 259.693038 -105.76018 
L 257.701075 -105.76018 
L 255.709113 -105.76018 
L 253.717151 -105.65318 
L 251.725188 -105.632593 
L 249.733226 -105.632593 
L 247.741264 -105.632593 
L 245.749302 -105.632593 
L 243.757339 -105.632593 
L 241.765377 -105.632593 
L 239.773415 -103.778694 
L 237.781452 -100.181155 
L 235.78949 -100.181155 
L 233.797528 -100.181155 
L 231.805565 -100.011336 
L 229.813603 -100.011336 
L 227.821641 -100.011336 
L 225.829678 -100.011336 
L 223.837716 -100.011336 
L 221.845754 -100.011336 
L 219.853792 -99.904213 
L 217.861829 -99.862041 
L 215.869867 -99.862041 
L 213.877905 -99.9047 
L 211.885942 -99.781384 
L 209.89398 -99.781384 
L 207.902018 -99.781384 
L 205.910055 -99.73591 
L 203.918093 -99.73591 
L 201.926131 -99.73591 
L 199.934169 -99.73591 
L 197.942206 -99.73591 
L 195.950244 -99.73591 
L 193.958282 -99.73591 
L 191.966319 -99.73591 
L 189.974357 -99.73591 
L 187.982395 -99.726866 
L 185.990432 -99.726866 
L 183.99847 -99.726866 
L 182.006508 -99.726866 
L 180.014545 -99.726866 
L 178.022583 -99.726866 
L 176.030621 -99.726866 
L 174.038659 -99.726773 
L 172.046696 -98.807653 
L 170.054734 -98.807653 
L 168.062772 -98.807653 
L 166.070809 -98.807653 
L 164.078847 -98.805092 
L 162.086885 -98.297409 
L 160.094922 -98.163764 
L 158.10296 -98.088025 
L 156.110998 -98.088025 
L 154.119035 -98.053163 
L 152.127073 -98.053163 
L 150.135111 -98.053163 
L 148.143149 -96.059553 
L 146.151186 -96.059553 
L 144.159224 -96.059553 
L 142.167262 -96.059553 
L 140.175299 -96.045655 
L 138.183337 -94.855005 
L 136.191375 -94.665229 
L 134.199412 -94.665229 
L 132.20745 -94.665229 
L 130.215488 -93.53048 
L 128.223525 -93.529259 
L 126.231563 -89.941663 
L 124.239601 -89.941663 
L 122.247639 -89.941663 
L 120.255676 -89.941663 
L 118.263714 -89.941663 
L 116.271752 -89.941663 
L 114.279789 -89.941663 
L 112.287827 -89.941663 
L 110.295865 -89.941663 
L 108.303902 -89.941663 
L 106.31194 -77.732145 
L 104.319978 -77.732145 
L 102.328016 -77.732145 
L 100.336053 -77.089642 
L 98.344091 -77.021218 
z
" id="m0fed03b82c" style="stroke:#ffa600;stroke-opacity:0.2;"/>
    </defs>
    <g clip-path="url(#p91099c7635)">
     <use style="fill:#ffa600;fill-opacity:0.2;stroke:#ffa600;stroke-opacity:0.2;" x="0" xlink:href="#m0fed03b82c" y="345.6"/>
    </g>
   </g>
   <g id="matplotlib.axis_1">
    <g id="xtick_1">
     <g id="line2d_1">
      <defs>
       <path d="M 0 0 
L 0 3.5 
" id="mea66a52bf6" style="stroke:#000000;stroke-width:0.8;"/>
      </defs>
      <g>
       <use style="stroke:#000000;stroke-width:0.8;" x="96.352129" xlink:href="#mea66a52bf6" y="280.6"/>
      </g>
     </g>
     <g id="text_1">
      <!-- 0 -->
      <defs>
       <path d="M 31.78125 66.40625 
Q 24.171875 66.40625 20.328125 58.90625 
Q 16.5 51.421875 16.5 36.375 
Q 16.5 21.390625 20.328125 13.890625 
Q 24.171875 6.390625 31.78125 6.390625 
Q 39.453125 6.390625 43.28125 13.890625 
Q 47.125 21.390625 47.125 36.375 
Q 47.125 51.421875 43.28125 58.90625 
Q 39.453125 66.40625 31.78125 66.40625 
z
M 31.78125 74.21875 
Q 44.046875 74.21875 50.515625 64.515625 
Q 56.984375 54.828125 56.984375 36.375 
Q 56.984375 17.96875 50.515625 8.265625 
Q 44.046875 -1.421875 31.78125 -1.421875 
Q 19.53125 -1.421875 13.0625 8.265625 
Q 6.59375 17.96875 6.59375 36.375 
Q 6.59375 54.828125 13.0625 64.515625 
Q 19.53125 74.21875 31.78125 74.21875 
z
" id="DejaVuSans-48"/>
      </defs>
      <g transform="translate(90.625879 301.277187)scale(0.18 -0.18)">
       <use xlink:href="#DejaVuSans-48"/>
      </g>
     </g>
    </g>
    <g id="xtick_2">
     <g id="line2d_2">
      <g>
       <use style="stroke:#000000;stroke-width:0.8;" x="195.950244" xlink:href="#mea66a52bf6" y="280.6"/>
      </g>
     </g>
     <g id="text_2">
      <!-- 50 -->
      <defs>
       <path d="M 10.796875 72.90625 
L 49.515625 72.90625 
L 49.515625 64.59375 
L 19.828125 64.59375 
L 19.828125 46.734375 
Q 21.96875 47.46875 24.109375 47.828125 
Q 26.265625 48.1875 28.421875 48.1875 
Q 40.625 48.1875 47.75 41.5 
Q 54.890625 34.8125 54.890625 23.390625 
Q 54.890625 11.625 47.5625 5.09375 
Q 40.234375 -1.421875 26.90625 -1.421875 
Q 22.3125 -1.421875 17.546875 -0.640625 
Q 12.796875 0.140625 7.71875 1.703125 
L 7.71875 11.625 
Q 12.109375 9.234375 16.796875 8.0625 
Q 21.484375 6.890625 26.703125 6.890625 
Q 35.15625 6.890625 40.078125 11.328125 
Q 45.015625 15.765625 45.015625 23.390625 
Q 45.015625 31 40.078125 35.4375 
Q 35.15625 39.890625 26.703125 39.890625 
Q 22.75 39.890625 18.8125 39.015625 
Q 14.890625 38.140625 10.796875 36.28125 
z
" id="DejaVuSans-53"/>
      </defs>
      <g transform="translate(184.497744 301.277187)scale(0.18 -0.18)">
       <use xlink:href="#DejaVuSans-53"/>
       <use x="63.623047" xlink:href="#DejaVuSans-48"/>
      </g>
     </g>
    </g>
    <g id="xtick_3">
     <g id="line2d_3">
      <g>
       <use style="stroke:#000000;stroke-width:0.8;" x="295.548359" xlink:href="#mea66a52bf6" y="280.6"/>
      </g>
     </g>
     <g id="text_3">
      <!-- 100 -->
      <defs>
       <path d="M 12.40625 8.296875 
L 28.515625 8.296875 
L 28.515625 63.921875 
L 10.984375 60.40625 
L 10.984375 69.390625 
L 28.421875 72.90625 
L 38.28125 72.90625 
L 38.28125 8.296875 
L 54.390625 8.296875 
L 54.390625 0 
L 12.40625 0 
z
" id="DejaVuSans-49"/>
      </defs>
      <g transform="translate(278.369609 301.277187)scale(0.18 -0.18)">
       <use xlink:href="#DejaVuSans-49"/>
       <use x="63.623047" xlink:href="#DejaVuSans-48"/>
       <use x="127.246094" xlink:href="#DejaVuSans-48"/>
      </g>
     </g>
    </g>
    <g id="xtick_4">
     <g id="line2d_4">
      <g>
       <use style="stroke:#000000;stroke-width:0.8;" x="395.146475" xlink:href="#mea66a52bf6" y="280.6"/>
      </g>
     </g>
     <g id="text_4">
      <!-- 150 -->
      <g transform="translate(377.967725 301.277187)scale(0.18 -0.18)">
       <use xlink:href="#DejaVuSans-49"/>
       <use x="63.623047" xlink:href="#DejaVuSans-53"/>
       <use x="127.246094" xlink:href="#DejaVuSans-48"/>
      </g>
     </g>
    </g>
    <g id="text_5">
     <!-- Number of Evaluations -->
     <defs>
      <path d="M 9.8125 72.90625 
L 23.09375 72.90625 
L 55.421875 11.921875 
L 55.421875 72.90625 
L 64.984375 72.90625 
L 64.984375 0 
L 51.703125 0 
L 19.390625 60.984375 
L 19.390625 0 
L 9.8125 0 
z
" id="DejaVuSans-78"/>
      <path d="M 8.5 21.578125 
L 8.5 54.6875 
L 17.484375 54.6875 
L 17.484375 21.921875 
Q 17.484375 14.15625 20.5 10.265625 
Q 23.53125 6.390625 29.59375 6.390625 
Q 36.859375 6.390625 41.078125 11.03125 
Q 45.3125 15.671875 45.3125 23.6875 
L 45.3125 54.6875 
L 54.296875 54.6875 
L 54.296875 0 
L 45.3125 0 
L 45.3125 8.40625 
Q 42.046875 3.421875 37.71875 1 
Q 33.40625 -1.421875 27.6875 -1.421875 
Q 18.265625 -1.421875 13.375 4.4375 
Q 8.5 10.296875 8.5 21.578125 
z
M 31.109375 56 
z
" id="DejaVuSans-117"/>
      <path d="M 52 44.1875 
Q 55.375 50.25 60.0625 53.125 
Q 64.75 56 71.09375 56 
Q 79.640625 56 84.28125 50.015625 
Q 88.921875 44.046875 88.921875 33.015625 
L 88.921875 0 
L 79.890625 0 
L 79.890625 32.71875 
Q 79.890625 40.578125 77.09375 44.375 
Q 74.3125 48.1875 68.609375 48.1875 
Q 61.625 48.1875 57.5625 43.546875 
Q 53.515625 38.921875 53.515625 30.90625 
L 53.515625 0 
L 44.484375 0 
L 44.484375 32.71875 
Q 44.484375 40.625 41.703125 44.40625 
Q 38.921875 48.1875 33.109375 48.1875 
Q 26.21875 48.1875 22.15625 43.53125 
Q 18.109375 38.875 18.109375 30.90625 
L 18.109375 0 
L 9.078125 0 
L 9.078125 54.6875 
L 18.109375 54.6875 
L 18.109375 46.1875 
Q 21.1875 51.21875 25.484375 53.609375 
Q 29.78125 56 35.6875 56 
Q 41.65625 56 45.828125 52.96875 
Q 50 49.953125 52 44.1875 
z
" id="DejaVuSans-109"/>
      <path d="M 48.6875 27.296875 
Q 48.6875 37.203125 44.609375 42.84375 
Q 40.53125 48.484375 33.40625 48.484375 
Q 26.265625 48.484375 22.1875 42.84375 
Q 18.109375 37.203125 18.109375 27.296875 
Q 18.109375 17.390625 22.1875 11.75 
Q 26.265625 6.109375 33.40625 6.109375 
Q 40.53125 6.109375 44.609375 11.75 
Q 48.6875 17.390625 48.6875 27.296875 
z
M 18.109375 46.390625 
Q 20.953125 51.265625 25.265625 53.625 
Q 29.59375 56 35.59375 56 
Q 45.5625 56 51.78125 48.09375 
Q 58.015625 40.1875 58.015625 27.296875 
Q 58.015625 14.40625 51.78125 6.484375 
Q 45.5625 -1.421875 35.59375 -1.421875 
Q 29.59375 -1.421875 25.265625 0.953125 
Q 20.953125 3.328125 18.109375 8.203125 
L 18.109375 0 
L 9.078125 0 
L 9.078125 75.984375 
L 18.109375 75.984375 
z
" id="DejaVuSans-98"/>
      <path d="M 56.203125 29.59375 
L 56.203125 25.203125 
L 14.890625 25.203125 
Q 15.484375 15.921875 20.484375 11.0625 
Q 25.484375 6.203125 34.421875 6.203125 
Q 39.59375 6.203125 44.453125 7.46875 
Q 49.3125 8.734375 54.109375 11.28125 
L 54.109375 2.78125 
Q 49.265625 0.734375 44.1875 -0.34375 
Q 39.109375 -1.421875 33.890625 -1.421875 
Q 20.796875 -1.421875 13.15625 6.1875 
Q 5.515625 13.8125 5.515625 26.8125 
Q 5.515625 40.234375 12.765625 48.109375 
Q 20.015625 56 32.328125 56 
Q 43.359375 56 49.78125 48.890625 
Q 56.203125 41.796875 56.203125 29.59375 
z
M 47.21875 32.234375 
Q 47.125 39.59375 43.09375 43.984375 
Q 39.0625 48.390625 32.421875 48.390625 
Q 24.90625 48.390625 20.390625 44.140625 
Q 15.875 39.890625 15.1875 32.171875 
z
" id="DejaVuSans-101"/>
      <path d="M 41.109375 46.296875 
Q 39.59375 47.171875 37.8125 47.578125 
Q 36.03125 48 33.890625 48 
Q 26.265625 48 22.1875 43.046875 
Q 18.109375 38.09375 18.109375 28.8125 
L 18.109375 0 
L 9.078125 0 
L 9.078125 54.6875 
L 18.109375 54.6875 
L 18.109375 46.1875 
Q 20.953125 51.171875 25.484375 53.578125 
Q 30.03125 56 36.53125 56 
Q 37.453125 56 38.578125 55.875 
Q 39.703125 55.765625 41.0625 55.515625 
z
" id="DejaVuSans-114"/>
      <path id="DejaVuSans-32"/>
      <path d="M 30.609375 48.390625 
Q 23.390625 48.390625 19.1875 42.75 
Q 14.984375 37.109375 14.984375 27.296875 
Q 14.984375 17.484375 19.15625 11.84375 
Q 23.34375 6.203125 30.609375 6.203125 
Q 37.796875 6.203125 41.984375 11.859375 
Q 46.1875 17.53125 46.1875 27.296875 
Q 46.1875 37.015625 41.984375 42.703125 
Q 37.796875 48.390625 30.609375 48.390625 
z
M 30.609375 56 
Q 42.328125 56 49.015625 48.375 
Q 55.71875 40.765625 55.71875 27.296875 
Q 55.71875 13.875 49.015625 6.21875 
Q 42.328125 -1.421875 30.609375 -1.421875 
Q 18.84375 -1.421875 12.171875 6.21875 
Q 5.515625 13.875 5.515625 27.296875 
Q 5.515625 40.765625 12.171875 48.375 
Q 18.84375 56 30.609375 56 
z
" id="DejaVuSans-111"/>
      <path d="M 37.109375 75.984375 
L 37.109375 68.5 
L 28.515625 68.5 
Q 23.6875 68.5 21.796875 66.546875 
Q 19.921875 64.59375 19.921875 59.515625 
L 19.921875 54.6875 
L 34.71875 54.6875 
L 34.71875 47.703125 
L 19.921875 47.703125 
L 19.921875 0 
L 10.890625 0 
L 10.890625 47.703125 
L 2.296875 47.703125 
L 2.296875 54.6875 
L 10.890625 54.6875 
L 10.890625 58.5 
Q 10.890625 67.625 15.140625 71.796875 
Q 19.390625 75.984375 28.609375 75.984375 
z
" id="DejaVuSans-102"/>
      <path d="M 9.8125 72.90625 
L 55.90625 72.90625 
L 55.90625 64.59375 
L 19.671875 64.59375 
L 19.671875 43.015625 
L 54.390625 43.015625 
L 54.390625 34.71875 
L 19.671875 34.71875 
L 19.671875 8.296875 
L 56.78125 8.296875 
L 56.78125 0 
L 9.8125 0 
z
" id="DejaVuSans-69"/>
      <path d="M 2.984375 54.6875 
L 12.5 54.6875 
L 29.59375 8.796875 
L 46.6875 54.6875 
L 56.203125 54.6875 
L 35.6875 0 
L 23.484375 0 
z
" id="DejaVuSans-118"/>
      <path d="M 34.28125 27.484375 
Q 23.390625 27.484375 19.1875 25 
Q 14.984375 22.515625 14.984375 16.5 
Q 14.984375 11.71875 18.140625 8.90625 
Q 21.296875 6.109375 26.703125 6.109375 
Q 34.1875 6.109375 38.703125 11.40625 
Q 43.21875 16.703125 43.21875 25.484375 
L 43.21875 27.484375 
z
M 52.203125 31.203125 
L 52.203125 0 
L 43.21875 0 
L 43.21875 8.296875 
Q 40.140625 3.328125 35.546875 0.953125 
Q 30.953125 -1.421875 24.3125 -1.421875 
Q 15.921875 -1.421875 10.953125 3.296875 
Q 6 8.015625 6 15.921875 
Q 6 25.140625 12.171875 29.828125 
Q 18.359375 34.515625 30.609375 34.515625 
L 43.21875 34.515625 
L 43.21875 35.40625 
Q 43.21875 41.609375 39.140625 45 
Q 35.0625 48.390625 27.6875 48.390625 
Q 23 48.390625 18.546875 47.265625 
Q 14.109375 46.140625 10.015625 43.890625 
L 10.015625 52.203125 
Q 14.9375 54.109375 19.578125 55.046875 
Q 24.21875 56 28.609375 56 
Q 40.484375 56 46.34375 49.84375 
Q 52.203125 43.703125 52.203125 31.203125 
z
" id="DejaVuSans-97"/>
      <path d="M 9.421875 75.984375 
L 18.40625 75.984375 
L 18.40625 0 
L 9.421875 0 
z
" id="DejaVuSans-108"/>
      <path d="M 18.3125 70.21875 
L 18.3125 54.6875 
L 36.8125 54.6875 
L 36.8125 47.703125 
L 18.3125 47.703125 
L 18.3125 18.015625 
Q 18.3125 11.328125 20.140625 9.421875 
Q 21.96875 7.515625 27.59375 7.515625 
L 36.8125 7.515625 
L 36.8125 0 
L 27.59375 0 
Q 17.1875 0 13.234375 3.875 
Q 9.28125 7.765625 9.28125 18.015625 
L 9.28125 47.703125 
L 2.6875 47.703125 
L 2.6875 54.6875 
L 9.28125 54.6875 
L 9.28125 70.21875 
z
" id="DejaVuSans-116"/>
      <path d="M 9.421875 54.6875 
L 18.40625 54.6875 
L 18.40625 0 
L 9.421875 0 
z
M 9.421875 75.984375 
L 18.40625 75.984375 
L 18.40625 64.59375 
L 9.421875 64.59375 
z
" id="DejaVuSans-105"/>
      <path d="M 54.890625 33.015625 
L 54.890625 0 
L 45.90625 0 
L 45.90625 32.71875 
Q 45.90625 40.484375 42.875 44.328125 
Q 39.84375 48.1875 33.796875 48.1875 
Q 26.515625 48.1875 22.3125 43.546875 
Q 18.109375 38.921875 18.109375 30.90625 
L 18.109375 0 
L 9.078125 0 
L 9.078125 54.6875 
L 18.109375 54.6875 
L 18.109375 46.1875 
Q 21.34375 51.125 25.703125 53.5625 
Q 30.078125 56 35.796875 56 
Q 45.21875 56 50.046875 50.171875 
Q 54.890625 44.34375 54.890625 33.015625 
z
" id="DejaVuSans-110"/>
      <path d="M 44.28125 53.078125 
L 44.28125 44.578125 
Q 40.484375 46.53125 36.375 47.5 
Q 32.28125 48.484375 27.875 48.484375 
Q 21.1875 48.484375 17.84375 46.4375 
Q 14.5 44.390625 14.5 40.28125 
Q 14.5 37.15625 16.890625 35.375 
Q 19.28125 33.59375 26.515625 31.984375 
L 29.59375 31.296875 
Q 39.15625 29.25 43.1875 25.515625 
Q 47.21875 21.78125 47.21875 15.09375 
Q 47.21875 7.46875 41.1875 3.015625 
Q 35.15625 -1.421875 24.609375 -1.421875 
Q 20.21875 -1.421875 15.453125 -0.5625 
Q 10.6875 0.296875 5.421875 2 
L 5.421875 11.28125 
Q 10.40625 8.6875 15.234375 7.390625 
Q 20.0625 6.109375 24.8125 6.109375 
Q 31.15625 6.109375 34.5625 8.28125 
Q 37.984375 10.453125 37.984375 14.40625 
Q 37.984375 18.0625 35.515625 20.015625 
Q 33.0625 21.96875 24.703125 23.78125 
L 21.578125 24.515625 
Q 13.234375 26.265625 9.515625 29.90625 
Q 5.8125 33.546875 5.8125 39.890625 
Q 5.8125 47.609375 11.28125 51.796875 
Q 16.75 56 26.8125 56 
Q 31.78125 56 36.171875 55.265625 
Q 40.578125 54.546875 44.28125 53.078125 
z
" id="DejaVuSans-115"/>
     </defs>
     <g transform="translate(158.958438 322.697812)scale(0.18 -0.18)">
      <use xlink:href="#DejaVuSans-78"/>
      <use x="74.804688" xlink:href="#DejaVuSans-117"/>
      <use x="138.183594" xlink:href="#DejaVuSans-109"/>
      <use x="235.595703" xlink:href="#DejaVuSans-98"/>
      <use x="299.072266" xlink:href="#DejaVuSans-101"/>
      <use x="360.595703" xlink:href="#DejaVuSans-114"/>
      <use x="401.708984" xlink:href="#DejaVuSans-32"/>
      <use x="433.496094" xlink:href="#DejaVuSans-111"/>
      <use x="494.677734" xlink:href="#DejaVuSans-102"/>
      <use x="529.882812" xlink:href="#DejaVuSans-32"/>
      <use x="561.669922" xlink:href="#DejaVuSans-69"/>
      <use x="624.853516" xlink:href="#DejaVuSans-118"/>
      <use x="684.033203" xlink:href="#DejaVuSans-97"/>
      <use x="745.3125" xlink:href="#DejaVuSans-108"/>
      <use x="773.095703" xlink:href="#DejaVuSans-117"/>
      <use x="836.474609" xlink:href="#DejaVuSans-97"/>
      <use x="897.753906" xlink:href="#DejaVuSans-116"/>
      <use x="936.962891" xlink:href="#DejaVuSans-105"/>
      <use x="964.746094" xlink:href="#DejaVuSans-111"/>
      <use x="1025.927734" xlink:href="#DejaVuSans-110"/>
      <use x="1089.306641" xlink:href="#DejaVuSans-115"/>
     </g>
    </g>
   </g>
   <g id="matplotlib.axis_2">
    <g id="ytick_1">
     <g id="line2d_5">
      <defs>
       <path d="M 0 0 
L -3.5 0 
" id="m61cc2d2a75" style="stroke:#000000;stroke-width:0.8;"/>
      </defs>
      <g>
       <use style="stroke:#000000;stroke-width:0.8;" x="82.01" xlink:href="#m61cc2d2a75" y="268.729091"/>
      </g>
     </g>
     <g id="text_6">
      <!-- 0 -->
      <g transform="translate(63.5575 275.567685)scale(0.18 -0.18)">
       <use xlink:href="#DejaVuSans-48"/>
      </g>
     </g>
    </g>
    <g id="ytick_2">
     <g id="line2d_6">
      <g>
       <use style="stroke:#000000;stroke-width:0.8;" x="82.01" xlink:href="#m61cc2d2a75" y="216.951932"/>
      </g>
     </g>
     <g id="text_7">
      <!-- 100 -->
      <g transform="translate(40.6525 223.790526)scale(0.18 -0.18)">
       <use xlink:href="#DejaVuSans-49"/>
       <use x="63.623047" xlink:href="#DejaVuSans-48"/>
       <use x="127.246094" xlink:href="#DejaVuSans-48"/>
      </g>
     </g>
    </g>
    <g id="ytick_3">
     <g id="line2d_7">
      <g>
       <use style="stroke:#000000;stroke-width:0.8;" x="82.01" xlink:href="#m61cc2d2a75" y="165.174773"/>
      </g>
     </g>
     <g id="text_8">
      <!-- 200 -->
      <defs>
       <path d="M 19.1875 8.296875 
L 53.609375 8.296875 
L 53.609375 0 
L 7.328125 0 
L 7.328125 8.296875 
Q 12.9375 14.109375 22.625 23.890625 
Q 32.328125 33.6875 34.8125 36.53125 
Q 39.546875 41.84375 41.421875 45.53125 
Q 43.3125 49.21875 43.3125 52.78125 
Q 43.3125 58.59375 39.234375 62.25 
Q 35.15625 65.921875 28.609375 65.921875 
Q 23.96875 65.921875 18.8125 64.3125 
Q 13.671875 62.703125 7.8125 59.421875 
L 7.8125 69.390625 
Q 13.765625 71.78125 18.9375 73 
Q 24.125 74.21875 28.421875 74.21875 
Q 39.75 74.21875 46.484375 68.546875 
Q 53.21875 62.890625 53.21875 53.421875 
Q 53.21875 48.921875 51.53125 44.890625 
Q 49.859375 40.875 45.40625 35.40625 
Q 44.1875 33.984375 37.640625 27.21875 
Q 31.109375 20.453125 19.1875 8.296875 
z
" id="DejaVuSans-50"/>
      </defs>
      <g transform="translate(40.6525 172.013367)scale(0.18 -0.18)">
       <use xlink:href="#DejaVuSans-50"/>
       <use x="63.623047" xlink:href="#DejaVuSans-48"/>
       <use x="127.246094" xlink:href="#DejaVuSans-48"/>
      </g>
     </g>
    </g>
    <g id="ytick_4">
     <g id="line2d_8">
      <g>
       <use style="stroke:#000000;stroke-width:0.8;" x="82.01" xlink:href="#m61cc2d2a75" y="113.397615"/>
      </g>
     </g>
     <g id="text_9">
      <!-- 300 -->
      <defs>
       <path d="M 40.578125 39.3125 
Q 47.65625 37.796875 51.625 33 
Q 55.609375 28.21875 55.609375 21.1875 
Q 55.609375 10.40625 48.1875 4.484375 
Q 40.765625 -1.421875 27.09375 -1.421875 
Q 22.515625 -1.421875 17.65625 -0.515625 
Q 12.796875 0.390625 7.625 2.203125 
L 7.625 11.71875 
Q 11.71875 9.328125 16.59375 8.109375 
Q 21.484375 6.890625 26.8125 6.890625 
Q 36.078125 6.890625 40.9375 10.546875 
Q 45.796875 14.203125 45.796875 21.1875 
Q 45.796875 27.640625 41.28125 31.265625 
Q 36.765625 34.90625 28.71875 34.90625 
L 20.21875 34.90625 
L 20.21875 43.015625 
L 29.109375 43.015625 
Q 36.375 43.015625 40.234375 45.921875 
Q 44.09375 48.828125 44.09375 54.296875 
Q 44.09375 59.90625 40.109375 62.90625 
Q 36.140625 65.921875 28.71875 65.921875 
Q 24.65625 65.921875 20.015625 65.03125 
Q 15.375 64.15625 9.8125 62.3125 
L 9.8125 71.09375 
Q 15.4375 72.65625 20.34375 73.4375 
Q 25.25 74.21875 29.59375 74.21875 
Q 40.828125 74.21875 47.359375 69.109375 
Q 53.90625 64.015625 53.90625 55.328125 
Q 53.90625 49.265625 50.4375 45.09375 
Q 46.96875 40.921875 40.578125 39.3125 
z
" id="DejaVuSans-51"/>
      </defs>
      <g transform="translate(40.6525 120.236208)scale(0.18 -0.18)">
       <use xlink:href="#DejaVuSans-51"/>
       <use x="63.623047" xlink:href="#DejaVuSans-48"/>
       <use x="127.246094" xlink:href="#DejaVuSans-48"/>
      </g>
     </g>
    </g>
    <g id="ytick_5">
     <g id="line2d_9">
      <g>
       <use style="stroke:#000000;stroke-width:0.8;" x="82.01" xlink:href="#m61cc2d2a75" y="61.620456"/>
      </g>
     </g>
     <g id="text_10">
      <!-- 400 -->
      <defs>
       <path d="M 37.796875 64.3125 
L 12.890625 25.390625 
L 37.796875 25.390625 
z
M 35.203125 72.90625 
L 47.609375 72.90625 
L 47.609375 25.390625 
L 58.015625 25.390625 
L 58.015625 17.1875 
L 47.609375 17.1875 
L 47.609375 0 
L 37.796875 0 
L 37.796875 17.1875 
L 4.890625 17.1875 
L 4.890625 26.703125 
z
" id="DejaVuSans-52"/>
      </defs>
      <g transform="translate(40.6525 68.45905)scale(0.18 -0.18)">
       <use xlink:href="#DejaVuSans-52"/>
       <use x="63.623047" xlink:href="#DejaVuSans-48"/>
       <use x="127.246094" xlink:href="#DejaVuSans-48"/>
      </g>
     </g>
    </g>
    <g id="text_11">
     <!-- Hypervolume Indicator -->
     <defs>
      <path d="M 9.8125 72.90625 
L 19.671875 72.90625 
L 19.671875 43.015625 
L 55.515625 43.015625 
L 55.515625 72.90625 
L 65.375 72.90625 
L 65.375 0 
L 55.515625 0 
L 55.515625 34.71875 
L 19.671875 34.71875 
L 19.671875 0 
L 9.8125 0 
z
" id="DejaVuSans-72"/>
      <path d="M 32.171875 -5.078125 
Q 28.375 -14.84375 24.75 -17.8125 
Q 21.140625 -20.796875 15.09375 -20.796875 
L 7.90625 -20.796875 
L 7.90625 -13.28125 
L 13.1875 -13.28125 
Q 16.890625 -13.28125 18.9375 -11.515625 
Q 21 -9.765625 23.484375 -3.21875 
L 25.09375 0.875 
L 2.984375 54.6875 
L 12.5 54.6875 
L 29.59375 11.921875 
L 46.6875 54.6875 
L 56.203125 54.6875 
z
" id="DejaVuSans-121"/>
      <path d="M 18.109375 8.203125 
L 18.109375 -20.796875 
L 9.078125 -20.796875 
L 9.078125 54.6875 
L 18.109375 54.6875 
L 18.109375 46.390625 
Q 20.953125 51.265625 25.265625 53.625 
Q 29.59375 56 35.59375 56 
Q 45.5625 56 51.78125 48.09375 
Q 58.015625 40.1875 58.015625 27.296875 
Q 58.015625 14.40625 51.78125 6.484375 
Q 45.5625 -1.421875 35.59375 -1.421875 
Q 29.59375 -1.421875 25.265625 0.953125 
Q 20.953125 3.328125 18.109375 8.203125 
z
M 48.6875 27.296875 
Q 48.6875 37.203125 44.609375 42.84375 
Q 40.53125 48.484375 33.40625 48.484375 
Q 26.265625 48.484375 22.1875 42.84375 
Q 18.109375 37.203125 18.109375 27.296875 
Q 18.109375 17.390625 22.1875 11.75 
Q 26.265625 6.109375 33.40625 6.109375 
Q 40.53125 6.109375 44.609375 11.75 
Q 48.6875 17.390625 48.6875 27.296875 
z
" id="DejaVuSans-112"/>
      <path d="M 9.8125 72.90625 
L 19.671875 72.90625 
L 19.671875 0 
L 9.8125 0 
z
" id="DejaVuSans-73"/>
      <path d="M 45.40625 46.390625 
L 45.40625 75.984375 
L 54.390625 75.984375 
L 54.390625 0 
L 45.40625 0 
L 45.40625 8.203125 
Q 42.578125 3.328125 38.25 0.953125 
Q 33.9375 -1.421875 27.875 -1.421875 
Q 17.96875 -1.421875 11.734375 6.484375 
Q 5.515625 14.40625 5.515625 27.296875 
Q 5.515625 40.1875 11.734375 48.09375 
Q 17.96875 56 27.875 56 
Q 33.9375 56 38.25 53.625 
Q 42.578125 51.265625 45.40625 46.390625 
z
M 14.796875 27.296875 
Q 14.796875 17.390625 18.875 11.75 
Q 22.953125 6.109375 30.078125 6.109375 
Q 37.203125 6.109375 41.296875 11.75 
Q 45.40625 17.390625 45.40625 27.296875 
Q 45.40625 37.203125 41.296875 42.84375 
Q 37.203125 48.484375 30.078125 48.484375 
Q 22.953125 48.484375 18.875 42.84375 
Q 14.796875 37.203125 14.796875 27.296875 
z
" id="DejaVuSans-100"/>
      <path d="M 48.78125 52.59375 
L 48.78125 44.1875 
Q 44.96875 46.296875 41.140625 47.34375 
Q 37.3125 48.390625 33.40625 48.390625 
Q 24.65625 48.390625 19.8125 42.84375 
Q 14.984375 37.3125 14.984375 27.296875 
Q 14.984375 17.28125 19.8125 11.734375 
Q 24.65625 6.203125 33.40625 6.203125 
Q 37.3125 6.203125 41.140625 7.25 
Q 44.96875 8.296875 48.78125 10.40625 
L 48.78125 2.09375 
Q 45.015625 0.34375 40.984375 -0.53125 
Q 36.96875 -1.421875 32.421875 -1.421875 
Q 20.0625 -1.421875 12.78125 6.34375 
Q 5.515625 14.109375 5.515625 27.296875 
Q 5.515625 40.671875 12.859375 48.328125 
Q 20.21875 56 33.015625 56 
Q 37.15625 56 41.109375 55.140625 
Q 45.0625 54.296875 48.78125 52.59375 
z
" id="DejaVuSans-99"/>
     </defs>
     <g transform="translate(32.909063 253.040469)rotate(-90)scale(0.18 -0.18)">
      <use xlink:href="#DejaVuSans-72"/>
      <use x="75.195312" xlink:href="#DejaVuSans-121"/>
      <use x="134.375" xlink:href="#DejaVuSans-112"/>
      <use x="197.851562" xlink:href="#DejaVuSans-101"/>
      <use x="259.375" xlink:href="#DejaVuSans-114"/>
      <use x="300.488281" xlink:href="#DejaVuSans-118"/>
      <use x="359.667969" xlink:href="#DejaVuSans-111"/>
      <use x="420.849609" xlink:href="#DejaVuSans-108"/>
      <use x="448.632812" xlink:href="#DejaVuSans-117"/>
      <use x="512.011719" xlink:href="#DejaVuSans-109"/>
      <use x="609.423828" xlink:href="#DejaVuSans-101"/>
      <use x="670.947266" xlink:href="#DejaVuSans-32"/>
      <use x="702.734375" xlink:href="#DejaVuSans-73"/>
      <use x="732.226562" xlink:href="#DejaVuSans-110"/>
      <use x="795.605469" xlink:href="#DejaVuSans-100"/>
      <use x="859.082031" xlink:href="#DejaVuSans-105"/>
      <use x="886.865234" xlink:href="#DejaVuSans-99"/>
      <use x="941.845703" xlink:href="#DejaVuSans-97"/>
      <use x="1003.125" xlink:href="#DejaVuSans-116"/>
      <use x="1042.333984" xlink:href="#DejaVuSans-111"/>
      <use x="1103.515625" xlink:href="#DejaVuSans-114"/>
     </g>
    </g>
   </g>
   <g id="line2d_10">
    <path clip-path="url(#p91099c7635)" d="M 98.344091 247.714655 
L 100.336053 121.413496 
L 108.303902 121.413496 
L 110.295865 118.068053 
L 118.263714 118.068053 
L 120.255676 98.714449 
L 126.231563 98.714449 
L 128.223525 98.29728 
L 130.215488 96.844024 
L 132.20745 86.995313 
L 134.199412 85.232137 
L 136.191375 82.094453 
L 138.183337 81.579925 
L 140.175299 78.954267 
L 142.167262 73.660558 
L 150.135111 73.64483 
L 152.127073 71.98347 
L 154.119035 71.98347 
L 156.110998 71.268104 
L 158.10296 69.789409 
L 160.094922 69.038076 
L 162.086885 69.038076 
L 164.078847 68.473257 
L 166.070809 68.453081 
L 168.062772 66.593331 
L 187.982395 66.593331 
L 189.974357 64.917887 
L 199.934169 64.917887 
L 201.926131 64.773557 
L 205.910055 64.723556 
L 209.89398 64.408583 
L 211.885942 64.026965 
L 215.869867 63.967568 
L 221.845754 63.967568 
L 223.837716 62.801732 
L 225.829678 62.801732 
L 227.821641 62.188111 
L 231.805565 62.188111 
L 233.797528 61.579671 
L 235.78949 61.441399 
L 243.757339 61.441399 
L 245.749302 60.934255 
L 253.717151 60.926983 
L 255.709113 59.851042 
L 257.701075 59.532 
L 259.693038 59.391142 
L 265.668925 59.391142 
L 267.660887 58.646174 
L 269.652849 58.179154 
L 271.644812 57.110401 
L 279.612661 57.07226 
L 281.604623 53.966657 
L 289.572472 53.954928 
L 291.564435 53.534094 
L 297.540322 53.521932 
L 299.532284 53.282215 
L 301.524246 53.282215 
L 303.516208 52.971781 
L 313.47602 52.971781 
L 315.467982 52.805013 
L 319.451907 52.805013 
L 321.443869 51.672011 
L 323.435831 51.672011 
L 325.427794 51.501119 
L 333.395643 51.501119 
L 335.387605 51.349566 
L 353.315266 51.321533 
L 355.307228 51.148114 
L 357.299191 50.605839 
L 359.291153 50.605839 
L 361.283115 50.421171 
L 363.275078 50.421171 
L 365.26704 49.938217 
L 377.218814 49.890716 
L 379.210776 49.192955 
L 409.090211 49.091483 
L 411.082173 47.683951 
L 413.074135 47.683951 
L 415.066098 47.422205 
L 425.025909 47.36749 
L 425.025909 47.36749 
" style="fill:none;stroke:#003f5c;stroke-linecap:square;stroke-width:1.5;"/>
   </g>
   <g id="line2d_11">
    <path clip-path="url(#p91099c7635)" d="M 98.344091 243.493274 
L 108.303902 243.493274 
L 110.295865 227.874245 
L 118.263714 227.874245 
L 120.255676 222.571222 
L 124.239601 222.571222 
L 126.231563 203.440142 
L 128.223525 202.857813 
L 132.20745 202.857813 
L 134.199412 201.858817 
L 136.191375 201.456481 
L 146.151186 201.450781 
L 148.143149 200.92014 
L 152.127073 200.92014 
L 154.119035 200.304691 
L 174.038659 200.281051 
L 176.030621 199.830859 
L 178.022583 199.830859 
L 180.014545 199.136367 
L 201.926131 199.09705 
L 203.918093 198.974598 
L 219.853792 198.974598 
L 221.845754 198.746671 
L 223.837716 198.746671 
L 225.829678 198.613665 
L 267.660887 198.530511 
L 287.58051 198.530511 
L 289.572472 197.607027 
L 357.299191 197.532428 
L 363.275078 197.481959 
L 381.202738 197.481959 
L 383.194701 197.081114 
L 425.025909 197.03283 
L 425.025909 197.03283 
" style="fill:none;stroke:#7a5195;stroke-dasharray:5.55,2.4;stroke-dashoffset:0;stroke-width:1.5;"/>
   </g>
   <g id="line2d_12">
    <path clip-path="url(#p91099c7635)" d="M 98.344091 268.729091 
L 100.336053 256.56406 
L 102.328016 248.947861 
L 104.319978 248.354475 
L 106.31194 248.354475 
L 108.303902 244.911648 
L 110.295865 243.369711 
L 118.263714 243.369711 
L 120.255676 231.554959 
L 122.247639 223.851512 
L 126.231563 223.851512 
L 128.223525 222.256563 
L 130.215488 221.736206 
L 132.20745 219.351807 
L 134.199412 218.407373 
L 136.191375 216.774945 
L 138.183337 215.778295 
L 140.175299 214.60987 
L 142.167262 214.60613 
L 144.159224 212.483552 
L 146.151186 211.157364 
L 148.143149 210.756165 
L 150.135111 209.089176 
L 152.127073 209.089176 
L 154.119035 207.728134 
L 156.110998 207.728134 
L 158.10296 207.61443 
L 162.086885 207.61443 
L 164.078847 206.130897 
L 174.038659 206.093215 
L 176.030621 205.693106 
L 183.99847 205.59142 
L 189.974357 205.55376 
L 191.966319 204.78388 
L 195.950244 204.771671 
L 197.942206 202.978932 
L 205.910055 202.978932 
L 207.902018 202.742716 
L 209.89398 200.762061 
L 223.837716 200.71473 
L 227.821641 199.509371 
L 235.78949 199.323415 
L 237.781452 197.888908 
L 245.749302 197.888908 
L 247.741264 197.297644 
L 255.709113 197.264304 
L 257.701075 197.135342 
L 259.693038 197.135342 
L 261.685 196.894164 
L 263.676962 196.894164 
L 265.668925 196.611116 
L 277.620698 196.586202 
L 279.612661 196.320801 
L 301.524246 196.320801 
L 303.516208 195.842229 
L 305.508171 195.842229 
L 307.500133 195.629398 
L 311.484058 195.629398 
L 313.47602 195.261192 
L 315.467982 195.261192 
L 317.459945 195.093184 
L 327.419756 195.027966 
L 329.411718 194.845428 
L 331.403681 194.185411 
L 353.315266 194.151432 
L 355.307228 192.856702 
L 357.299191 192.215057 
L 359.291153 191.888836 
L 375.226851 191.888836 
L 377.218814 191.539251 
L 405.106286 191.525267 
L 407.098248 191.327154 
L 425.025909 191.327154 
L 425.025909 191.327154 
" style="fill:none;stroke:#ef5675;stroke-dasharray:1.5,2.475;stroke-dashoffset:0;stroke-width:1.5;"/>
   </g>
   <g id="line2d_13">
    <path clip-path="url(#p91099c7635)" d="M 98.344091 268.578782 
L 100.336053 268.510358 
L 102.328016 267.867855 
L 106.31194 267.867855 
L 108.303902 255.658337 
L 126.231563 255.658337 
L 128.223525 254.300932 
L 130.215488 254.297859 
L 132.20745 253.500541 
L 136.191375 253.500541 
L 138.183337 253.266893 
L 140.175299 252.457897 
L 142.167262 252.315923 
L 148.143149 252.315923 
L 150.135111 251.6898 
L 154.119035 251.6898 
L 156.110998 251.523751 
L 160.094922 251.430551 
L 162.086885 251.049503 
L 164.078847 250.481731 
L 172.046696 250.477693 
L 174.038659 250.031874 
L 187.982395 250.014359 
L 213.877905 249.794719 
L 215.869867 249.581587 
L 219.853792 249.486196 
L 221.845754 249.164696 
L 231.805565 249.164696 
L 233.797528 248.602224 
L 237.781452 248.602224 
L 239.773415 247.038682 
L 241.765377 245.67748 
L 253.717151 245.599819 
L 255.709113 245.331087 
L 267.660887 245.331087 
L 269.652849 244.876726 
L 271.644812 244.604071 
L 295.548359 244.604071 
L 297.540322 244.150916 
L 299.532284 242.474835 
L 325.427794 242.388204 
L 327.419756 241.331017 
L 351.323304 241.269167 
L 353.315266 240.118552 
L 393.154512 240.114947 
L 395.146475 239.980137 
L 403.114324 239.980137 
L 405.106286 239.695758 
L 423.033947 239.695758 
L 425.025909 239.428802 
L 425.025909 239.428802 
" style="fill:none;stroke:#ffa600;stroke-dasharray:9.6,2.4,1.5,2.4;stroke-dashoffset:0;stroke-width:1.5;"/>
   </g>
   <g id="patch_3">
    <path d="M 82.01 280.6 
L 82.01 19.44 
" style="fill:none;stroke:#000000;stroke-linecap:square;stroke-linejoin:miter;stroke-width:0.8;"/>
   </g>
   <g id="patch_4">
    <path d="M 441.36 280.6 
L 441.36 19.44 
" style="fill:none;stroke:#000000;stroke-linecap:square;stroke-linejoin:miter;stroke-width:0.8;"/>
   </g>
   <g id="patch_5">
    <path d="M 82.01 280.6 
L 441.36 280.6 
" style="fill:none;stroke:#000000;stroke-linecap:square;stroke-linejoin:miter;stroke-width:0.8;"/>
   </g>
   <g id="patch_6">
    <path d="M 82.01 19.44 
L 441.36 19.44 
" style="fill:none;stroke:#000000;stroke-linecap:square;stroke-linejoin:miter;stroke-width:0.8;"/>
   </g>
   <g id="legend_1">
    <g id="patch_7">
     <path d="M 94.61 165.943125 
L 263.559687 165.943125 
Q 267.159688 165.943125 267.159688 162.343125 
L 267.159688 32.04 
Q 267.159688 28.44 263.559687 28.44 
L 94.61 28.44 
Q 91.01 28.44 91.01 32.04 
L 91.01 162.343125 
Q 91.01 165.943125 94.61 165.943125 
z
" style="fill:#ffffff;opacity:0.8;stroke:#cccccc;stroke-linejoin:miter;"/>
    </g>
    <g id="text_12">
     <!-- Parameterization -->
     <defs>
      <path d="M 19.671875 64.796875 
L 19.671875 37.40625 
L 32.078125 37.40625 
Q 38.96875 37.40625 42.71875 40.96875 
Q 46.484375 44.53125 46.484375 51.125 
Q 46.484375 57.671875 42.71875 61.234375 
Q 38.96875 64.796875 32.078125 64.796875 
z
M 9.8125 72.90625 
L 32.078125 72.90625 
Q 44.34375 72.90625 50.609375 67.359375 
Q 56.890625 61.8125 56.890625 51.125 
Q 56.890625 40.328125 50.609375 34.8125 
Q 44.34375 29.296875 32.078125 29.296875 
L 19.671875 29.296875 
L 19.671875 0 
L 9.8125 0 
z
" id="DejaVuSans-80"/>
      <path d="M 5.515625 54.6875 
L 48.1875 54.6875 
L 48.1875 46.484375 
L 14.40625 7.171875 
L 48.1875 7.171875 
L 48.1875 0 
L 4.296875 0 
L 4.296875 8.203125 
L 38.09375 47.515625 
L 5.515625 47.515625 
z
" id="DejaVuSans-122"/>
     </defs>
     <g transform="translate(102.283906 49.317187)scale(0.18 -0.18)">
      <use xlink:href="#DejaVuSans-80"/>
      <use x="55.802734" xlink:href="#DejaVuSans-97"/>
      <use x="117.082031" xlink:href="#DejaVuSans-114"/>
      <use x="158.195312" xlink:href="#DejaVuSans-97"/>
      <use x="219.474609" xlink:href="#DejaVuSans-109"/>
      <use x="316.886719" xlink:href="#DejaVuSans-101"/>
      <use x="378.410156" xlink:href="#DejaVuSans-116"/>
      <use x="417.619141" xlink:href="#DejaVuSans-101"/>
      <use x="479.142578" xlink:href="#DejaVuSans-114"/>
      <use x="520.255859" xlink:href="#DejaVuSans-105"/>
      <use x="548.039062" xlink:href="#DejaVuSans-122"/>
      <use x="600.529297" xlink:href="#DejaVuSans-97"/>
      <use x="661.808594" xlink:href="#DejaVuSans-116"/>
      <use x="701.017578" xlink:href="#DejaVuSans-105"/>
      <use x="728.800781" xlink:href="#DejaVuSans-111"/>
      <use x="789.982422" xlink:href="#DejaVuSans-110"/>
     </g>
    </g>
    <g id="line2d_14">
     <path d="M 98.21 69.437812 
L 134.21 69.437812 
" style="fill:none;stroke:#003f5c;stroke-linecap:square;stroke-width:1.5;"/>
    </g>
    <g id="line2d_15"/>
    <g id="text_13">
     <!-- MO-PaDGAN -->
     <defs>
      <path d="M 9.8125 72.90625 
L 24.515625 72.90625 
L 43.109375 23.296875 
L 61.8125 72.90625 
L 76.515625 72.90625 
L 76.515625 0 
L 66.890625 0 
L 66.890625 64.015625 
L 48.09375 14.015625 
L 38.1875 14.015625 
L 19.390625 64.015625 
L 19.390625 0 
L 9.8125 0 
z
" id="DejaVuSans-77"/>
      <path d="M 39.40625 66.21875 
Q 28.65625 66.21875 22.328125 58.203125 
Q 16.015625 50.203125 16.015625 36.375 
Q 16.015625 22.609375 22.328125 14.59375 
Q 28.65625 6.59375 39.40625 6.59375 
Q 50.140625 6.59375 56.421875 14.59375 
Q 62.703125 22.609375 62.703125 36.375 
Q 62.703125 50.203125 56.421875 58.203125 
Q 50.140625 66.21875 39.40625 66.21875 
z
M 39.40625 74.21875 
Q 54.734375 74.21875 63.90625 63.9375 
Q 73.09375 53.65625 73.09375 36.375 
Q 73.09375 19.140625 63.90625 8.859375 
Q 54.734375 -1.421875 39.40625 -1.421875 
Q 24.03125 -1.421875 14.8125 8.828125 
Q 5.609375 19.09375 5.609375 36.375 
Q 5.609375 53.65625 14.8125 63.9375 
Q 24.03125 74.21875 39.40625 74.21875 
z
" id="DejaVuSans-79"/>
      <path d="M 4.890625 31.390625 
L 31.203125 31.390625 
L 31.203125 23.390625 
L 4.890625 23.390625 
z
" id="DejaVuSans-45"/>
      <path d="M 19.671875 64.796875 
L 19.671875 8.109375 
L 31.59375 8.109375 
Q 46.6875 8.109375 53.6875 14.9375 
Q 60.6875 21.78125 60.6875 36.53125 
Q 60.6875 51.171875 53.6875 57.984375 
Q 46.6875 64.796875 31.59375 64.796875 
z
M 9.8125 72.90625 
L 30.078125 72.90625 
Q 51.265625 72.90625 61.171875 64.09375 
Q 71.09375 55.28125 71.09375 36.53125 
Q 71.09375 17.671875 61.125 8.828125 
Q 51.171875 0 30.078125 0 
L 9.8125 0 
z
" id="DejaVuSans-68"/>
      <path d="M 59.515625 10.40625 
L 59.515625 29.984375 
L 43.40625 29.984375 
L 43.40625 38.09375 
L 69.28125 38.09375 
L 69.28125 6.78125 
Q 63.578125 2.734375 56.6875 0.65625 
Q 49.8125 -1.421875 42 -1.421875 
Q 24.90625 -1.421875 15.25 8.5625 
Q 5.609375 18.5625 5.609375 36.375 
Q 5.609375 54.25 15.25 64.234375 
Q 24.90625 74.21875 42 74.21875 
Q 49.125 74.21875 55.546875 72.453125 
Q 61.96875 70.703125 67.390625 67.28125 
L 67.390625 56.78125 
Q 61.921875 61.421875 55.765625 63.765625 
Q 49.609375 66.109375 42.828125 66.109375 
Q 29.4375 66.109375 22.71875 58.640625 
Q 16.015625 51.171875 16.015625 36.375 
Q 16.015625 21.625 22.71875 14.15625 
Q 29.4375 6.6875 42.828125 6.6875 
Q 48.046875 6.6875 52.140625 7.59375 
Q 56.25 8.5 59.515625 10.40625 
z
" id="DejaVuSans-71"/>
      <path d="M 34.1875 63.1875 
L 20.796875 26.90625 
L 47.609375 26.90625 
z
M 28.609375 72.90625 
L 39.796875 72.90625 
L 67.578125 0 
L 57.328125 0 
L 50.6875 18.703125 
L 17.828125 18.703125 
L 11.1875 0 
L 0.78125 0 
z
" id="DejaVuSans-65"/>
     </defs>
     <g transform="translate(148.61 75.737812)scale(0.18 -0.18)">
      <use xlink:href="#DejaVuSans-77"/>
      <use x="86.279297" xlink:href="#DejaVuSans-79"/>
      <use x="167.740234" xlink:href="#DejaVuSans-45"/>
      <use x="203.824219" xlink:href="#DejaVuSans-80"/>
      <use x="259.626953" xlink:href="#DejaVuSans-97"/>
      <use x="320.90625" xlink:href="#DejaVuSans-68"/>
      <use x="397.908203" xlink:href="#DejaVuSans-71"/>
      <use x="475.398438" xlink:href="#DejaVuSans-65"/>
      <use x="543.806641" xlink:href="#DejaVuSans-78"/>
     </g>
    </g>
    <g id="line2d_16">
     <path d="M 98.21 95.858437 
L 134.21 95.858437 
" style="fill:none;stroke:#7a5195;stroke-dasharray:5.55,2.4;stroke-dashoffset:0;stroke-width:1.5;"/>
    </g>
    <g id="line2d_17"/>
    <g id="text_14">
     <!-- GAN -->
     <g transform="translate(148.61 102.158437)scale(0.18 -0.18)">
      <use xlink:href="#DejaVuSans-71"/>
      <use x="77.490234" xlink:href="#DejaVuSans-65"/>
      <use x="145.898438" xlink:href="#DejaVuSans-78"/>
     </g>
    </g>
    <g id="line2d_18">
     <path d="M 98.21 122.279062 
L 134.21 122.279062 
" style="fill:none;stroke:#ef5675;stroke-dasharray:1.5,2.475;stroke-dashoffset:0;stroke-width:1.5;"/>
    </g>
    <g id="line2d_19"/>
    <g id="text_15">
     <!-- SVD -->
     <defs>
      <path d="M 53.515625 70.515625 
L 53.515625 60.890625 
Q 47.90625 63.578125 42.921875 64.890625 
Q 37.9375 66.21875 33.296875 66.21875 
Q 25.25 66.21875 20.875 63.09375 
Q 16.5 59.96875 16.5 54.203125 
Q 16.5 49.359375 19.40625 46.890625 
Q 22.3125 44.4375 30.421875 42.921875 
L 36.375 41.703125 
Q 47.40625 39.59375 52.65625 34.296875 
Q 57.90625 29 57.90625 20.125 
Q 57.90625 9.515625 50.796875 4.046875 
Q 43.703125 -1.421875 29.984375 -1.421875 
Q 24.8125 -1.421875 18.96875 -0.25 
Q 13.140625 0.921875 6.890625 3.21875 
L 6.890625 13.375 
Q 12.890625 10.015625 18.65625 8.296875 
Q 24.421875 6.59375 29.984375 6.59375 
Q 38.421875 6.59375 43.015625 9.90625 
Q 47.609375 13.234375 47.609375 19.390625 
Q 47.609375 24.75 44.3125 27.78125 
Q 41.015625 30.8125 33.5 32.328125 
L 27.484375 33.5 
Q 16.453125 35.6875 11.515625 40.375 
Q 6.59375 45.0625 6.59375 53.421875 
Q 6.59375 63.09375 13.40625 68.65625 
Q 20.21875 74.21875 32.171875 74.21875 
Q 37.3125 74.21875 42.625 73.28125 
Q 47.953125 72.359375 53.515625 70.515625 
z
" id="DejaVuSans-83"/>
      <path d="M 28.609375 0 
L 0.78125 72.90625 
L 11.078125 72.90625 
L 34.1875 11.53125 
L 57.328125 72.90625 
L 67.578125 72.90625 
L 39.796875 0 
z
" id="DejaVuSans-86"/>
     </defs>
     <g transform="translate(148.61 128.579062)scale(0.18 -0.18)">
      <use xlink:href="#DejaVuSans-83"/>
      <use x="63.476562" xlink:href="#DejaVuSans-86"/>
      <use x="131.884766" xlink:href="#DejaVuSans-68"/>
     </g>
    </g>
    <g id="line2d_20">
     <path d="M 98.21 148.699687 
L 134.21 148.699687 
" style="fill:none;stroke:#ffa600;stroke-dasharray:9.6,2.4,1.5,2.4;stroke-dashoffset:0;stroke-width:1.5;"/>
    </g>
    <g id="line2d_21"/>
    <g id="text_16">
     <!-- FFD -->
     <defs>
      <path d="M 9.8125 72.90625 
L 51.703125 72.90625 
L 51.703125 64.59375 
L 19.671875 64.59375 
L 19.671875 43.109375 
L 48.578125 43.109375 
L 48.578125 34.8125 
L 19.671875 34.8125 
L 19.671875 0 
L 9.8125 0 
z
" id="DejaVuSans-70"/>
     </defs>
     <g transform="translate(148.61 154.999687)scale(0.18 -0.18)">
      <use xlink:href="#DejaVuSans-70"/>
      <use x="57.519531" xlink:href="#DejaVuSans-70"/>
      <use x="115.039062" xlink:href="#DejaVuSans-68"/>
     </g>
    </g>
   </g>
  </g>
 </g>
 <defs>
  <clipPath id="p91099c7635">
   <rect height="261.16" width="359.35" x="82.01" y="19.44"/>
  </clipPath>
 </defs>
</svg>
