<?xml version="1.0" encoding="utf-8" standalone="no"?>
<!DOCTYPE svg PUBLIC "-//W3C//DTD SVG 1.1//EN"
  "http://www.w3.org/Graphics/SVG/1.1/DTD/svg11.dtd">
<!-- Created with matplotlib (https://matplotlib.org/) -->
<svg height="345.6pt" version="1.1" viewBox="0 0 460.8 345.6" width="460.8pt" xmlns="http://www.w3.org/2000/svg" xmlns:xlink="http://www.w3.org/1999/xlink">
 <defs>
  <style type="text/css">
*{stroke-linecap:butt;stroke-linejoin:round;}
  </style>
 </defs>
 <g id="figure_1">
  <g id="patch_1">
   <path d="M 0 345.6 
L 460.8 345.6 
L 460.8 0 
L 0 0 
z
" style="fill:#ffffff;"/>
  </g>
  <g id="axes_1">
   <g id="patch_2">
    <path d="M 82.01 280.6 
L 441.36 280.6 
L 441.36 19.44 
L 82.01 19.44 
z
" style="fill:#ffffff;"/>
   </g>
   <g id="PolyCollection_1">
    <defs>
     <path d="M 98.344091 -138.350023 
L 98.344091 -96.125407 
L 100.336053 -99.166607 
L 102.328016 -118.479131 
L 104.319978 -133.538405 
L 106.31194 -143.061797 
L 108.303902 -150.386722 
L 110.295865 -162.294513 
L 112.287827 -162.294513 
L 114.279789 -163.05966 
L 116.271752 -167.496058 
L 118.263714 -175.108836 
L 120.255676 -179.896315 
L 122.247639 -182.483484 
L 124.239601 -189.147062 
L 126.231563 -189.836639 
L 128.223525 -199.329258 
L 130.215488 -204.512883 
L 132.20745 -206.32634 
L 134.199412 -206.32634 
L 136.191375 -206.32634 
L 138.183337 -206.32634 
L 140.175299 -206.32634 
L 142.167262 -206.32634 
L 144.159224 -206.32634 
L 146.151186 -206.32634 
L 148.143149 -206.32634 
L 150.135111 -206.32634 
L 152.127073 -206.32634 
L 154.119035 -206.32634 
L 156.110998 -206.32634 
L 158.10296 -206.201524 
L 160.094922 -214.301512 
L 162.086885 -219.919521 
L 164.078847 -221.176712 
L 166.070809 -221.434254 
L 168.062772 -221.434254 
L 170.054734 -221.434254 
L 172.046696 -221.434254 
L 174.038659 -221.434254 
L 176.030621 -221.434254 
L 178.022583 -221.434254 
L 180.014545 -221.434254 
L 182.006508 -221.434254 
L 183.99847 -221.434254 
L 185.990432 -221.434254 
L 187.982395 -224.412332 
L 189.974357 -225.401153 
L 191.966319 -228.572682 
L 193.958282 -230.999769 
L 195.950244 -231.923713 
L 197.942206 -232.099674 
L 199.934169 -232.099675 
L 201.926131 -232.100093 
L 203.918093 -232.100093 
L 205.910055 -232.100093 
L 207.902018 -232.100093 
L 209.89398 -232.100093 
L 211.885942 -232.100093 
L 213.877905 -232.100093 
L 215.869867 -232.100093 
L 217.861829 -242.943092 
L 219.853792 -244.506926 
L 221.845754 -244.528017 
L 223.837716 -246.019889 
L 225.829678 -246.876261 
L 227.821641 -249.505358 
L 229.813603 -249.528218 
L 231.805565 -249.528611 
L 233.797528 -249.528611 
L 235.78949 -249.528611 
L 237.781452 -249.528611 
L 239.773415 -249.528611 
L 241.765377 -249.528611 
L 243.757339 -249.528611 
L 245.749302 -249.528611 
L 247.741264 -251.129193 
L 249.733226 -251.529295 
L 251.725188 -252.099101 
L 253.717151 -252.241879 
L 255.709113 -252.266261 
L 257.701075 -252.652607 
L 259.693038 -252.652607 
L 261.685 -252.652607 
L 263.676962 -252.652607 
L 265.668925 -252.652607 
L 267.660887 -252.652607 
L 269.652849 -252.652607 
L 271.644812 -252.652607 
L 273.636774 -252.652607 
L 275.628736 -252.652607 
L 277.620698 -252.652607 
L 279.612661 -253.315586 
L 281.604623 -253.999546 
L 283.596585 -254.53176 
L 285.588548 -254.557977 
L 287.58051 -254.563559 
L 289.572472 -254.557788 
L 291.564435 -254.558113 
L 293.556397 -254.558113 
L 295.548359 -254.558113 
L 297.540322 -254.558113 
L 299.532284 -254.558113 
L 301.524246 -254.558113 
L 303.516208 -254.558113 
L 305.508171 -254.558113 
L 307.500133 -254.558113 
L 309.492095 -261.334286 
L 311.484058 -262.58986 
L 313.47602 -263.015665 
L 315.467982 -263.089805 
L 317.459945 -263.494074 
L 319.451907 -264.295884 
L 321.443869 -264.295884 
L 323.435831 -264.295884 
L 325.427794 -264.295884 
L 327.419756 -264.295884 
L 329.411718 -264.295884 
L 331.403681 -264.295884 
L 333.395643 -264.295884 
L 335.387605 -264.295884 
L 337.379568 -266.120624 
L 339.37153 -266.543235 
L 341.363492 -266.444715 
L 343.355455 -266.499613 
L 345.347417 -266.624723 
L 347.339379 -269.460615 
L 349.331341 -269.528023 
L 351.323304 -269.531294 
L 353.315266 -269.531294 
L 355.307228 -269.531294 
L 357.299191 -269.531294 
L 359.291153 -269.531294 
L 361.283115 -269.531294 
L 363.275078 -269.531294 
L 365.26704 -269.531294 
L 367.259002 -269.828233 
L 369.250965 -270.984282 
L 371.242927 -272.048482 
L 373.234889 -272.680662 
L 375.226851 -273.329669 
L 377.218814 -273.417062 
L 379.210776 -273.552341 
L 381.202738 -273.552373 
L 383.194701 -273.558351 
L 385.186663 -273.558952 
L 387.178625 -273.558952 
L 389.170588 -273.558952 
L 391.16255 -273.558952 
L 393.154512 -273.558952 
L 395.146475 -273.558952 
L 397.138437 -273.944466 
L 399.130399 -274.616888 
L 401.122361 -277.311587 
L 403.114324 -277.919435 
L 405.106286 -277.997759 
L 407.098248 -278.102155 
L 409.090211 -278.100405 
L 411.082173 -278.184918 
L 413.074135 -279.523598 
L 415.066098 -279.538863 
L 417.05806 -279.538863 
L 419.050022 -279.538863 
L 421.041984 -279.538863 
L 423.033947 -279.538863 
L 425.025909 -279.538863 
L 425.025909 -314.289091 
L 425.025909 -314.289091 
L 423.033947 -314.289091 
L 421.041984 -314.289091 
L 419.050022 -314.289091 
L 417.05806 -314.289091 
L 415.066098 -314.289091 
L 413.074135 -314.277243 
L 411.082173 -313.666734 
L 409.090211 -313.584517 
L 407.098248 -313.33749 
L 405.106286 -312.742148 
L 403.114324 -312.71676 
L 401.122361 -311.311034 
L 399.130399 -311.844655 
L 397.138437 -310.989823 
L 395.146475 -311.020498 
L 393.154512 -311.020498 
L 391.16255 -311.020498 
L 389.170588 -311.020498 
L 387.178625 -311.020498 
L 385.186663 -311.020498 
L 383.194701 -311.016685 
L 381.202738 -310.995412 
L 379.210776 -310.99405 
L 377.218814 -310.922373 
L 375.226851 -310.884353 
L 373.234889 -310.705355 
L 371.242927 -310.530481 
L 369.250965 -310.463032 
L 367.259002 -309.595451 
L 365.26704 -309.288556 
L 363.275078 -309.288556 
L 361.283115 -309.288556 
L 359.291153 -309.288556 
L 357.299191 -309.288556 
L 355.307228 -309.288556 
L 353.315266 -309.288556 
L 351.323304 -309.288556 
L 349.331341 -309.282384 
L 347.339379 -309.300825 
L 345.347417 -309.366888 
L 343.355455 -308.787694 
L 341.363492 -308.665071 
L 339.37153 -307.452569 
L 337.379568 -307.227796 
L 335.387605 -306.497486 
L 333.395643 -306.497486 
L 331.403681 -306.497486 
L 329.411718 -306.497486 
L 327.419756 -306.497486 
L 325.427794 -306.497486 
L 323.435831 -306.497486 
L 321.443869 -306.497486 
L 319.451907 -306.497486 
L 317.459945 -305.749129 
L 315.467982 -305.423243 
L 313.47602 -305.189877 
L 311.484058 -303.930104 
L 309.492095 -302.85374 
L 307.500133 -300.665975 
L 305.508171 -300.665975 
L 303.516208 -300.665975 
L 301.524246 -300.665975 
L 299.532284 -300.665975 
L 297.540322 -300.665975 
L 295.548359 -300.665975 
L 293.556397 -300.665975 
L 291.564435 -300.665975 
L 289.572472 -300.666065 
L 287.58051 -300.614243 
L 285.588548 -300.583037 
L 283.596585 -300.507995 
L 281.604623 -299.235998 
L 279.612661 -298.66978 
L 277.620698 -297.879155 
L 275.628736 -297.879155 
L 273.636774 -297.879155 
L 271.644812 -297.879155 
L 269.652849 -297.879155 
L 267.660887 -297.879155 
L 265.668925 -297.879155 
L 263.676962 -297.879155 
L 261.685 -297.879155 
L 259.693038 -297.879155 
L 257.701075 -297.879155 
L 255.709113 -297.147434 
L 253.717151 -297.138897 
L 251.725188 -297.08518 
L 249.733226 -296.263358 
L 247.741264 -296.012142 
L 245.749302 -295.420482 
L 243.757339 -295.420482 
L 241.765377 -295.420482 
L 239.773415 -295.420482 
L 237.781452 -295.420482 
L 235.78949 -295.420482 
L 233.797528 -295.420482 
L 231.805565 -295.420482 
L 229.813603 -295.42 
L 227.821641 -293.390117 
L 225.829678 -292.528813 
L 223.837716 -292.560178 
L 221.845754 -291.024677 
L 219.853792 -290.930853 
L 217.861829 -291.180764 
L 215.869867 -278.227979 
L 213.877905 -278.227979 
L 211.885942 -278.227979 
L 209.89398 -278.227979 
L 207.902018 -278.227979 
L 205.910055 -278.227979 
L 203.918093 -278.227979 
L 201.926131 -278.227979 
L 199.934169 -278.227891 
L 197.942206 -278.22789 
L 195.950244 -278.193274 
L 193.958282 -278.00131 
L 191.966319 -278.212567 
L 189.974357 -270.243921 
L 187.982395 -268.878591 
L 185.990432 -263.893273 
L 183.99847 -263.893273 
L 182.006508 -263.893273 
L 180.014545 -263.893273 
L 178.022583 -263.893273 
L 176.030621 -263.893273 
L 174.038659 -263.893273 
L 172.046696 -263.893273 
L 170.054734 -263.893273 
L 168.062772 -263.893273 
L 166.070809 -263.893273 
L 164.078847 -263.841724 
L 162.086885 -263.74023 
L 160.094922 -263.846592 
L 158.10296 -258.718929 
L 156.110998 -250.98415 
L 154.119035 -250.98415 
L 152.127073 -250.98415 
L 150.135111 -250.98415 
L 148.143149 -250.98415 
L 146.151186 -250.98415 
L 144.159224 -250.98415 
L 142.167262 -250.98415 
L 140.175299 -250.98415 
L 138.183337 -250.98415 
L 136.191375 -250.98415 
L 134.199412 -250.98415 
L 132.20745 -250.98415 
L 130.215488 -251.313265 
L 128.223525 -247.535549 
L 126.231563 -235.973571 
L 124.239601 -234.036836 
L 122.247639 -233.78676 
L 120.255676 -233.226449 
L 118.263714 -230.622688 
L 116.271752 -229.123982 
L 114.279789 -219.407518 
L 112.287827 -219.29941 
L 110.295865 -219.29941 
L 108.303902 -212.717464 
L 106.31194 -192.556783 
L 104.319978 -192.395479 
L 102.328016 -168.475315 
L 100.336053 -141.601084 
L 98.344091 -138.350023 
z
" id="m1a13b342a5" style="stroke:#003f5c;stroke-opacity:0.2;"/>
    </defs>
    <g clip-path="url(#p9982120597)">
     <use style="fill:#003f5c;fill-opacity:0.2;stroke:#003f5c;stroke-opacity:0.2;" x="0" xlink:href="#m1a13b342a5" y="345.6"/>
    </g>
   </g>
   <g id="PolyCollection_2">
    <defs>
     <path d="M 98.344091 -95.038572 
L 98.344091 -82.231904 
L 100.336053 -85.960454 
L 102.328016 -85.433518 
L 104.319978 -88.375634 
L 106.31194 -93.062239 
L 108.303902 -94.448805 
L 110.295865 -94.448805 
L 112.287827 -93.266526 
L 114.279789 -98.599928 
L 116.271752 -99.365319 
L 118.263714 -105.067387 
L 120.255676 -105.067387 
L 122.247639 -107.806718 
L 124.239601 -111.3953 
L 126.231563 -111.3953 
L 128.223525 -113.812528 
L 130.215488 -116.167577 
L 132.20745 -116.510739 
L 134.199412 -116.510739 
L 136.191375 -116.510739 
L 138.183337 -116.510739 
L 140.175299 -116.510739 
L 142.167262 -116.510739 
L 144.159224 -116.510739 
L 146.151186 -116.510739 
L 148.143149 -116.510739 
L 150.135111 -116.510739 
L 152.127073 -116.510739 
L 154.119035 -116.510739 
L 156.110998 -116.510739 
L 158.10296 -120.901662 
L 160.094922 -123.146453 
L 162.086885 -123.552249 
L 164.078847 -123.552249 
L 166.070809 -123.552249 
L 168.062772 -123.552249 
L 170.054734 -123.552249 
L 172.046696 -123.552249 
L 174.038659 -123.552249 
L 176.030621 -123.552249 
L 178.022583 -123.552249 
L 180.014545 -123.552249 
L 182.006508 -123.552249 
L 183.99847 -123.552249 
L 185.990432 -123.552249 
L 187.982395 -125.44943 
L 189.974357 -126.071283 
L 191.966319 -126.74046 
L 193.958282 -127.234578 
L 195.950244 -127.234578 
L 197.942206 -127.234578 
L 199.934169 -127.234578 
L 201.926131 -127.234578 
L 203.918093 -127.234578 
L 205.910055 -127.234578 
L 207.902018 -127.234578 
L 209.89398 -127.234578 
L 211.885942 -127.234578 
L 213.877905 -127.234578 
L 215.869867 -127.234578 
L 217.861829 -128.722414 
L 219.853792 -129.079202 
L 221.845754 -129.430579 
L 223.837716 -129.430579 
L 225.829678 -129.430579 
L 227.821641 -129.430579 
L 229.813603 -129.430579 
L 231.805565 -129.430579 
L 233.797528 -129.430579 
L 235.78949 -129.430579 
L 237.781452 -129.430579 
L 239.773415 -129.430579 
L 241.765377 -129.430579 
L 243.757339 -129.430579 
L 245.749302 -129.430579 
L 247.741264 -131.46697 
L 249.733226 -132.444936 
L 251.725188 -132.732613 
L 253.717151 -132.681417 
L 255.709113 -132.681451 
L 257.701075 -132.681451 
L 259.693038 -132.681451 
L 261.685 -132.681451 
L 263.676962 -132.681451 
L 265.668925 -132.681451 
L 267.660887 -132.681451 
L 269.652849 -132.681451 
L 271.644812 -132.681451 
L 273.636774 -132.681451 
L 275.628736 -132.681451 
L 277.620698 -133.685452 
L 279.612661 -134.58801 
L 281.604623 -134.794229 
L 283.596585 -134.833017 
L 285.588548 -134.833017 
L 287.58051 -134.833017 
L 289.572472 -134.833017 
L 291.564435 -134.833017 
L 293.556397 -134.833017 
L 295.548359 -134.833017 
L 297.540322 -134.833017 
L 299.532284 -134.833017 
L 301.524246 -134.833017 
L 303.516208 -134.833017 
L 305.508171 -134.833017 
L 307.500133 -135.304095 
L 309.492095 -135.795772 
L 311.484058 -135.972825 
L 313.47602 -136.174508 
L 315.467982 -136.20526 
L 317.459945 -136.20526 
L 319.451907 -136.20526 
L 321.443869 -136.20526 
L 323.435831 -136.20526 
L 325.427794 -136.20526 
L 327.419756 -136.20526 
L 329.411718 -136.20526 
L 331.403681 -136.20526 
L 333.395643 -136.20526 
L 335.387605 -136.20526 
L 337.379568 -137.196947 
L 339.37153 -138.812249 
L 341.363492 -139.100429 
L 343.355455 -139.142883 
L 345.347417 -139.142883 
L 347.339379 -139.142883 
L 349.331341 -139.142883 
L 351.323304 -139.142883 
L 353.315266 -139.142883 
L 355.307228 -139.142883 
L 357.299191 -139.142883 
L 359.291153 -139.142883 
L 361.283115 -139.142883 
L 363.275078 -139.142883 
L 365.26704 -139.142883 
L 367.259002 -140.135255 
L 369.250965 -141.020164 
L 371.242927 -141.084827 
L 373.234889 -140.808947 
L 375.226851 -140.737241 
L 377.218814 -140.737241 
L 379.210776 -140.737241 
L 381.202738 -140.737241 
L 383.194701 -140.737241 
L 385.186663 -140.737241 
L 387.178625 -140.737241 
L 389.170588 -140.737241 
L 391.16255 -140.737241 
L 393.154512 -140.737241 
L 395.146475 -140.737241 
L 397.138437 -142.21414 
L 399.130399 -142.334979 
L 401.122361 -142.50948 
L 403.114324 -142.738731 
L 405.106286 -142.745601 
L 407.098248 -142.74593 
L 409.090211 -142.74593 
L 411.082173 -142.74593 
L 413.074135 -142.74593 
L 415.066098 -142.74593 
L 417.05806 -142.74593 
L 419.050022 -142.74593 
L 421.041984 -142.74593 
L 423.033947 -142.74593 
L 425.025909 -142.74593 
L 425.025909 -170.026987 
L 425.025909 -170.026987 
L 423.033947 -170.026987 
L 421.041984 -170.026987 
L 419.050022 -170.026987 
L 417.05806 -170.026987 
L 415.066098 -170.026987 
L 413.074135 -170.026987 
L 411.082173 -170.026987 
L 409.090211 -170.026987 
L 407.098248 -170.026987 
L 405.106286 -170.02675 
L 403.114324 -170.020865 
L 401.122361 -169.677064 
L 399.130399 -169.236273 
L 397.138437 -169.032629 
L 395.146475 -168.996371 
L 393.154512 -168.996371 
L 391.16255 -168.996371 
L 389.170588 -168.996371 
L 387.178625 -168.996371 
L 385.186663 -168.996371 
L 383.194701 -168.996371 
L 381.202738 -168.996371 
L 379.210776 -168.996371 
L 377.218814 -168.996371 
L 375.226851 -168.996371 
L 373.234889 -168.764111 
L 371.242927 -167.505842 
L 369.250965 -167.372202 
L 367.259002 -166.297826 
L 365.26704 -165.31838 
L 363.275078 -165.31838 
L 361.283115 -165.31838 
L 359.291153 -165.31838 
L 357.299191 -165.31838 
L 355.307228 -165.31838 
L 353.315266 -165.31838 
L 351.323304 -165.31838 
L 349.331341 -165.31838 
L 347.339379 -165.31838 
L 345.347417 -165.31838 
L 343.355455 -165.31838 
L 341.363492 -165.224171 
L 339.37153 -164.903333 
L 337.379568 -164.284769 
L 335.387605 -163.758762 
L 333.395643 -163.758762 
L 331.403681 -163.758762 
L 329.411718 -163.758762 
L 327.419756 -163.758762 
L 325.427794 -163.758762 
L 323.435831 -163.758762 
L 321.443869 -163.758762 
L 319.451907 -163.758762 
L 317.459945 -163.758762 
L 315.467982 -163.758762 
L 313.47602 -163.612079 
L 311.484058 -162.948024 
L 309.492095 -162.470807 
L 307.500133 -162.071507 
L 305.508171 -161.435526 
L 303.516208 -161.435526 
L 301.524246 -161.435526 
L 299.532284 -161.435526 
L 297.540322 -161.435526 
L 295.548359 -161.435526 
L 293.556397 -161.435526 
L 291.564435 -161.435526 
L 289.572472 -161.435526 
L 287.58051 -161.435526 
L 285.588548 -161.435526 
L 283.596585 -161.435526 
L 281.604623 -161.287561 
L 279.612661 -161.080299 
L 277.620698 -160.113835 
L 275.628736 -160.013348 
L 273.636774 -160.013348 
L 271.644812 -160.013348 
L 269.652849 -160.013348 
L 267.660887 -160.013348 
L 265.668925 -160.013348 
L 263.676962 -160.013348 
L 261.685 -160.013348 
L 259.693038 -160.013348 
L 257.701075 -160.013348 
L 255.709113 -160.013348 
L 253.717151 -160.013276 
L 251.725188 -159.782883 
L 249.733226 -159.573975 
L 247.741264 -158.94491 
L 245.749302 -156.623082 
L 243.757339 -156.623082 
L 241.765377 -156.623082 
L 239.773415 -156.623082 
L 237.781452 -156.623082 
L 235.78949 -156.623082 
L 233.797528 -156.623082 
L 231.805565 -156.623082 
L 229.813603 -156.623082 
L 227.821641 -156.623082 
L 225.829678 -156.623082 
L 223.837716 -156.623082 
L 221.845754 -156.623082 
L 219.853792 -156.447232 
L 217.861829 -156.43282 
L 215.869867 -155.914365 
L 213.877905 -155.914365 
L 211.885942 -155.914365 
L 209.89398 -155.914365 
L 207.902018 -155.914365 
L 205.910055 -155.914365 
L 203.918093 -155.914365 
L 201.926131 -155.914365 
L 199.934169 -155.914365 
L 197.942206 -155.914365 
L 195.950244 -155.914365 
L 193.958282 -155.914365 
L 191.966319 -155.88521 
L 189.974357 -155.599016 
L 187.982395 -154.864476 
L 185.990432 -152.851305 
L 183.99847 -152.851305 
L 182.006508 -152.851305 
L 180.014545 -152.851305 
L 178.022583 -152.851305 
L 176.030621 -152.851305 
L 174.038659 -152.851305 
L 172.046696 -152.851305 
L 170.054734 -152.851305 
L 168.062772 -152.851305 
L 166.070809 -152.851305 
L 164.078847 -152.851305 
L 162.086885 -152.851305 
L 160.094922 -152.534041 
L 158.10296 -150.434612 
L 156.110998 -145.173501 
L 154.119035 -145.173501 
L 152.127073 -145.173501 
L 150.135111 -145.173501 
L 148.143149 -145.173501 
L 146.151186 -145.173501 
L 144.159224 -145.173501 
L 142.167262 -145.173501 
L 140.175299 -145.173501 
L 138.183337 -145.173501 
L 136.191375 -145.173501 
L 134.199412 -145.173501 
L 132.20745 -145.173501 
L 130.215488 -145.24898 
L 128.223525 -143.470027 
L 126.231563 -141.733634 
L 124.239601 -141.733634 
L 122.247639 -139.998546 
L 120.255676 -135.987017 
L 118.263714 -135.987017 
L 116.271752 -135.47244 
L 114.279789 -135.291409 
L 112.287827 -130.536098 
L 110.295865 -121.825837 
L 108.303902 -121.825837 
L 106.31194 -122.005572 
L 104.319978 -119.894284 
L 102.328016 -106.399605 
L 100.336053 -97.766544 
L 98.344091 -95.038572 
z
" id="mea335a94c9" style="stroke:#7a5195;stroke-opacity:0.2;"/>
    </defs>
    <g clip-path="url(#p9982120597)">
     <use style="fill:#7a5195;fill-opacity:0.2;stroke:#7a5195;stroke-opacity:0.2;" x="0" xlink:href="#mea335a94c9" y="345.6"/>
    </g>
   </g>
   <g id="PolyCollection_3">
    <defs>
     <path d="M 98.344091 -91.448417 
L 98.344091 -76.870909 
L 100.336053 -82.698085 
L 102.328016 -88.201009 
L 104.319978 -88.201009 
L 106.31194 -88.299281 
L 108.303902 -94.329988 
L 110.295865 -96.664498 
L 112.287827 -100.689323 
L 114.279789 -104.560074 
L 116.271752 -109.272188 
L 118.263714 -109.272188 
L 120.255676 -109.272188 
L 122.247639 -109.272188 
L 124.239601 -109.272188 
L 126.231563 -110.692961 
L 128.223525 -112.846787 
L 130.215488 -116.715072 
L 132.20745 -116.712935 
L 134.199412 -116.712935 
L 136.191375 -116.712935 
L 138.183337 -116.712935 
L 140.175299 -116.712935 
L 142.167262 -116.712935 
L 144.159224 -116.712935 
L 146.151186 -116.712935 
L 148.143149 -116.712935 
L 150.135111 -116.712935 
L 152.127073 -116.712935 
L 154.119035 -116.712935 
L 156.110998 -116.712935 
L 158.10296 -127.553717 
L 160.094922 -127.692491 
L 162.086885 -129.259389 
L 164.078847 -129.325293 
L 166.070809 -129.325393 
L 168.062772 -129.332784 
L 170.054734 -129.332784 
L 172.046696 -129.332784 
L 174.038659 -129.332784 
L 176.030621 -129.332784 
L 178.022583 -129.332784 
L 180.014545 -129.332784 
L 182.006508 -129.332784 
L 183.99847 -129.332784 
L 185.990432 -129.332784 
L 187.982395 -129.332784 
L 189.974357 -129.330606 
L 191.966319 -129.519082 
L 193.958282 -129.998179 
L 195.950244 -131.411922 
L 197.942206 -132.145458 
L 199.934169 -132.145458 
L 201.926131 -132.145458 
L 203.918093 -132.145458 
L 205.910055 -132.145458 
L 207.902018 -132.145458 
L 209.89398 -132.145458 
L 211.885942 -132.145458 
L 213.877905 -132.145458 
L 215.869867 -132.145458 
L 217.861829 -132.976706 
L 219.853792 -133.215454 
L 221.845754 -133.305209 
L 223.837716 -133.449308 
L 225.829678 -133.710467 
L 227.821641 -133.788884 
L 229.813603 -133.788884 
L 231.805565 -133.788884 
L 233.797528 -133.788884 
L 235.78949 -133.788884 
L 237.781452 -133.788884 
L 239.773415 -133.788884 
L 241.765377 -133.788884 
L 243.757339 -133.788884 
L 245.749302 -133.788884 
L 247.741264 -134.003791 
L 249.733226 -134.2207 
L 251.725188 -134.262547 
L 253.717151 -134.419792 
L 255.709113 -134.328318 
L 257.701075 -134.347223 
L 259.693038 -134.353054 
L 261.685 -134.326518 
L 263.676962 -134.326518 
L 265.668925 -134.326518 
L 267.660887 -134.326518 
L 269.652849 -134.326518 
L 271.644812 -134.326518 
L 273.636774 -134.326518 
L 275.628736 -134.326518 
L 277.620698 -138.779771 
L 279.612661 -139.829412 
L 281.604623 -141.304731 
L 283.596585 -141.817472 
L 285.588548 -141.919264 
L 287.58051 -141.922028 
L 289.572472 -141.950236 
L 291.564435 -142.163623 
L 293.556397 -142.309396 
L 295.548359 -142.309396 
L 297.540322 -142.309396 
L 299.532284 -142.309396 
L 301.524246 -142.309396 
L 303.516208 -142.309396 
L 305.508171 -142.309396 
L 307.500133 -142.309396 
L 309.492095 -143.018271 
L 311.484058 -143.503983 
L 313.47602 -144.02314 
L 315.467982 -144.024467 
L 317.459945 -144.031071 
L 319.451907 -144.031016 
L 321.443869 -144.031015 
L 323.435831 -144.059912 
L 325.427794 -144.059912 
L 327.419756 -144.061591 
L 329.411718 -144.061591 
L 331.403681 -144.061591 
L 333.395643 -144.061591 
L 335.387605 -144.061591 
L 337.379568 -144.061591 
L 339.37153 -144.00087 
L 341.363492 -144.155531 
L 343.355455 -144.377243 
L 345.347417 -144.698035 
L 347.339379 -145.096486 
L 349.331341 -145.190814 
L 351.323304 -145.188886 
L 353.315266 -145.240271 
L 355.307228 -145.240271 
L 357.299191 -145.240271 
L 359.291153 -145.240271 
L 361.283115 -145.240271 
L 363.275078 -145.240271 
L 365.26704 -145.240271 
L 367.259002 -145.240271 
L 369.250965 -145.408019 
L 371.242927 -146.234423 
L 373.234889 -146.691965 
L 375.226851 -146.785808 
L 377.218814 -146.97375 
L 379.210776 -147.152604 
L 381.202738 -147.174636 
L 383.194701 -147.174636 
L 385.186663 -147.174636 
L 387.178625 -147.174636 
L 389.170588 -147.174636 
L 391.16255 -147.174636 
L 393.154512 -147.174636 
L 395.146475 -147.174636 
L 397.138437 -147.174636 
L 399.130399 -147.407206 
L 401.122361 -147.396766 
L 403.114324 -147.440929 
L 405.106286 -147.456388 
L 407.098248 -147.569337 
L 409.090211 -147.575461 
L 411.082173 -147.578246 
L 413.074135 -147.583052 
L 415.066098 -147.583052 
L 417.05806 -147.583052 
L 419.050022 -147.583052 
L 421.041984 -147.583052 
L 423.033947 -147.583052 
L 425.025909 -147.583052 
L 425.025909 -160.595068 
L 425.025909 -160.595068 
L 423.033947 -160.595068 
L 421.041984 -160.595068 
L 419.050022 -160.595068 
L 417.05806 -160.595068 
L 415.066098 -160.595068 
L 413.074135 -160.595068 
L 411.082173 -160.571409 
L 409.090211 -160.566448 
L 407.098248 -160.555587 
L 405.106286 -160.392376 
L 403.114324 -160.357736 
L 401.122361 -160.33732 
L 399.130399 -160.257598 
L 397.138437 -160.259885 
L 395.146475 -160.259885 
L 393.154512 -160.259885 
L 391.16255 -160.259885 
L 389.170588 -160.259885 
L 387.178625 -160.259885 
L 385.186663 -160.259885 
L 383.194701 -160.259885 
L 381.202738 -160.259885 
L 379.210776 -160.248948 
L 377.218814 -160.044691 
L 375.226851 -159.940259 
L 373.234889 -159.470027 
L 371.242927 -159.358956 
L 369.250965 -158.535365 
L 367.259002 -158.582483 
L 365.26704 -158.582483 
L 363.275078 -158.582483 
L 361.283115 -158.582483 
L 359.291153 -158.582483 
L 357.299191 -158.582483 
L 355.307228 -158.582483 
L 353.315266 -158.582483 
L 351.323304 -158.59926 
L 349.331341 -158.587712 
L 347.339379 -158.568861 
L 345.347417 -157.720979 
L 343.355455 -157.504874 
L 341.363492 -157.324463 
L 339.37153 -156.587809 
L 337.379568 -156.304872 
L 335.387605 -156.304872 
L 333.395643 -156.304872 
L 331.403681 -156.304872 
L 329.411718 -156.304872 
L 327.419756 -156.304872 
L 325.427794 -156.305387 
L 323.435831 -156.305387 
L 321.443869 -156.310245 
L 319.451907 -156.310241 
L 317.459945 -156.309959 
L 315.467982 -156.303768 
L 313.47602 -156.19358 
L 311.484058 -155.883795 
L 309.492095 -155.770042 
L 307.500133 -155.346077 
L 305.508171 -155.346077 
L 303.516208 -155.346077 
L 301.524246 -155.346077 
L 299.532284 -155.346077 
L 297.540322 -155.346077 
L 295.548359 -155.346077 
L 293.556397 -155.346077 
L 291.564435 -155.380005 
L 289.572472 -155.433633 
L 287.58051 -155.430579 
L 285.588548 -155.430617 
L 283.596585 -155.292303 
L 281.604623 -154.664791 
L 279.612661 -154.056568 
L 277.620698 -154.107148 
L 275.628736 -153.719311 
L 273.636774 -153.719311 
L 271.644812 -153.719311 
L 269.652849 -153.719311 
L 267.660887 -153.719311 
L 265.668925 -153.719311 
L 263.676962 -153.719311 
L 261.685 -153.719311 
L 259.693038 -153.497181 
L 257.701075 -153.485219 
L 255.709113 -153.45913 
L 253.717151 -152.834512 
L 251.725188 -151.823969 
L 249.733226 -151.359175 
L 247.741264 -151.163383 
L 245.749302 -151.050533 
L 243.757339 -151.050533 
L 241.765377 -151.050533 
L 239.773415 -151.050533 
L 237.781452 -151.050533 
L 235.78949 -151.050533 
L 233.797528 -151.050533 
L 231.805565 -151.050533 
L 229.813603 -151.050533 
L 227.821641 -151.050533 
L 225.829678 -151.009868 
L 223.837716 -150.772299 
L 221.845754 -150.311013 
L 219.853792 -149.995077 
L 217.861829 -147.512226 
L 215.869867 -146.782892 
L 213.877905 -146.782892 
L 211.885942 -146.782892 
L 209.89398 -146.782892 
L 207.902018 -146.782892 
L 205.910055 -146.782892 
L 203.918093 -146.782892 
L 201.926131 -146.782892 
L 199.934169 -146.782892 
L 197.942206 -146.782892 
L 195.950244 -146.442381 
L 193.958282 -145.896782 
L 191.966319 -145.420259 
L 189.974357 -145.076919 
L 187.982395 -144.900215 
L 185.990432 -144.900215 
L 183.99847 -144.900215 
L 182.006508 -144.900215 
L 180.014545 -144.900215 
L 178.022583 -144.900215 
L 176.030621 -144.900215 
L 174.038659 -144.900215 
L 172.046696 -144.900215 
L 170.054734 -144.900215 
L 168.062772 -144.900215 
L 166.070809 -144.859083 
L 164.078847 -144.858552 
L 162.086885 -144.7034 
L 160.094922 -143.860292 
L 158.10296 -142.02015 
L 156.110998 -143.740116 
L 154.119035 -143.740116 
L 152.127073 -143.740116 
L 150.135111 -143.740116 
L 148.143149 -143.740116 
L 146.151186 -143.740116 
L 144.159224 -143.740116 
L 142.167262 -143.740116 
L 140.175299 -143.740116 
L 138.183337 -143.740116 
L 136.191375 -143.740116 
L 134.199412 -143.740116 
L 132.20745 -143.740116 
L 130.215488 -143.480248 
L 128.223525 -141.78556 
L 126.231563 -140.874552 
L 124.239601 -140.246443 
L 122.247639 -140.246443 
L 120.255676 -140.246443 
L 118.263714 -140.246443 
L 116.271752 -140.246443 
L 114.279789 -138.336321 
L 112.287827 -138.655923 
L 110.295865 -133.509323 
L 108.303902 -132.312723 
L 106.31194 -129.827422 
L 104.319978 -129.840548 
L 102.328016 -129.840548 
L 100.336053 -120.764226 
L 98.344091 -91.448417 
z
" id="m018b9f884f" style="stroke:#ef5675;stroke-opacity:0.2;"/>
    </defs>
    <g clip-path="url(#p9982120597)">
     <use style="fill:#ef5675;fill-opacity:0.2;stroke:#ef5675;stroke-opacity:0.2;" x="0" xlink:href="#m018b9f884f" y="345.6"/>
    </g>
   </g>
   <g id="PolyCollection_4">
    <defs>
     <path d="M 98.344091 -87.942815 
L 98.344091 -81.676009 
L 100.336053 -81.394614 
L 102.328016 -80.999783 
L 104.319978 -84.072687 
L 106.31194 -86.085968 
L 108.303902 -86.217701 
L 110.295865 -86.804445 
L 112.287827 -86.88549 
L 114.279789 -86.88549 
L 116.271752 -86.88549 
L 118.263714 -87.870123 
L 120.255676 -88.675431 
L 122.247639 -86.987164 
L 124.239601 -86.987164 
L 126.231563 -87.599815 
L 128.223525 -90.252091 
L 130.215488 -91.23741 
L 132.20745 -91.23741 
L 134.199412 -91.23741 
L 136.191375 -91.23741 
L 138.183337 -91.23741 
L 140.175299 -91.23741 
L 142.167262 -91.23741 
L 144.159224 -91.23741 
L 146.151186 -91.23741 
L 148.143149 -91.23741 
L 150.135111 -91.23741 
L 152.127073 -91.23741 
L 154.119035 -91.23741 
L 156.110998 -91.23741 
L 158.10296 -98.433309 
L 160.094922 -98.705568 
L 162.086885 -98.847449 
L 164.078847 -98.792759 
L 166.070809 -98.773219 
L 168.062772 -98.773219 
L 170.054734 -98.773219 
L 172.046696 -98.773219 
L 174.038659 -98.773219 
L 176.030621 -98.773219 
L 178.022583 -98.773219 
L 180.014545 -98.773219 
L 182.006508 -98.773219 
L 183.99847 -98.773219 
L 185.990432 -98.773219 
L 187.982395 -101.623165 
L 189.974357 -103.572367 
L 191.966319 -104.034149 
L 193.958282 -104.034149 
L 195.950244 -104.034149 
L 197.942206 -104.034149 
L 199.934169 -104.034149 
L 201.926131 -104.034149 
L 203.918093 -104.034149 
L 205.910055 -104.034149 
L 207.902018 -104.034149 
L 209.89398 -104.034149 
L 211.885942 -104.034149 
L 213.877905 -104.034149 
L 215.869867 -104.034149 
L 217.861829 -108.140045 
L 219.853792 -108.535585 
L 221.845754 -108.662806 
L 223.837716 -108.662806 
L 225.829678 -108.662806 
L 227.821641 -108.662806 
L 229.813603 -108.662806 
L 231.805565 -108.662806 
L 233.797528 -108.662806 
L 235.78949 -108.662806 
L 237.781452 -108.662806 
L 239.773415 -108.662806 
L 241.765377 -108.662806 
L 243.757339 -108.662806 
L 245.749302 -108.662806 
L 247.741264 -109.28524 
L 249.733226 -110.997977 
L 251.725188 -111.226799 
L 253.717151 -111.375124 
L 255.709113 -111.375124 
L 257.701075 -111.375124 
L 259.693038 -111.375124 
L 261.685 -111.375124 
L 263.676962 -111.375124 
L 265.668925 -111.375124 
L 267.660887 -111.375124 
L 269.652849 -111.375124 
L 271.644812 -111.375124 
L 273.636774 -111.375124 
L 275.628736 -111.375124 
L 277.620698 -113.5067 
L 279.612661 -114.131326 
L 281.604623 -114.929191 
L 283.596585 -114.945301 
L 285.588548 -114.945301 
L 287.58051 -114.945301 
L 289.572472 -114.945301 
L 291.564435 -114.945301 
L 293.556397 -114.945301 
L 295.548359 -114.945301 
L 297.540322 -114.945301 
L 299.532284 -114.945301 
L 301.524246 -114.945301 
L 303.516208 -114.945301 
L 305.508171 -114.945301 
L 307.500133 -117.97261 
L 309.492095 -120.617899 
L 311.484058 -120.481651 
L 313.47602 -120.549089 
L 315.467982 -120.549143 
L 317.459945 -120.549143 
L 319.451907 -120.549143 
L 321.443869 -120.549143 
L 323.435831 -120.549143 
L 325.427794 -120.549143 
L 327.419756 -120.549143 
L 329.411718 -120.549143 
L 331.403681 -120.549143 
L 333.395643 -120.549143 
L 335.387605 -120.549143 
L 337.379568 -121.897858 
L 339.37153 -122.101327 
L 341.363492 -122.280695 
L 343.355455 -122.456538 
L 345.347417 -122.456538 
L 347.339379 -122.600407 
L 349.331341 -122.693614 
L 351.323304 -122.693614 
L 353.315266 -122.693614 
L 355.307228 -122.693614 
L 357.299191 -122.693614 
L 359.291153 -122.693614 
L 361.283115 -122.693614 
L 363.275078 -122.693614 
L 365.26704 -122.693614 
L 367.259002 -122.772637 
L 369.250965 -123.021411 
L 371.242927 -123.148576 
L 373.234889 -123.391342 
L 375.226851 -123.391431 
L 377.218814 -123.391805 
L 379.210776 -123.391805 
L 381.202738 -123.391805 
L 383.194701 -123.391805 
L 385.186663 -123.391805 
L 387.178625 -123.391805 
L 389.170588 -123.391805 
L 391.16255 -123.391805 
L 393.154512 -123.391805 
L 395.146475 -123.391805 
L 397.138437 -124.181631 
L 399.130399 -124.574364 
L 401.122361 -124.769206 
L 403.114324 -126.203963 
L 405.106286 -126.204001 
L 407.098248 -126.204001 
L 409.090211 -126.204001 
L 411.082173 -126.204001 
L 413.074135 -126.204001 
L 415.066098 -126.204001 
L 417.05806 -126.204001 
L 419.050022 -126.204001 
L 421.041984 -126.204001 
L 423.033947 -126.204001 
L 425.025909 -126.204001 
L 425.025909 -151.029158 
L 425.025909 -151.029158 
L 423.033947 -151.029158 
L 421.041984 -151.029158 
L 419.050022 -151.029158 
L 417.05806 -151.029158 
L 415.066098 -151.029158 
L 413.074135 -151.029158 
L 411.082173 -151.029158 
L 409.090211 -151.029158 
L 407.098248 -151.029158 
L 405.106286 -151.029158 
L 403.114324 -151.027745 
L 401.122361 -150.865454 
L 399.130399 -150.51235 
L 397.138437 -149.875713 
L 395.146475 -149.348832 
L 393.154512 -149.348832 
L 391.16255 -149.348832 
L 389.170588 -149.348832 
L 387.178625 -149.348832 
L 385.186663 -149.348832 
L 383.194701 -149.348832 
L 381.202738 -149.348832 
L 379.210776 -149.348832 
L 377.218814 -149.348832 
L 375.226851 -149.347335 
L 373.234889 -149.346976 
L 371.242927 -149.31351 
L 369.250965 -148.839698 
L 367.259002 -148.124706 
L 365.26704 -147.447728 
L 363.275078 -147.447728 
L 361.283115 -147.447728 
L 359.291153 -147.447728 
L 357.299191 -147.447728 
L 355.307228 -147.447728 
L 353.315266 -147.447728 
L 351.323304 -147.447728 
L 349.331341 -147.447728 
L 347.339379 -147.08362 
L 345.347417 -146.72974 
L 343.355455 -146.72974 
L 341.363492 -146.412033 
L 339.37153 -146.353365 
L 337.379568 -146.224673 
L 335.387605 -143.479102 
L 333.395643 -143.479102 
L 331.403681 -143.479102 
L 329.411718 -143.479102 
L 327.419756 -143.479102 
L 325.427794 -143.479102 
L 323.435831 -143.479102 
L 321.443869 -143.479102 
L 319.451907 -143.479102 
L 317.459945 -143.479102 
L 315.467982 -143.479102 
L 313.47602 -143.478992 
L 311.484058 -143.352635 
L 309.492095 -142.674822 
L 307.500133 -141.214035 
L 305.508171 -139.633258 
L 303.516208 -139.633258 
L 301.524246 -139.633258 
L 299.532284 -139.633258 
L 297.540322 -139.633258 
L 295.548359 -139.633258 
L 293.556397 -139.633258 
L 291.564435 -139.633258 
L 289.572472 -139.633258 
L 287.58051 -139.633258 
L 285.588548 -139.633258 
L 283.596585 -139.633258 
L 281.604623 -139.621203 
L 279.612661 -139.373571 
L 277.620698 -138.539478 
L 275.628736 -136.703091 
L 273.636774 -136.703091 
L 271.644812 -136.703091 
L 269.652849 -136.703091 
L 267.660887 -136.703091 
L 265.668925 -136.703091 
L 263.676962 -136.703091 
L 261.685 -136.703091 
L 259.693038 -136.703091 
L 257.701075 -136.703091 
L 255.709113 -136.703091 
L 253.717151 -136.703091 
L 251.725188 -136.644251 
L 249.733226 -136.550576 
L 247.741264 -136.074367 
L 245.749302 -129.955126 
L 243.757339 -129.955126 
L 241.765377 -129.955126 
L 239.773415 -129.955126 
L 237.781452 -129.955126 
L 235.78949 -129.955126 
L 233.797528 -129.955126 
L 231.805565 -129.955126 
L 229.813603 -129.955126 
L 227.821641 -129.955126 
L 225.829678 -129.955126 
L 223.837716 -129.955126 
L 221.845754 -129.955126 
L 219.853792 -129.904031 
L 217.861829 -129.692797 
L 215.869867 -121.669355 
L 213.877905 -121.669355 
L 211.885942 -121.669355 
L 209.89398 -121.669355 
L 207.902018 -121.669355 
L 205.910055 -121.669355 
L 203.918093 -121.669355 
L 201.926131 -121.669355 
L 199.934169 -121.669355 
L 197.942206 -121.669355 
L 195.950244 -121.669355 
L 193.958282 -121.669355 
L 191.966319 -121.669355 
L 189.974357 -121.556238 
L 187.982395 -120.008739 
L 185.990432 -113.476015 
L 183.99847 -113.476015 
L 182.006508 -113.476015 
L 180.014545 -113.476015 
L 178.022583 -113.476015 
L 176.030621 -113.476015 
L 174.038659 -113.476015 
L 172.046696 -113.476015 
L 170.054734 -113.476015 
L 168.062772 -113.476015 
L 166.070809 -113.476015 
L 164.078847 -113.418939 
L 162.086885 -113.256679 
L 160.094922 -113.221276 
L 158.10296 -113.021874 
L 156.110998 -109.24195 
L 154.119035 -109.24195 
L 152.127073 -109.24195 
L 150.135111 -109.24195 
L 148.143149 -109.24195 
L 146.151186 -109.24195 
L 144.159224 -109.24195 
L 142.167262 -109.24195 
L 140.175299 -109.24195 
L 138.183337 -109.24195 
L 136.191375 -109.24195 
L 134.199412 -109.24195 
L 132.20745 -109.24195 
L 130.215488 -109.24195 
L 128.223525 -108.834699 
L 126.231563 -106.684936 
L 124.239601 -106.333243 
L 122.247639 -106.333243 
L 120.255676 -99.915298 
L 118.263714 -99.913763 
L 116.271752 -99.438518 
L 114.279789 -99.438518 
L 112.287827 -99.438518 
L 110.295865 -99.313933 
L 108.303902 -99.44493 
L 106.31194 -99.423831 
L 104.319978 -93.988236 
L 102.328016 -89.522846 
L 100.336053 -86.656436 
L 98.344091 -87.942815 
z
" id="m18b1120cce" style="stroke:#ffa600;stroke-opacity:0.2;"/>
    </defs>
    <g clip-path="url(#p9982120597)">
     <use style="fill:#ffa600;fill-opacity:0.2;stroke:#ffa600;stroke-opacity:0.2;" x="0" xlink:href="#m18b1120cce" y="345.6"/>
    </g>
   </g>
   <g id="matplotlib.axis_1">
    <g id="xtick_1">
     <g id="line2d_1">
      <defs>
       <path d="M 0 0 
L 0 3.5 
" id="m56261f2a4e" style="stroke:#000000;stroke-width:0.8;"/>
      </defs>
      <g>
       <use style="stroke:#000000;stroke-width:0.8;" x="96.352129" xlink:href="#m56261f2a4e" y="280.6"/>
      </g>
     </g>
     <g id="text_1">
      <!-- 0 -->
      <defs>
       <path d="M 31.78125 66.40625 
Q 24.171875 66.40625 20.328125 58.90625 
Q 16.5 51.421875 16.5 36.375 
Q 16.5 21.390625 20.328125 13.890625 
Q 24.171875 6.390625 31.78125 6.390625 
Q 39.453125 6.390625 43.28125 13.890625 
Q 47.125 21.390625 47.125 36.375 
Q 47.125 51.421875 43.28125 58.90625 
Q 39.453125 66.40625 31.78125 66.40625 
z
M 31.78125 74.21875 
Q 44.046875 74.21875 50.515625 64.515625 
Q 56.984375 54.828125 56.984375 36.375 
Q 56.984375 17.96875 50.515625 8.265625 
Q 44.046875 -1.421875 31.78125 -1.421875 
Q 19.53125 -1.421875 13.0625 8.265625 
Q 6.59375 17.96875 6.59375 36.375 
Q 6.59375 54.828125 13.0625 64.515625 
Q 19.53125 74.21875 31.78125 74.21875 
z
" id="DejaVuSans-48"/>
      </defs>
      <g transform="translate(90.625879 301.277187)scale(0.18 -0.18)">
       <use xlink:href="#DejaVuSans-48"/>
      </g>
     </g>
    </g>
    <g id="xtick_2">
     <g id="line2d_2">
      <g>
       <use style="stroke:#000000;stroke-width:0.8;" x="195.950244" xlink:href="#m56261f2a4e" y="280.6"/>
      </g>
     </g>
     <g id="text_2">
      <!-- 50 -->
      <defs>
       <path d="M 10.796875 72.90625 
L 49.515625 72.90625 
L 49.515625 64.59375 
L 19.828125 64.59375 
L 19.828125 46.734375 
Q 21.96875 47.46875 24.109375 47.828125 
Q 26.265625 48.1875 28.421875 48.1875 
Q 40.625 48.1875 47.75 41.5 
Q 54.890625 34.8125 54.890625 23.390625 
Q 54.890625 11.625 47.5625 5.09375 
Q 40.234375 -1.421875 26.90625 -1.421875 
Q 22.3125 -1.421875 17.546875 -0.640625 
Q 12.796875 0.140625 7.71875 1.703125 
L 7.71875 11.625 
Q 12.109375 9.234375 16.796875 8.0625 
Q 21.484375 6.890625 26.703125 6.890625 
Q 35.15625 6.890625 40.078125 11.328125 
Q 45.015625 15.765625 45.015625 23.390625 
Q 45.015625 31 40.078125 35.4375 
Q 35.15625 39.890625 26.703125 39.890625 
Q 22.75 39.890625 18.8125 39.015625 
Q 14.890625 38.140625 10.796875 36.28125 
z
" id="DejaVuSans-53"/>
      </defs>
      <g transform="translate(184.497744 301.277187)scale(0.18 -0.18)">
       <use xlink:href="#DejaVuSans-53"/>
       <use x="63.623047" xlink:href="#DejaVuSans-48"/>
      </g>
     </g>
    </g>
    <g id="xtick_3">
     <g id="line2d_3">
      <g>
       <use style="stroke:#000000;stroke-width:0.8;" x="295.548359" xlink:href="#m56261f2a4e" y="280.6"/>
      </g>
     </g>
     <g id="text_3">
      <!-- 100 -->
      <defs>
       <path d="M 12.40625 8.296875 
L 28.515625 8.296875 
L 28.515625 63.921875 
L 10.984375 60.40625 
L 10.984375 69.390625 
L 28.421875 72.90625 
L 38.28125 72.90625 
L 38.28125 8.296875 
L 54.390625 8.296875 
L 54.390625 0 
L 12.40625 0 
z
" id="DejaVuSans-49"/>
      </defs>
      <g transform="translate(278.369609 301.277187)scale(0.18 -0.18)">
       <use xlink:href="#DejaVuSans-49"/>
       <use x="63.623047" xlink:href="#DejaVuSans-48"/>
       <use x="127.246094" xlink:href="#DejaVuSans-48"/>
      </g>
     </g>
    </g>
    <g id="xtick_4">
     <g id="line2d_4">
      <g>
       <use style="stroke:#000000;stroke-width:0.8;" x="395.146475" xlink:href="#m56261f2a4e" y="280.6"/>
      </g>
     </g>
     <g id="text_4">
      <!-- 150 -->
      <g transform="translate(377.967725 301.277187)scale(0.18 -0.18)">
       <use xlink:href="#DejaVuSans-49"/>
       <use x="63.623047" xlink:href="#DejaVuSans-53"/>
       <use x="127.246094" xlink:href="#DejaVuSans-48"/>
      </g>
     </g>
    </g>
    <g id="text_5">
     <!-- Number of Evaluations -->
     <defs>
      <path d="M 9.8125 72.90625 
L 23.09375 72.90625 
L 55.421875 11.921875 
L 55.421875 72.90625 
L 64.984375 72.90625 
L 64.984375 0 
L 51.703125 0 
L 19.390625 60.984375 
L 19.390625 0 
L 9.8125 0 
z
" id="DejaVuSans-78"/>
      <path d="M 8.5 21.578125 
L 8.5 54.6875 
L 17.484375 54.6875 
L 17.484375 21.921875 
Q 17.484375 14.15625 20.5 10.265625 
Q 23.53125 6.390625 29.59375 6.390625 
Q 36.859375 6.390625 41.078125 11.03125 
Q 45.3125 15.671875 45.3125 23.6875 
L 45.3125 54.6875 
L 54.296875 54.6875 
L 54.296875 0 
L 45.3125 0 
L 45.3125 8.40625 
Q 42.046875 3.421875 37.71875 1 
Q 33.40625 -1.421875 27.6875 -1.421875 
Q 18.265625 -1.421875 13.375 4.4375 
Q 8.5 10.296875 8.5 21.578125 
z
M 31.109375 56 
z
" id="DejaVuSans-117"/>
      <path d="M 52 44.1875 
Q 55.375 50.25 60.0625 53.125 
Q 64.75 56 71.09375 56 
Q 79.640625 56 84.28125 50.015625 
Q 88.921875 44.046875 88.921875 33.015625 
L 88.921875 0 
L 79.890625 0 
L 79.890625 32.71875 
Q 79.890625 40.578125 77.09375 44.375 
Q 74.3125 48.1875 68.609375 48.1875 
Q 61.625 48.1875 57.5625 43.546875 
Q 53.515625 38.921875 53.515625 30.90625 
L 53.515625 0 
L 44.484375 0 
L 44.484375 32.71875 
Q 44.484375 40.625 41.703125 44.40625 
Q 38.921875 48.1875 33.109375 48.1875 
Q 26.21875 48.1875 22.15625 43.53125 
Q 18.109375 38.875 18.109375 30.90625 
L 18.109375 0 
L 9.078125 0 
L 9.078125 54.6875 
L 18.109375 54.6875 
L 18.109375 46.1875 
Q 21.1875 51.21875 25.484375 53.609375 
Q 29.78125 56 35.6875 56 
Q 41.65625 56 45.828125 52.96875 
Q 50 49.953125 52 44.1875 
z
" id="DejaVuSans-109"/>
      <path d="M 48.6875 27.296875 
Q 48.6875 37.203125 44.609375 42.84375 
Q 40.53125 48.484375 33.40625 48.484375 
Q 26.265625 48.484375 22.1875 42.84375 
Q 18.109375 37.203125 18.109375 27.296875 
Q 18.109375 17.390625 22.1875 11.75 
Q 26.265625 6.109375 33.40625 6.109375 
Q 40.53125 6.109375 44.609375 11.75 
Q 48.6875 17.390625 48.6875 27.296875 
z
M 18.109375 46.390625 
Q 20.953125 51.265625 25.265625 53.625 
Q 29.59375 56 35.59375 56 
Q 45.5625 56 51.78125 48.09375 
Q 58.015625 40.1875 58.015625 27.296875 
Q 58.015625 14.40625 51.78125 6.484375 
Q 45.5625 -1.421875 35.59375 -1.421875 
Q 29.59375 -1.421875 25.265625 0.953125 
Q 20.953125 3.328125 18.109375 8.203125 
L 18.109375 0 
L 9.078125 0 
L 9.078125 75.984375 
L 18.109375 75.984375 
z
" id="DejaVuSans-98"/>
      <path d="M 56.203125 29.59375 
L 56.203125 25.203125 
L 14.890625 25.203125 
Q 15.484375 15.921875 20.484375 11.0625 
Q 25.484375 6.203125 34.421875 6.203125 
Q 39.59375 6.203125 44.453125 7.46875 
Q 49.3125 8.734375 54.109375 11.28125 
L 54.109375 2.78125 
Q 49.265625 0.734375 44.1875 -0.34375 
Q 39.109375 -1.421875 33.890625 -1.421875 
Q 20.796875 -1.421875 13.15625 6.1875 
Q 5.515625 13.8125 5.515625 26.8125 
Q 5.515625 40.234375 12.765625 48.109375 
Q 20.015625 56 32.328125 56 
Q 43.359375 56 49.78125 48.890625 
Q 56.203125 41.796875 56.203125 29.59375 
z
M 47.21875 32.234375 
Q 47.125 39.59375 43.09375 43.984375 
Q 39.0625 48.390625 32.421875 48.390625 
Q 24.90625 48.390625 20.390625 44.140625 
Q 15.875 39.890625 15.1875 32.171875 
z
" id="DejaVuSans-101"/>
      <path d="M 41.109375 46.296875 
Q 39.59375 47.171875 37.8125 47.578125 
Q 36.03125 48 33.890625 48 
Q 26.265625 48 22.1875 43.046875 
Q 18.109375 38.09375 18.109375 28.8125 
L 18.109375 0 
L 9.078125 0 
L 9.078125 54.6875 
L 18.109375 54.6875 
L 18.109375 46.1875 
Q 20.953125 51.171875 25.484375 53.578125 
Q 30.03125 56 36.53125 56 
Q 37.453125 56 38.578125 55.875 
Q 39.703125 55.765625 41.0625 55.515625 
z
" id="DejaVuSans-114"/>
      <path id="DejaVuSans-32"/>
      <path d="M 30.609375 48.390625 
Q 23.390625 48.390625 19.1875 42.75 
Q 14.984375 37.109375 14.984375 27.296875 
Q 14.984375 17.484375 19.15625 11.84375 
Q 23.34375 6.203125 30.609375 6.203125 
Q 37.796875 6.203125 41.984375 11.859375 
Q 46.1875 17.53125 46.1875 27.296875 
Q 46.1875 37.015625 41.984375 42.703125 
Q 37.796875 48.390625 30.609375 48.390625 
z
M 30.609375 56 
Q 42.328125 56 49.015625 48.375 
Q 55.71875 40.765625 55.71875 27.296875 
Q 55.71875 13.875 49.015625 6.21875 
Q 42.328125 -1.421875 30.609375 -1.421875 
Q 18.84375 -1.421875 12.171875 6.21875 
Q 5.515625 13.875 5.515625 27.296875 
Q 5.515625 40.765625 12.171875 48.375 
Q 18.84375 56 30.609375 56 
z
" id="DejaVuSans-111"/>
      <path d="M 37.109375 75.984375 
L 37.109375 68.5 
L 28.515625 68.5 
Q 23.6875 68.5 21.796875 66.546875 
Q 19.921875 64.59375 19.921875 59.515625 
L 19.921875 54.6875 
L 34.71875 54.6875 
L 34.71875 47.703125 
L 19.921875 47.703125 
L 19.921875 0 
L 10.890625 0 
L 10.890625 47.703125 
L 2.296875 47.703125 
L 2.296875 54.6875 
L 10.890625 54.6875 
L 10.890625 58.5 
Q 10.890625 67.625 15.140625 71.796875 
Q 19.390625 75.984375 28.609375 75.984375 
z
" id="DejaVuSans-102"/>
      <path d="M 9.8125 72.90625 
L 55.90625 72.90625 
L 55.90625 64.59375 
L 19.671875 64.59375 
L 19.671875 43.015625 
L 54.390625 43.015625 
L 54.390625 34.71875 
L 19.671875 34.71875 
L 19.671875 8.296875 
L 56.78125 8.296875 
L 56.78125 0 
L 9.8125 0 
z
" id="DejaVuSans-69"/>
      <path d="M 2.984375 54.6875 
L 12.5 54.6875 
L 29.59375 8.796875 
L 46.6875 54.6875 
L 56.203125 54.6875 
L 35.6875 0 
L 23.484375 0 
z
" id="DejaVuSans-118"/>
      <path d="M 34.28125 27.484375 
Q 23.390625 27.484375 19.1875 25 
Q 14.984375 22.515625 14.984375 16.5 
Q 14.984375 11.71875 18.140625 8.90625 
Q 21.296875 6.109375 26.703125 6.109375 
Q 34.1875 6.109375 38.703125 11.40625 
Q 43.21875 16.703125 43.21875 25.484375 
L 43.21875 27.484375 
z
M 52.203125 31.203125 
L 52.203125 0 
L 43.21875 0 
L 43.21875 8.296875 
Q 40.140625 3.328125 35.546875 0.953125 
Q 30.953125 -1.421875 24.3125 -1.421875 
Q 15.921875 -1.421875 10.953125 3.296875 
Q 6 8.015625 6 15.921875 
Q 6 25.140625 12.171875 29.828125 
Q 18.359375 34.515625 30.609375 34.515625 
L 43.21875 34.515625 
L 43.21875 35.40625 
Q 43.21875 41.609375 39.140625 45 
Q 35.0625 48.390625 27.6875 48.390625 
Q 23 48.390625 18.546875 47.265625 
Q 14.109375 46.140625 10.015625 43.890625 
L 10.015625 52.203125 
Q 14.9375 54.109375 19.578125 55.046875 
Q 24.21875 56 28.609375 56 
Q 40.484375 56 46.34375 49.84375 
Q 52.203125 43.703125 52.203125 31.203125 
z
" id="DejaVuSans-97"/>
      <path d="M 9.421875 75.984375 
L 18.40625 75.984375 
L 18.40625 0 
L 9.421875 0 
z
" id="DejaVuSans-108"/>
      <path d="M 18.3125 70.21875 
L 18.3125 54.6875 
L 36.8125 54.6875 
L 36.8125 47.703125 
L 18.3125 47.703125 
L 18.3125 18.015625 
Q 18.3125 11.328125 20.140625 9.421875 
Q 21.96875 7.515625 27.59375 7.515625 
L 36.8125 7.515625 
L 36.8125 0 
L 27.59375 0 
Q 17.1875 0 13.234375 3.875 
Q 9.28125 7.765625 9.28125 18.015625 
L 9.28125 47.703125 
L 2.6875 47.703125 
L 2.6875 54.6875 
L 9.28125 54.6875 
L 9.28125 70.21875 
z
" id="DejaVuSans-116"/>
      <path d="M 9.421875 54.6875 
L 18.40625 54.6875 
L 18.40625 0 
L 9.421875 0 
z
M 9.421875 75.984375 
L 18.40625 75.984375 
L 18.40625 64.59375 
L 9.421875 64.59375 
z
" id="DejaVuSans-105"/>
      <path d="M 54.890625 33.015625 
L 54.890625 0 
L 45.90625 0 
L 45.90625 32.71875 
Q 45.90625 40.484375 42.875 44.328125 
Q 39.84375 48.1875 33.796875 48.1875 
Q 26.515625 48.1875 22.3125 43.546875 
Q 18.109375 38.921875 18.109375 30.90625 
L 18.109375 0 
L 9.078125 0 
L 9.078125 54.6875 
L 18.109375 54.6875 
L 18.109375 46.1875 
Q 21.34375 51.125 25.703125 53.5625 
Q 30.078125 56 35.796875 56 
Q 45.21875 56 50.046875 50.171875 
Q 54.890625 44.34375 54.890625 33.015625 
z
" id="DejaVuSans-110"/>
      <path d="M 44.28125 53.078125 
L 44.28125 44.578125 
Q 40.484375 46.53125 36.375 47.5 
Q 32.28125 48.484375 27.875 48.484375 
Q 21.1875 48.484375 17.84375 46.4375 
Q 14.5 44.390625 14.5 40.28125 
Q 14.5 37.15625 16.890625 35.375 
Q 19.28125 33.59375 26.515625 31.984375 
L 29.59375 31.296875 
Q 39.15625 29.25 43.1875 25.515625 
Q 47.21875 21.78125 47.21875 15.09375 
Q 47.21875 7.46875 41.1875 3.015625 
Q 35.15625 -1.421875 24.609375 -1.421875 
Q 20.21875 -1.421875 15.453125 -0.5625 
Q 10.6875 0.296875 5.421875 2 
L 5.421875 11.28125 
Q 10.40625 8.6875 15.234375 7.390625 
Q 20.0625 6.109375 24.8125 6.109375 
Q 31.15625 6.109375 34.5625 8.28125 
Q 37.984375 10.453125 37.984375 14.40625 
Q 37.984375 18.0625 35.515625 20.015625 
Q 33.0625 21.96875 24.703125 23.78125 
L 21.578125 24.515625 
Q 13.234375 26.265625 9.515625 29.90625 
Q 5.8125 33.546875 5.8125 39.890625 
Q 5.8125 47.609375 11.28125 51.796875 
Q 16.75 56 26.8125 56 
Q 31.78125 56 36.171875 55.265625 
Q 40.578125 54.546875 44.28125 53.078125 
z
" id="DejaVuSans-115"/>
     </defs>
     <g transform="translate(158.958438 322.697812)scale(0.18 -0.18)">
      <use xlink:href="#DejaVuSans-78"/>
      <use x="74.804688" xlink:href="#DejaVuSans-117"/>
      <use x="138.183594" xlink:href="#DejaVuSans-109"/>
      <use x="235.595703" xlink:href="#DejaVuSans-98"/>
      <use x="299.072266" xlink:href="#DejaVuSans-101"/>
      <use x="360.595703" xlink:href="#DejaVuSans-114"/>
      <use x="401.708984" xlink:href="#DejaVuSans-32"/>
      <use x="433.496094" xlink:href="#DejaVuSans-111"/>
      <use x="494.677734" xlink:href="#DejaVuSans-102"/>
      <use x="529.882812" xlink:href="#DejaVuSans-32"/>
      <use x="561.669922" xlink:href="#DejaVuSans-69"/>
      <use x="624.853516" xlink:href="#DejaVuSans-118"/>
      <use x="684.033203" xlink:href="#DejaVuSans-97"/>
      <use x="745.3125" xlink:href="#DejaVuSans-108"/>
      <use x="773.095703" xlink:href="#DejaVuSans-117"/>
      <use x="836.474609" xlink:href="#DejaVuSans-97"/>
      <use x="897.753906" xlink:href="#DejaVuSans-116"/>
      <use x="936.962891" xlink:href="#DejaVuSans-105"/>
      <use x="964.746094" xlink:href="#DejaVuSans-111"/>
      <use x="1025.927734" xlink:href="#DejaVuSans-110"/>
      <use x="1089.306641" xlink:href="#DejaVuSans-115"/>
     </g>
    </g>
   </g>
   <g id="matplotlib.axis_2">
    <g id="ytick_1">
     <g id="line2d_5">
      <defs>
       <path d="M 0 0 
L -3.5 0 
" id="m7c9790b292" style="stroke:#000000;stroke-width:0.8;"/>
      </defs>
      <g>
       <use style="stroke:#000000;stroke-width:0.8;" x="82.01" xlink:href="#m7c9790b292" y="263.973209"/>
      </g>
     </g>
     <g id="text_6">
      <!-- 0 -->
      <g transform="translate(63.5575 270.811803)scale(0.18 -0.18)">
       <use xlink:href="#DejaVuSans-48"/>
      </g>
     </g>
    </g>
    <g id="ytick_2">
     <g id="line2d_6">
      <g>
       <use style="stroke:#000000;stroke-width:0.8;" x="82.01" xlink:href="#m7c9790b292" y="214.771724"/>
      </g>
     </g>
     <g id="text_7">
      <!-- 100 -->
      <g transform="translate(40.6525 221.610318)scale(0.18 -0.18)">
       <use xlink:href="#DejaVuSans-49"/>
       <use x="63.623047" xlink:href="#DejaVuSans-48"/>
       <use x="127.246094" xlink:href="#DejaVuSans-48"/>
      </g>
     </g>
    </g>
    <g id="ytick_3">
     <g id="line2d_7">
      <g>
       <use style="stroke:#000000;stroke-width:0.8;" x="82.01" xlink:href="#m7c9790b292" y="165.570239"/>
      </g>
     </g>
     <g id="text_8">
      <!-- 200 -->
      <defs>
       <path d="M 19.1875 8.296875 
L 53.609375 8.296875 
L 53.609375 0 
L 7.328125 0 
L 7.328125 8.296875 
Q 12.9375 14.109375 22.625 23.890625 
Q 32.328125 33.6875 34.8125 36.53125 
Q 39.546875 41.84375 41.421875 45.53125 
Q 43.3125 49.21875 43.3125 52.78125 
Q 43.3125 58.59375 39.234375 62.25 
Q 35.15625 65.921875 28.609375 65.921875 
Q 23.96875 65.921875 18.8125 64.3125 
Q 13.671875 62.703125 7.8125 59.421875 
L 7.8125 69.390625 
Q 13.765625 71.78125 18.9375 73 
Q 24.125 74.21875 28.421875 74.21875 
Q 39.75 74.21875 46.484375 68.546875 
Q 53.21875 62.890625 53.21875 53.421875 
Q 53.21875 48.921875 51.53125 44.890625 
Q 49.859375 40.875 45.40625 35.40625 
Q 44.1875 33.984375 37.640625 27.21875 
Q 31.109375 20.453125 19.1875 8.296875 
z
" id="DejaVuSans-50"/>
      </defs>
      <g transform="translate(40.6525 172.408832)scale(0.18 -0.18)">
       <use xlink:href="#DejaVuSans-50"/>
       <use x="63.623047" xlink:href="#DejaVuSans-48"/>
       <use x="127.246094" xlink:href="#DejaVuSans-48"/>
      </g>
     </g>
    </g>
    <g id="ytick_4">
     <g id="line2d_8">
      <g>
       <use style="stroke:#000000;stroke-width:0.8;" x="82.01" xlink:href="#m7c9790b292" y="116.368753"/>
      </g>
     </g>
     <g id="text_9">
      <!-- 300 -->
      <defs>
       <path d="M 40.578125 39.3125 
Q 47.65625 37.796875 51.625 33 
Q 55.609375 28.21875 55.609375 21.1875 
Q 55.609375 10.40625 48.1875 4.484375 
Q 40.765625 -1.421875 27.09375 -1.421875 
Q 22.515625 -1.421875 17.65625 -0.515625 
Q 12.796875 0.390625 7.625 2.203125 
L 7.625 11.71875 
Q 11.71875 9.328125 16.59375 8.109375 
Q 21.484375 6.890625 26.8125 6.890625 
Q 36.078125 6.890625 40.9375 10.546875 
Q 45.796875 14.203125 45.796875 21.1875 
Q 45.796875 27.640625 41.28125 31.265625 
Q 36.765625 34.90625 28.71875 34.90625 
L 20.21875 34.90625 
L 20.21875 43.015625 
L 29.109375 43.015625 
Q 36.375 43.015625 40.234375 45.921875 
Q 44.09375 48.828125 44.09375 54.296875 
Q 44.09375 59.90625 40.109375 62.90625 
Q 36.140625 65.921875 28.71875 65.921875 
Q 24.65625 65.921875 20.015625 65.03125 
Q 15.375 64.15625 9.8125 62.3125 
L 9.8125 71.09375 
Q 15.4375 72.65625 20.34375 73.4375 
Q 25.25 74.21875 29.59375 74.21875 
Q 40.828125 74.21875 47.359375 69.109375 
Q 53.90625 64.015625 53.90625 55.328125 
Q 53.90625 49.265625 50.4375 45.09375 
Q 46.96875 40.921875 40.578125 39.3125 
z
" id="DejaVuSans-51"/>
      </defs>
      <g transform="translate(40.6525 123.207347)scale(0.18 -0.18)">
       <use xlink:href="#DejaVuSans-51"/>
       <use x="63.623047" xlink:href="#DejaVuSans-48"/>
       <use x="127.246094" xlink:href="#DejaVuSans-48"/>
      </g>
     </g>
    </g>
    <g id="ytick_5">
     <g id="line2d_9">
      <g>
       <use style="stroke:#000000;stroke-width:0.8;" x="82.01" xlink:href="#m7c9790b292" y="67.167268"/>
      </g>
     </g>
     <g id="text_10">
      <!-- 400 -->
      <defs>
       <path d="M 37.796875 64.3125 
L 12.890625 25.390625 
L 37.796875 25.390625 
z
M 35.203125 72.90625 
L 47.609375 72.90625 
L 47.609375 25.390625 
L 58.015625 25.390625 
L 58.015625 17.1875 
L 47.609375 17.1875 
L 47.609375 0 
L 37.796875 0 
L 37.796875 17.1875 
L 4.890625 17.1875 
L 4.890625 26.703125 
z
" id="DejaVuSans-52"/>
      </defs>
      <g transform="translate(40.6525 74.005862)scale(0.18 -0.18)">
       <use xlink:href="#DejaVuSans-52"/>
       <use x="63.623047" xlink:href="#DejaVuSans-48"/>
       <use x="127.246094" xlink:href="#DejaVuSans-48"/>
      </g>
     </g>
    </g>
    <g id="text_11">
     <!-- Hypervolume Indicator -->
     <defs>
      <path d="M 9.8125 72.90625 
L 19.671875 72.90625 
L 19.671875 43.015625 
L 55.515625 43.015625 
L 55.515625 72.90625 
L 65.375 72.90625 
L 65.375 0 
L 55.515625 0 
L 55.515625 34.71875 
L 19.671875 34.71875 
L 19.671875 0 
L 9.8125 0 
z
" id="DejaVuSans-72"/>
      <path d="M 32.171875 -5.078125 
Q 28.375 -14.84375 24.75 -17.8125 
Q 21.140625 -20.796875 15.09375 -20.796875 
L 7.90625 -20.796875 
L 7.90625 -13.28125 
L 13.1875 -13.28125 
Q 16.890625 -13.28125 18.9375 -11.515625 
Q 21 -9.765625 23.484375 -3.21875 
L 25.09375 0.875 
L 2.984375 54.6875 
L 12.5 54.6875 
L 29.59375 11.921875 
L 46.6875 54.6875 
L 56.203125 54.6875 
z
" id="DejaVuSans-121"/>
      <path d="M 18.109375 8.203125 
L 18.109375 -20.796875 
L 9.078125 -20.796875 
L 9.078125 54.6875 
L 18.109375 54.6875 
L 18.109375 46.390625 
Q 20.953125 51.265625 25.265625 53.625 
Q 29.59375 56 35.59375 56 
Q 45.5625 56 51.78125 48.09375 
Q 58.015625 40.1875 58.015625 27.296875 
Q 58.015625 14.40625 51.78125 6.484375 
Q 45.5625 -1.421875 35.59375 -1.421875 
Q 29.59375 -1.421875 25.265625 0.953125 
Q 20.953125 3.328125 18.109375 8.203125 
z
M 48.6875 27.296875 
Q 48.6875 37.203125 44.609375 42.84375 
Q 40.53125 48.484375 33.40625 48.484375 
Q 26.265625 48.484375 22.1875 42.84375 
Q 18.109375 37.203125 18.109375 27.296875 
Q 18.109375 17.390625 22.1875 11.75 
Q 26.265625 6.109375 33.40625 6.109375 
Q 40.53125 6.109375 44.609375 11.75 
Q 48.6875 17.390625 48.6875 27.296875 
z
" id="DejaVuSans-112"/>
      <path d="M 9.8125 72.90625 
L 19.671875 72.90625 
L 19.671875 0 
L 9.8125 0 
z
" id="DejaVuSans-73"/>
      <path d="M 45.40625 46.390625 
L 45.40625 75.984375 
L 54.390625 75.984375 
L 54.390625 0 
L 45.40625 0 
L 45.40625 8.203125 
Q 42.578125 3.328125 38.25 0.953125 
Q 33.9375 -1.421875 27.875 -1.421875 
Q 17.96875 -1.421875 11.734375 6.484375 
Q 5.515625 14.40625 5.515625 27.296875 
Q 5.515625 40.1875 11.734375 48.09375 
Q 17.96875 56 27.875 56 
Q 33.9375 56 38.25 53.625 
Q 42.578125 51.265625 45.40625 46.390625 
z
M 14.796875 27.296875 
Q 14.796875 17.390625 18.875 11.75 
Q 22.953125 6.109375 30.078125 6.109375 
Q 37.203125 6.109375 41.296875 11.75 
Q 45.40625 17.390625 45.40625 27.296875 
Q 45.40625 37.203125 41.296875 42.84375 
Q 37.203125 48.484375 30.078125 48.484375 
Q 22.953125 48.484375 18.875 42.84375 
Q 14.796875 37.203125 14.796875 27.296875 
z
" id="DejaVuSans-100"/>
      <path d="M 48.78125 52.59375 
L 48.78125 44.1875 
Q 44.96875 46.296875 41.140625 47.34375 
Q 37.3125 48.390625 33.40625 48.390625 
Q 24.65625 48.390625 19.8125 42.84375 
Q 14.984375 37.3125 14.984375 27.296875 
Q 14.984375 17.28125 19.8125 11.734375 
Q 24.65625 6.203125 33.40625 6.203125 
Q 37.3125 6.203125 41.140625 7.25 
Q 44.96875 8.296875 48.78125 10.40625 
L 48.78125 2.09375 
Q 45.015625 0.34375 40.984375 -0.53125 
Q 36.96875 -1.421875 32.421875 -1.421875 
Q 20.0625 -1.421875 12.78125 6.34375 
Q 5.515625 14.109375 5.515625 27.296875 
Q 5.515625 40.671875 12.859375 48.328125 
Q 20.21875 56 33.015625 56 
Q 37.15625 56 41.109375 55.140625 
Q 45.0625 54.296875 48.78125 52.59375 
z
" id="DejaVuSans-99"/>
     </defs>
     <g transform="translate(32.909063 253.040469)rotate(-90)scale(0.18 -0.18)">
      <use xlink:href="#DejaVuSans-72"/>
      <use x="75.195312" xlink:href="#DejaVuSans-121"/>
      <use x="134.375" xlink:href="#DejaVuSans-112"/>
      <use x="197.851562" xlink:href="#DejaVuSans-101"/>
      <use x="259.375" xlink:href="#DejaVuSans-114"/>
      <use x="300.488281" xlink:href="#DejaVuSans-118"/>
      <use x="359.667969" xlink:href="#DejaVuSans-111"/>
      <use x="420.849609" xlink:href="#DejaVuSans-108"/>
      <use x="448.632812" xlink:href="#DejaVuSans-117"/>
      <use x="512.011719" xlink:href="#DejaVuSans-109"/>
      <use x="609.423828" xlink:href="#DejaVuSans-101"/>
      <use x="670.947266" xlink:href="#DejaVuSans-32"/>
      <use x="702.734375" xlink:href="#DejaVuSans-73"/>
      <use x="732.226562" xlink:href="#DejaVuSans-110"/>
      <use x="795.605469" xlink:href="#DejaVuSans-100"/>
      <use x="859.082031" xlink:href="#DejaVuSans-105"/>
      <use x="886.865234" xlink:href="#DejaVuSans-99"/>
      <use x="941.845703" xlink:href="#DejaVuSans-97"/>
      <use x="1003.125" xlink:href="#DejaVuSans-116"/>
      <use x="1042.333984" xlink:href="#DejaVuSans-111"/>
      <use x="1103.515625" xlink:href="#DejaVuSans-114"/>
     </g>
    </g>
   </g>
   <g id="line2d_10">
    <path clip-path="url(#p9982120597)" d="M 98.344091 228.362285 
L 100.336053 225.216155 
L 102.328016 202.122777 
L 104.319978 182.633058 
L 106.31194 177.79071 
L 108.303902 164.047907 
L 110.295865 154.803039 
L 112.287827 154.803039 
L 114.279789 154.366411 
L 116.271752 147.28998 
L 118.263714 142.734238 
L 120.255676 139.038618 
L 122.247639 137.464878 
L 124.239601 134.008051 
L 126.231563 132.694895 
L 128.223525 122.167597 
L 130.215488 117.686926 
L 132.20745 116.944755 
L 156.110998 116.944755 
L 158.10296 113.139774 
L 160.094922 106.525948 
L 162.086885 103.770124 
L 164.078847 103.090782 
L 166.070809 102.936237 
L 185.990432 102.936237 
L 187.982395 98.954538 
L 189.974357 97.777463 
L 191.966319 92.207376 
L 193.958282 91.099461 
L 195.950244 90.541507 
L 199.934169 90.436217 
L 215.869867 90.435964 
L 217.861829 78.538072 
L 219.853792 77.881111 
L 221.845754 77.823653 
L 223.837716 76.309966 
L 225.829678 75.897463 
L 227.821641 74.152262 
L 229.813603 73.125891 
L 245.749302 73.125453 
L 247.741264 72.029332 
L 249.733226 71.703673 
L 251.725188 71.007859 
L 255.709113 70.893153 
L 257.701075 70.334119 
L 277.620698 70.334119 
L 283.596585 68.080122 
L 291.564435 67.987956 
L 307.500133 67.987956 
L 309.492095 63.505987 
L 311.484058 62.340018 
L 313.47602 61.497229 
L 315.467982 61.343476 
L 317.459945 60.978399 
L 319.451907 60.203315 
L 335.387605 60.203315 
L 337.379568 58.92579 
L 339.37153 58.602098 
L 341.363492 58.045107 
L 343.355455 57.956347 
L 345.347417 57.604195 
L 347.339379 56.21928 
L 357.299191 56.190075 
L 365.26704 56.190075 
L 367.259002 55.888158 
L 369.250965 54.876343 
L 371.242927 54.310518 
L 375.226851 53.492989 
L 383.194701 53.312482 
L 395.146475 53.310275 
L 397.138437 53.132856 
L 399.130399 52.369228 
L 403.114324 50.281902 
L 405.106286 50.230047 
L 407.098248 49.880177 
L 411.082173 49.674174 
L 413.074135 48.69958 
L 425.025909 48.686023 
L 425.025909 48.686023 
" style="fill:none;stroke:#003f5c;stroke-linecap:square;stroke-width:1.5;"/>
   </g>
   <g id="line2d_11">
    <path clip-path="url(#p9982120597)" d="M 98.344091 256.964762 
L 100.336053 253.736501 
L 102.328016 249.683439 
L 104.319978 241.465041 
L 106.31194 238.066094 
L 108.303902 237.462679 
L 110.295865 237.462679 
L 112.287827 233.698688 
L 114.279789 228.654331 
L 116.271752 228.181121 
L 118.263714 225.072798 
L 120.255676 225.072798 
L 122.247639 221.697368 
L 124.239601 219.035533 
L 126.231563 219.035533 
L 130.215488 214.891721 
L 132.20745 214.75788 
L 156.110998 214.75788 
L 158.10296 209.931863 
L 160.094922 207.759753 
L 162.086885 207.398223 
L 185.990432 207.398223 
L 187.982395 205.443047 
L 189.974357 204.76485 
L 191.966319 204.287165 
L 193.958282 204.025529 
L 215.869867 204.025529 
L 217.861829 203.022383 
L 223.837716 202.57317 
L 245.749302 202.57317 
L 247.741264 200.39406 
L 249.733226 199.590544 
L 251.725188 199.342252 
L 255.709113 199.252601 
L 275.628736 199.252601 
L 277.620698 198.700356 
L 279.612661 197.765846 
L 281.604623 197.559105 
L 285.588548 197.465729 
L 305.508171 197.465729 
L 309.492095 196.46671 
L 313.47602 195.706707 
L 317.459945 195.617989 
L 335.387605 195.617989 
L 337.379568 194.859142 
L 339.37153 193.742209 
L 341.363492 193.4377 
L 345.347417 193.369368 
L 365.26704 193.369368 
L 369.250965 191.403817 
L 371.242927 191.304666 
L 373.234889 190.813471 
L 377.218814 190.733194 
L 395.146475 190.733194 
L 397.138437 189.976615 
L 399.130399 189.814374 
L 403.114324 189.220202 
L 425.025909 189.213541 
L 425.025909 189.213541 
" style="fill:none;stroke:#7a5195;stroke-dasharray:5.55,2.4;stroke-dashoffset:0;stroke-width:1.5;"/>
   </g>
   <g id="line2d_12">
    <path clip-path="url(#p9982120597)" d="M 98.344091 261.440337 
L 100.336053 243.868844 
L 102.328016 236.579222 
L 106.31194 236.536648 
L 108.303902 232.278645 
L 110.295865 230.51309 
L 112.287827 225.927377 
L 114.279789 224.151802 
L 116.271752 220.840684 
L 124.239601 220.840684 
L 126.231563 219.816244 
L 128.223525 218.283827 
L 130.215488 215.50234 
L 132.20745 215.373474 
L 156.110998 215.373474 
L 158.10296 210.813066 
L 160.094922 209.823608 
L 162.086885 208.618606 
L 166.070809 208.507762 
L 176.030621 208.483501 
L 189.974357 208.396237 
L 191.966319 208.130329 
L 193.958282 207.652519 
L 195.950244 206.672849 
L 197.942206 206.135825 
L 215.869867 206.135825 
L 217.861829 205.355534 
L 219.853792 203.994734 
L 223.837716 203.489196 
L 225.829678 203.239833 
L 229.813603 203.180292 
L 245.749302 203.180292 
L 249.733226 202.810063 
L 251.725188 202.556742 
L 253.717151 201.972848 
L 255.709113 201.706276 
L 275.628736 201.577085 
L 277.620698 199.156541 
L 279.612661 198.65701 
L 281.604623 197.615239 
L 283.596585 197.045112 
L 285.588548 196.92506 
L 291.564435 196.828186 
L 295.548359 196.772264 
L 307.500133 196.772264 
L 309.492095 196.205843 
L 311.484058 195.906111 
L 313.47602 195.49164 
L 319.451907 195.429372 
L 337.379568 195.416768 
L 339.37153 195.305661 
L 341.363492 194.860003 
L 345.347417 194.390493 
L 347.339379 193.767327 
L 353.315266 193.688623 
L 369.250965 193.628308 
L 371.242927 192.80331 
L 375.226851 192.236966 
L 381.202738 191.88274 
L 397.138437 191.88274 
L 401.122361 191.732957 
L 421.041984 191.51094 
L 425.025909 191.51094 
L 425.025909 191.51094 
" style="fill:none;stroke:#ef5675;stroke-dasharray:1.5,2.475;stroke-dashoffset:0;stroke-width:1.5;"/>
   </g>
   <g id="line2d_13">
    <path clip-path="url(#p9982120597)" d="M 98.344091 260.790588 
L 100.336053 261.574475 
L 102.328016 260.338685 
L 106.31194 252.845101 
L 108.303902 252.768685 
L 110.295865 252.540811 
L 114.279789 252.437996 
L 116.271752 252.437996 
L 118.263714 251.708057 
L 120.255676 251.304636 
L 122.247639 248.939797 
L 124.239601 248.939797 
L 126.231563 248.457624 
L 128.223525 246.056605 
L 130.215488 245.36032 
L 156.110998 245.36032 
L 158.10296 239.872409 
L 160.094922 239.636578 
L 166.070809 239.475383 
L 185.990432 239.475383 
L 187.982395 234.784048 
L 189.974357 233.035698 
L 191.966319 232.748248 
L 215.869867 232.748248 
L 217.861829 226.683579 
L 219.853792 226.380192 
L 223.837716 226.291034 
L 245.749302 226.291034 
L 247.741264 222.920197 
L 249.733226 221.825723 
L 253.717151 221.560893 
L 275.628736 221.560893 
L 277.620698 219.576911 
L 279.612661 218.847552 
L 281.604623 218.324803 
L 297.540322 218.310721 
L 305.508171 218.310721 
L 307.500133 216.006677 
L 309.492095 213.953639 
L 311.484058 213.682857 
L 315.467982 213.585877 
L 335.387605 213.585877 
L 337.379568 211.538734 
L 343.355455 211.006861 
L 345.347417 211.006861 
L 349.331341 210.529329 
L 365.26704 210.529329 
L 371.242927 209.368957 
L 373.234889 209.230841 
L 395.146475 209.229682 
L 397.138437 208.571328 
L 399.130399 208.056643 
L 401.122361 207.78267 
L 403.114324 206.984146 
L 425.025909 206.983421 
L 425.025909 206.983421 
" style="fill:none;stroke:#ffa600;stroke-dasharray:9.6,2.4,1.5,2.4;stroke-dashoffset:0;stroke-width:1.5;"/>
   </g>
   <g id="patch_3">
    <path d="M 82.01 280.6 
L 82.01 19.44 
" style="fill:none;stroke:#000000;stroke-linecap:square;stroke-linejoin:miter;stroke-width:0.8;"/>
   </g>
   <g id="patch_4">
    <path d="M 441.36 280.6 
L 441.36 19.44 
" style="fill:none;stroke:#000000;stroke-linecap:square;stroke-linejoin:miter;stroke-width:0.8;"/>
   </g>
   <g id="patch_5">
    <path d="M 82.01 280.6 
L 441.36 280.6 
" style="fill:none;stroke:#000000;stroke-linecap:square;stroke-linejoin:miter;stroke-width:0.8;"/>
   </g>
   <g id="patch_6">
    <path d="M 82.01 19.44 
L 441.36 19.44 
" style="fill:none;stroke:#000000;stroke-linecap:square;stroke-linejoin:miter;stroke-width:0.8;"/>
   </g>
   <g id="legend_1">
    <g id="patch_7">
     <path d="M 94.61 165.943125 
L 263.559687 165.943125 
Q 267.159688 165.943125 267.159688 162.343125 
L 267.159688 32.04 
Q 267.159688 28.44 263.559687 28.44 
L 94.61 28.44 
Q 91.01 28.44 91.01 32.04 
L 91.01 162.343125 
Q 91.01 165.943125 94.61 165.943125 
z
" style="fill:#ffffff;opacity:0.8;stroke:#cccccc;stroke-linejoin:miter;"/>
    </g>
    <g id="text_12">
     <!-- Parameterization -->
     <defs>
      <path d="M 19.671875 64.796875 
L 19.671875 37.40625 
L 32.078125 37.40625 
Q 38.96875 37.40625 42.71875 40.96875 
Q 46.484375 44.53125 46.484375 51.125 
Q 46.484375 57.671875 42.71875 61.234375 
Q 38.96875 64.796875 32.078125 64.796875 
z
M 9.8125 72.90625 
L 32.078125 72.90625 
Q 44.34375 72.90625 50.609375 67.359375 
Q 56.890625 61.8125 56.890625 51.125 
Q 56.890625 40.328125 50.609375 34.8125 
Q 44.34375 29.296875 32.078125 29.296875 
L 19.671875 29.296875 
L 19.671875 0 
L 9.8125 0 
z
" id="DejaVuSans-80"/>
      <path d="M 5.515625 54.6875 
L 48.1875 54.6875 
L 48.1875 46.484375 
L 14.40625 7.171875 
L 48.1875 7.171875 
L 48.1875 0 
L 4.296875 0 
L 4.296875 8.203125 
L 38.09375 47.515625 
L 5.515625 47.515625 
z
" id="DejaVuSans-122"/>
     </defs>
     <g transform="translate(102.283906 49.317187)scale(0.18 -0.18)">
      <use xlink:href="#DejaVuSans-80"/>
      <use x="55.802734" xlink:href="#DejaVuSans-97"/>
      <use x="117.082031" xlink:href="#DejaVuSans-114"/>
      <use x="158.195312" xlink:href="#DejaVuSans-97"/>
      <use x="219.474609" xlink:href="#DejaVuSans-109"/>
      <use x="316.886719" xlink:href="#DejaVuSans-101"/>
      <use x="378.410156" xlink:href="#DejaVuSans-116"/>
      <use x="417.619141" xlink:href="#DejaVuSans-101"/>
      <use x="479.142578" xlink:href="#DejaVuSans-114"/>
      <use x="520.255859" xlink:href="#DejaVuSans-105"/>
      <use x="548.039062" xlink:href="#DejaVuSans-122"/>
      <use x="600.529297" xlink:href="#DejaVuSans-97"/>
      <use x="661.808594" xlink:href="#DejaVuSans-116"/>
      <use x="701.017578" xlink:href="#DejaVuSans-105"/>
      <use x="728.800781" xlink:href="#DejaVuSans-111"/>
      <use x="789.982422" xlink:href="#DejaVuSans-110"/>
     </g>
    </g>
    <g id="line2d_14">
     <path d="M 98.21 69.437812 
L 134.21 69.437812 
" style="fill:none;stroke:#003f5c;stroke-linecap:square;stroke-width:1.5;"/>
    </g>
    <g id="line2d_15"/>
    <g id="text_13">
     <!-- MO-PaDGAN -->
     <defs>
      <path d="M 9.8125 72.90625 
L 24.515625 72.90625 
L 43.109375 23.296875 
L 61.8125 72.90625 
L 76.515625 72.90625 
L 76.515625 0 
L 66.890625 0 
L 66.890625 64.015625 
L 48.09375 14.015625 
L 38.1875 14.015625 
L 19.390625 64.015625 
L 19.390625 0 
L 9.8125 0 
z
" id="DejaVuSans-77"/>
      <path d="M 39.40625 66.21875 
Q 28.65625 66.21875 22.328125 58.203125 
Q 16.015625 50.203125 16.015625 36.375 
Q 16.015625 22.609375 22.328125 14.59375 
Q 28.65625 6.59375 39.40625 6.59375 
Q 50.140625 6.59375 56.421875 14.59375 
Q 62.703125 22.609375 62.703125 36.375 
Q 62.703125 50.203125 56.421875 58.203125 
Q 50.140625 66.21875 39.40625 66.21875 
z
M 39.40625 74.21875 
Q 54.734375 74.21875 63.90625 63.9375 
Q 73.09375 53.65625 73.09375 36.375 
Q 73.09375 19.140625 63.90625 8.859375 
Q 54.734375 -1.421875 39.40625 -1.421875 
Q 24.03125 -1.421875 14.8125 8.828125 
Q 5.609375 19.09375 5.609375 36.375 
Q 5.609375 53.65625 14.8125 63.9375 
Q 24.03125 74.21875 39.40625 74.21875 
z
" id="DejaVuSans-79"/>
      <path d="M 4.890625 31.390625 
L 31.203125 31.390625 
L 31.203125 23.390625 
L 4.890625 23.390625 
z
" id="DejaVuSans-45"/>
      <path d="M 19.671875 64.796875 
L 19.671875 8.109375 
L 31.59375 8.109375 
Q 46.6875 8.109375 53.6875 14.9375 
Q 60.6875 21.78125 60.6875 36.53125 
Q 60.6875 51.171875 53.6875 57.984375 
Q 46.6875 64.796875 31.59375 64.796875 
z
M 9.8125 72.90625 
L 30.078125 72.90625 
Q 51.265625 72.90625 61.171875 64.09375 
Q 71.09375 55.28125 71.09375 36.53125 
Q 71.09375 17.671875 61.125 8.828125 
Q 51.171875 0 30.078125 0 
L 9.8125 0 
z
" id="DejaVuSans-68"/>
      <path d="M 59.515625 10.40625 
L 59.515625 29.984375 
L 43.40625 29.984375 
L 43.40625 38.09375 
L 69.28125 38.09375 
L 69.28125 6.78125 
Q 63.578125 2.734375 56.6875 0.65625 
Q 49.8125 -1.421875 42 -1.421875 
Q 24.90625 -1.421875 15.25 8.5625 
Q 5.609375 18.5625 5.609375 36.375 
Q 5.609375 54.25 15.25 64.234375 
Q 24.90625 74.21875 42 74.21875 
Q 49.125 74.21875 55.546875 72.453125 
Q 61.96875 70.703125 67.390625 67.28125 
L 67.390625 56.78125 
Q 61.921875 61.421875 55.765625 63.765625 
Q 49.609375 66.109375 42.828125 66.109375 
Q 29.4375 66.109375 22.71875 58.640625 
Q 16.015625 51.171875 16.015625 36.375 
Q 16.015625 21.625 22.71875 14.15625 
Q 29.4375 6.6875 42.828125 6.6875 
Q 48.046875 6.6875 52.140625 7.59375 
Q 56.25 8.5 59.515625 10.40625 
z
" id="DejaVuSans-71"/>
      <path d="M 34.1875 63.1875 
L 20.796875 26.90625 
L 47.609375 26.90625 
z
M 28.609375 72.90625 
L 39.796875 72.90625 
L 67.578125 0 
L 57.328125 0 
L 50.6875 18.703125 
L 17.828125 18.703125 
L 11.1875 0 
L 0.78125 0 
z
" id="DejaVuSans-65"/>
     </defs>
     <g transform="translate(148.61 75.737812)scale(0.18 -0.18)">
      <use xlink:href="#DejaVuSans-77"/>
      <use x="86.279297" xlink:href="#DejaVuSans-79"/>
      <use x="167.740234" xlink:href="#DejaVuSans-45"/>
      <use x="203.824219" xlink:href="#DejaVuSans-80"/>
      <use x="259.626953" xlink:href="#DejaVuSans-97"/>
      <use x="320.90625" xlink:href="#DejaVuSans-68"/>
      <use x="397.908203" xlink:href="#DejaVuSans-71"/>
      <use x="475.398438" xlink:href="#DejaVuSans-65"/>
      <use x="543.806641" xlink:href="#DejaVuSans-78"/>
     </g>
    </g>
    <g id="line2d_16">
     <path d="M 98.21 95.858437 
L 134.21 95.858437 
" style="fill:none;stroke:#7a5195;stroke-dasharray:5.55,2.4;stroke-dashoffset:0;stroke-width:1.5;"/>
    </g>
    <g id="line2d_17"/>
    <g id="text_14">
     <!-- GAN -->
     <g transform="translate(148.61 102.158437)scale(0.18 -0.18)">
      <use xlink:href="#DejaVuSans-71"/>
      <use x="77.490234" xlink:href="#DejaVuSans-65"/>
      <use x="145.898438" xlink:href="#DejaVuSans-78"/>
     </g>
    </g>
    <g id="line2d_18">
     <path d="M 98.21 122.279062 
L 134.21 122.279062 
" style="fill:none;stroke:#ef5675;stroke-dasharray:1.5,2.475;stroke-dashoffset:0;stroke-width:1.5;"/>
    </g>
    <g id="line2d_19"/>
    <g id="text_15">
     <!-- SVD -->
     <defs>
      <path d="M 53.515625 70.515625 
L 53.515625 60.890625 
Q 47.90625 63.578125 42.921875 64.890625 
Q 37.9375 66.21875 33.296875 66.21875 
Q 25.25 66.21875 20.875 63.09375 
Q 16.5 59.96875 16.5 54.203125 
Q 16.5 49.359375 19.40625 46.890625 
Q 22.3125 44.4375 30.421875 42.921875 
L 36.375 41.703125 
Q 47.40625 39.59375 52.65625 34.296875 
Q 57.90625 29 57.90625 20.125 
Q 57.90625 9.515625 50.796875 4.046875 
Q 43.703125 -1.421875 29.984375 -1.421875 
Q 24.8125 -1.421875 18.96875 -0.25 
Q 13.140625 0.921875 6.890625 3.21875 
L 6.890625 13.375 
Q 12.890625 10.015625 18.65625 8.296875 
Q 24.421875 6.59375 29.984375 6.59375 
Q 38.421875 6.59375 43.015625 9.90625 
Q 47.609375 13.234375 47.609375 19.390625 
Q 47.609375 24.75 44.3125 27.78125 
Q 41.015625 30.8125 33.5 32.328125 
L 27.484375 33.5 
Q 16.453125 35.6875 11.515625 40.375 
Q 6.59375 45.0625 6.59375 53.421875 
Q 6.59375 63.09375 13.40625 68.65625 
Q 20.21875 74.21875 32.171875 74.21875 
Q 37.3125 74.21875 42.625 73.28125 
Q 47.953125 72.359375 53.515625 70.515625 
z
" id="DejaVuSans-83"/>
      <path d="M 28.609375 0 
L 0.78125 72.90625 
L 11.078125 72.90625 
L 34.1875 11.53125 
L 57.328125 72.90625 
L 67.578125 72.90625 
L 39.796875 0 
z
" id="DejaVuSans-86"/>
     </defs>
     <g transform="translate(148.61 128.579062)scale(0.18 -0.18)">
      <use xlink:href="#DejaVuSans-83"/>
      <use x="63.476562" xlink:href="#DejaVuSans-86"/>
      <use x="131.884766" xlink:href="#DejaVuSans-68"/>
     </g>
    </g>
    <g id="line2d_20">
     <path d="M 98.21 148.699687 
L 134.21 148.699687 
" style="fill:none;stroke:#ffa600;stroke-dasharray:9.6,2.4,1.5,2.4;stroke-dashoffset:0;stroke-width:1.5;"/>
    </g>
    <g id="line2d_21"/>
    <g id="text_16">
     <!-- FFD -->
     <defs>
      <path d="M 9.8125 72.90625 
L 51.703125 72.90625 
L 51.703125 64.59375 
L 19.671875 64.59375 
L 19.671875 43.109375 
L 48.578125 43.109375 
L 48.578125 34.8125 
L 19.671875 34.8125 
L 19.671875 0 
L 9.8125 0 
z
" id="DejaVuSans-70"/>
     </defs>
     <g transform="translate(148.61 154.999687)scale(0.18 -0.18)">
      <use xlink:href="#DejaVuSans-70"/>
      <use x="57.519531" xlink:href="#DejaVuSans-70"/>
      <use x="115.039062" xlink:href="#DejaVuSans-68"/>
     </g>
    </g>
   </g>
  </g>
 </g>
 <defs>
  <clipPath id="p9982120597">
   <rect height="261.16" width="359.35" x="82.01" y="19.44"/>
  </clipPath>
 </defs>
</svg>
