<?xml version="1.0" encoding="utf-8" standalone="no"?>
<!DOCTYPE svg PUBLIC "-//W3C//DTD SVG 1.1//EN"
  "http://www.w3.org/Graphics/SVG/1.1/DTD/svg11.dtd">
<!-- Created with matplotlib (https://matplotlib.org/) -->
<svg height="540pt" version="1.1" viewBox="0 0 691.2 540" width="691.2pt" xmlns="http://www.w3.org/2000/svg" xmlns:xlink="http://www.w3.org/1999/xlink">
 <defs>
  <style type="text/css">
*{stroke-linecap:butt;stroke-linejoin:round;}
  </style>
 </defs>
 <g id="figure_1">
  <g id="patch_1">
   <path d="M 0 540 
L 691.2 540 
L 691.2 0 
L 0 0 
z
" style="fill:#ffffff;"/>
  </g>
  <g id="axes_1">
   <g id="line2d_1">
    <path clip-path="url(#pb283a0e405)" d="M 161.58086 422.03106 
L 157.916335 418.670277 
L 156.426605 417.491944 
L 153.333787 415.358968 
L 150.772737 413.857341 
L 147.007666 411.984506 
L 143.2174 410.41061 
L 139.613519 409.140975 
L 135.717554 407.971351 
L 130.96978 406.784398 
L 125.315369 405.660638 
L 119.192899 404.750949 
L 113.57061 404.166017 
L 107.161257 403.766673 
L 101.384304 403.635866 
L 95.822428 403.706478 
L 89.088474 404.04407 
L 83.016457 404.584847 
L 77.422431 405.286003 
L 71.624351 406.228352 
L 65.368535 407.511919 
L 59.845288 408.904484 
L 55.392555 410.233691 
L 51.28189 411.657584 
L 47.21344 413.30047 
L 44.371718 414.628804 
L 41.108811 416.41794 
L 38.522694 418.165401 
L 37.057068 419.418322 
L 36.152822 420.443247 
L 35.689384 421.310851 
L 35.639851 421.777768 
L 35.725068 422.030654 
L 36.110188 422.360938 
L 36.670136 422.520703 
L 37.579505 422.572366 
L 38.875697 422.478412 
L 41.770459 422.005332 
L 46.225609 421.024848 
L 57.527805 418.191754 
L 73.482891 414.178833 
L 82.805389 412.037441 
L 90.466668 410.499924 
L 97.091405 409.412438 
L 102.250147 408.770593 
L 107.411846 408.343909 
L 112.981382 408.154475 
L 116.741824 408.196336 
L 121.461203 408.450266 
L 126.11594 408.926488 
L 130.76857 409.633816 
L 134.864421 410.456114 
L 139.302605 411.571445 
L 143.02649 412.702679 
L 147.374478 414.277698 
L 150.844447 415.763671 
L 153.619577 417.129062 
L 156.62815 418.833386 
L 159.110716 420.475421 
L 161.493216 422.35051 
L 161.493216 422.35051 
" style="fill:none;stroke:#000000;stroke-linecap:square;stroke-opacity:0.7;stroke-width:1.2;"/>
   </g>
   <g id="line2d_2">
    <path clip-path="url(#pb283a0e405)" d="M 160.336214 354.865802 
L 155.67523 350.902765 
L 153.02103 349.011552 
L 150.277838 347.30637 
L 147.123538 345.605589 
L 143.60419 343.97428 
L 139.701012 342.430447 
L 135.213233 340.936767 
L 131.386202 339.863348 
L 126.5922 338.74339 
L 121.957505 337.871767 
L 116.457215 337.079028 
L 110.730655 336.506848 
L 104.653016 336.15772 
L 99.164825 336.053962 
L 92.406605 336.185192 
L 87.47055 336.455007 
L 81.159592 337.011454 
L 74.628197 337.84264 
L 69.620108 338.666011 
L 64.892835 339.604713 
L 58.411883 341.181791 
L 53.083575 342.781071 
L 48.63217 344.386864 
L 46.605727 345.222026 
L 43.311369 346.76377 
L 41.05787 347.995043 
L 39.011251 349.299386 
L 37.346545 350.570987 
L 35.898772 351.980359 
L 34.961058 353.337474 
L 34.673791 354.185355 
L 34.70236 354.917214 
L 35.051618 355.525896 
L 35.605692 355.937631 
L 36.559893 356.292493 
L 37.884914 356.513518 
L 40.823132 356.56879 
L 44.008132 356.330443 
L 49.00562 355.663539 
L 54.801508 354.642797 
L 61.596025 353.240883 
L 71.663374 350.898276 
L 83.932185 347.770731 
L 102.122348 343.089974 
L 108.042873 341.822698 
L 112.758159 341.054017 
L 116.287241 340.675988 
L 120.27338 340.497971 
L 124.116248 340.605566 
L 127.820083 340.980854 
L 131.818174 341.683129 
L 135.05786 342.470099 
L 138.752679 343.593636 
L 142.190727 344.845354 
L 145.887828 346.406437 
L 150.285936 348.557309 
L 153.263808 350.210707 
L 155.733712 351.725442 
L 159.216694 354.163738 
L 160.227866 354.96013 
L 160.227866 354.96013 
" style="fill:none;stroke:#000000;stroke-linecap:square;stroke-opacity:0.7;stroke-width:1.2;"/>
   </g>
   <g id="line2d_3">
    <path clip-path="url(#pb283a0e405)" d="M 159.966578 288.230589 
L 155.192658 284.532195 
L 152.429009 282.727566 
L 149.529766 281.077739 
L 146.189032 279.435236 
L 142.435308 277.857825 
L 138.262057 276.371709 
L 133.442429 274.938326 
L 129.35999 273.92156 
L 124.292557 272.874325 
L 117.859684 271.843696 
L 112.438117 271.206426 
L 106.278284 270.71703 
L 99.805626 270.455573 
L 92.731529 270.454681 
L 86.793905 270.681123 
L 80.213937 271.178938 
L 74.320809 271.855911 
L 69.696271 272.551626 
L 64.974385 273.425701 
L 59.465673 274.681781 
L 55.095689 275.890252 
L 51.027476 277.220776 
L 47.015145 278.779184 
L 44.207995 280.0612 
L 40.949571 281.833803 
L 38.294342 283.645604 
L 36.759517 284.988269 
L 35.758533 286.152986 
L 35.203528 287.179505 
L 35.093204 287.770334 
L 35.141023 288.100889 
L 35.450843 288.557829 
L 35.94364 288.826182 
L 36.77288 288.995386 
L 37.938321 289.016131 
L 40.501265 288.72719 
L 44.500183 287.93209 
L 51.55438 286.18262 
L 65.433472 282.402629 
L 79.004264 278.772404 
L 86.711448 276.894565 
L 93.927107 275.369193 
L 99.244941 274.458671 
L 103.607434 273.890446 
L 108.585659 273.480024 
L 112.428136 273.359507 
L 116.896799 273.452095 
L 121.267876 273.794192 
L 125.527844 274.369807 
L 130.12749 275.258445 
L 133.827639 276.172823 
L 137.992073 277.414232 
L 141.788379 278.744572 
L 145.769475 280.351978 
L 149.141269 281.897291 
L 153.306126 284.075632 
L 155.708628 285.499057 
L 158.975321 287.708835 
L 159.931831 288.430749 
L 159.931831 288.430749 
" style="fill:none;stroke:#000000;stroke-linecap:square;stroke-opacity:0.7;stroke-width:1.2;"/>
   </g>
   <g id="line2d_4">
    <path clip-path="url(#pb283a0e405)" d="M 158.673582 221.131899 
L 153.157558 217.296572 
L 149.95486 215.426479 
L 146.617151 213.741529 
L 142.853118 212.114698 
L 138.578995 210.555063 
L 133.904839 209.132742 
L 129.712504 208.064208 
L 123.989438 206.868979 
L 118.573576 205.977106 
L 111.738475 205.138532 
L 106.02468 204.658222 
L 99.690142 204.34377 
L 93.162576 204.251319 
L 86.211551 204.411387 
L 80.415988 204.755748 
L 74.231486 205.348844 
L 68.762331 206.085243 
L 62.581674 207.18801 
L 58.562972 208.082194 
L 53.204846 209.534848 
L 48.876892 210.976867 
L 45.369363 212.375798 
L 42.149883 213.907631 
L 39.387108 215.500148 
L 37.139328 217.113616 
L 35.844909 218.294497 
L 34.985983 219.325899 
L 34.499289 220.241468 
L 34.398053 220.771082 
L 34.574265 221.335358 
L 34.888626 221.597564 
L 35.453967 221.791905 
L 36.315003 221.869462 
L 37.999803 221.74739 
L 41.335352 221.134071 
L 46.605041 219.84169 
L 59.219076 216.393013 
L 72.505872 212.844209 
L 81.052788 210.78729 
L 88.315796 209.276726 
L 93.811726 208.333865 
L 99.831273 207.553466 
L 103.563432 207.225437 
L 107.628733 207.020671 
L 112.332841 206.998612 
L 116.934912 207.213645 
L 121.454262 207.661139 
L 126.316527 208.409073 
L 130.252194 209.218561 
L 134.705848 210.356789 
L 138.818757 211.621229 
L 143.111398 213.167984 
L 146.789231 214.690716 
L 150.442953 216.405437 
L 153.985966 218.296929 
L 157.523234 220.479987 
L 158.631448 221.233921 
L 158.631448 221.233921 
" style="fill:none;stroke:#000000;stroke-linecap:square;stroke-opacity:0.7;stroke-width:1.2;"/>
   </g>
   <g id="line2d_5">
    <path clip-path="url(#pb283a0e405)" d="M 159.088799 154.794764 
L 154.062751 151.745894 
L 150.267338 149.810281 
L 146.869343 148.334676 
L 143.552393 147.094619 
L 138.963734 145.646922 
L 134.142407 144.394263 
L 128.26948 143.159248 
L 122.69511 142.22236 
L 116.442184 141.394017 
L 109.987401 140.750767 
L 102.498414 140.250133 
L 95.488663 140.016533 
L 88.999354 140.011241 
L 81.955432 140.252218 
L 76.710996 140.612588 
L 69.725943 141.357601 
L 63.210677 142.360529 
L 57.294709 143.574209 
L 52.380871 144.849437 
L 48.272093 146.151044 
L 44.524149 147.586591 
L 41.21237 149.139141 
L 38.545045 150.710619 
L 37.033865 151.848989 
L 36.06993 152.807169 
L 35.542713 153.626632 
L 35.437168 154.10486 
L 35.488136 154.356907 
L 35.800425 154.692691 
L 36.304092 154.87052 
L 37.143342 154.942315 
L 38.316469 154.872176 
L 40.802382 154.47586 
L 44.745386 153.593265 
L 53.306726 151.377112 
L 69.825379 147.071794 
L 79.092108 144.920801 
L 85.221854 143.694637 
L 90.040592 142.881957 
L 95.586839 142.152066 
L 101.192645 141.676879 
L 106.009553 141.50172 
L 111.298532 141.568065 
L 115.247451 141.794292 
L 120.12861 142.278873 
L 124.628021 142.921924 
L 130.289333 143.994505 
L 134.749387 145.047422 
L 140.139023 146.574899 
L 145.562744 148.422513 
L 150.157482 150.278111 
L 153.529564 151.857615 
L 156.31106 153.351481 
L 159.047758 155.075382 
L 159.047758 155.075382 
" style="fill:none;stroke:#000000;stroke-linecap:square;stroke-opacity:0.7;stroke-width:1.2;"/>
   </g>
   <g id="text_1">
    <!-- $C_L=1.69$ -->
    <defs>
     <path d="M 69.484375 67.28125 
L 67.484375 56.890625 
Q 62.796875 61.625 57.546875 63.921875 
Q 52.296875 66.21875 46.1875 66.21875 
Q 37.84375 66.21875 31.515625 62.203125 
Q 25.203125 58.203125 20.609375 50 
Q 17.671875 44.734375 16.125 38.84375 
Q 14.59375 32.953125 14.59375 27 
Q 14.59375 17.046875 19.75 11.8125 
Q 24.90625 6.59375 34.71875 6.59375 
Q 41.5 6.59375 47.75 8.765625 
Q 54 10.9375 59.90625 15.28125 
L 57.625 3.609375 
Q 51.8125 1.125 45.875 -0.140625 
Q 39.9375 -1.421875 33.984375 -1.421875 
Q 19.96875 -1.421875 12.078125 6.1875 
Q 4.203125 13.8125 4.203125 27.390625 
Q 4.203125 36.078125 7.203125 44.46875 
Q 10.203125 52.875 15.828125 59.8125 
Q 21.78125 67.1875 29.421875 70.703125 
Q 37.0625 74.21875 47.21875 74.21875 
Q 53.46875 74.21875 59.0625 72.484375 
Q 64.65625 70.75 69.484375 67.28125 
z
" id="DejaVuSans-Oblique-67"/>
     <path d="M 16.796875 72.90625 
L 26.703125 72.90625 
L 14.203125 8.203125 
L 49.703125 8.203125 
L 48.09375 0 
L 2.6875 0 
z
" id="DejaVuSans-Oblique-76"/>
     <path d="M 10.59375 45.40625 
L 73.1875 45.40625 
L 73.1875 37.203125 
L 10.59375 37.203125 
z
M 10.59375 25.484375 
L 73.1875 25.484375 
L 73.1875 17.1875 
L 10.59375 17.1875 
z
" id="DejaVuSans-61"/>
     <path d="M 12.40625 8.296875 
L 28.515625 8.296875 
L 28.515625 63.921875 
L 10.984375 60.40625 
L 10.984375 69.390625 
L 28.421875 72.90625 
L 38.28125 72.90625 
L 38.28125 8.296875 
L 54.390625 8.296875 
L 54.390625 0 
L 12.40625 0 
z
" id="DejaVuSans-49"/>
     <path d="M 10.6875 12.40625 
L 21 12.40625 
L 21 0 
L 10.6875 0 
z
" id="DejaVuSans-46"/>
     <path d="M 33.015625 40.375 
Q 26.375 40.375 22.484375 35.828125 
Q 18.609375 31.296875 18.609375 23.390625 
Q 18.609375 15.53125 22.484375 10.953125 
Q 26.375 6.390625 33.015625 6.390625 
Q 39.65625 6.390625 43.53125 10.953125 
Q 47.40625 15.53125 47.40625 23.390625 
Q 47.40625 31.296875 43.53125 35.828125 
Q 39.65625 40.375 33.015625 40.375 
z
M 52.59375 71.296875 
L 52.59375 62.3125 
Q 48.875 64.0625 45.09375 64.984375 
Q 41.3125 65.921875 37.59375 65.921875 
Q 27.828125 65.921875 22.671875 59.328125 
Q 17.53125 52.734375 16.796875 39.40625 
Q 19.671875 43.65625 24.015625 45.921875 
Q 28.375 48.1875 33.59375 48.1875 
Q 44.578125 48.1875 50.953125 41.515625 
Q 57.328125 34.859375 57.328125 23.390625 
Q 57.328125 12.15625 50.6875 5.359375 
Q 44.046875 -1.421875 33.015625 -1.421875 
Q 20.359375 -1.421875 13.671875 8.265625 
Q 6.984375 17.96875 6.984375 36.375 
Q 6.984375 53.65625 15.1875 63.9375 
Q 23.390625 74.21875 37.203125 74.21875 
Q 40.921875 74.21875 44.703125 73.484375 
Q 48.484375 72.75 52.59375 71.296875 
z
" id="DejaVuSans-54"/>
     <path d="M 10.984375 1.515625 
L 10.984375 10.5 
Q 14.703125 8.734375 18.5 7.8125 
Q 22.3125 6.890625 25.984375 6.890625 
Q 35.75 6.890625 40.890625 13.453125 
Q 46.046875 20.015625 46.78125 33.40625 
Q 43.953125 29.203125 39.59375 26.953125 
Q 35.25 24.703125 29.984375 24.703125 
Q 19.046875 24.703125 12.671875 31.3125 
Q 6.296875 37.9375 6.296875 49.421875 
Q 6.296875 60.640625 12.9375 67.421875 
Q 19.578125 74.21875 30.609375 74.21875 
Q 43.265625 74.21875 49.921875 64.515625 
Q 56.59375 54.828125 56.59375 36.375 
Q 56.59375 19.140625 48.40625 8.859375 
Q 40.234375 -1.421875 26.421875 -1.421875 
Q 22.703125 -1.421875 18.890625 -0.6875 
Q 15.09375 0.046875 10.984375 1.515625 
z
M 30.609375 32.421875 
Q 37.25 32.421875 41.125 36.953125 
Q 45.015625 41.5 45.015625 49.421875 
Q 45.015625 57.28125 41.125 61.84375 
Q 37.25 66.40625 30.609375 66.40625 
Q 23.96875 66.40625 20.09375 61.84375 
Q 16.21875 57.28125 16.21875 49.421875 
Q 16.21875 41.5 20.09375 36.953125 
Q 23.96875 32.421875 30.609375 32.421875 
z
" id="DejaVuSans-57"/>
    </defs>
    <g transform="translate(33.371619 446.706369)scale(0.14 -0.14)">
     <use transform="translate(0 0.78125)" xlink:href="#DejaVuSans-Oblique-67"/>
     <use transform="translate(69.824219 -15.625)scale(0.7)" xlink:href="#DejaVuSans-Oblique-76"/>
     <use transform="translate(131.040039 0.78125)" xlink:href="#DejaVuSans-61"/>
     <use transform="translate(234.311523 0.78125)" xlink:href="#DejaVuSans-49"/>
     <use transform="translate(297.93457 0.78125)" xlink:href="#DejaVuSans-46"/>
     <use transform="translate(329.72168 0.78125)" xlink:href="#DejaVuSans-54"/>
     <use transform="translate(393.344727 0.78125)" xlink:href="#DejaVuSans-57"/>
    </g>
    <!-- $C_L/C_D=218.88$ -->
    <defs>
     <path d="M 25.390625 72.90625 
L 33.6875 72.90625 
L 8.296875 -9.28125 
L 0 -9.28125 
z
" id="DejaVuSans-47"/>
     <path d="M 16.890625 72.90625 
L 38.09375 72.90625 
Q 54.984375 72.90625 63.59375 65.75 
Q 72.21875 58.59375 72.21875 44.484375 
Q 72.21875 35.15625 68.9375 26.53125 
Q 65.671875 17.921875 59.90625 12.015625 
Q 54.109375 5.953125 45.171875 2.96875 
Q 36.234375 0 24.03125 0 
L 2.6875 0 
z
M 25.203125 64.796875 
L 14.203125 8.109375 
L 27.09375 8.109375 
Q 43.65625 8.109375 52.734375 17.625 
Q 61.8125 27.15625 61.8125 44.484375 
Q 61.8125 54.984375 55.953125 59.890625 
Q 50.09375 64.796875 37.59375 64.796875 
z
" id="DejaVuSans-Oblique-68"/>
     <path d="M 19.1875 8.296875 
L 53.609375 8.296875 
L 53.609375 0 
L 7.328125 0 
L 7.328125 8.296875 
Q 12.9375 14.109375 22.625 23.890625 
Q 32.328125 33.6875 34.8125 36.53125 
Q 39.546875 41.84375 41.421875 45.53125 
Q 43.3125 49.21875 43.3125 52.78125 
Q 43.3125 58.59375 39.234375 62.25 
Q 35.15625 65.921875 28.609375 65.921875 
Q 23.96875 65.921875 18.8125 64.3125 
Q 13.671875 62.703125 7.8125 59.421875 
L 7.8125 69.390625 
Q 13.765625 71.78125 18.9375 73 
Q 24.125 74.21875 28.421875 74.21875 
Q 39.75 74.21875 46.484375 68.546875 
Q 53.21875 62.890625 53.21875 53.421875 
Q 53.21875 48.921875 51.53125 44.890625 
Q 49.859375 40.875 45.40625 35.40625 
Q 44.1875 33.984375 37.640625 27.21875 
Q 31.109375 20.453125 19.1875 8.296875 
z
" id="DejaVuSans-50"/>
     <path d="M 31.78125 34.625 
Q 24.75 34.625 20.71875 30.859375 
Q 16.703125 27.09375 16.703125 20.515625 
Q 16.703125 13.921875 20.71875 10.15625 
Q 24.75 6.390625 31.78125 6.390625 
Q 38.8125 6.390625 42.859375 10.171875 
Q 46.921875 13.96875 46.921875 20.515625 
Q 46.921875 27.09375 42.890625 30.859375 
Q 38.875 34.625 31.78125 34.625 
z
M 21.921875 38.8125 
Q 15.578125 40.375 12.03125 44.71875 
Q 8.5 49.078125 8.5 55.328125 
Q 8.5 64.0625 14.71875 69.140625 
Q 20.953125 74.21875 31.78125 74.21875 
Q 42.671875 74.21875 48.875 69.140625 
Q 55.078125 64.0625 55.078125 55.328125 
Q 55.078125 49.078125 51.53125 44.71875 
Q 48 40.375 41.703125 38.8125 
Q 48.828125 37.15625 52.796875 32.3125 
Q 56.78125 27.484375 56.78125 20.515625 
Q 56.78125 9.90625 50.3125 4.234375 
Q 43.84375 -1.421875 31.78125 -1.421875 
Q 19.734375 -1.421875 13.25 4.234375 
Q 6.78125 9.90625 6.78125 20.515625 
Q 6.78125 27.484375 10.78125 32.3125 
Q 14.796875 37.15625 21.921875 38.8125 
z
M 18.3125 54.390625 
Q 18.3125 48.734375 21.84375 45.5625 
Q 25.390625 42.390625 31.78125 42.390625 
Q 38.140625 42.390625 41.71875 45.5625 
Q 45.3125 48.734375 45.3125 54.390625 
Q 45.3125 60.0625 41.71875 63.234375 
Q 38.140625 66.40625 31.78125 66.40625 
Q 25.390625 66.40625 21.84375 63.234375 
Q 18.3125 60.0625 18.3125 54.390625 
z
" id="DejaVuSans-56"/>
    </defs>
    <g transform="translate(33.371619 462.383307)scale(0.14 -0.14)">
     <use transform="translate(0 0.78125)" xlink:href="#DejaVuSans-Oblique-67"/>
     <use transform="translate(69.824219 -15.625)scale(0.7)" xlink:href="#DejaVuSans-Oblique-76"/>
     <use transform="translate(111.557617 0.78125)" xlink:href="#DejaVuSans-47"/>
     <use transform="translate(145.249023 0.78125)" xlink:href="#DejaVuSans-Oblique-67"/>
     <use transform="translate(215.073242 -15.625)scale(0.7)" xlink:href="#DejaVuSans-Oblique-68"/>
     <use transform="translate(291.191406 0.78125)" xlink:href="#DejaVuSans-61"/>
     <use transform="translate(394.462891 0.78125)" xlink:href="#DejaVuSans-50"/>
     <use transform="translate(458.085938 0.78125)" xlink:href="#DejaVuSans-49"/>
     <use transform="translate(521.708984 0.78125)" xlink:href="#DejaVuSans-56"/>
     <use transform="translate(585.332031 0.78125)" xlink:href="#DejaVuSans-46"/>
     <use transform="translate(614.494141 0.78125)" xlink:href="#DejaVuSans-56"/>
     <use transform="translate(678.117188 0.78125)" xlink:href="#DejaVuSans-56"/>
    </g>
   </g>
   <g id="text_2">
    <!-- $C_L=1.66$ -->
    <g transform="translate(33.371619 379.777858)scale(0.14 -0.14)">
     <use transform="translate(0 0.78125)" xlink:href="#DejaVuSans-Oblique-67"/>
     <use transform="translate(69.824219 -15.625)scale(0.7)" xlink:href="#DejaVuSans-Oblique-76"/>
     <use transform="translate(131.040039 0.78125)" xlink:href="#DejaVuSans-61"/>
     <use transform="translate(234.311523 0.78125)" xlink:href="#DejaVuSans-49"/>
     <use transform="translate(297.93457 0.78125)" xlink:href="#DejaVuSans-46"/>
     <use transform="translate(329.72168 0.78125)" xlink:href="#DejaVuSans-54"/>
     <use transform="translate(393.344727 0.78125)" xlink:href="#DejaVuSans-54"/>
    </g>
    <!-- $C_L/C_D=233.84$ -->
    <defs>
     <path d="M 40.578125 39.3125 
Q 47.65625 37.796875 51.625 33 
Q 55.609375 28.21875 55.609375 21.1875 
Q 55.609375 10.40625 48.1875 4.484375 
Q 40.765625 -1.421875 27.09375 -1.421875 
Q 22.515625 -1.421875 17.65625 -0.515625 
Q 12.796875 0.390625 7.625 2.203125 
L 7.625 11.71875 
Q 11.71875 9.328125 16.59375 8.109375 
Q 21.484375 6.890625 26.8125 6.890625 
Q 36.078125 6.890625 40.9375 10.546875 
Q 45.796875 14.203125 45.796875 21.1875 
Q 45.796875 27.640625 41.28125 31.265625 
Q 36.765625 34.90625 28.71875 34.90625 
L 20.21875 34.90625 
L 20.21875 43.015625 
L 29.109375 43.015625 
Q 36.375 43.015625 40.234375 45.921875 
Q 44.09375 48.828125 44.09375 54.296875 
Q 44.09375 59.90625 40.109375 62.90625 
Q 36.140625 65.921875 28.71875 65.921875 
Q 24.65625 65.921875 20.015625 65.03125 
Q 15.375 64.15625 9.8125 62.3125 
L 9.8125 71.09375 
Q 15.4375 72.65625 20.34375 73.4375 
Q 25.25 74.21875 29.59375 74.21875 
Q 40.828125 74.21875 47.359375 69.109375 
Q 53.90625 64.015625 53.90625 55.328125 
Q 53.90625 49.265625 50.4375 45.09375 
Q 46.96875 40.921875 40.578125 39.3125 
z
" id="DejaVuSans-51"/>
     <path d="M 37.796875 64.3125 
L 12.890625 25.390625 
L 37.796875 25.390625 
z
M 35.203125 72.90625 
L 47.609375 72.90625 
L 47.609375 25.390625 
L 58.015625 25.390625 
L 58.015625 17.1875 
L 47.609375 17.1875 
L 47.609375 0 
L 37.796875 0 
L 37.796875 17.1875 
L 4.890625 17.1875 
L 4.890625 26.703125 
z
" id="DejaVuSans-52"/>
    </defs>
    <g transform="translate(33.371619 395.454796)scale(0.14 -0.14)">
     <use transform="translate(0 0.78125)" xlink:href="#DejaVuSans-Oblique-67"/>
     <use transform="translate(69.824219 -15.625)scale(0.7)" xlink:href="#DejaVuSans-Oblique-76"/>
     <use transform="translate(111.557617 0.78125)" xlink:href="#DejaVuSans-47"/>
     <use transform="translate(145.249023 0.78125)" xlink:href="#DejaVuSans-Oblique-67"/>
     <use transform="translate(215.073242 -15.625)scale(0.7)" xlink:href="#DejaVuSans-Oblique-68"/>
     <use transform="translate(291.191406 0.78125)" xlink:href="#DejaVuSans-61"/>
     <use transform="translate(394.462891 0.78125)" xlink:href="#DejaVuSans-50"/>
     <use transform="translate(458.085938 0.78125)" xlink:href="#DejaVuSans-51"/>
     <use transform="translate(521.708984 0.78125)" xlink:href="#DejaVuSans-51"/>
     <use transform="translate(585.332031 0.78125)" xlink:href="#DejaVuSans-46"/>
     <use transform="translate(614.494141 0.78125)" xlink:href="#DejaVuSans-56"/>
     <use transform="translate(678.117188 0.78125)" xlink:href="#DejaVuSans-52"/>
    </g>
   </g>
   <g id="text_3">
    <!-- $C_L=1.65$ -->
    <defs>
     <path d="M 10.796875 72.90625 
L 49.515625 72.90625 
L 49.515625 64.59375 
L 19.828125 64.59375 
L 19.828125 46.734375 
Q 21.96875 47.46875 24.109375 47.828125 
Q 26.265625 48.1875 28.421875 48.1875 
Q 40.625 48.1875 47.75 41.5 
Q 54.890625 34.8125 54.890625 23.390625 
Q 54.890625 11.625 47.5625 5.09375 
Q 40.234375 -1.421875 26.90625 -1.421875 
Q 22.3125 -1.421875 17.546875 -0.640625 
Q 12.796875 0.140625 7.71875 1.703125 
L 7.71875 11.625 
Q 12.109375 9.234375 16.796875 8.0625 
Q 21.484375 6.890625 26.703125 6.890625 
Q 35.15625 6.890625 40.078125 11.328125 
Q 45.015625 15.765625 45.015625 23.390625 
Q 45.015625 31 40.078125 35.4375 
Q 35.15625 39.890625 26.703125 39.890625 
Q 22.75 39.890625 18.8125 39.015625 
Q 14.890625 38.140625 10.796875 36.28125 
z
" id="DejaVuSans-53"/>
    </defs>
    <g transform="translate(33.371619 312.849348)scale(0.14 -0.14)">
     <use transform="translate(0 0.78125)" xlink:href="#DejaVuSans-Oblique-67"/>
     <use transform="translate(69.824219 -15.625)scale(0.7)" xlink:href="#DejaVuSans-Oblique-76"/>
     <use transform="translate(131.040039 0.78125)" xlink:href="#DejaVuSans-61"/>
     <use transform="translate(234.311523 0.78125)" xlink:href="#DejaVuSans-49"/>
     <use transform="translate(297.93457 0.78125)" xlink:href="#DejaVuSans-46"/>
     <use transform="translate(329.72168 0.78125)" xlink:href="#DejaVuSans-54"/>
     <use transform="translate(393.344727 0.78125)" xlink:href="#DejaVuSans-53"/>
    </g>
    <!-- $C_L/C_D=256.51$ -->
    <g transform="translate(33.371619 328.526285)scale(0.14 -0.14)">
     <use transform="translate(0 0.78125)" xlink:href="#DejaVuSans-Oblique-67"/>
     <use transform="translate(69.824219 -15.625)scale(0.7)" xlink:href="#DejaVuSans-Oblique-76"/>
     <use transform="translate(111.557617 0.78125)" xlink:href="#DejaVuSans-47"/>
     <use transform="translate(145.249023 0.78125)" xlink:href="#DejaVuSans-Oblique-67"/>
     <use transform="translate(215.073242 -15.625)scale(0.7)" xlink:href="#DejaVuSans-Oblique-68"/>
     <use transform="translate(291.191406 0.78125)" xlink:href="#DejaVuSans-61"/>
     <use transform="translate(394.462891 0.78125)" xlink:href="#DejaVuSans-50"/>
     <use transform="translate(458.085938 0.78125)" xlink:href="#DejaVuSans-53"/>
     <use transform="translate(521.708984 0.78125)" xlink:href="#DejaVuSans-54"/>
     <use transform="translate(585.332031 0.78125)" xlink:href="#DejaVuSans-46"/>
     <use transform="translate(617.119141 0.78125)" xlink:href="#DejaVuSans-53"/>
     <use transform="translate(680.742188 0.78125)" xlink:href="#DejaVuSans-49"/>
    </g>
   </g>
   <g id="text_4">
    <!-- $C_L=1.58$ -->
    <g transform="translate(33.371619 245.920837)scale(0.14 -0.14)">
     <use transform="translate(0 0.78125)" xlink:href="#DejaVuSans-Oblique-67"/>
     <use transform="translate(69.824219 -15.625)scale(0.7)" xlink:href="#DejaVuSans-Oblique-76"/>
     <use transform="translate(131.040039 0.78125)" xlink:href="#DejaVuSans-61"/>
     <use transform="translate(234.311523 0.78125)" xlink:href="#DejaVuSans-49"/>
     <use transform="translate(297.93457 0.78125)" xlink:href="#DejaVuSans-46"/>
     <use transform="translate(329.72168 0.78125)" xlink:href="#DejaVuSans-53"/>
     <use transform="translate(393.344727 0.78125)" xlink:href="#DejaVuSans-56"/>
    </g>
    <!-- $C_L/C_D=276.74$ -->
    <defs>
     <path d="M 8.203125 72.90625 
L 55.078125 72.90625 
L 55.078125 68.703125 
L 28.609375 0 
L 18.3125 0 
L 43.21875 64.59375 
L 8.203125 64.59375 
z
" id="DejaVuSans-55"/>
    </defs>
    <g transform="translate(33.371619 261.597775)scale(0.14 -0.14)">
     <use transform="translate(0 0.78125)" xlink:href="#DejaVuSans-Oblique-67"/>
     <use transform="translate(69.824219 -15.625)scale(0.7)" xlink:href="#DejaVuSans-Oblique-76"/>
     <use transform="translate(111.557617 0.78125)" xlink:href="#DejaVuSans-47"/>
     <use transform="translate(145.249023 0.78125)" xlink:href="#DejaVuSans-Oblique-67"/>
     <use transform="translate(215.073242 -15.625)scale(0.7)" xlink:href="#DejaVuSans-Oblique-68"/>
     <use transform="translate(291.191406 0.78125)" xlink:href="#DejaVuSans-61"/>
     <use transform="translate(394.462891 0.78125)" xlink:href="#DejaVuSans-50"/>
     <use transform="translate(458.085938 0.78125)" xlink:href="#DejaVuSans-55"/>
     <use transform="translate(521.708984 0.78125)" xlink:href="#DejaVuSans-54"/>
     <use transform="translate(585.332031 0.78125)" xlink:href="#DejaVuSans-46"/>
     <use transform="translate(609.369141 0.78125)" xlink:href="#DejaVuSans-55"/>
     <use transform="translate(672.992188 0.78125)" xlink:href="#DejaVuSans-52"/>
    </g>
   </g>
   <g id="text_5">
    <!-- $C_L=1.48$ -->
    <g transform="translate(33.371619 178.992327)scale(0.14 -0.14)">
     <use transform="translate(0 0.78125)" xlink:href="#DejaVuSans-Oblique-67"/>
     <use transform="translate(69.824219 -15.625)scale(0.7)" xlink:href="#DejaVuSans-Oblique-76"/>
     <use transform="translate(131.040039 0.78125)" xlink:href="#DejaVuSans-61"/>
     <use transform="translate(234.311523 0.78125)" xlink:href="#DejaVuSans-49"/>
     <use transform="translate(297.93457 0.78125)" xlink:href="#DejaVuSans-46"/>
     <use transform="translate(329.72168 0.78125)" xlink:href="#DejaVuSans-52"/>
     <use transform="translate(393.344727 0.78125)" xlink:href="#DejaVuSans-56"/>
    </g>
    <!-- $C_L/C_D=290.39$ -->
    <defs>
     <path d="M 31.78125 66.40625 
Q 24.171875 66.40625 20.328125 58.90625 
Q 16.5 51.421875 16.5 36.375 
Q 16.5 21.390625 20.328125 13.890625 
Q 24.171875 6.390625 31.78125 6.390625 
Q 39.453125 6.390625 43.28125 13.890625 
Q 47.125 21.390625 47.125 36.375 
Q 47.125 51.421875 43.28125 58.90625 
Q 39.453125 66.40625 31.78125 66.40625 
z
M 31.78125 74.21875 
Q 44.046875 74.21875 50.515625 64.515625 
Q 56.984375 54.828125 56.984375 36.375 
Q 56.984375 17.96875 50.515625 8.265625 
Q 44.046875 -1.421875 31.78125 -1.421875 
Q 19.53125 -1.421875 13.0625 8.265625 
Q 6.59375 17.96875 6.59375 36.375 
Q 6.59375 54.828125 13.0625 64.515625 
Q 19.53125 74.21875 31.78125 74.21875 
z
" id="DejaVuSans-48"/>
    </defs>
    <g transform="translate(33.371619 194.669264)scale(0.14 -0.14)">
     <use transform="translate(0 0.78125)" xlink:href="#DejaVuSans-Oblique-67"/>
     <use transform="translate(69.824219 -15.625)scale(0.7)" xlink:href="#DejaVuSans-Oblique-76"/>
     <use transform="translate(111.557617 0.78125)" xlink:href="#DejaVuSans-47"/>
     <use transform="translate(145.249023 0.78125)" xlink:href="#DejaVuSans-Oblique-67"/>
     <use transform="translate(215.073242 -15.625)scale(0.7)" xlink:href="#DejaVuSans-Oblique-68"/>
     <use transform="translate(291.191406 0.78125)" xlink:href="#DejaVuSans-61"/>
     <use transform="translate(394.462891 0.78125)" xlink:href="#DejaVuSans-50"/>
     <use transform="translate(456.335938 0.78125)" xlink:href="#DejaVuSans-57"/>
     <use transform="translate(519.958984 0.78125)" xlink:href="#DejaVuSans-48"/>
     <use transform="translate(583.582031 0.78125)" xlink:href="#DejaVuSans-46"/>
     <use transform="translate(615.369141 0.78125)" xlink:href="#DejaVuSans-51"/>
     <use transform="translate(678.992188 0.78125)" xlink:href="#DejaVuSans-57"/>
    </g>
   </g>
   <g id="text_6">
    <!-- MO-PaDGAN -->
    <defs>
     <path d="M 9.8125 72.90625 
L 24.515625 72.90625 
L 43.109375 23.296875 
L 61.8125 72.90625 
L 76.515625 72.90625 
L 76.515625 0 
L 66.890625 0 
L 66.890625 64.015625 
L 48.09375 14.015625 
L 38.1875 14.015625 
L 19.390625 64.015625 
L 19.390625 0 
L 9.8125 0 
z
" id="DejaVuSans-77"/>
     <path d="M 39.40625 66.21875 
Q 28.65625 66.21875 22.328125 58.203125 
Q 16.015625 50.203125 16.015625 36.375 
Q 16.015625 22.609375 22.328125 14.59375 
Q 28.65625 6.59375 39.40625 6.59375 
Q 50.140625 6.59375 56.421875 14.59375 
Q 62.703125 22.609375 62.703125 36.375 
Q 62.703125 50.203125 56.421875 58.203125 
Q 50.140625 66.21875 39.40625 66.21875 
z
M 39.40625 74.21875 
Q 54.734375 74.21875 63.90625 63.9375 
Q 73.09375 53.65625 73.09375 36.375 
Q 73.09375 19.140625 63.90625 8.859375 
Q 54.734375 -1.421875 39.40625 -1.421875 
Q 24.03125 -1.421875 14.8125 8.828125 
Q 5.609375 19.09375 5.609375 36.375 
Q 5.609375 53.65625 14.8125 63.9375 
Q 24.03125 74.21875 39.40625 74.21875 
z
" id="DejaVuSans-79"/>
     <path d="M 4.890625 31.390625 
L 31.203125 31.390625 
L 31.203125 23.390625 
L 4.890625 23.390625 
z
" id="DejaVuSans-45"/>
     <path d="M 19.671875 64.796875 
L 19.671875 37.40625 
L 32.078125 37.40625 
Q 38.96875 37.40625 42.71875 40.96875 
Q 46.484375 44.53125 46.484375 51.125 
Q 46.484375 57.671875 42.71875 61.234375 
Q 38.96875 64.796875 32.078125 64.796875 
z
M 9.8125 72.90625 
L 32.078125 72.90625 
Q 44.34375 72.90625 50.609375 67.359375 
Q 56.890625 61.8125 56.890625 51.125 
Q 56.890625 40.328125 50.609375 34.8125 
Q 44.34375 29.296875 32.078125 29.296875 
L 19.671875 29.296875 
L 19.671875 0 
L 9.8125 0 
z
" id="DejaVuSans-80"/>
     <path d="M 34.28125 27.484375 
Q 23.390625 27.484375 19.1875 25 
Q 14.984375 22.515625 14.984375 16.5 
Q 14.984375 11.71875 18.140625 8.90625 
Q 21.296875 6.109375 26.703125 6.109375 
Q 34.1875 6.109375 38.703125 11.40625 
Q 43.21875 16.703125 43.21875 25.484375 
L 43.21875 27.484375 
z
M 52.203125 31.203125 
L 52.203125 0 
L 43.21875 0 
L 43.21875 8.296875 
Q 40.140625 3.328125 35.546875 0.953125 
Q 30.953125 -1.421875 24.3125 -1.421875 
Q 15.921875 -1.421875 10.953125 3.296875 
Q 6 8.015625 6 15.921875 
Q 6 25.140625 12.171875 29.828125 
Q 18.359375 34.515625 30.609375 34.515625 
L 43.21875 34.515625 
L 43.21875 35.40625 
Q 43.21875 41.609375 39.140625 45 
Q 35.0625 48.390625 27.6875 48.390625 
Q 23 48.390625 18.546875 47.265625 
Q 14.109375 46.140625 10.015625 43.890625 
L 10.015625 52.203125 
Q 14.9375 54.109375 19.578125 55.046875 
Q 24.21875 56 28.609375 56 
Q 40.484375 56 46.34375 49.84375 
Q 52.203125 43.703125 52.203125 31.203125 
z
" id="DejaVuSans-97"/>
     <path d="M 19.671875 64.796875 
L 19.671875 8.109375 
L 31.59375 8.109375 
Q 46.6875 8.109375 53.6875 14.9375 
Q 60.6875 21.78125 60.6875 36.53125 
Q 60.6875 51.171875 53.6875 57.984375 
Q 46.6875 64.796875 31.59375 64.796875 
z
M 9.8125 72.90625 
L 30.078125 72.90625 
Q 51.265625 72.90625 61.171875 64.09375 
Q 71.09375 55.28125 71.09375 36.53125 
Q 71.09375 17.671875 61.125 8.828125 
Q 51.171875 0 30.078125 0 
L 9.8125 0 
z
" id="DejaVuSans-68"/>
     <path d="M 59.515625 10.40625 
L 59.515625 29.984375 
L 43.40625 29.984375 
L 43.40625 38.09375 
L 69.28125 38.09375 
L 69.28125 6.78125 
Q 63.578125 2.734375 56.6875 0.65625 
Q 49.8125 -1.421875 42 -1.421875 
Q 24.90625 -1.421875 15.25 8.5625 
Q 5.609375 18.5625 5.609375 36.375 
Q 5.609375 54.25 15.25 64.234375 
Q 24.90625 74.21875 42 74.21875 
Q 49.125 74.21875 55.546875 72.453125 
Q 61.96875 70.703125 67.390625 67.28125 
L 67.390625 56.78125 
Q 61.921875 61.421875 55.765625 63.765625 
Q 49.609375 66.109375 42.828125 66.109375 
Q 29.4375 66.109375 22.71875 58.640625 
Q 16.015625 51.171875 16.015625 36.375 
Q 16.015625 21.625 22.71875 14.15625 
Q 29.4375 6.6875 42.828125 6.6875 
Q 48.046875 6.6875 52.140625 7.59375 
Q 56.25 8.5 59.515625 10.40625 
z
" id="DejaVuSans-71"/>
     <path d="M 34.1875 63.1875 
L 20.796875 26.90625 
L 47.609375 26.90625 
z
M 28.609375 72.90625 
L 39.796875 72.90625 
L 67.578125 0 
L 57.328125 0 
L 50.6875 18.703125 
L 17.828125 18.703125 
L 11.1875 0 
L 0.78125 0 
z
" id="DejaVuSans-65"/>
     <path d="M 9.8125 72.90625 
L 23.09375 72.90625 
L 55.421875 11.921875 
L 55.421875 72.90625 
L 64.984375 72.90625 
L 64.984375 0 
L 51.703125 0 
L 19.390625 60.984375 
L 19.390625 0 
L 9.8125 0 
z
" id="DejaVuSans-78"/>
    </defs>
    <g transform="translate(31.179644 36)scale(0.216 -0.216)">
     <use xlink:href="#DejaVuSans-77"/>
     <use x="86.279297" xlink:href="#DejaVuSans-79"/>
     <use x="167.740234" xlink:href="#DejaVuSans-45"/>
     <use x="203.824219" xlink:href="#DejaVuSans-80"/>
     <use x="259.626953" xlink:href="#DejaVuSans-97"/>
     <use x="320.90625" xlink:href="#DejaVuSans-68"/>
     <use x="397.908203" xlink:href="#DejaVuSans-71"/>
     <use x="475.398438" xlink:href="#DejaVuSans-65"/>
     <use x="543.806641" xlink:href="#DejaVuSans-78"/>
    </g>
   </g>
  </g>
  <g id="axes_2">
   <g id="line2d_6">
    <path clip-path="url(#p88bae6ccb0)" d="M 327.825542 320.655078 
L 323.23556 319.017555 
L 317.475019 317.146784 
L 311.6468 315.475304 
L 304.834906 313.78684 
L 297.038054 312.124775 
L 289.46957 310.699506 
L 278.909105 308.94994 
L 271.332518 307.893551 
L 264.242947 307.106084 
L 257.419128 306.576734 
L 250.86678 306.319758 
L 246.134042 306.310555 
L 240.726243 306.506719 
L 236.241823 306.85877 
L 230.824919 307.549206 
L 226.789607 308.283504 
L 223.444863 309.059726 
L 220.349917 309.936214 
L 216.427869 311.309393 
L 212.986734 312.815849 
L 211.01722 313.838792 
L 208.807471 315.16397 
L 206.243312 317.016232 
L 204.912211 318.170735 
L 203.698639 319.417279 
L 202.629189 320.904007 
L 202.390106 321.542685 
L 202.402068 321.972023 
L 202.529222 322.197272 
L 202.761988 322.37512 
L 203.461494 322.569171 
L 204.946719 322.594346 
L 207.865346 322.302584 
L 216.058638 321.10506 
L 229.050618 319.24397 
L 241.248982 317.712056 
L 253.642935 316.359242 
L 267.428606 315.09013 
L 276.884999 314.417198 
L 285.086819 314.051756 
L 289.695469 313.973978 
L 297.064794 314.102794 
L 302.88848 314.480744 
L 307.49999 314.995419 
L 311.394966 315.608683 
L 316.039999 316.597203 
L 320.199398 317.769769 
L 323.198709 318.818492 
L 325.964783 319.967322 
L 327.874607 320.890336 
L 327.874607 320.890336 
" style="fill:none;stroke:#000000;stroke-linecap:square;stroke-opacity:0.7;stroke-width:1.2;"/>
   </g>
   <g id="line2d_7">
    <path clip-path="url(#p88bae6ccb0)" d="M 329.52086 254.327585 
L 328.998304 254.068821 
L 322.86524 251.320325 
L 318.086422 249.494012 
L 313.501285 247.98161 
L 307.821003 246.371056 
L 301.871673 244.922918 
L 296.046274 243.691631 
L 288.951242 242.413202 
L 281.168283 241.29395 
L 274.516922 240.590864 
L 268.838258 240.189031 
L 263.193973 239.980152 
L 258.339951 239.958448 
L 251.304708 240.197422 
L 244.986445 240.699446 
L 239.932111 241.310525 
L 234.851823 242.127996 
L 229.479419 243.237175 
L 224.536867 244.509748 
L 219.347663 246.153058 
L 215.43733 247.644857 
L 212.026065 249.171011 
L 208.490099 251.047634 
L 205.771992 252.793427 
L 203.758496 254.410356 
L 202.782656 255.478454 
L 202.358886 256.334299 
L 202.352035 256.694411 
L 202.555869 257.097793 
L 203.245219 257.550195 
L 204.338804 257.882131 
L 206.574625 258.214944 
L 210.318133 258.435763 
L 215.123158 258.462051 
L 221.02761 258.277698 
L 228.865864 257.793288 
L 238.606395 256.929611 
L 250.965098 255.578987 
L 269.455037 253.542011 
L 277.329038 252.883769 
L 285.402386 252.425889 
L 293.266431 252.203641 
L 301.217277 252.19941 
L 309.834817 252.453973 
L 317.435417 252.950743 
L 322.488458 253.484139 
L 327.836138 254.352124 
L 329.504802 254.748477 
L 329.504802 254.748477 
" style="fill:none;stroke:#000000;stroke-linecap:square;stroke-opacity:0.7;stroke-width:1.2;"/>
   </g>
   <g id="text_7">
    <!-- $C_L=1.07$ -->
    <g transform="translate(202.405751 346.086591)scale(0.14 -0.14)">
     <use transform="translate(0 0.78125)" xlink:href="#DejaVuSans-Oblique-67"/>
     <use transform="translate(69.824219 -15.625)scale(0.7)" xlink:href="#DejaVuSans-Oblique-76"/>
     <use transform="translate(131.040039 0.78125)" xlink:href="#DejaVuSans-61"/>
     <use transform="translate(234.311523 0.78125)" xlink:href="#DejaVuSans-49"/>
     <use transform="translate(297.93457 0.78125)" xlink:href="#DejaVuSans-46"/>
     <use transform="translate(329.72168 0.78125)" xlink:href="#DejaVuSans-48"/>
     <use transform="translate(393.344727 0.78125)" xlink:href="#DejaVuSans-55"/>
    </g>
    <!-- $C_L/C_D=147.93$ -->
    <g transform="translate(202.405751 361.763529)scale(0.14 -0.14)">
     <use transform="translate(0 0.78125)" xlink:href="#DejaVuSans-Oblique-67"/>
     <use transform="translate(69.824219 -15.625)scale(0.7)" xlink:href="#DejaVuSans-Oblique-76"/>
     <use transform="translate(111.557617 0.78125)" xlink:href="#DejaVuSans-47"/>
     <use transform="translate(145.249023 0.78125)" xlink:href="#DejaVuSans-Oblique-67"/>
     <use transform="translate(215.073242 -15.625)scale(0.7)" xlink:href="#DejaVuSans-Oblique-68"/>
     <use transform="translate(291.191406 0.78125)" xlink:href="#DejaVuSans-61"/>
     <use transform="translate(394.462891 0.78125)" xlink:href="#DejaVuSans-49"/>
     <use transform="translate(458.085938 0.78125)" xlink:href="#DejaVuSans-52"/>
     <use transform="translate(521.708984 0.78125)" xlink:href="#DejaVuSans-55"/>
     <use transform="translate(585.332031 0.78125)" xlink:href="#DejaVuSans-46"/>
     <use transform="translate(617.119141 0.78125)" xlink:href="#DejaVuSans-57"/>
     <use transform="translate(680.742188 0.78125)" xlink:href="#DejaVuSans-51"/>
    </g>
   </g>
   <g id="text_8">
    <!-- $C_L=0.86$ -->
    <g transform="translate(202.405751 280.536793)scale(0.14 -0.14)">
     <use transform="translate(0 0.78125)" xlink:href="#DejaVuSans-Oblique-67"/>
     <use transform="translate(69.824219 -15.625)scale(0.7)" xlink:href="#DejaVuSans-Oblique-76"/>
     <use transform="translate(131.040039 0.78125)" xlink:href="#DejaVuSans-61"/>
     <use transform="translate(234.311523 0.78125)" xlink:href="#DejaVuSans-48"/>
     <use transform="translate(297.93457 0.78125)" xlink:href="#DejaVuSans-46"/>
     <use transform="translate(327.09668 0.78125)" xlink:href="#DejaVuSans-56"/>
     <use transform="translate(390.719727 0.78125)" xlink:href="#DejaVuSans-54"/>
    </g>
    <!-- $C_L/C_D=150.67$ -->
    <g transform="translate(202.405751 296.213731)scale(0.14 -0.14)">
     <use transform="translate(0 0.78125)" xlink:href="#DejaVuSans-Oblique-67"/>
     <use transform="translate(69.824219 -15.625)scale(0.7)" xlink:href="#DejaVuSans-Oblique-76"/>
     <use transform="translate(111.557617 0.78125)" xlink:href="#DejaVuSans-47"/>
     <use transform="translate(145.249023 0.78125)" xlink:href="#DejaVuSans-Oblique-67"/>
     <use transform="translate(215.073242 -15.625)scale(0.7)" xlink:href="#DejaVuSans-Oblique-68"/>
     <use transform="translate(291.191406 0.78125)" xlink:href="#DejaVuSans-61"/>
     <use transform="translate(394.462891 0.78125)" xlink:href="#DejaVuSans-49"/>
     <use transform="translate(458.085938 0.78125)" xlink:href="#DejaVuSans-53"/>
     <use transform="translate(521.708984 0.78125)" xlink:href="#DejaVuSans-48"/>
     <use transform="translate(585.332031 0.78125)" xlink:href="#DejaVuSans-46"/>
     <use transform="translate(617.119141 0.78125)" xlink:href="#DejaVuSans-54"/>
     <use transform="translate(680.742188 0.78125)" xlink:href="#DejaVuSans-55"/>
    </g>
   </g>
   <g id="text_9">
    <!-- GAN -->
    <g transform="translate(242.093519 36)scale(0.216 -0.216)">
     <use xlink:href="#DejaVuSans-71"/>
     <use x="77.490234" xlink:href="#DejaVuSans-65"/>
     <use x="145.898438" xlink:href="#DejaVuSans-78"/>
    </g>
   </g>
  </g>
  <g id="axes_3">
   <g id="line2d_8">
    <path clip-path="url(#pa49789b8f6)" d="M 497.46086 383.017721 
L 497.168551 383.004214 
L 496.381388 382.514333 
L 495.661021 381.885719 
L 491.083752 379.430091 
L 489.930477 378.493408 
L 487.712568 377.195556 
L 486.657338 376.821262 
L 485.686788 376.101359 
L 482.929727 374.753702 
L 481.728779 374.397483 
L 480.807952 373.627624 
L 479.034386 373.171171 
L 477.865388 372.496601 
L 476.735923 372.088373 
L 475.178069 371.37562 
L 473.618066 370.844814 
L 466.216581 367.886547 
L 452.160542 363.856151 
L 444.003182 361.988661 
L 432.566038 359.957236 
L 426.955853 359.17628 
L 421.573325 358.732859 
L 417.679051 358.560495 
L 413.963389 358.58317 
L 409.563001 358.881867 
L 407.459622 359.174811 
L 399.929633 360.897949 
L 393.728785 363.280106 
L 389.373238 365.229603 
L 386.888432 366.582704 
L 383.94813 368.298184 
L 381.5655 370.13984 
L 379.071499 371.982086 
L 376.810027 373.797425 
L 373.270499 377.289542 
L 372.256808 378.64405 
L 371.650237 379.715244 
L 371.238457 380.830802 
L 371.09607 382.011593 
L 371.194369 382.306314 
L 371.672678 382.508323 
L 372.170784 382.532352 
L 376.682718 382.061442 
L 380.200376 381.387158 
L 382.088464 380.937805 
L 397.099352 376.157259 
L 402.557013 374.768798 
L 403.670715 374.3991 
L 405.7094 374.006912 
L 406.731676 373.651947 
L 409.936871 373.013028 
L 415.871465 371.923497 
L 424.297885 370.896917 
L 430.819963 370.415623 
L 438.808085 370.230239 
L 443.944497 370.323597 
L 448.799293 370.588434 
L 453.67879 370.992045 
L 460.452636 371.750007 
L 470.481473 373.607951 
L 473.478379 374.248606 
L 473.894168 374.555507 
L 478.140269 375.571228 
L 480.75509 376.3184 
L 483.055394 376.99676 
L 485.107973 377.721448 
L 485.929661 378.122481 
L 486.925625 378.370528 
L 488.563575 378.898055 
L 489.597255 379.606966 
L 490.566669 379.908036 
L 492.053131 380.716338 
L 493.42629 381.491698 
L 496.079515 383.279704 
L 497.427748 383.698913 
L 497.427748 383.698913 
" style="fill:none;stroke:#000000;stroke-linecap:square;stroke-opacity:0.7;stroke-width:1.2;"/>
   </g>
   <g id="line2d_9">
    <path clip-path="url(#pa49789b8f6)" d="M 493.456214 319.642232 
L 493.058544 319.633503 
L 489.23884 318.576611 
L 486.210833 317.17501 
L 479.645805 314.56151 
L 477.113047 313.352144 
L 473.338563 311.97386 
L 471.042778 310.667343 
L 468.812402 309.815113 
L 464.882944 307.984212 
L 461.308351 306.489106 
L 459.761908 305.642324 
L 453.752727 303.007662 
L 450.267056 301.424081 
L 448.341152 300.683884 
L 447.41422 300.194144 
L 443.042514 298.474101 
L 442.08495 298.039282 
L 436.825153 296.199706 
L 429.494753 293.886584 
L 424.795979 292.840503 
L 420.287652 292.24579 
L 417.437575 292.093246 
L 413.38779 292.218971 
L 410.794132 292.478652 
L 407.147037 293.078498 
L 400.66812 294.823006 
L 394.174024 297.476819 
L 388.889449 300.345633 
L 386.375539 301.843463 
L 382.456643 304.485052 
L 378.969532 307.505687 
L 374.786978 311.763045 
L 372.474122 314.495489 
L 371.541394 315.920023 
L 371.010326 316.969877 
L 370.575016 318.548873 
L 370.569632 319.334753 
L 370.882579 319.672709 
L 371.250872 319.771825 
L 372.654679 319.829177 
L 375.001169 319.704522 
L 377.859589 319.299838 
L 380.589494 318.656131 
L 383.056451 317.914823 
L 387.824134 316.229614 
L 397.319489 313.329883 
L 404.723258 311.599082 
L 407.188011 311.197932 
L 414.194608 310.433541 
L 420.075785 310.142487 
L 424.966848 310.145174 
L 430.176945 310.355025 
L 435.72736 310.739871 
L 441.049379 311.162681 
L 442.180568 311.333948 
L 445.196055 311.688944 
L 450.215074 312.315334 
L 451.601728 312.577453 
L 454.897155 313.070663 
L 457.079362 313.360198 
L 457.708263 313.577442 
L 466.84524 315.024231 
L 467.960306 315.315182 
L 470.91408 315.868549 
L 476.526225 316.944807 
L 477.524987 317.184724 
L 481.198425 317.896663 
L 484.257209 318.544053 
L 490.396166 319.692707 
L 490.843988 319.908063 
L 493.249254 320.299916 
L 493.249254 320.299916 
" style="fill:none;stroke:#000000;stroke-linecap:square;stroke-opacity:0.7;stroke-width:1.2;"/>
   </g>
   <g id="line2d_10">
    <path clip-path="url(#pa49789b8f6)" d="M 493.766425 256.01351 
L 493.401751 255.99518 
L 490.103864 255.02734 
L 487.261758 253.806354 
L 481.420032 251.581213 
L 479.170388 250.544672 
L 475.942999 249.396349 
L 473.76204 248.274799 
L 470.684414 247.084668 
L 457.88321 241.985023 
L 454.503624 240.677638 
L 449.999833 239.176963 
L 446.453516 237.931905 
L 440.987677 236.445989 
L 433.177483 234.596204 
L 428.022997 233.763125 
L 422.86082 233.297503 
L 419.319785 233.187653 
L 414.771173 233.302218 
L 411.888534 233.520306 
L 407.742825 234.020529 
L 401.948149 235.103128 
L 397.756485 236.279328 
L 394.93613 237.167141 
L 390.863696 238.817783 
L 386.800124 240.734459 
L 382.792911 242.846872 
L 381.573424 243.570949 
L 378.01599 246.133505 
L 375.104516 248.739603 
L 373.03 250.886737 
L 372.061339 251.995601 
L 370.830313 253.983101 
L 370.441384 255.196875 
L 370.416304 255.77759 
L 370.712692 256.038924 
L 371.721809 256.125003 
L 373.545845 256.004562 
L 375.777343 255.595428 
L 378.25004 254.864308 
L 380.614473 253.948582 
L 381.940571 253.391003 
L 384.01951 252.29653 
L 385.05059 251.799288 
L 388.767553 250.273617 
L 390.93603 249.350269 
L 394.209077 248.118335 
L 401.556125 245.916533 
L 405.135889 245.162054 
L 410.775853 244.428895 
L 415.922664 244.114958 
L 420.681973 244.072857 
L 426.108435 244.301969 
L 431.526387 244.762757 
L 439.975012 245.698094 
L 441.319515 245.951811 
L 444.351585 246.424215 
L 449.617021 247.270316 
L 451.171565 247.624305 
L 453.396434 247.958537 
L 454.562651 248.258879 
L 456.902727 248.63335 
L 457.570544 248.909024 
L 463.351697 250.030985 
L 464.576131 250.340813 
L 467.05247 250.724607 
L 468.324264 251.083455 
L 471.388185 251.757313 
L 481.674858 254.113964 
L 484.682291 254.831446 
L 493.575347 256.671194 
L 493.575347 256.671194 
" style="fill:none;stroke:#000000;stroke-linecap:square;stroke-opacity:0.7;stroke-width:1.2;"/>
   </g>
   <g id="line2d_11">
    <path clip-path="url(#pa49789b8f6)" d="M 496.447032 192.313308 
L 496.258716 192.270475 
L 495.655077 191.923085 
L 495.429951 191.603854 
L 491.627754 190.049461 
L 489.359469 188.8317 
L 488.812101 188.602199 
L 488.590958 188.248715 
L 486.373156 187.460315 
L 478.749113 184.912554 
L 476.318671 184.347976 
L 473.416093 183.559842 
L 471.017235 183.048395 
L 461.374678 181.355817 
L 448.550019 179.897611 
L 439.890152 179.266456 
L 434.669324 179.036164 
L 426.634202 178.86595 
L 419.096982 178.916501 
L 411.426335 179.19631 
L 405.452624 179.580819 
L 400.219249 180.161758 
L 395.25945 180.86228 
L 390.3665 181.811655 
L 384.582509 183.377508 
L 381.607432 184.337286 
L 379.083668 185.344447 
L 376.484306 186.524118 
L 373.5256 188.303889 
L 371.96497 189.62381 
L 371.339961 190.227079 
L 370.601187 191.306993 
L 370.278053 192.189317 
L 370.370031 192.511934 
L 370.874256 192.737118 
L 372.002404 192.912452 
L 373.895271 192.832235 
L 376.029836 192.515829 
L 381.144608 191.274765 
L 383.831699 190.547846 
L 395.783242 187.835794 
L 407.854276 186.067522 
L 413.050076 185.574617 
L 419.053478 185.251793 
L 426.525888 185.113514 
L 432.090926 185.207785 
L 436.224821 185.347131 
L 445.731982 185.929961 
L 469.106351 188.481729 
L 478.497752 189.723793 
L 489.48346 191.699176 
L 494.89272 192.806005 
L 496.366436 192.970992 
L 496.366436 192.970992 
" style="fill:none;stroke:#000000;stroke-linecap:square;stroke-opacity:0.7;stroke-width:1.2;"/>
   </g>
   <g id="text_10">
    <!-- $C_L=1.45$ -->
    <g transform="translate(369.729404 406.361032)scale(0.14 -0.14)">
     <use transform="translate(0 0.78125)" xlink:href="#DejaVuSans-Oblique-67"/>
     <use transform="translate(69.824219 -15.625)scale(0.7)" xlink:href="#DejaVuSans-Oblique-76"/>
     <use transform="translate(131.040039 0.78125)" xlink:href="#DejaVuSans-61"/>
     <use transform="translate(234.311523 0.78125)" xlink:href="#DejaVuSans-49"/>
     <use transform="translate(297.93457 0.78125)" xlink:href="#DejaVuSans-46"/>
     <use transform="translate(329.72168 0.78125)" xlink:href="#DejaVuSans-52"/>
     <use transform="translate(393.344727 0.78125)" xlink:href="#DejaVuSans-53"/>
    </g>
    <!-- $C_L/C_D=71.83$ -->
    <g transform="translate(369.729404 422.03797)scale(0.14 -0.14)">
     <use transform="translate(0 0.78125)" xlink:href="#DejaVuSans-Oblique-67"/>
     <use transform="translate(69.824219 -15.625)scale(0.7)" xlink:href="#DejaVuSans-Oblique-76"/>
     <use transform="translate(111.557617 0.78125)" xlink:href="#DejaVuSans-47"/>
     <use transform="translate(145.249023 0.78125)" xlink:href="#DejaVuSans-Oblique-67"/>
     <use transform="translate(215.073242 -15.625)scale(0.7)" xlink:href="#DejaVuSans-Oblique-68"/>
     <use transform="translate(291.191406 0.78125)" xlink:href="#DejaVuSans-61"/>
     <use transform="translate(394.462891 0.78125)" xlink:href="#DejaVuSans-55"/>
     <use transform="translate(458.085938 0.78125)" xlink:href="#DejaVuSans-49"/>
     <use transform="translate(521.708984 0.78125)" xlink:href="#DejaVuSans-46"/>
     <use transform="translate(550.871094 0.78125)" xlink:href="#DejaVuSans-56"/>
     <use transform="translate(614.494141 0.78125)" xlink:href="#DejaVuSans-51"/>
    </g>
   </g>
   <g id="text_11">
    <!-- $C_L=1.34$ -->
    <g transform="translate(369.729404 342.710982)scale(0.14 -0.14)">
     <use transform="translate(0 0.78125)" xlink:href="#DejaVuSans-Oblique-67"/>
     <use transform="translate(69.824219 -15.625)scale(0.7)" xlink:href="#DejaVuSans-Oblique-76"/>
     <use transform="translate(131.040039 0.78125)" xlink:href="#DejaVuSans-61"/>
     <use transform="translate(234.311523 0.78125)" xlink:href="#DejaVuSans-49"/>
     <use transform="translate(297.93457 0.78125)" xlink:href="#DejaVuSans-46"/>
     <use transform="translate(329.72168 0.78125)" xlink:href="#DejaVuSans-51"/>
     <use transform="translate(393.344727 0.78125)" xlink:href="#DejaVuSans-52"/>
    </g>
    <!-- $C_L/C_D=119.37$ -->
    <g transform="translate(369.729404 358.38792)scale(0.14 -0.14)">
     <use transform="translate(0 0.78125)" xlink:href="#DejaVuSans-Oblique-67"/>
     <use transform="translate(69.824219 -15.625)scale(0.7)" xlink:href="#DejaVuSans-Oblique-76"/>
     <use transform="translate(111.557617 0.78125)" xlink:href="#DejaVuSans-47"/>
     <use transform="translate(145.249023 0.78125)" xlink:href="#DejaVuSans-Oblique-67"/>
     <use transform="translate(215.073242 -15.625)scale(0.7)" xlink:href="#DejaVuSans-Oblique-68"/>
     <use transform="translate(291.191406 0.78125)" xlink:href="#DejaVuSans-61"/>
     <use transform="translate(394.462891 0.78125)" xlink:href="#DejaVuSans-49"/>
     <use transform="translate(458.085938 0.78125)" xlink:href="#DejaVuSans-49"/>
     <use transform="translate(521.708984 0.78125)" xlink:href="#DejaVuSans-57"/>
     <use transform="translate(585.332031 0.78125)" xlink:href="#DejaVuSans-46"/>
     <use transform="translate(617.119141 0.78125)" xlink:href="#DejaVuSans-51"/>
     <use transform="translate(680.742188 0.78125)" xlink:href="#DejaVuSans-55"/>
    </g>
   </g>
   <g id="text_12">
    <!-- $C_L=1.27$ -->
    <g transform="translate(369.729404 279.060932)scale(0.14 -0.14)">
     <use transform="translate(0 0.78125)" xlink:href="#DejaVuSans-Oblique-67"/>
     <use transform="translate(69.824219 -15.625)scale(0.7)" xlink:href="#DejaVuSans-Oblique-76"/>
     <use transform="translate(131.040039 0.78125)" xlink:href="#DejaVuSans-61"/>
     <use transform="translate(234.311523 0.78125)" xlink:href="#DejaVuSans-49"/>
     <use transform="translate(297.93457 0.78125)" xlink:href="#DejaVuSans-46"/>
     <use transform="translate(324.22168 0.78125)" xlink:href="#DejaVuSans-50"/>
     <use transform="translate(387.844727 0.78125)" xlink:href="#DejaVuSans-55"/>
    </g>
    <!-- $C_L/C_D=133.44$ -->
    <g transform="translate(369.729404 294.73787)scale(0.14 -0.14)">
     <use transform="translate(0 0.78125)" xlink:href="#DejaVuSans-Oblique-67"/>
     <use transform="translate(69.824219 -15.625)scale(0.7)" xlink:href="#DejaVuSans-Oblique-76"/>
     <use transform="translate(111.557617 0.78125)" xlink:href="#DejaVuSans-47"/>
     <use transform="translate(145.249023 0.78125)" xlink:href="#DejaVuSans-Oblique-67"/>
     <use transform="translate(215.073242 -15.625)scale(0.7)" xlink:href="#DejaVuSans-Oblique-68"/>
     <use transform="translate(291.191406 0.78125)" xlink:href="#DejaVuSans-61"/>
     <use transform="translate(394.462891 0.78125)" xlink:href="#DejaVuSans-49"/>
     <use transform="translate(458.085938 0.78125)" xlink:href="#DejaVuSans-51"/>
     <use transform="translate(521.708984 0.78125)" xlink:href="#DejaVuSans-51"/>
     <use transform="translate(585.332031 0.78125)" xlink:href="#DejaVuSans-46"/>
     <use transform="translate(617.119141 0.78125)" xlink:href="#DejaVuSans-52"/>
     <use transform="translate(680.742188 0.78125)" xlink:href="#DejaVuSans-52"/>
    </g>
   </g>
   <g id="text_13">
    <!-- $C_L=0.94$ -->
    <g transform="translate(369.729404 215.410882)scale(0.14 -0.14)">
     <use transform="translate(0 0.78125)" xlink:href="#DejaVuSans-Oblique-67"/>
     <use transform="translate(69.824219 -15.625)scale(0.7)" xlink:href="#DejaVuSans-Oblique-76"/>
     <use transform="translate(131.040039 0.78125)" xlink:href="#DejaVuSans-61"/>
     <use transform="translate(234.311523 0.78125)" xlink:href="#DejaVuSans-48"/>
     <use transform="translate(297.93457 0.78125)" xlink:href="#DejaVuSans-46"/>
     <use transform="translate(329.72168 0.78125)" xlink:href="#DejaVuSans-57"/>
     <use transform="translate(393.344727 0.78125)" xlink:href="#DejaVuSans-52"/>
    </g>
    <!-- $C_L/C_D=134.00$ -->
    <g transform="translate(369.729404 231.08782)scale(0.14 -0.14)">
     <use transform="translate(0 0.78125)" xlink:href="#DejaVuSans-Oblique-67"/>
     <use transform="translate(69.824219 -15.625)scale(0.7)" xlink:href="#DejaVuSans-Oblique-76"/>
     <use transform="translate(111.557617 0.78125)" xlink:href="#DejaVuSans-47"/>
     <use transform="translate(145.249023 0.78125)" xlink:href="#DejaVuSans-Oblique-67"/>
     <use transform="translate(215.073242 -15.625)scale(0.7)" xlink:href="#DejaVuSans-Oblique-68"/>
     <use transform="translate(291.191406 0.78125)" xlink:href="#DejaVuSans-61"/>
     <use transform="translate(394.462891 0.78125)" xlink:href="#DejaVuSans-49"/>
     <use transform="translate(458.085938 0.78125)" xlink:href="#DejaVuSans-51"/>
     <use transform="translate(521.708984 0.78125)" xlink:href="#DejaVuSans-52"/>
     <use transform="translate(585.332031 0.78125)" xlink:href="#DejaVuSans-46"/>
     <use transform="translate(617.119141 0.78125)" xlink:href="#DejaVuSans-48"/>
     <use transform="translate(680.742188 0.78125)" xlink:href="#DejaVuSans-48"/>
    </g>
   </g>
   <g id="text_14">
    <!-- SVD -->
    <defs>
     <path d="M 53.515625 70.515625 
L 53.515625 60.890625 
Q 47.90625 63.578125 42.921875 64.890625 
Q 37.9375 66.21875 33.296875 66.21875 
Q 25.25 66.21875 20.875 63.09375 
Q 16.5 59.96875 16.5 54.203125 
Q 16.5 49.359375 19.40625 46.890625 
Q 22.3125 44.4375 30.421875 42.921875 
L 36.375 41.703125 
Q 47.40625 39.59375 52.65625 34.296875 
Q 57.90625 29 57.90625 20.125 
Q 57.90625 9.515625 50.796875 4.046875 
Q 43.703125 -1.421875 29.984375 -1.421875 
Q 24.8125 -1.421875 18.96875 -0.25 
Q 13.140625 0.921875 6.890625 3.21875 
L 6.890625 13.375 
Q 12.890625 10.015625 18.65625 8.296875 
Q 24.421875 6.59375 29.984375 6.59375 
Q 38.421875 6.59375 43.015625 9.90625 
Q 47.609375 13.234375 47.609375 19.390625 
Q 47.609375 24.75 44.3125 27.78125 
Q 41.015625 30.8125 33.5 32.328125 
L 27.484375 33.5 
Q 16.453125 35.6875 11.515625 40.375 
Q 6.59375 45.0625 6.59375 53.421875 
Q 6.59375 63.09375 13.40625 68.65625 
Q 20.21875 74.21875 32.171875 74.21875 
Q 37.3125 74.21875 42.625 73.28125 
Q 47.953125 72.359375 53.515625 70.515625 
z
" id="DejaVuSans-83"/>
     <path d="M 28.609375 0 
L 0.78125 72.90625 
L 11.078125 72.90625 
L 34.1875 11.53125 
L 57.328125 72.90625 
L 67.578125 72.90625 
L 39.796875 0 
z
" id="DejaVuSans-86"/>
    </defs>
    <g transform="translate(411.309269 36)scale(0.216 -0.216)">
     <use xlink:href="#DejaVuSans-83"/>
     <use x="63.476562" xlink:href="#DejaVuSans-86"/>
     <use x="131.884766" xlink:href="#DejaVuSans-68"/>
    </g>
   </g>
  </g>
  <g id="axes_4">
   <g id="line2d_12">
    <path clip-path="url(#p1689d06c6d)" d="M 665.40086 379.631812 
L 655.001758 376.621526 
L 647.315465 374.584246 
L 640.41974 372.925573 
L 632.713861 371.276907 
L 624.35935 369.745331 
L 615.531464 368.432761 
L 609.47451 367.727513 
L 603.346079 367.19075 
L 597.203277 366.848029 
L 591.103462 366.720286 
L 585.103486 366.819569 
L 579.259691 367.145298 
L 573.626255 367.680444 
L 568.256089 368.390107 
L 560.803049 369.66958 
L 552.228893 371.465793 
L 544.140066 373.366889 
L 540.873249 374.289146 
L 539.402761 374.874998 
L 538.514898 375.490452 
L 538.292328 375.823022 
L 538.218053 376.178327 
L 538.292328 376.552088 
L 538.514898 376.937172 
L 539.402761 377.734322 
L 540.873249 378.545277 
L 542.912752 379.332911 
L 545.502067 380.055713 
L 548.617156 380.676471 
L 552.228893 381.169082 
L 556.303576 381.522505 
L 560.803049 381.740938 
L 568.256089 381.849905 
L 579.259691 381.693241 
L 591.103462 381.300613 
L 606.415636 380.568286 
L 635.362824 379.052763 
L 645.11622 378.850134 
L 651.39002 378.914692 
L 658.116846 379.20857 
L 664.216152 379.714095 
L 665.40086 379.84128 
L 665.40086 379.84128 
" style="fill:none;stroke:#000000;stroke-linecap:square;stroke-opacity:0.7;stroke-width:1.2;"/>
   </g>
   <g id="line2d_13">
    <path clip-path="url(#p1689d06c6d)" d="M 665.40086 316.650554 
L 660.706161 315.229364 
L 655.001758 313.688171 
L 647.315465 311.883666 
L 640.41974 310.491516 
L 632.713861 309.157656 
L 624.35935 307.952839 
L 615.531464 306.939886 
L 606.415636 306.173243 
L 597.203277 305.69774 
L 588.087449 305.546408 
L 582.158695 305.635816 
L 576.413339 305.880967 
L 570.905052 306.280859 
L 565.68547 306.830765 
L 560.803049 307.519966 
L 556.303576 308.330746 
L 552.228893 309.23683 
L 548.617156 310.204189 
L 544.140066 311.681524 
L 540.873249 313.068764 
L 539.402761 313.890122 
L 538.514898 314.610697 
L 538.218053 315.234995 
L 538.292328 315.51187 
L 538.514898 315.76397 
L 539.402761 316.217463 
L 540.873249 316.642175 
L 544.140066 317.308779 
L 550.362994 318.33573 
L 556.303576 319.143244 
L 563.199173 319.824187 
L 568.256089 320.124864 
L 573.626255 320.258222 
L 579.259691 320.207333 
L 585.103486 319.978071 
L 594.144403 319.365324 
L 624.35935 316.959373 
L 632.713861 316.610546 
L 640.41974 316.480552 
L 649.408258 316.54281 
L 663.553021 316.929625 
L 665.40086 316.985178 
L 665.40086 316.985178 
" style="fill:none;stroke:#000000;stroke-linecap:square;stroke-opacity:0.7;stroke-width:1.2;"/>
   </g>
   <g id="line2d_14">
    <path clip-path="url(#p1689d06c6d)" d="M 665.40086 253.170999 
L 655.001758 250.465891 
L 645.11622 248.096337 
L 635.362824 246.000934 
L 627.205574 244.485266 
L 618.515427 243.159988 
L 612.515578 242.443699 
L 606.415636 241.896606 
L 600.272834 241.539892 
L 594.144403 241.384418 
L 588.087449 241.43016 
L 582.158695 241.66777 
L 576.413339 242.081711 
L 570.905052 242.652314 
L 565.68547 243.359563 
L 560.803049 244.183551 
L 556.303576 245.104741 
L 552.228893 246.10172 
L 548.617156 247.149504 
L 545.502067 248.217463 
L 542.912752 249.269854 
L 540.873249 250.268364 
L 539.402761 251.176044 
L 538.514898 251.962598 
L 538.218053 252.609127 
L 538.292328 252.872427 
L 538.514898 253.090469 
L 539.402761 253.404604 
L 540.873249 253.584396 
L 544.140066 253.683758 
L 558.502694 253.64376 
L 588.087449 253.452626 
L 609.47451 253.369821 
L 629.992658 253.561895 
L 649.408258 253.727382 
L 661.79599 253.600721 
L 665.40086 253.512066 
L 665.40086 253.512066 
" style="fill:none;stroke:#000000;stroke-linecap:square;stroke-opacity:0.7;stroke-width:1.2;"/>
   </g>
   <g id="line2d_15">
    <path clip-path="url(#p1689d06c6d)" d="M 665.40086 189.547951 
L 658.116846 187.799836 
L 649.408258 185.922706 
L 640.41974 184.238358 
L 632.713861 183.026295 
L 624.35935 181.985035 
L 618.515427 181.438562 
L 612.515578 181.038081 
L 606.415636 180.795489 
L 600.272834 180.710095 
L 591.103462 180.844009 
L 582.158695 181.213326 
L 570.905052 181.909512 
L 560.803049 182.731029 
L 554.210655 183.443219 
L 548.617156 184.267758 
L 544.140066 185.18647 
L 540.873249 186.112391 
L 538.885382 186.913431 
L 538.292328 187.316238 
L 538.218053 187.469233 
L 538.292328 187.58628 
L 538.885382 187.717249 
L 540.873249 187.733773 
L 546.995575 187.688814 
L 554.210655 187.908959 
L 582.158695 189.160808 
L 597.203277 189.461185 
L 624.35935 189.974128 
L 645.11622 190.3478 
L 655.001758 190.287915 
L 663.553021 189.998803 
L 665.40086 189.902008 
L 665.40086 189.902008 
" style="fill:none;stroke:#000000;stroke-linecap:square;stroke-opacity:0.7;stroke-width:1.2;"/>
   </g>
   <g id="text_15">
    <!-- $C_L=0.64$ -->
    <g transform="translate(538.218053 398.5467)scale(0.14 -0.14)">
     <use transform="translate(0 0.78125)" xlink:href="#DejaVuSans-Oblique-67"/>
     <use transform="translate(69.824219 -15.625)scale(0.7)" xlink:href="#DejaVuSans-Oblique-76"/>
     <use transform="translate(131.040039 0.78125)" xlink:href="#DejaVuSans-61"/>
     <use transform="translate(234.311523 0.78125)" xlink:href="#DejaVuSans-48"/>
     <use transform="translate(297.93457 0.78125)" xlink:href="#DejaVuSans-46"/>
     <use transform="translate(329.72168 0.78125)" xlink:href="#DejaVuSans-54"/>
     <use transform="translate(393.344727 0.78125)" xlink:href="#DejaVuSans-52"/>
    </g>
    <!-- $C_L/C_D=106.84$ -->
    <g transform="translate(538.218053 414.223637)scale(0.14 -0.14)">
     <use transform="translate(0 0.78125)" xlink:href="#DejaVuSans-Oblique-67"/>
     <use transform="translate(69.824219 -15.625)scale(0.7)" xlink:href="#DejaVuSans-Oblique-76"/>
     <use transform="translate(111.557617 0.78125)" xlink:href="#DejaVuSans-47"/>
     <use transform="translate(145.249023 0.78125)" xlink:href="#DejaVuSans-Oblique-67"/>
     <use transform="translate(215.073242 -15.625)scale(0.7)" xlink:href="#DejaVuSans-Oblique-68"/>
     <use transform="translate(291.191406 0.78125)" xlink:href="#DejaVuSans-61"/>
     <use transform="translate(394.462891 0.78125)" xlink:href="#DejaVuSans-49"/>
     <use transform="translate(458.085938 0.78125)" xlink:href="#DejaVuSans-48"/>
     <use transform="translate(521.708984 0.78125)" xlink:href="#DejaVuSans-54"/>
     <use transform="translate(585.332031 0.78125)" xlink:href="#DejaVuSans-46"/>
     <use transform="translate(614.494141 0.78125)" xlink:href="#DejaVuSans-56"/>
     <use transform="translate(678.117188 0.78125)" xlink:href="#DejaVuSans-52"/>
    </g>
   </g>
   <g id="text_16">
    <!-- $C_L=0.55$ -->
    <g transform="translate(538.218053 334.955297)scale(0.14 -0.14)">
     <use transform="translate(0 0.78125)" xlink:href="#DejaVuSans-Oblique-67"/>
     <use transform="translate(69.824219 -15.625)scale(0.7)" xlink:href="#DejaVuSans-Oblique-76"/>
     <use transform="translate(131.040039 0.78125)" xlink:href="#DejaVuSans-61"/>
     <use transform="translate(234.311523 0.78125)" xlink:href="#DejaVuSans-48"/>
     <use transform="translate(297.93457 0.78125)" xlink:href="#DejaVuSans-46"/>
     <use transform="translate(329.72168 0.78125)" xlink:href="#DejaVuSans-53"/>
     <use transform="translate(393.344727 0.78125)" xlink:href="#DejaVuSans-53"/>
    </g>
    <!-- $C_L/C_D=110.36$ -->
    <g transform="translate(538.218053 350.632234)scale(0.14 -0.14)">
     <use transform="translate(0 0.78125)" xlink:href="#DejaVuSans-Oblique-67"/>
     <use transform="translate(69.824219 -15.625)scale(0.7)" xlink:href="#DejaVuSans-Oblique-76"/>
     <use transform="translate(111.557617 0.78125)" xlink:href="#DejaVuSans-47"/>
     <use transform="translate(145.249023 0.78125)" xlink:href="#DejaVuSans-Oblique-67"/>
     <use transform="translate(215.073242 -15.625)scale(0.7)" xlink:href="#DejaVuSans-Oblique-68"/>
     <use transform="translate(291.191406 0.78125)" xlink:href="#DejaVuSans-61"/>
     <use transform="translate(394.462891 0.78125)" xlink:href="#DejaVuSans-49"/>
     <use transform="translate(458.085938 0.78125)" xlink:href="#DejaVuSans-49"/>
     <use transform="translate(521.708984 0.78125)" xlink:href="#DejaVuSans-48"/>
     <use transform="translate(585.332031 0.78125)" xlink:href="#DejaVuSans-46"/>
     <use transform="translate(617.119141 0.78125)" xlink:href="#DejaVuSans-51"/>
     <use transform="translate(680.742188 0.78125)" xlink:href="#DejaVuSans-54"/>
    </g>
   </g>
   <g id="text_17">
    <!-- $C_L=0.51$ -->
    <g transform="translate(538.218053 271.363894)scale(0.14 -0.14)">
     <use transform="translate(0 0.78125)" xlink:href="#DejaVuSans-Oblique-67"/>
     <use transform="translate(69.824219 -15.625)scale(0.7)" xlink:href="#DejaVuSans-Oblique-76"/>
     <use transform="translate(131.040039 0.78125)" xlink:href="#DejaVuSans-61"/>
     <use transform="translate(234.311523 0.78125)" xlink:href="#DejaVuSans-48"/>
     <use transform="translate(297.93457 0.78125)" xlink:href="#DejaVuSans-46"/>
     <use transform="translate(329.72168 0.78125)" xlink:href="#DejaVuSans-53"/>
     <use transform="translate(393.344727 0.78125)" xlink:href="#DejaVuSans-49"/>
    </g>
    <!-- $C_L/C_D=128.67$ -->
    <g transform="translate(538.218053 287.040831)scale(0.14 -0.14)">
     <use transform="translate(0 0.78125)" xlink:href="#DejaVuSans-Oblique-67"/>
     <use transform="translate(69.824219 -15.625)scale(0.7)" xlink:href="#DejaVuSans-Oblique-76"/>
     <use transform="translate(111.557617 0.78125)" xlink:href="#DejaVuSans-47"/>
     <use transform="translate(145.249023 0.78125)" xlink:href="#DejaVuSans-Oblique-67"/>
     <use transform="translate(215.073242 -15.625)scale(0.7)" xlink:href="#DejaVuSans-Oblique-68"/>
     <use transform="translate(291.191406 0.78125)" xlink:href="#DejaVuSans-61"/>
     <use transform="translate(394.462891 0.78125)" xlink:href="#DejaVuSans-49"/>
     <use transform="translate(458.085938 0.78125)" xlink:href="#DejaVuSans-50"/>
     <use transform="translate(521.708984 0.78125)" xlink:href="#DejaVuSans-56"/>
     <use transform="translate(585.332031 0.78125)" xlink:href="#DejaVuSans-46"/>
     <use transform="translate(617.119141 0.78125)" xlink:href="#DejaVuSans-54"/>
     <use transform="translate(680.742188 0.78125)" xlink:href="#DejaVuSans-55"/>
    </g>
   </g>
   <g id="text_18">
    <!-- $C_L=0.50$ -->
    <g transform="translate(538.218053 207.77249)scale(0.14 -0.14)">
     <use transform="translate(0 0.78125)" xlink:href="#DejaVuSans-Oblique-67"/>
     <use transform="translate(69.824219 -15.625)scale(0.7)" xlink:href="#DejaVuSans-Oblique-76"/>
     <use transform="translate(131.040039 0.78125)" xlink:href="#DejaVuSans-61"/>
     <use transform="translate(234.311523 0.78125)" xlink:href="#DejaVuSans-48"/>
     <use transform="translate(297.93457 0.78125)" xlink:href="#DejaVuSans-46"/>
     <use transform="translate(329.72168 0.78125)" xlink:href="#DejaVuSans-53"/>
     <use transform="translate(393.344727 0.78125)" xlink:href="#DejaVuSans-48"/>
    </g>
    <!-- $C_L/C_D=136.04$ -->
    <g transform="translate(538.218053 223.449428)scale(0.14 -0.14)">
     <use transform="translate(0 0.78125)" xlink:href="#DejaVuSans-Oblique-67"/>
     <use transform="translate(69.824219 -15.625)scale(0.7)" xlink:href="#DejaVuSans-Oblique-76"/>
     <use transform="translate(111.557617 0.78125)" xlink:href="#DejaVuSans-47"/>
     <use transform="translate(145.249023 0.78125)" xlink:href="#DejaVuSans-Oblique-67"/>
     <use transform="translate(215.073242 -15.625)scale(0.7)" xlink:href="#DejaVuSans-Oblique-68"/>
     <use transform="translate(291.191406 0.78125)" xlink:href="#DejaVuSans-61"/>
     <use transform="translate(394.462891 0.78125)" xlink:href="#DejaVuSans-49"/>
     <use transform="translate(458.085938 0.78125)" xlink:href="#DejaVuSans-51"/>
     <use transform="translate(521.708984 0.78125)" xlink:href="#DejaVuSans-54"/>
     <use transform="translate(585.332031 0.78125)" xlink:href="#DejaVuSans-46"/>
     <use transform="translate(617.119141 0.78125)" xlink:href="#DejaVuSans-48"/>
     <use transform="translate(680.742188 0.78125)" xlink:href="#DejaVuSans-52"/>
    </g>
   </g>
   <g id="text_19">
    <!-- FFD -->
    <defs>
     <path d="M 9.8125 72.90625 
L 51.703125 72.90625 
L 51.703125 64.59375 
L 19.671875 64.59375 
L 19.671875 43.109375 
L 48.578125 43.109375 
L 48.578125 34.8125 
L 19.671875 34.8125 
L 19.671875 0 
L 9.8125 0 
z
" id="DejaVuSans-70"/>
    </defs>
    <g transform="translate(581.070082 36)scale(0.216 -0.216)">
     <use xlink:href="#DejaVuSans-70"/>
     <use x="57.519531" xlink:href="#DejaVuSans-70"/>
     <use x="115.039062" xlink:href="#DejaVuSans-68"/>
    </g>
   </g>
  </g>
 </g>
 <defs>
  <clipPath id="pb283a0e405">
   <rect height="478.56" width="139.901087" x="28.038913" y="42"/>
  </clipPath>
  <clipPath id="p88bae6ccb0">
   <rect height="478.56" width="139.901087" x="195.978913" y="42"/>
  </clipPath>
  <clipPath id="pa49789b8f6">
   <rect height="478.56" width="139.901087" x="363.918913" y="42"/>
  </clipPath>
  <clipPath id="p1689d06c6d">
   <rect height="478.56" width="139.901087" x="531.858913" y="42"/>
  </clipPath>
 </defs>
</svg>
